<?xml version="1.0" encoding="utf-8"?>
<svg version="1.1" viewBox="0 0 16 16" xmlns="http://www.w3.org/2000/svg">
  <path d="M 6.5 5.01 L 6.5 5.761 L 12.499 5.761 L 12.499 11.009 L 5 11.009 L 5 11.759 L 13.248 11.759 L 13.248 9.51 L 14 9.51 L 14 7.26 L 13.248 7.26 L 13.248 5.01 L 6.5 5.01 Z M 6.5 6.51 L 6.5 6.847 C 6.5 6.847 6.531 7.476 6.217 8.135 C 6.006 8.577 5.556 8.952 5 9.217 L 5 10.26 L 9.577 10.26 L 9.577 6.51 L 6.5 6.51 Z" fill="#fff" stroke-width=".71227"/>
  <path d="M 2.749 3.5 L 2.749 4.999 L 2 4.999 L 2 6.865 C 2 6.865 1.982 7.325 2.21 7.801 C 2.406 8.21 2.839 8.64 3.529 8.749 L 3.501 8.749 L 3.501 11.749 L 4.25 11.749 L 4.25 8.749 L 4.221 8.749 C 4.91 8.64 5.345 8.21 5.541 7.801 C 5.767 7.325 5.749 6.865 5.749 6.865 L 5.749 4.999 L 5.001 4.999 L 5.001 3.5 L 4.25 3.5 L 4.25 4.999 L 3.501 4.999 L 3.501 3.5 L 2.749 3.5 Z M 2.749 5.749 L 5.001 5.749 L 5.001 6.885 C 5.001 6.885 5.002 7.187 4.864 7.477 C 4.726 7.766 4.521 8.027 3.875 8.027 C 3.229 8.027 3.025 7.766 2.887 7.477 C 2.748 7.187 2.749 6.885 2.749 6.885 L 2.749 6.879 L 2.749 5.749 Z" fill="#fff" stroke-width=".71231"/>
</svg>