<?xml version="1.0" encoding="utf-8"?>
<svg version="1.1" id="Layer_1" x="0px" y="0px" viewBox="0 0 16 16" style="enable-background:new 0 0 16 16;" xmlns="http://www.w3.org/2000/svg">
  <style type="text/css">
	.st0{fill:#FFFFFF;}
	.st1{fill:#00A651;}
</style>
  <path class="st0" d="M 6.473 5.027 L 6.473 5.791 L 12.473 5.791 L 12.473 11.027 L 4.946 11.027 L 4.946 11.791 L 13.237 11.791 L 13.237 9.5 L 14 9.5 L 14 7.318 L 13.237 7.318 L 13.237 5.027 L 6.473 5.027 Z M 6.473 6.554 L 6.473 6.882 C 6.473 6.882 6.473 7.537 6.146 8.191 C 5.927 8.627 5.491 9.063 4.946 9.282 L 4.946 10.373 L 11.709 10.373 L 11.709 6.554 L 6.473 6.554 Z"/>
  <path class="st1" d="M 2.763 3.5 L 2.763 5.027 L 2 5.027 L 2 6.882 C 2 6.882 2 7.318 2.218 7.863 C 2.327 8.191 2.763 8.627 3.527 8.737 L 3.527 11.791 L 4.291 11.791 L 4.291 8.737 C 4.946 8.627 5.382 8.191 5.6 7.754 C 5.818 7.318 5.818 6.773 5.818 6.773 L 5.818 5.027 L 4.946 5.027 L 4.946 3.5 L 4.182 3.5 L 4.182 5.027 L 3.527 5.027 L 3.527 3.5 L 2.763 3.5 Z M 2.763 5.791 L 5.054 5.791 L 5.054 6.882 C 5.054 6.882 5.054 7.209 4.946 7.427 C 4.727 7.754 4.509 8.082 3.854 8.082 C 3.2 8.082 2.982 7.863 2.873 7.537 C 2.763 7.209 2.763 6.882 2.763 6.882 L 2.763 5.791 Z"/>
</svg>