<?xml version="1.0" encoding="utf-8"?>
<svg version="1.1" viewBox="0 0 16 16" xmlns="http://www.w3.org/2000/svg">
  <path d="M 6.5 5.01 L 6.5 5.76 L 12.5 5.76 L 12.5 11.01 L 5 11.01 L 5 11.76 L 13.249 11.76 L 13.249 9.51 L 14 9.51 L 14 7.26 L 13.249 7.26 L 13.249 5.01 L 6.5 5.01 Z M 6.5 6.51 L 6.5 6.847 C 6.5 6.847 6.532 7.476 6.216 8.135 C 6.006 8.578 5.556 8.952 5 9.216 L 5 10.26 L 7.405 10.26 L 7.405 6.51 L 6.5 6.51 Z" fill="#fff" stroke-width=".71227"/>
  <path d="M 2.75 3.5 L 2.75 5 L 2 5 L 2 6.865 C 2 6.865 1.983 7.326 2.209 7.801 C 2.405 8.209 2.839 8.64 3.529 8.749 L 3.5 8.749 L 3.5 11.749 L 4.249 11.749 L 4.249 8.749 L 4.221 8.749 C 4.911 8.64 5.345 8.209 5.541 7.801 C 5.767 7.326 5.749 6.865 5.749 6.865 L 5.749 5 L 5 5 L 5 3.5 L 4.249 3.5 L 4.249 5 L 3.5 5 L 3.5 3.5 L 2.75 3.5 Z M 2.75 5.749 L 5 5.749 L 5 6.885 C 5 6.885 5.002 7.188 4.864 7.477 C 4.726 7.766 4.521 8.028 3.875 8.028 C 3.229 8.028 3.024 7.766 2.886 7.477 C 2.748 7.188 2.75 6.885 2.75 6.885 L 2.75 6.878 L 2.75 5.749 Z" fill="#fff" stroke-width=".71231"/>
</svg>