<?xml version="1.0" encoding="utf-8"?>
<svg viewBox="0 0 16 16" xmlns="http://www.w3.org/2000/svg" width="22px" height="22px">
  <path d="M 8 3.22 C 7.539 3.22 7.084 3.265 6.634 3.357 C 6.182 3.449 5.747 3.584 5.324 3.76 C 4.901 3.938 4.497 4.155 4.113 4.412 C 3.729 4.667 3.374 4.959 3.049 5.288 C 2.887 5.451 2.742 5.621 2.615 5.798 C 2.486 5.974 2.349 6.149 2.204 6.32 C 2.153 6.379 2.104 6.424 2.057 6.455 C 2.01 6.485 1.946 6.5 1.865 6.5 C 1.75 6.5 1.652 6.46 1.573 6.38 C 1.494 6.302 1.455 6.205 1.455 6.089 C 1.455 6.008 1.479 5.931 1.526 5.858 C 1.862 5.321 2.272 4.838 2.752 4.412 C 3.233 3.984 3.757 3.621 4.325 3.323 C 4.892 3.023 5.488 2.795 6.115 2.637 C 6.739 2.48 7.369 2.4 8 2.4 C 8.628 2.4 9.256 2.48 9.884 2.637 C 10.51 2.795 11.108 3.023 11.674 3.323 C 12.24 3.621 12.763 3.984 13.243 4.412 C 13.724 4.838 14.134 5.321 14.476 5.858 C 14.522 5.931 14.546 6.008 14.546 6.089 C 14.546 6.205 14.507 6.302 14.428 6.38 C 14.349 6.46 14.252 6.5 14.136 6.5 C 14.063 6.5 14 6.483 13.947 6.451 C 13.895 6.419 13.844 6.375 13.797 6.32 C 13.751 6.26 13.706 6.199 13.666 6.137 C 13.625 6.075 13.582 6.014 13.535 5.954 C 13.444 5.835 13.351 5.721 13.253 5.612 C 13.154 5.504 13.054 5.396 12.952 5.288 C 12.623 4.959 12.268 4.667 11.885 4.412 C 11.503 4.155 11.102 3.938 10.681 3.76 C 10.261 3.584 9.824 3.449 9.371 3.357 C 8.918 3.265 8.462 3.22 8 3.22 Z M 8 5.679 C 7.684 5.679 7.37 5.713 7.059 5.782 C 6.747 5.85 6.448 5.949 6.16 6.08 C 5.871 6.209 5.597 6.369 5.34 6.557 C 5.081 6.745 4.847 6.955 4.638 7.19 C 4.535 7.306 4.443 7.428 4.36 7.556 C 4.277 7.684 4.188 7.81 4.093 7.934 C 4.043 7.997 3.992 8.048 3.944 8.084 C 3.894 8.121 3.827 8.139 3.742 8.139 C 3.631 8.139 3.534 8.098 3.453 8.017 C 3.372 7.936 3.332 7.84 3.332 7.729 C 3.332 7.661 3.348 7.592 3.382 7.523 C 3.6 7.117 3.878 6.752 4.216 6.422 C 4.552 6.093 4.927 5.813 5.336 5.583 C 5.747 5.353 6.179 5.174 6.634 5.048 C 7.088 4.922 7.544 4.859 8 4.859 C 8.453 4.859 8.908 4.922 9.365 5.048 C 9.822 5.174 10.255 5.353 10.665 5.583 C 11.075 5.813 11.449 6.093 11.786 6.422 C 12.123 6.752 12.4 7.117 12.619 7.523 C 12.652 7.592 12.669 7.661 12.669 7.729 C 12.669 7.84 12.629 7.936 12.548 8.017 C 12.467 8.098 12.371 8.139 12.26 8.139 C 12.174 8.139 12.107 8.121 12.058 8.084 C 12.009 8.048 11.959 7.997 11.908 7.934 C 11.813 7.81 11.725 7.684 11.642 7.556 C 11.558 7.428 11.466 7.306 11.363 7.19 C 11.154 6.955 10.92 6.745 10.661 6.557 C 10.404 6.369 10.13 6.209 9.842 6.08 C 9.554 5.949 9.254 5.85 8.942 5.782 C 8.63 5.713 8.317 5.679 8 5.679 Z M 8 8.139 C 7.762 8.139 7.534 8.171 7.315 8.238 C 7.097 8.304 6.887 8.399 6.681 8.522 C 6.566 8.596 6.467 8.669 6.383 8.741 C 6.301 8.813 6.225 8.89 6.16 8.971 C 6.094 9.052 6.031 9.139 5.971 9.23 C 5.911 9.322 5.846 9.426 5.779 9.542 C 5.736 9.614 5.684 9.671 5.624 9.714 C 5.565 9.758 5.492 9.779 5.407 9.779 C 5.291 9.779 5.195 9.737 5.116 9.656 C 5.036 9.575 4.997 9.478 4.997 9.362 C 4.997 9.307 5.009 9.249 5.036 9.188 C 5.159 8.915 5.327 8.664 5.541 8.434 C 5.755 8.203 5.993 8.006 6.259 7.841 C 6.523 7.676 6.806 7.548 7.104 7.457 C 7.403 7.365 7.702 7.319 8 7.319 C 8.309 7.319 8.611 7.364 8.911 7.454 C 9.209 7.544 9.49 7.67 9.752 7.832 C 10.015 7.994 10.251 8.189 10.46 8.42 C 10.67 8.651 10.838 8.907 10.966 9.188 C 10.992 9.249 11.004 9.307 11.004 9.362 C 11.004 9.473 10.964 9.57 10.883 9.653 C 10.802 9.736 10.706 9.779 10.595 9.779 C 10.509 9.779 10.436 9.758 10.377 9.714 C 10.317 9.671 10.265 9.614 10.222 9.542 C 10.155 9.426 10.091 9.322 10.031 9.23 C 9.97 9.139 9.907 9.052 9.839 8.971 C 9.77 8.89 9.695 8.813 9.612 8.741 C 9.528 8.669 9.429 8.596 9.313 8.522 C 9.113 8.399 8.903 8.304 8.683 8.238 C 8.463 8.171 8.236 8.139 8 8.139 Z M 6.977 10.598 C 6.977 10.456 7.004 10.325 7.059 10.201 C 7.115 10.077 7.188 9.969 7.279 9.878 C 7.373 9.786 7.48 9.713 7.603 9.656 C 7.727 9.601 7.86 9.573 8 9.573 C 8.141 9.573 8.274 9.601 8.398 9.656 C 8.521 9.713 8.629 9.786 8.722 9.878 C 8.813 9.969 8.887 10.077 8.942 10.201 C 8.998 10.325 9.025 10.456 9.025 10.598 C 9.025 10.739 8.998 10.872 8.942 10.995 C 8.887 11.119 8.813 11.227 8.722 11.318 C 8.629 11.41 8.521 11.484 8.398 11.54 C 8.274 11.595 8.141 11.623 8 11.623 C 7.86 11.623 7.727 11.595 7.603 11.54 C 7.48 11.484 7.373 11.41 7.279 11.318 C 7.188 11.227 7.115 11.119 7.059 10.995 C 7.004 10.872 6.977 10.739 6.977 10.598 Z" style="fill: rgb(255, 255, 255);"/>
</svg>