<?xml version="1.0" encoding="utf-8"?>
<svg fill="#000000" width="16px" height="16px" viewBox="0 0 16 16" xmlns="http://www.w3.org/2000/svg">
  <path d="M 6.5 2 C 5.953 2 5.5 2.453 5.5 3.001 L 5.5 9 C 5.5 9.547 5.953 10 6.5 10 L 9.5 10 C 10.047 10 10.5 9.547 10.5 9 L 10.5 3.001 C 10.5 2.453 10.047 2 9.5 2 L 6.5 2 Z M 3.5 7 L 3.5 9 C 3.5 10.651 4.849 12.001 6.5 12.001 L 7.5 12.001 L 7.5 13 L 5.5 13 L 5.5 14 L 10.5 14 L 10.5 13 L 8.5 13 L 8.5 12.001 L 9.5 12.001 C 11.151 12.001 12.5 10.651 12.5 9 L 12.5 7 L 11.5 7 L 11.5 9 C 11.5 10.11 10.609 11 9.5 11 L 6.5 11 C 5.391 11 4.501 10.11 4.501 9 L 4.501 7 L 3.5 7 Z" style="fill: rgb(255, 255, 255); fill-opacity: 0.33;"/>
</svg>