<?xml version="1.0" encoding="utf-8"?>
<svg fill="#000000" width="16px" height="16px" viewBox="0 0 16 16" xmlns="http://www.w3.org/2000/svg">
  <path d="M 6 0 C 5.271 0 4.667 0.604 4.667 1.334 L 4.667 9.333 C 4.667 10.063 5.271 10.667 6 10.667 L 10 10.667 C 10.729 10.667 11.333 10.063 11.333 9.333 L 11.333 1.334 C 11.333 0.604 10.729 0 10 0 L 6 0 Z M 2 6.667 L 2 9.333 C 2 11.534 3.799 13.334 6 13.334 L 7.333 13.334 L 7.333 14.667 L 4.667 14.667 L 4.667 16 L 11.333 16 L 11.333 14.667 L 8.667 14.667 L 8.667 13.334 L 10 13.334 C 12.201 13.334 14 11.534 14 9.333 L 14 6.667 L 12.667 6.667 L 12.667 9.333 C 12.667 10.813 11.479 12 10 12 L 6 12 C 4.521 12 3.334 10.813 3.334 9.333 L 3.334 6.667 L 2 6.667 Z" style="fill: rgb(255, 255, 255); fill-opacity: 0.33;"/>
</svg>