<?xml version="1.0" encoding="utf-8"?>
<svg viewBox="0 0 16 16" xmlns="http://www.w3.org/2000/svg" width="22px" height="22px">
  <path d="M 1.455 5.868 C 1.455 5.787 1.479 5.709 1.526 5.637 C 1.862 5.099 2.271 4.618 2.751 4.191 C 3.23 3.765 3.755 3.402 4.322 3.103 C 4.889 2.804 5.485 2.577 6.109 2.418 C 6.735 2.261 7.364 2.182 7.994 2.182 C 8.626 2.182 9.254 2.261 9.878 2.418 C 10.504 2.577 11.099 2.804 11.664 3.103 C 12.229 3.402 12.751 3.765 13.232 4.191 C 13.711 4.618 14.122 5.099 14.463 5.637 C 14.51 5.709 14.534 5.787 14.534 5.868 C 14.534 5.979 14.493 6.075 14.412 6.156 C 14.331 6.237 14.234 6.277 14.124 6.277 C 14.039 6.277 13.973 6.263 13.928 6.232 C 13.884 6.203 13.836 6.158 13.784 6.098 C 13.644 5.927 13.512 5.756 13.388 5.583 C 13.264 5.41 13.124 5.244 12.965 5.087 C 12.638 4.755 12.281 4.458 11.896 4.197 C 11.513 3.937 11.111 3.719 10.688 3.542 C 10.265 3.364 9.829 3.231 9.376 3.138 C 8.924 3.047 8.464 3.001 7.994 3.001 C 7.526 3.001 7.064 3.047 6.612 3.138 C 6.16 3.231 5.722 3.364 5.3 3.542 C 4.878 3.719 4.476 3.937 4.094 4.197 C 3.713 4.458 3.355 4.755 3.022 5.087 C 2.921 5.189 2.822 5.295 2.725 5.403 C 2.63 5.512 2.538 5.627 2.453 5.746 C 2.41 5.806 2.37 5.865 2.331 5.925 C 2.293 5.985 2.25 6.042 2.203 6.098 C 2.157 6.153 2.106 6.197 2.054 6.229 C 2 6.26 1.937 6.277 1.865 6.277 C 1.753 6.277 1.658 6.237 1.577 6.156 C 1.496 6.075 1.455 5.979 1.455 5.868 Z M 3.329 7.506 C 3.329 7.437 3.346 7.37 3.381 7.301 C 3.598 6.891 3.876 6.522 4.212 6.194 C 4.55 5.865 4.921 5.585 5.33 5.356 C 5.737 5.125 6.169 4.948 6.626 4.825 C 7.081 4.701 7.538 4.639 7.994 4.639 C 8.434 4.639 8.864 4.692 9.286 4.799 C 9.709 4.906 10.114 5.061 10.503 5.266 C 10.015 5.304 9.549 5.413 9.101 5.592 C 8.735 5.503 8.366 5.458 7.994 5.458 C 7.674 5.458 7.358 5.493 7.048 5.56 C 6.736 5.628 6.436 5.728 6.145 5.859 C 5.855 5.988 5.582 6.147 5.323 6.335 C 5.065 6.522 4.831 6.735 4.622 6.975 C 4.52 7.089 4.43 7.212 4.351 7.339 C 4.271 7.466 4.185 7.591 4.091 7.71 C 4.039 7.775 3.991 7.824 3.944 7.86 C 3.897 7.897 3.829 7.915 3.74 7.915 C 3.629 7.915 3.533 7.875 3.452 7.794 C 3.371 7.713 3.329 7.617 3.329 7.506 Z M 4.993 9.137 C 4.993 9.077 5.006 9.022 5.031 8.97 C 5.121 8.766 5.235 8.573 5.375 8.394 C 5.513 8.216 5.668 8.051 5.842 7.902 C 6.014 7.753 6.2 7.622 6.401 7.509 C 6.602 7.395 6.806 7.308 7.016 7.244 C 6.738 7.635 6.524 8.063 6.376 8.523 C 6.243 8.643 6.133 8.767 6.043 8.897 C 5.954 9.027 5.864 9.167 5.774 9.316 C 5.731 9.389 5.681 9.446 5.621 9.489 C 5.56 9.532 5.488 9.553 5.403 9.553 C 5.291 9.553 5.196 9.512 5.115 9.428 C 5.034 9.345 4.993 9.248 4.993 9.137 Z" style="fill: rgb(255, 255, 255);"/>
  <path style="fill: rgb(255, 0, 0);" d="M 7.175 9.963 C 7.175 9.455 7.273 8.977 7.466 8.529 C 7.661 8.082 7.924 7.691 8.257 7.358 C 8.589 7.025 8.979 6.762 9.428 6.569 C 9.875 6.374 10.353 6.277 10.861 6.277 C 11.198 6.277 11.523 6.321 11.837 6.408 C 12.15 6.495 12.443 6.619 12.715 6.78 C 12.989 6.939 13.239 7.132 13.465 7.358 C 13.691 7.584 13.884 7.834 14.044 8.106 C 14.204 8.38 14.328 8.673 14.415 8.987 C 14.503 9.3 14.546 9.625 14.546 9.963 C 14.546 10.47 14.449 10.948 14.255 11.396 C 14.061 11.844 13.798 12.234 13.465 12.567 C 13.133 12.9 12.742 13.163 12.294 13.357 C 11.846 13.55 11.369 13.648 10.861 13.648 C 10.348 13.648 9.869 13.552 9.421 13.36 C 8.974 13.168 8.583 12.906 8.25 12.573 C 7.917 12.24 7.655 11.849 7.463 11.403 C 7.271 10.954 7.175 10.475 7.175 9.963 Z M 9.223 12.042 C 9.347 12.042 9.452 12 9.536 11.914 L 10.861 10.584 L 12.184 11.914 C 12.271 12 12.375 12.042 12.499 12.042 C 12.623 12.042 12.727 12 12.812 11.914 C 12.898 11.829 12.94 11.723 12.94 11.601 C 12.94 11.477 12.898 11.372 12.812 11.287 L 11.481 9.963 L 12.812 8.639 C 12.898 8.553 12.94 8.447 12.94 8.325 C 12.94 8.201 12.898 8.096 12.812 8.011 C 12.727 7.925 12.623 7.884 12.499 7.884 C 12.375 7.884 12.271 7.925 12.184 8.011 L 10.861 9.342 L 9.536 8.011 C 9.452 7.925 9.347 7.884 9.223 7.884 C 9.098 7.884 8.995 7.925 8.908 8.011 C 8.824 8.096 8.781 8.201 8.781 8.325 C 8.781 8.384 8.792 8.442 8.816 8.497 C 8.84 8.553 8.871 8.6 8.908 8.639 L 10.24 9.963 L 8.908 11.287 C 8.824 11.372 8.781 11.477 8.781 11.601 C 8.781 11.723 8.824 11.829 8.908 11.914 C 8.995 12 9.098 12.042 9.223 12.042 Z"/>
</svg>