<?xml version="1.0" encoding="utf-8"?>
<svg xmlns="http://www.w3.org/2000/svg" viewBox="0 0 16 16">
  <path d="M 7.922 16 C 7.193 15.995 6.491 15.896 5.816 15.703 C 5.142 15.51 4.512 15.238 3.926 14.887 C 3.34 14.535 2.805 14.116 2.32 13.629 C 1.836 13.142 1.422 12.603 1.078 12.012 C 0.734 11.421 0.469 10.786 0.281 10.109 C 0.094 9.432 0 8.729 0 8 C 0 7.266 0.095 6.557 0.285 5.875 C 0.475 5.193 0.745 4.556 1.094 3.965 C 1.443 3.374 1.861 2.835 2.348 2.348 C 2.835 1.861 3.374 1.443 3.965 1.094 C 4.556 0.745 5.193 0.475 5.875 0.285 C 6.557 0.095 7.266 0 8 0 C 8.724 0 9.424 0.095 10.102 0.285 C 10.779 0.475 11.413 0.742 12.004 1.086 C 12.595 1.43 13.135 1.842 13.625 2.324 C 14.115 2.806 14.534 3.34 14.883 3.926 C 15.232 4.512 15.504 5.142 15.699 5.816 C 15.895 6.491 15.995 7.193 16 7.922 C 15.839 7.724 15.668 7.538 15.488 7.363 C 15.309 7.189 15.115 7.026 14.906 6.875 C 14.88 6.724 14.85 6.577 14.816 6.434 C 14.783 6.29 14.745 6.146 14.703 6 C 14.536 6 14.367 6.001 14.195 6.004 C 14.023 6.007 13.854 6.008 13.688 6.008 L 13.434 6.008 C 13.353 6.008 13.268 6.005 13.18 6 C 13.154 6 13.117 5.995 13.07 5.984 C 13.023 5.974 12.973 5.961 12.918 5.945 C 12.863 5.93 12.81 5.914 12.758 5.898 C 12.706 5.883 12.664 5.87 12.633 5.859 C 12.445 5.823 12.258 5.796 12.07 5.777 C 11.883 5.759 11.693 5.75 11.5 5.75 L 11.492 5.75 C 11.383 5.75 11.273 5.754 11.164 5.762 C 11.055 5.77 10.945 5.779 10.836 5.789 C 10.602 5.815 10.372 5.854 10.148 5.906 C 10.091 5.922 10.036 5.941 9.984 5.965 C 9.932 5.988 9.878 6 9.82 6 L 5.133 6 C 5.091 6.333 5.059 6.665 5.035 6.996 C 5.012 7.327 5 7.661 5 8 C 5 8.339 5.012 8.673 5.035 9.004 C 5.059 9.335 5.091 9.667 5.133 10 L 5.945 10 C 5.898 10.167 5.862 10.333 5.836 10.5 C 5.81 10.667 5.789 10.833 5.773 11 L 5.305 11 C 5.362 11.266 5.427 11.527 5.5 11.785 C 5.573 12.043 5.659 12.297 5.758 12.547 C 5.789 12.625 5.823 12.703 5.859 12.781 C 5.896 12.859 5.927 12.938 5.953 13.016 C 5.984 13.099 6.012 13.182 6.035 13.266 C 6.059 13.349 6.086 13.435 6.117 13.523 C 6.206 13.773 6.314 14.013 6.441 14.242 C 6.569 14.471 6.711 14.693 6.867 14.906 L 6.875 14.906 C 7.026 15.115 7.189 15.309 7.363 15.488 C 7.538 15.668 7.724 15.839 7.922 16 Z M 10.695 5 C 10.654 4.807 10.594 4.574 10.516 4.301 C 10.438 4.027 10.341 3.743 10.227 3.449 C 10.112 3.155 9.979 2.861 9.828 2.566 C 9.677 2.272 9.508 2.009 9.32 1.777 C 9.133 1.546 8.93 1.358 8.711 1.215 C 8.492 1.072 8.255 1 8 1 C 7.745 1 7.508 1.072 7.289 1.215 C 7.07 1.358 6.867 1.546 6.68 1.777 C 6.492 2.009 6.323 2.272 6.172 2.566 C 6.021 2.861 5.888 3.155 5.773 3.449 C 5.659 3.743 5.563 4.027 5.484 4.301 C 5.406 4.574 5.346 4.807 5.305 5 L 10.695 5 Z M 1.68 5 L 4.281 5 C 4.344 4.693 4.418 4.379 4.504 4.059 C 4.59 3.738 4.691 3.422 4.809 3.109 C 4.926 2.797 5.06 2.495 5.211 2.203 C 5.362 1.911 5.534 1.638 5.727 1.383 C 5.284 1.534 4.862 1.728 4.461 1.965 C 4.06 2.202 3.686 2.475 3.34 2.785 C 2.993 3.095 2.68 3.436 2.398 3.809 C 2.117 4.181 1.878 4.578 1.68 5 Z M 14.32 5 C 14.117 4.573 13.875 4.173 13.594 3.801 C 13.313 3.428 13 3.089 12.656 2.781 C 12.313 2.474 11.94 2.203 11.539 1.969 C 11.138 1.734 10.716 1.539 10.273 1.383 C 10.466 1.638 10.638 1.911 10.789 2.203 C 10.94 2.495 11.074 2.797 11.191 3.109 C 11.309 3.422 11.41 3.738 11.496 4.059 C 11.582 4.379 11.656 4.693 11.719 5 L 14.32 5 Z M 4.117 10 C 4.039 9.339 4 8.672 4 8 C 4 7.661 4.009 7.327 4.027 6.996 C 4.046 6.665 4.078 6.333 4.125 6 L 1.289 6 C 1.096 6.641 1 7.307 1 8 C 1 8.693 1.096 9.359 1.289 10 L 4.117 10 Z M 1.68 11 C 1.878 11.422 2.117 11.819 2.398 12.191 C 2.68 12.564 2.992 12.905 3.336 13.215 C 3.68 13.525 4.052 13.798 4.453 14.035 C 4.854 14.272 5.276 14.466 5.719 14.617 C 5.531 14.357 5.362 14.081 5.211 13.789 C 5.06 13.497 4.926 13.197 4.809 12.887 C 4.691 12.577 4.59 12.263 4.504 11.945 C 4.418 11.628 4.344 11.313 4.281 11 L 1.68 11 Z" style="fill: rgb(255, 255, 255);"/>
  <path d="M 6.996 11.499 C 6.996 11.084 7.051 10.685 7.154 10.302 C 7.26 9.921 7.411 9.562 7.609 9.227 C 7.803 8.893 8.035 8.591 8.311 8.316 C 8.585 8.04 8.888 7.808 9.223 7.613 C 9.557 7.416 9.916 7.265 10.298 7.161 C 10.681 7.055 11.079 7 11.497 7 C 11.908 7 12.305 7.055 12.687 7.162 C 13.07 7.27 13.429 7.421 13.763 7.618 C 14.098 7.812 14.4 8.048 14.676 8.32 C 14.948 8.596 15.184 8.898 15.378 9.233 C 15.575 9.567 15.726 9.926 15.834 10.309 C 15.941 10.691 15.996 11.088 15.996 11.499 C 15.996 11.917 15.941 12.315 15.835 12.698 C 15.731 13.08 15.58 13.439 15.383 13.773 C 15.188 14.108 14.956 14.411 14.68 14.685 C 14.405 14.961 14.103 15.193 13.769 15.389 C 13.434 15.585 13.075 15.736 12.694 15.842 C 12.311 15.945 11.912 16 11.497 16 C 11.079 16 10.681 15.945 10.298 15.842 C 9.911 15.736 9.553 15.585 9.221 15.389 C 8.888 15.193 8.585 14.961 8.311 14.685 C 8.035 14.411 7.803 14.111 7.609 13.775 C 7.411 13.443 7.26 13.085 7.154 12.698 C 7.051 12.315 6.996 11.917 6.996 11.499 Z M 15.395 11.499 C 15.395 11.142 15.349 10.795 15.256 10.461 C 15.165 10.13 15.032 9.819 14.863 9.529 C 14.694 9.242 14.49 8.979 14.253 8.743 C 14.017 8.506 13.754 8.302 13.467 8.133 C 13.177 7.964 12.867 7.831 12.535 7.74 C 12.201 7.647 11.854 7.601 11.497 7.601 C 11.136 7.601 10.79 7.647 10.456 7.74 C 10.125 7.831 9.814 7.964 9.525 8.133 C 9.237 8.302 8.973 8.506 8.737 8.743 C 8.501 8.979 8.298 9.242 8.129 9.529 C 7.959 9.819 7.827 10.13 7.733 10.461 C 7.642 10.795 7.597 11.142 7.597 11.499 C 7.597 11.86 7.642 12.206 7.733 12.54 C 7.827 12.871 7.958 13.182 8.127 13.471 C 8.295 13.759 8.497 14.023 8.734 14.262 C 8.973 14.499 9.237 14.701 9.525 14.869 C 9.814 15.038 10.125 15.169 10.456 15.263 C 10.79 15.354 11.136 15.399 11.497 15.399 C 11.854 15.399 12.201 15.354 12.535 15.263 C 12.867 15.169 13.177 15.038 13.467 14.869 C 13.754 14.701 14.018 14.499 14.255 14.262 C 14.495 14.023 14.695 13.759 14.866 13.471 C 15.034 13.182 15.165 12.871 15.256 12.54 C 15.349 12.206 15.395 11.86 15.395 11.499 Z" style="fill: rgb(255, 255, 255);"/>
  <path d="M 9.397 11.499 C 9.397 11.422 9.424 11.348 9.486 11.29 C 9.545 11.23 9.615 11.201 9.696 11.201 C 9.777 11.201 9.846 11.23 9.907 11.29 L 10.895 12.275 L 13.085 10.091 C 13.145 10.03 13.215 9.999 13.296 9.999 C 13.374 9.999 13.447 10.03 13.507 10.091 C 13.565 10.15 13.594 10.219 13.594 10.302 C 13.594 10.383 13.565 10.453 13.507 10.512 L 11.105 12.911 C 11.048 12.971 10.978 13 10.895 13 C 10.813 13 10.744 12.971 10.683 12.911 L 9.486 11.711 C 9.424 11.652 9.397 11.582 9.397 11.499 Z" style="fill: rgb(77, 255, 0);"/>
</svg>