<?xml version="1.0" encoding="utf-8"?>
<svg width="24" height="24" version="1.1" xmlns="http://www.w3.org/2000/svg">
  <defs>
    <style id="current-color-scheme" type="text/css">
   .ColorScheme-Text { color:#eeeeec; } .ColorScheme-Highlight { color:#367bf0; } .ColorScheme-NeutralText { color:#ffcc44; } .ColorScheme-PositiveText { color:#3db47e; } .ColorScheme-NegativeText { color:#dd4747; }
  </style>
  </defs>
  <path d="M 5 7 L 5 11.924 L 6.641 11.924 L 6.641 17.668 L 7.461 17.668 L 7.461 15.206 L 11.565 15.206 L 11.565 16.847 L 9.103 16.847 L 9.103 17.668 L 14.847 17.668 L 14.847 16.847 L 12.385 16.847 L 12.385 15.206 L 18.129 15.206 L 18.129 7 L 9.102 7 L 5 7 Z M 5.82 7.821 L 6.641 7.821 L 6.641 8.641 L 5.82 8.641 L 5.82 7.821 Z M 7.461 7.821 L 8.282 7.821 L 8.282 8.641 L 7.461 8.641 L 7.461 7.821 Z M 9.103 7.821 L 17.309 7.821 L 17.309 14.386 L 7.461 14.386 L 7.461 11.924 L 9.103 11.924 L 9.103 8.641 L 9.103 7.821 Z M 5.82 9.462 L 6.641 9.462 L 6.641 11.103 L 5.82 11.103 L 5.82 9.462 Z M 7.462 9.462 L 8.282 9.462 L 8.282 11.103 L 7.462 11.103 L 7.462 9.462 Z" stroke-width="1.2309" style="fill: rgb(238, 238, 236); transform-box: fill-box; transform-origin: 50% 50%;"/>
  <g transform="matrix(0.666667, 0, 0, 0.666667, -97.666718, -378.240173)">
    <path style="fill:#eeeeec" d="m169 585.36c-1.108 0-2 0.91085-2 2.0312v0.96875h-1v4h6v-4h-1v-0.96875c0-1.1199-0.892-2.0312-2-2.0312zm0 1c0.554 0 1 0.4424 1 1v1h-2v-1c0-0.5576 0.446-1 1-1z"/>
  </g>
</svg>