<?xml version="1.0" encoding="utf-8"?>
<svg version="1.1" viewBox="0 0 16 16" xmlns="http://www.w3.org/2000/svg">
  <g transform="matrix(0.625662, 0.625662, -0.625662, 0.625662, 8.048633, -5.319266)" fill="#fff" shape-rendering="auto">
    <path d="m13.494 12.113c-0.8225 0-1.5 0.6775-1.5 1.5s0.6775 1.5 1.5 1.5c0.8225 0 1.5-0.6775 1.5-1.5s-0.6775-1.5-1.5-1.5z" color="#000000" color-rendering="auto" dominant-baseline="auto" image-rendering="auto" opacity=".3" solid-color="#000000" style="font-feature-settings:normal;font-variant-alternates:normal;font-variant-caps:normal;font-variant-ligatures:normal;font-variant-numeric:normal;font-variant-position:normal;isolation:auto;mix-blend-mode:normal;shape-padding:0;text-decoration-color:#000000;text-decoration-line:none;text-decoration-style:solid;text-indent:0;text-orientation:mixed;text-transform:none;white-space:normal"/>
    <path d="m9.9316 14.941c0-2.753 2.2216-4.9746 4.9746-4.9746v-0.89453c-3.2362 1e-7 -5.8691 2.633-5.8691 5.8691z" color="#000000" color-rendering="auto" dominant-baseline="auto" image-rendering="auto" opacity=".3" solid-color="#000000" style="font-feature-settings:normal;font-variant-alternates:normal;font-variant-caps:normal;font-variant-ligatures:normal;font-variant-numeric:normal;font-variant-position:normal;isolation:auto;mix-blend-mode:normal;shape-padding:0;text-decoration-color:#000000;text-decoration-line:none;text-decoration-style:solid;text-indent:0;text-orientation:mixed;text-transform:none;white-space:normal"/>
    <path d="m6.9102 14.941c0-4.421 3.5751-7.9941 7.9961-7.9941v-0.89453c-4.9042 1e-7 -8.8906 3.9845-8.8906 8.8887z" color="#000000" color-rendering="auto" dominant-baseline="auto" image-rendering="auto" opacity=".3" solid-color="#000000" style="font-feature-settings:normal;font-variant-alternates:normal;font-variant-caps:normal;font-variant-ligatures:normal;font-variant-numeric:normal;font-variant-position:normal;isolation:auto;mix-blend-mode:normal;shape-padding:0;text-decoration-color:#000000;text-decoration-line:none;text-decoration-style:solid;text-indent:0;text-orientation:mixed;text-transform:none;white-space:normal"/>
    <path d="m3.9141 14.941c0-6.0757 4.9164-10.99 10.992-10.99v-0.89453c-6.559 2e-7 -11.887 5.3258-11.887 11.885z" color="#000000" color-rendering="auto" dominant-baseline="auto" image-rendering="auto" opacity=".3" solid-color="#000000" style="font-feature-settings:normal;font-variant-alternates:normal;font-variant-caps:normal;font-variant-ligatures:normal;font-variant-numeric:normal;font-variant-position:normal;isolation:auto;mix-blend-mode:normal;shape-padding:0;text-decoration-color:#000000;text-decoration-line:none;text-decoration-style:solid;text-indent:0;text-orientation:mixed;text-transform:none;white-space:normal"/>
  </g>
  <path d="M 7.517 0.171 L 7.032 0.45 L 7.034 0.452 L 7.585 1.417 L 6.474 1.423 L 6.472 1.423 L 6.472 1.983 L 6.474 1.983 L 7.585 1.989 L 7.034 2.954 L 7.032 2.956 L 7.517 3.235 L 7.519 3.233 L 7.552 3.175 L 8.077 2.274 L 8.64 3.233 L 8.64 3.235 L 9.124 2.956 L 9.124 2.954 L 9.075 2.872 L 8.571 1.989 L 9.685 1.983 L 9.687 1.983 L 9.687 1.423 L 9.685 1.423 L 8.571 1.417 L 9.075 0.534 L 9.124 0.452 L 9.124 0.45 L 8.64 0.171 L 8.64 0.173 L 8.077 1.132 L 7.552 0.231 L 7.519 0.173 L 7.517 0.171 Z" color="#000000" color-rendering="auto" dominant-baseline="auto" fill="#fff" image-rendering="auto" shape-rendering="auto" solid-color="#000000" style="font-feature-settings:normal;font-variant-alternates:normal;font-variant-caps:normal;font-variant-ligatures:normal;font-variant-numeric:normal;font-variant-position:normal;isolation:auto;mix-blend-mode:normal;shape-padding:0;text-decoration-color:#000000;text-decoration-line:none;text-decoration-style:solid;text-indent:0;text-orientation:mixed;text-transform:none;white-space:normal" transform="matrix(0.707107, 0.707107, -0.707107, 0.707107, 3.570634, -5.214272)"/>
</svg>