<?xml version="1.0" encoding="utf-8"?>
<svg version="1.1" viewBox="0 0 16 16" xmlns="http://www.w3.org/2000/svg">
  <path d="M 1.424 2.666 L 1.424 7.59 L 3.065 7.59 L 3.065 13.334 L 3.885 13.334 L 3.885 10.872 L 7.989 10.872 L 7.989 12.513 L 5.527 12.513 L 5.527 13.334 L 11.271 13.334 L 11.271 12.513 L 8.809 12.513 L 8.809 10.872 L 14.553 10.872 L 14.553 2.666 L 5.526 2.666 L 1.424 2.666 Z M 2.244 3.487 L 3.065 3.487 L 3.065 4.307 L 2.244 4.307 L 2.244 3.487 Z M 3.885 3.487 L 4.706 3.487 L 4.706 4.307 L 3.885 4.307 L 3.885 3.487 Z M 5.527 3.487 L 13.733 3.487 L 13.733 10.052 L 3.885 10.052 L 3.885 7.59 L 5.527 7.59 L 5.527 4.307 L 5.527 3.487 Z M 2.244 5.128 L 3.065 5.128 L 3.065 6.769 L 2.244 6.769 L 2.244 5.128 Z M 3.886 5.128 L 4.706 5.128 L 4.706 6.769 L 3.886 6.769 L 3.886 5.128 Z" stroke-width="1.2309" style="transform-origin: 7.989px 8px; fill: rgb(255, 255, 255);"/>
  <g transform="matrix(0.666667, 0, 0, 0.666667, -101.208275, -383.135376)">
    <path style="fill: rgb(255, 255, 255);" d="m169 585.36c-1.108 0-2 0.91085-2 2.0312v0.96875h-1v4h6v-4h-1v-0.96875c0-1.1199-0.892-2.0312-2-2.0312zm0 1c0.554 0 1 0.4424 1 1v1h-2v-1c0-0.5576 0.446-1 1-1z"/>
  </g>
</svg>