<?xml version="1.0" encoding="utf-8"?>
<svg version="1.1" viewBox="0 0 16 16" xmlns="http://www.w3.org/2000/svg">
  <path d="M 1.435 2.666 L 1.435 7.59 L 3.077 7.59 L 3.077 13.334 L 3.897 13.334 L 3.897 10.872 L 8 10.872 L 8 12.513 L 5.538 12.513 L 5.538 13.334 L 11.283 13.334 L 11.283 12.513 L 8.821 12.513 L 8.821 10.872 L 14.565 10.872 L 14.565 2.666 L 5.538 2.666 L 1.435 2.666 Z M 2.256 3.487 L 3.076 3.487 L 3.076 4.307 L 2.256 4.307 L 2.256 3.487 Z M 3.897 3.487 L 4.718 3.487 L 4.718 4.307 L 3.897 4.307 L 3.897 3.487 Z M 5.538 3.487 L 13.745 3.487 L 13.745 10.052 L 3.897 10.052 L 3.897 7.59 L 5.538 7.59 L 5.538 4.307 L 5.538 3.487 Z M 2.256 5.128 L 3.077 5.128 L 3.077 6.769 L 2.256 6.769 L 2.256 5.128 Z M 3.897 5.128 L 4.718 5.128 L 4.718 6.769 L 3.897 6.769 L 3.897 5.128 Z" stroke-width="1.2309" style="fill: rgb(181, 181, 180); transform-origin: 8px 8px;"/>
  <g transform="matrix(0.96777, 0, 0, 0.96777, 2.024622, 0.793581)">
    <circle cx="9.958" cy="9.958" r="3" fill="#d82128"/>
    <path d="m8.7796 8.3083-0.47135 0.47135 1.1784 1.1784-1.1784 1.1784 0.47135 0.47135 1.1784-1.1784 1.1784 1.1784 0.47135-0.47135-1.1784-1.1784 1.1784-1.1784-0.47135-0.47135-1.1784 1.1784z" fill="#fff"/>
  </g>
</svg>