<?xml version="1.0" encoding="utf-8"?>
<svg width="24" height="24" version="1.1" xmlns="http://www.w3.org/2000/svg">
  <path d="M 5 7.045 L 5 11.969 L 6.641 11.969 L 6.641 17.713 L 7.461 17.713 L 7.461 15.251 L 11.565 15.251 L 11.565 16.892 L 9.103 16.892 L 9.103 17.713 L 14.847 17.713 L 14.847 16.892 L 12.385 16.892 L 12.385 15.251 L 18.129 15.251 L 18.129 7.045 L 9.102 7.045 L 5 7.045 Z M 5.82 7.866 L 6.641 7.866 L 6.641 8.686 L 5.82 8.686 L 5.82 7.866 Z M 7.461 7.866 L 8.282 7.866 L 8.282 8.686 L 7.461 8.686 L 7.461 7.866 Z M 9.103 7.866 L 17.309 7.866 L 17.309 14.431 L 7.461 14.431 L 7.461 11.969 L 9.103 11.969 L 9.103 8.686 L 9.103 7.866 Z M 5.82 9.507 L 6.641 9.507 L 6.641 11.148 L 5.82 11.148 L 5.82 9.507 Z M 7.462 9.507 L 8.282 9.507 L 8.282 11.148 L 7.462 11.148 L 7.462 9.507 Z" stroke-width="1.2309" style="transform-box: fill-box; transform-origin: 50% 50%; fill: rgb(238, 238, 236);"/>
  <g transform="matrix(0.666667, 0, 0, 0.666667, -97.666718, -378.240173)">
    <path style="fill: rgb(238, 238, 236);" d="m169 585.36c-1.108 0-2 0.91085-2 2.0312v0.96875h-1v4h6v-4h-1v-0.96875c0-1.1199-0.892-2.0312-2-2.0312zm0 1c0.554 0 1 0.4424 1 1v1h-2v-1c0-0.5576 0.446-1 1-1z"/>
  </g>
</svg>