<?xml version="1.0" encoding="utf-8"?>
<svg viewBox="0 0 16 16" xmlns="http://www.w3.org/2000/svg" width="22px" height="22px">
  <path d="M 11 11 L 11 11.75 L 10.25 11.75 L 10.25 13.25 L 11 13.25 L 11 14 L 4.625 14 C 4.524 14 4.435 13.963 4.361 13.889 C 4.287 13.815 4.25 13.726 4.25 13.625 C 4.25 13.524 4.287 13.435 4.361 13.361 C 4.435 13.287 4.524 13.25 4.625 13.25 L 5.75 13.25 L 5.75 11.75 L 3.471 11.75 C 3.276 11.75 3.089 11.71 2.911 11.63 C 2.734 11.55 2.578 11.442 2.443 11.308 C 2.308 11.173 2.2 11.017 2.12 10.839 C 2.04 10.661 2 10.474 2 10.279 L 2 3.471 C 2 3.276 2.04 3.089 2.12 2.911 C 2.2 2.734 2.308 2.578 2.443 2.443 C 2.578 2.308 2.734 2.2 2.911 2.12 C 3.089 2.04 3.276 2 3.471 2 L 9.7 2 C 9.567 2.227 9.5 2.476 9.5 2.75 L 3.5 2.75 C 3.394 2.75 3.297 2.77 3.207 2.809 C 3.118 2.848 3.038 2.902 2.97 2.97 C 2.902 3.038 2.848 3.118 2.809 3.207 C 2.77 3.297 2.75 3.394 2.75 3.5 L 2.75 10.25 C 2.75 10.356 2.77 10.454 2.809 10.546 C 2.848 10.638 2.901 10.717 2.967 10.783 C 3.034 10.849 3.112 10.903 3.204 10.942 C 3.296 10.981 3.394 11 3.5 11 L 11 11 Z M 12.875 2 C 13.027 2 13.172 2.029 13.308 2.088 C 13.445 2.146 13.566 2.227 13.669 2.331 C 13.773 2.434 13.854 2.555 13.912 2.692 C 13.971 2.828 14 2.973 14 3.125 L 14 6.125 C 14 6.277 13.971 6.422 13.912 6.559 C 13.854 6.695 13.773 6.816 13.669 6.919 C 13.566 7.023 13.445 7.104 13.308 7.162 C 13.172 7.221 13.027 7.25 12.875 7.25 L 12.5 7.25 L 12.5 13.625 C 12.5 13.726 12.463 13.815 12.389 13.889 C 12.315 13.963 12.226 14 12.125 14 C 12.024 14 11.935 13.963 11.861 13.889 C 11.787 13.815 11.75 13.726 11.75 13.625 L 11.75 7.25 L 11.375 7.25 C 11.223 7.25 11.078 7.221 10.942 7.162 C 10.805 7.104 10.684 7.023 10.581 6.919 C 10.477 6.816 10.396 6.695 10.338 6.559 C 10.279 6.422 10.25 6.277 10.25 6.125 L 10.25 3.125 C 10.25 2.973 10.279 2.828 10.338 2.692 C 10.396 2.555 10.477 2.434 10.581 2.331 C 10.684 2.227 10.805 2.146 10.942 2.088 C 11.078 2.029 11.223 2 11.375 2 L 12.875 2 Z M 11.375 2.75 C 11.274 2.75 11.185 2.787 11.111 2.861 C 11.037 2.935 11 3.024 11 3.125 L 11 3.5 L 13.25 3.5 L 13.25 3.125 C 13.25 3.024 13.213 2.935 13.139 2.861 C 13.065 2.787 12.976 2.75 12.875 2.75 L 11.375 2.75 Z M 12.875 6.5 C 12.976 6.5 13.065 6.463 13.139 6.389 C 13.213 6.315 13.25 6.226 13.25 6.125 L 13.25 4.25 L 11 4.25 L 11 6.125 C 11 6.226 11.037 6.315 11.111 6.389 C 11.185 6.463 11.274 6.5 11.375 6.5 L 12.875 6.5 Z M 6.5 13.25 L 9.5 13.25 L 9.5 11.75 L 6.5 11.75 L 6.5 13.25 Z" style="fill: rgb(255, 255, 255);"/>
</svg>