<?xml version="1.0" encoding="utf-8"?>
<svg width="24" height="24" version="1.1" xmlns="http://www.w3.org/2000/svg">
  <path d="M 5 7 L 5 11.924 L 6.642 11.924 L 6.642 17.668 L 7.462 17.668 L 7.462 15.206 L 11.565 15.206 L 11.565 16.847 L 9.103 16.847 L 9.103 17.668 L 14.848 17.668 L 14.848 16.847 L 12.386 16.847 L 12.386 15.206 L 18.13 15.206 L 18.13 7 L 9.103 7 L 5 7 Z M 5.821 7.821 L 6.641 7.821 L 6.641 8.641 L 5.821 8.641 L 5.821 7.821 Z M 7.462 7.821 L 8.283 7.821 L 8.283 8.641 L 7.462 8.641 L 7.462 7.821 Z M 9.103 7.821 L 17.31 7.821 L 17.31 14.386 L 7.462 14.386 L 7.462 11.924 L 9.103 11.924 L 9.103 8.641 L 9.103 7.821 Z M 5.821 9.462 L 6.642 9.462 L 6.642 11.103 L 5.821 11.103 L 5.821 9.462 Z M 7.462 9.462 L 8.283 9.462 L 8.283 11.103 L 7.462 11.103 L 7.462 9.462 Z" stroke-width="1.2309" style="transform-box: fill-box; transform-origin: 50% 50%; fill: rgb(181, 181, 180);"/>
  <g transform="matrix(0.96777, 0, 0, 0.96777, 5.589622, 5.127581)">
    <circle cx="9.958" cy="9.958" r="3" fill="#d82128"/>
    <path d="m8.7796 8.3083-0.47135 0.47135 1.1784 1.1784-1.1784 1.1784 0.47135 0.47135 1.1784-1.1784 1.1784 1.1784 0.47135-0.47135-1.1784-1.1784 1.1784-1.1784-0.47135-0.47135-1.1784 1.1784z" fill="#fff"/>
  </g>
</svg>