<?xml version="1.0" encoding="utf-8"?>
<svg xmlns="http://www.w3.org/2000/svg" viewBox="0 0 16 16">
  <path d="M 8 6.009 C 7.614 6.009 7.23 6.051 6.849 6.134 C 6.468 6.218 6.102 6.339 5.75 6.498 C 5.397 6.657 5.063 6.852 4.748 7.081 C 4.432 7.311 4.146 7.569 3.89 7.856 C 3.765 7.997 3.652 8.146 3.55 8.302 C 3.448 8.459 3.34 8.613 3.225 8.764 C 3.162 8.842 3.101 8.904 3.041 8.948 C 2.981 8.993 2.899 9.015 2.795 9.015 C 2.659 9.015 2.541 8.965 2.442 8.866 C 2.343 8.767 2.294 8.649 2.294 8.514 C 2.294 8.43 2.314 8.347 2.356 8.263 C 2.622 7.767 2.962 7.319 3.374 6.917 C 3.786 6.515 4.243 6.173 4.744 5.891 C 5.245 5.61 5.773 5.392 6.329 5.238 C 6.885 5.084 7.442 5.007 8 5.007 C 8.553 5.007 9.109 5.084 9.667 5.238 C 10.226 5.392 10.755 5.61 11.256 5.891 C 11.757 6.173 12.214 6.515 12.626 6.917 C 13.038 7.319 13.378 7.767 13.644 8.263 C 13.686 8.347 13.706 8.43 13.706 8.514 C 13.706 8.649 13.657 8.767 13.558 8.866 C 13.459 8.965 13.341 9.015 13.205 9.015 C 13.101 9.015 13.019 8.993 12.959 8.948 C 12.899 8.904 12.838 8.842 12.775 8.764 C 12.66 8.613 12.552 8.459 12.45 8.302 C 12.348 8.146 12.235 7.997 12.11 7.856 C 11.854 7.569 11.568 7.311 11.252 7.081 C 10.937 6.852 10.603 6.657 10.25 6.498 C 9.898 6.339 9.532 6.218 9.151 6.134 C 8.77 6.051 8.386 6.009 8 6.009 Z M 8 9.015 C 7.708 9.015 7.429 9.055 7.162 9.136 C 6.896 9.217 6.638 9.333 6.387 9.484 C 6.247 9.573 6.125 9.662 6.023 9.751 C 5.922 9.839 5.83 9.933 5.75 10.032 C 5.669 10.131 5.592 10.237 5.519 10.349 C 5.446 10.462 5.367 10.588 5.284 10.729 C 5.232 10.818 5.169 10.888 5.096 10.94 C 5.023 10.993 4.934 11.019 4.83 11.019 C 4.689 11.019 4.57 10.969 4.474 10.87 C 4.377 10.771 4.329 10.651 4.329 10.51 C 4.329 10.442 4.344 10.372 4.376 10.298 C 4.527 9.964 4.733 9.657 4.994 9.375 C 5.255 9.093 5.547 8.852 5.871 8.651 C 6.194 8.45 6.539 8.293 6.904 8.181 C 7.269 8.069 7.635 8.013 8 8.013 C 8.376 8.013 8.746 8.068 9.112 8.177 C 9.477 8.287 9.82 8.441 10.141 8.639 C 10.462 8.837 10.75 9.077 11.006 9.359 C 11.262 9.641 11.468 9.954 11.624 10.298 C 11.656 10.372 11.671 10.442 11.671 10.51 C 11.671 10.645 11.622 10.764 11.523 10.866 C 11.423 10.968 11.306 11.019 11.17 11.019 C 11.066 11.019 10.977 10.993 10.904 10.94 C 10.831 10.888 10.768 10.818 10.716 10.729 C 10.633 10.588 10.554 10.462 10.481 10.349 C 10.408 10.237 10.33 10.131 10.247 10.032 C 10.163 9.933 10.07 9.839 9.969 9.751 C 9.867 9.662 9.746 9.573 9.605 9.484 C 9.359 9.333 9.102 9.217 8.834 9.136 C 8.565 9.055 8.287 9.015 8 9.015 Z M 6.748 12.021 C 6.748 11.848 6.781 11.687 6.849 11.535 C 6.917 11.384 7.007 11.252 7.119 11.14 C 7.232 11.028 7.363 10.938 7.515 10.87 C 7.666 10.802 7.828 10.768 8 10.768 C 8.172 10.768 8.334 10.802 8.485 10.87 C 8.637 10.938 8.768 11.028 8.881 11.14 C 8.993 11.252 9.083 11.384 9.151 11.535 C 9.219 11.687 9.252 11.848 9.252 12.021 C 9.252 12.193 9.219 12.355 9.151 12.506 C 9.083 12.657 8.993 12.789 8.881 12.901 C 8.768 13.013 8.637 13.103 8.485 13.171 C 8.334 13.239 8.172 13.273 8 13.273 C 7.828 13.273 7.666 13.239 7.515 13.171 C 7.363 13.103 7.232 13.013 7.119 12.901 C 7.007 12.789 6.917 12.657 6.849 12.506 C 6.781 12.355 6.748 12.193 6.748 12.021 Z" style="fill: rgb(255, 255, 255);"/>
  <path d="M 8 3.002 C 7.436 3.002 6.879 3.058 6.329 3.17 C 5.778 3.282 5.245 3.447 4.728 3.663 C 4.211 3.88 3.718 4.145 3.249 4.458 C 2.779 4.771 2.346 5.128 1.949 5.53 C 1.751 5.729 1.573 5.936 1.417 6.153 C 1.26 6.369 1.093 6.582 0.916 6.791 C 0.853 6.864 0.793 6.918 0.736 6.955 C 0.678 6.992 0.6 7.01 0.501 7.01 C 0.36 7.01 0.241 6.962 0.145 6.865 C 0.048 6.768 0 6.65 0 6.509 C 0 6.41 0.029 6.316 0.086 6.227 C 0.498 5.569 0.998 4.98 1.585 4.458 C 2.172 3.936 2.813 3.492 3.507 3.127 C 4.201 2.762 4.93 2.483 5.695 2.29 C 6.459 2.097 7.228 2 8 2 C 8.767 2 9.534 2.097 10.301 2.29 C 11.068 2.483 11.798 2.762 12.489 3.127 C 13.181 3.492 13.82 3.936 14.407 4.458 C 14.994 4.98 15.496 5.569 15.914 6.227 C 15.971 6.316 16 6.41 16 6.509 C 16 6.65 15.952 6.768 15.855 6.865 C 15.759 6.962 15.64 7.01 15.499 7.01 C 15.41 7.01 15.333 6.99 15.268 6.951 C 15.203 6.912 15.142 6.858 15.084 6.791 C 15.027 6.718 14.973 6.643 14.924 6.568 C 14.874 6.492 14.821 6.417 14.763 6.344 C 14.654 6.198 14.539 6.059 14.419 5.926 C 14.299 5.793 14.176 5.661 14.051 5.53 C 13.649 5.128 13.215 4.771 12.748 4.458 C 12.28 4.145 11.79 3.88 11.276 3.663 C 10.762 3.447 10.228 3.282 9.675 3.17 C 9.122 3.058 8.564 3.002 8 3.002 Z" style="fill: rgb(255, 255, 255); fill-opacity: 0.5;"/>
</svg>