<?xml version="1.0" encoding="utf-8"?>
<svg xmlns="http://www.w3.org/2000/svg" width="22px" height="22px" viewBox="0 0 16 16">
  <path d="M 4.988 12.631 C 4.988 12.529 5.026 12.441 5.1 12.367 L 6.705 10.762 C 6.604 10.641 6.51 10.515 6.424 10.384 C 6.338 10.253 6.26 10.117 6.19 9.977 C 6.115 9.984 6.042 9.99 5.97 9.994 C 5.898 9.998 5.824 10 5.75 10 C 5.23 10 4.744 9.903 4.288 9.707 C 3.833 9.512 3.436 9.244 3.096 8.904 C 2.756 8.565 2.488 8.167 2.293 7.712 C 2.098 7.257 2 6.77 2 6.25 L 2 3.49 C 2 3.357 2.026 3.231 2.079 3.11 C 2.132 2.988 2.203 2.883 2.293 2.793 C 2.383 2.703 2.488 2.632 2.607 2.579 C 2.725 2.526 2.854 2.5 2.99 2.5 L 5.75 2.5 C 6.063 2.5 6.367 2.537 6.661 2.611 C 6.956 2.685 7.235 2.792 7.499 2.931 C 7.763 3.069 8.009 3.24 8.237 3.441 C 8.466 3.642 8.668 3.871 8.844 4.129 C 9.176 4.043 9.52 4 9.875 4 L 12.946 4 C 13.09 4 13.225 4.029 13.353 4.085 C 13.48 4.142 13.591 4.218 13.687 4.314 C 13.783 4.41 13.858 4.521 13.915 4.647 C 13.971 4.775 14 4.911 14 5.055 L 14 8.125 C 14 8.508 13.951 8.875 13.854 9.227 C 13.756 9.579 13.618 9.906 13.438 10.211 C 13.258 10.516 13.043 10.793 12.793 11.043 C 12.543 11.293 12.266 11.508 11.961 11.688 C 11.656 11.868 11.327 12.006 10.974 12.104 C 10.62 12.201 10.254 12.25 9.875 12.25 C 9.387 12.25 8.918 12.168 8.469 12.004 C 8.02 11.84 7.608 11.604 7.233 11.295 L 5.633 12.9 C 5.559 12.974 5.471 13.012 5.369 13.012 C 5.264 13.012 5.174 12.974 5.1 12.9 C 5.026 12.826 4.988 12.736 4.988 12.631 Z M 5.902 9.244 C 5.801 8.873 5.75 8.5 5.75 8.125 C 5.75 7.727 5.807 7.334 5.92 6.948 L 4.361 5.389 C 4.287 5.315 4.25 5.226 4.25 5.125 C 4.25 5.024 4.287 4.935 4.361 4.861 C 4.435 4.787 4.524 4.75 4.625 4.75 C 4.726 4.75 4.815 4.787 4.889 4.861 L 6.225 6.198 C 6.432 5.803 6.697 5.452 7.021 5.145 C 7.346 4.839 7.709 4.59 8.111 4.398 C 7.971 4.219 7.812 4.058 7.634 3.915 C 7.456 3.773 7.266 3.652 7.063 3.555 C 6.859 3.457 6.648 3.382 6.427 3.329 C 6.206 3.276 5.98 3.25 5.75 3.25 L 2.99 3.25 C 2.924 3.25 2.867 3.273 2.821 3.321 C 2.773 3.367 2.75 3.424 2.75 3.49 L 2.75 6.309 C 2.75 6.703 2.829 7.078 2.987 7.434 C 3.145 7.789 3.36 8.102 3.629 8.371 C 3.898 8.641 4.211 8.855 4.567 9.013 C 4.922 9.171 5.297 9.25 5.691 9.25 L 5.85 9.25 C 5.866 9.25 5.883 9.248 5.902 9.244 Z M 13.25 8.125 L 13.25 5.055 C 13.25 4.969 13.221 4.896 13.162 4.838 C 13.104 4.779 13.031 4.75 12.946 4.75 L 9.875 4.75 C 9.41 4.75 8.973 4.839 8.563 5.016 C 8.152 5.194 7.795 5.436 7.49 5.74 C 7.185 6.045 6.944 6.402 6.766 6.813 C 6.589 7.223 6.5 7.66 6.5 8.125 C 6.5 8.508 6.564 8.88 6.691 9.241 C 6.817 9.603 7 9.933 7.238 10.235 L 9.611 7.861 C 9.685 7.787 9.774 7.75 9.875 7.75 C 9.976 7.75 10.065 7.787 10.139 7.861 C 10.213 7.935 10.25 8.024 10.25 8.125 C 10.25 8.226 10.213 8.315 10.139 8.389 L 7.766 10.762 C 8.067 11 8.397 11.183 8.759 11.31 C 9.12 11.436 9.493 11.5 9.875 11.5 C 10.34 11.5 10.777 11.412 11.188 11.234 C 11.598 11.056 11.955 10.815 12.26 10.51 C 12.565 10.205 12.806 9.848 12.984 9.438 C 13.162 9.027 13.25 8.59 13.25 8.125 Z" style="fill: rgb(92, 97, 108);"/>
</svg>