<?xml version="1.0" encoding="utf-8"?>
<svg viewBox="0 0 16 16" xmlns="http://www.w3.org/2000/svg" width="22px" height="22px">
  <path d="M 14 8.625 C 14 8.832 13.926 9.01 13.777 9.158 C 13.633 9.303 13.457 9.375 13.25 9.375 L 12.5 9.375 L 12.5 10.166 C 12.5 10.412 12.451 10.646 12.351 10.869 C 12.251 11.092 12.118 11.286 11.953 11.453 C 11.786 11.618 11.592 11.751 11.369 11.851 C 11.146 11.951 10.912 12 10.666 12 L 3.834 12 C 3.588 12 3.354 11.951 3.131 11.851 C 2.908 11.751 2.714 11.618 2.548 11.453 C 2.382 11.286 2.249 11.092 2.149 10.869 C 2.05 10.646 2 10.412 2 10.166 L 2 6.334 C 2 6.088 2.05 5.854 2.149 5.631 C 2.249 5.408 2.382 5.214 2.548 5.048 C 2.714 4.882 2.908 4.749 3.131 4.649 C 3.354 4.55 3.588 4.5 3.834 4.5 L 10.666 4.5 C 10.916 4.5 11.152 4.549 11.372 4.646 C 11.593 4.745 11.785 4.877 11.95 5.045 C 12.113 5.213 12.244 5.408 12.342 5.631 C 12.439 5.854 12.493 6.088 12.5 6.334 L 12.5 7.125 L 13.25 7.125 C 13.351 7.125 13.447 7.145 13.537 7.184 C 13.627 7.223 13.707 7.277 13.777 7.348 C 13.848 7.418 13.903 7.498 13.942 7.588 C 13.981 7.678 14 7.774 14 7.875 L 14 8.625 Z M 11.75 6.375 C 11.75 6.223 11.721 6.078 11.662 5.942 C 11.604 5.805 11.523 5.684 11.419 5.581 C 11.316 5.477 11.195 5.396 11.058 5.338 C 10.922 5.279 10.777 5.25 10.625 5.25 L 3.875 5.25 C 3.723 5.25 3.578 5.279 3.442 5.338 C 3.305 5.396 3.184 5.477 3.081 5.581 C 2.977 5.684 2.896 5.805 2.838 5.942 C 2.779 6.078 2.75 6.223 2.75 6.375 L 2.75 10.125 C 2.75 10.277 2.779 10.422 2.838 10.558 C 2.896 10.695 2.977 10.816 3.081 10.919 C 3.184 11.023 3.305 11.104 3.442 11.162 C 3.578 11.221 3.723 11.25 3.875 11.25 L 10.625 11.25 C 10.777 11.25 10.922 11.221 11.058 11.162 C 11.195 11.104 11.316 11.023 11.419 10.919 C 11.523 10.816 11.604 10.695 11.662 10.558 C 11.721 10.422 11.75 10.277 11.75 10.125 L 11.75 6.375 Z" style="fill: rgb(255, 255, 255);"/>
  <path d="M 10.438 6 C 10.594 6 10.726 6.055 10.836 6.164 C 10.945 6.274 11 6.406 11 6.563 L 11 9.938 C 11 10.094 10.945 10.226 10.836 10.336 C 10.726 10.445 10.594 10.5 10.438 10.5 L 4.063 10.5 C 3.907 10.5 3.774 10.445 3.664 10.336 C 3.555 10.226 3.5 10.094 3.5 9.938 L 3.5 6.563 C 3.5 6.406 3.555 6.274 3.664 6.164 C 3.774 6.055 3.907 6 4.063 6 L 10.438 6 Z" style="fill-opacity: 0.5; fill: rgb(255, 255, 255);"/>
  <path d="M 9.744 6 C 9.884 6 10.003 6.055 10.102 6.164 C 10.201 6.274 10.25 6.406 10.25 6.563 L 10.25 9.938 C 10.25 10.094 10.201 10.226 10.102 10.336 C 10.003 10.445 9.884 10.5 9.744 10.5 L 4.006 10.5 C 3.866 10.5 3.746 10.445 3.648 10.336 C 3.55 10.226 3.5 10.094 3.5 9.938 L 3.5 6.563 C 3.5 6.406 3.55 6.274 3.648 6.164 C 3.746 6.055 3.866 6 4.006 6 L 9.744 6 Z" style="fill: rgb(255, 255, 255);"/>
</svg>