<?xml version="1.0" encoding="utf-8"?>
<svg xmlns="http://www.w3.org/2000/svg" width="22px" height="22px" viewBox="0 0 16 16">
  <path d="M 8 5.681 C 7.684 5.681 7.37 5.714 7.059 5.783 C 6.747 5.852 6.448 5.951 6.16 6.08 C 5.871 6.21 5.597 6.37 5.34 6.557 C 5.081 6.746 4.847 6.956 4.638 7.192 C 4.535 7.306 4.443 7.429 4.36 7.556 C 4.277 7.684 4.188 7.81 4.093 7.934 C 4.043 7.998 3.992 8.049 3.944 8.085 C 3.894 8.122 3.827 8.14 3.742 8.14 C 3.631 8.14 3.534 8.098 3.453 8.017 C 3.372 7.936 3.332 7.841 3.332 7.729 C 3.332 7.661 3.348 7.593 3.382 7.525 C 3.6 7.118 3.878 6.752 4.216 6.423 C 4.552 6.095 4.927 5.814 5.336 5.584 C 5.747 5.353 6.179 5.175 6.634 5.049 C 7.088 4.923 7.544 4.86 8 4.86 C 8.453 4.86 8.908 4.923 9.365 5.049 C 9.822 5.175 10.255 5.353 10.665 5.584 C 11.075 5.814 11.449 6.095 11.786 6.423 C 12.123 6.752 12.4 7.118 12.619 7.525 C 12.652 7.593 12.669 7.661 12.669 7.729 C 12.669 7.841 12.629 7.936 12.548 8.017 C 12.467 8.098 12.371 8.14 12.26 8.14 C 12.174 8.14 12.107 8.122 12.058 8.085 C 12.009 8.049 11.959 7.998 11.908 7.934 C 11.813 7.81 11.725 7.684 11.642 7.556 C 11.558 7.429 11.466 7.306 11.363 7.192 C 11.154 6.956 10.92 6.746 10.661 6.557 C 10.404 6.37 10.13 6.21 9.842 6.08 C 9.554 5.951 9.254 5.852 8.942 5.783 C 8.63 5.714 8.317 5.681 8 5.681 Z M 8 8.14 C 7.762 8.14 7.534 8.173 7.315 8.239 C 7.097 8.305 6.887 8.4 6.681 8.524 C 6.566 8.597 6.467 8.669 6.383 8.742 C 6.301 8.814 6.225 8.89 6.16 8.971 C 6.094 9.052 6.031 9.14 5.971 9.231 C 5.911 9.323 5.846 9.427 5.779 9.542 C 5.736 9.615 5.684 9.672 5.624 9.715 C 5.565 9.758 5.492 9.779 5.407 9.779 C 5.291 9.779 5.195 9.739 5.116 9.658 C 5.036 9.577 4.997 9.479 4.997 9.363 C 4.997 9.308 5.009 9.25 5.036 9.19 C 5.159 8.916 5.327 8.665 5.541 8.435 C 5.755 8.204 5.993 8.006 6.259 7.842 C 6.523 7.678 6.806 7.549 7.104 7.457 C 7.403 7.366 7.702 7.32 8 7.32 C 8.309 7.32 8.611 7.365 8.911 7.454 C 9.209 7.544 9.49 7.67 9.752 7.832 C 10.015 7.994 10.251 8.191 10.46 8.421 C 10.67 8.652 10.838 8.908 10.966 9.19 C 10.992 9.25 11.004 9.308 11.004 9.363 C 11.004 9.473 10.964 9.571 10.883 9.654 C 10.802 9.737 10.706 9.779 10.595 9.779 C 10.509 9.779 10.436 9.758 10.377 9.715 C 10.317 9.672 10.265 9.615 10.222 9.542 C 10.155 9.427 10.091 9.323 10.031 9.231 C 9.97 9.14 9.907 9.052 9.839 8.971 C 9.77 8.89 9.695 8.814 9.612 8.742 C 9.528 8.669 9.429 8.597 9.313 8.524 C 9.113 8.4 8.903 8.305 8.683 8.239 C 8.463 8.173 8.236 8.14 8 8.14 Z M 6.977 10.599 C 6.977 10.458 7.004 10.326 7.059 10.202 C 7.115 10.078 7.188 9.97 7.279 9.878 C 7.373 9.787 7.48 9.713 7.603 9.658 C 7.727 9.601 7.86 9.574 8 9.574 C 8.141 9.574 8.274 9.601 8.398 9.658 C 8.521 9.713 8.629 9.787 8.722 9.878 C 8.813 9.97 8.887 10.078 8.942 10.202 C 8.998 10.326 9.025 10.458 9.025 10.599 C 9.025 10.74 8.998 10.873 8.942 10.996 C 8.887 11.12 8.813 11.228 8.722 11.319 C 8.629 11.41 8.521 11.485 8.398 11.54 C 8.274 11.596 8.141 11.624 8 11.624 C 7.86 11.624 7.727 11.596 7.603 11.54 C 7.48 11.485 7.373 11.41 7.279 11.319 C 7.188 11.228 7.115 11.12 7.059 10.996 C 7.004 10.873 6.977 10.74 6.977 10.599 Z" style="fill: rgb(255, 255, 255);"/>
  <path d="M 8 3.22 C 7.539 3.22 7.084 3.265 6.634 3.357 C 6.182 3.449 5.747 3.584 5.324 3.76 C 4.901 3.938 4.497 4.155 4.113 4.412 C 3.729 4.667 3.374 4.959 3.049 5.288 C 2.887 5.451 2.742 5.621 2.615 5.798 C 2.486 5.974 2.349 6.149 2.204 6.32 C 2.153 6.379 2.104 6.424 2.057 6.455 C 2.01 6.485 1.946 6.5 1.865 6.5 C 1.75 6.5 1.652 6.46 1.573 6.38 C 1.494 6.302 1.455 6.205 1.455 6.089 C 1.455 6.008 1.479 5.931 1.526 5.858 C 1.862 5.321 2.272 4.838 2.752 4.412 C 3.233 3.984 3.757 3.621 4.325 3.323 C 4.892 3.023 5.488 2.795 6.115 2.637 C 6.739 2.48 7.369 2.4 8 2.4 C 8.628 2.4 9.256 2.48 9.884 2.637 C 10.51 2.795 11.108 3.023 11.674 3.323 C 12.24 3.621 12.763 3.984 13.243 4.412 C 13.724 4.838 14.134 5.321 14.476 5.858 C 14.522 5.931 14.546 6.008 14.546 6.089 C 14.546 6.205 14.507 6.302 14.428 6.38 C 14.349 6.46 14.252 6.5 14.136 6.5 C 14.063 6.5 14 6.483 13.947 6.451 C 13.895 6.419 13.844 6.375 13.797 6.32 C 13.751 6.26 13.706 6.199 13.666 6.137 C 13.625 6.075 13.582 6.014 13.535 5.954 C 13.444 5.835 13.351 5.721 13.253 5.612 C 13.154 5.504 13.054 5.396 12.952 5.288 C 12.623 4.959 12.268 4.667 11.885 4.412 C 11.503 4.155 11.102 3.938 10.681 3.76 C 10.261 3.584 9.824 3.449 9.371 3.357 C 8.918 3.265 8.462 3.22 8 3.22 Z" style="fill: rgb(255, 255, 255); fill-opacity: 0.5;"/>
</svg>