<?xml version="1.0" encoding="utf-8"?>
<svg xmlns="http://www.w3.org/2000/svg" viewBox="0 0 16 16">
  <path d="M 0 6.504 C 0 6.405 0.029 6.311 0.086 6.223 C 0.498 5.566 0.997 4.977 1.584 4.456 C 2.17 3.934 2.81 3.491 3.503 3.126 C 4.197 2.761 4.925 2.482 5.689 2.289 C 6.453 2.096 7.221 2 7.992 2 C 8.764 2 9.531 2.096 10.295 2.289 C 11.059 2.482 11.786 2.761 12.477 3.126 C 13.168 3.491 13.806 3.934 14.393 4.456 C 14.979 4.977 15.481 5.566 15.898 6.223 C 15.956 6.311 15.984 6.405 15.984 6.504 C 15.984 6.64 15.935 6.757 15.836 6.856 C 15.737 6.955 15.619 7.005 15.484 7.005 C 15.38 7.005 15.3 6.987 15.245 6.95 C 15.191 6.914 15.132 6.859 15.069 6.786 C 14.897 6.577 14.736 6.368 14.585 6.156 C 14.433 5.945 14.261 5.743 14.068 5.55 C 13.667 5.144 13.232 4.781 12.762 4.463 C 12.293 4.145 11.801 3.878 11.284 3.662 C 10.768 3.445 10.234 3.281 9.681 3.169 C 9.129 3.057 8.566 3.001 7.992 3.001 C 7.419 3.001 6.856 3.057 6.303 3.169 C 5.75 3.281 5.216 3.445 4.7 3.662 C 4.184 3.878 3.692 4.145 3.226 4.463 C 2.759 4.781 2.323 5.144 1.916 5.55 C 1.791 5.675 1.67 5.804 1.552 5.937 C 1.435 6.07 1.324 6.21 1.22 6.356 C 1.168 6.429 1.118 6.502 1.071 6.575 C 1.024 6.648 0.972 6.718 0.915 6.786 C 0.858 6.854 0.796 6.907 0.731 6.946 C 0.666 6.985 0.589 7.005 0.5 7.005 C 0.365 7.005 0.248 6.955 0.149 6.856 C 0.05 6.757 0 6.64 0 6.504 Z M 2.291 8.506 C 2.291 8.423 2.312 8.34 2.354 8.256 C 2.62 7.756 2.959 7.305 3.37 6.903 C 3.782 6.502 4.237 6.16 4.735 5.879 C 5.233 5.597 5.761 5.381 6.319 5.23 C 6.877 5.079 7.434 5.003 7.992 5.003 C 8.529 5.003 9.056 5.068 9.572 5.198 C 10.088 5.329 10.583 5.519 11.058 5.769 C 10.463 5.816 9.892 5.949 9.345 6.168 C 8.897 6.059 8.446 6.004 7.992 6.004 C 7.601 6.004 7.215 6.046 6.835 6.129 C 6.454 6.212 6.087 6.334 5.732 6.493 C 5.378 6.652 5.043 6.846 4.727 7.075 C 4.412 7.305 4.126 7.565 3.871 7.857 C 3.746 7.998 3.635 8.147 3.539 8.303 C 3.442 8.459 3.337 8.611 3.222 8.757 C 3.159 8.835 3.099 8.896 3.042 8.94 C 2.985 8.985 2.901 9.007 2.792 9.007 C 2.656 9.007 2.539 8.957 2.44 8.858 C 2.341 8.759 2.291 8.642 2.291 8.506 Z M 4.325 10.5 C 4.325 10.428 4.34 10.36 4.371 10.297 C 4.481 10.047 4.62 9.812 4.79 9.593 C 4.959 9.374 5.15 9.174 5.361 8.991 C 5.572 8.809 5.8 8.648 6.045 8.51 C 6.29 8.372 6.54 8.264 6.796 8.186 C 6.457 8.665 6.196 9.187 6.014 9.75 C 5.852 9.896 5.717 10.048 5.607 10.207 C 5.498 10.366 5.388 10.537 5.279 10.719 C 5.226 10.808 5.164 10.878 5.091 10.931 C 5.018 10.983 4.929 11.009 4.825 11.009 C 4.689 11.009 4.572 10.958 4.473 10.856 C 4.374 10.755 4.325 10.636 4.325 10.5 Z" style="fill: rgb(255, 255, 255);"/>
  <path d="M 7 11.5 C 7 11.085 7.055 10.686 7.158 10.303 C 7.264 9.922 7.415 9.563 7.613 9.228 C 7.807 8.894 8.039 8.592 8.315 8.317 C 8.589 8.041 8.892 7.809 9.227 7.614 C 9.561 7.417 9.92 7.266 10.302 7.162 C 10.685 7.056 11.083 7.001 11.501 7.001 C 11.912 7.001 12.309 7.056 12.691 7.163 C 13.074 7.271 13.433 7.422 13.767 7.619 C 14.102 7.813 14.404 8.049 14.68 8.321 C 14.952 8.597 15.188 8.899 15.382 9.234 C 15.579 9.568 15.73 9.927 15.838 10.31 C 15.945 10.692 16 11.089 16 11.5 C 16 11.918 15.945 12.316 15.839 12.699 C 15.735 13.081 15.584 13.44 15.387 13.774 C 15.192 14.109 14.96 14.412 14.684 14.686 C 14.409 14.962 14.107 15.194 13.773 15.39 C 13.438 15.586 13.079 15.737 12.698 15.843 C 12.315 15.946 11.916 16.001 11.501 16.001 C 11.083 16.001 10.685 15.946 10.302 15.843 C 9.915 15.737 9.557 15.586 9.225 15.39 C 8.892 15.194 8.589 14.962 8.315 14.686 C 8.039 14.412 7.807 14.112 7.613 13.776 C 7.415 13.444 7.264 13.086 7.158 12.699 C 7.055 12.316 7 11.918 7 11.5 Z M 15.399 11.5 C 15.399 11.143 15.353 10.796 15.26 10.462 C 15.169 10.131 15.036 9.82 14.867 9.53 C 14.698 9.243 14.494 8.98 14.257 8.744 C 14.021 8.507 13.758 8.303 13.471 8.134 C 13.181 7.965 12.871 7.832 12.539 7.741 C 12.205 7.648 11.858 7.602 11.501 7.602 C 11.14 7.602 10.794 7.648 10.46 7.741 C 10.129 7.832 9.818 7.965 9.529 8.134 C 9.241 8.303 8.977 8.507 8.741 8.744 C 8.505 8.98 8.302 9.243 8.133 9.53 C 7.963 9.82 7.831 10.131 7.737 10.462 C 7.646 10.796 7.601 11.143 7.601 11.5 C 7.601 11.861 7.646 12.207 7.737 12.541 C 7.831 12.872 7.962 13.183 8.131 13.472 C 8.299 13.76 8.501 14.024 8.738 14.263 C 8.977 14.5 9.241 14.702 9.529 14.87 C 9.818 15.039 10.129 15.17 10.46 15.264 C 10.794 15.355 11.14 15.4 11.501 15.4 C 11.858 15.4 12.205 15.355 12.539 15.264 C 12.871 15.17 13.181 15.039 13.471 14.87 C 13.758 14.702 14.022 14.5 14.259 14.263 C 14.499 14.024 14.699 13.76 14.87 13.472 C 15.038 13.183 15.169 12.872 15.26 12.541 C 15.353 12.207 15.399 11.861 15.399 11.5 Z M 9.401 11.5 C 9.401 11.423 9.428 11.349 9.49 11.291 C 9.549 11.231 9.619 11.202 9.7 11.202 C 9.781 11.202 9.85 11.231 9.911 11.291 L 10.899 12.276 L 13.089 10.092 C 13.149 10.031 13.219 10 13.3 10 C 13.378 10 13.451 10.031 13.511 10.092 C 13.569 10.151 13.598 10.22 13.598 10.303 C 13.598 10.384 13.569 10.454 13.511 10.513 L 11.109 12.912 C 11.052 12.972 10.982 13.001 10.899 13.001 C 10.817 13.001 10.748 12.972 10.687 12.912 L 9.49 11.712 C 9.428 11.653 9.401 11.583 9.401 11.5 Z" style="fill: rgb(255, 255, 255);"/>
</svg>