<?xml version="1.0" encoding="utf-8"?>
<svg xmlns="http://www.w3.org/2000/svg" viewBox="0 0 16 16" width="22px" height="22px">
  <path d="M 1.455 5.868 C 1.455 5.787 1.479 5.709 1.526 5.637 C 1.862 5.099 2.271 4.618 2.751 4.191 C 3.23 3.765 3.755 3.402 4.322 3.103 C 4.889 2.804 5.485 2.577 6.109 2.418 C 6.735 2.261 7.364 2.182 7.994 2.182 C 8.626 2.182 9.254 2.261 9.878 2.418 C 10.504 2.577 11.099 2.804 11.664 3.103 C 12.229 3.402 12.751 3.765 13.232 4.191 C 13.711 4.618 14.122 5.099 14.463 5.637 C 14.51 5.709 14.534 5.787 14.534 5.868 C 14.534 5.979 14.493 6.075 14.412 6.156 C 14.331 6.237 14.234 6.277 14.124 6.277 C 14.039 6.277 13.973 6.263 13.928 6.232 C 13.884 6.203 13.836 6.158 13.784 6.098 C 13.644 5.927 13.512 5.756 13.388 5.583 C 13.264 5.41 13.124 5.244 12.965 5.087 C 12.638 4.755 12.281 4.458 11.896 4.197 C 11.513 3.937 11.111 3.719 10.688 3.542 C 10.265 3.364 9.829 3.231 9.376 3.138 C 8.924 3.047 8.464 3.001 7.994 3.001 C 7.526 3.001 7.064 3.047 6.612 3.138 C 6.16 3.231 5.722 3.364 5.3 3.542 C 4.878 3.719 4.476 3.937 4.094 4.197 C 3.713 4.458 3.355 4.755 3.022 5.087 C 2.921 5.189 2.822 5.295 2.725 5.403 C 2.63 5.512 2.538 5.627 2.453 5.746 C 2.41 5.806 2.37 5.865 2.331 5.925 C 2.293 5.985 2.25 6.042 2.203 6.098 C 2.157 6.153 2.106 6.197 2.054 6.229 C 2 6.26 1.937 6.277 1.865 6.277 C 1.753 6.277 1.658 6.237 1.577 6.156 C 1.496 6.075 1.455 5.979 1.455 5.868 Z M 3.329 7.506 C 3.329 7.437 3.346 7.37 3.381 7.301 C 3.598 6.891 3.876 6.522 4.212 6.194 C 4.55 5.865 4.921 5.585 5.33 5.356 C 5.737 5.125 6.169 4.948 6.626 4.825 C 7.081 4.701 7.538 4.639 7.994 4.639 C 8.434 4.639 8.864 4.692 9.286 4.799 C 9.709 4.906 10.114 5.061 10.503 5.266 C 10.015 5.304 9.549 5.413 9.101 5.592 C 8.735 5.503 8.366 5.458 7.994 5.458 C 7.674 5.458 7.358 5.493 7.048 5.56 C 6.736 5.628 6.436 5.728 6.145 5.859 C 5.855 5.988 5.582 6.147 5.323 6.335 C 5.065 6.522 4.831 6.735 4.622 6.975 C 4.52 7.089 4.43 7.212 4.351 7.339 C 4.271 7.466 4.185 7.591 4.091 7.71 C 4.039 7.775 3.991 7.824 3.944 7.86 C 3.897 7.897 3.829 7.915 3.74 7.915 C 3.629 7.915 3.533 7.875 3.452 7.794 C 3.371 7.713 3.329 7.617 3.329 7.506 Z M 4.993 9.137 C 4.993 9.077 5.006 9.022 5.031 8.97 C 5.121 8.766 5.235 8.573 5.375 8.394 C 5.513 8.216 5.668 8.051 5.842 7.902 C 6.014 7.753 6.2 7.622 6.401 7.509 C 6.602 7.395 6.806 7.308 7.016 7.244 C 6.738 7.635 6.524 8.063 6.376 8.523 C 6.243 8.643 6.133 8.767 6.043 8.897 C 5.954 9.027 5.864 9.167 5.774 9.316 C 5.731 9.389 5.681 9.446 5.621 9.489 C 5.56 9.532 5.488 9.553 5.403 9.553 C 5.291 9.553 5.196 9.512 5.115 9.428 C 5.034 9.345 4.993 9.248 4.993 9.137 Z" style="fill: rgb(255, 255, 255);"/>
  <path d="M 7.183 9.955 C 7.183 9.615 7.228 9.289 7.312 8.976 C 7.399 8.663 7.522 8.37 7.684 8.096 C 7.843 7.823 8.033 7.575 8.258 7.35 C 8.483 7.124 8.731 6.935 9.005 6.776 C 9.277 6.615 9.572 6.491 9.884 6.405 C 10.198 6.319 10.523 6.274 10.865 6.274 C 11.201 6.274 11.526 6.319 11.839 6.407 C 12.152 6.494 12.445 6.618 12.719 6.78 C 12.993 6.939 13.241 7.131 13.466 7.354 C 13.689 7.58 13.882 7.826 14.041 8.101 C 14.202 8.374 14.325 8.668 14.414 8.982 C 14.501 9.293 14.546 9.618 14.546 9.955 C 14.546 10.297 14.501 10.623 14.414 10.936 C 14.33 11.249 14.206 11.542 14.045 11.816 C 13.886 12.09 13.695 12.338 13.469 12.562 C 13.244 12.788 12.998 12.978 12.724 13.138 C 12.45 13.298 12.156 13.422 11.845 13.509 C 11.531 13.593 11.205 13.638 10.865 13.638 C 10.523 13.638 10.198 13.593 9.884 13.509 C 9.568 13.422 9.275 13.298 9.003 13.138 C 8.731 12.978 8.483 12.788 8.258 12.562 C 8.033 12.338 7.843 12.092 7.684 11.817 C 7.522 11.546 7.399 11.253 7.312 10.936 C 7.228 10.623 7.183 10.297 7.183 9.955 Z M 14.054 9.955 C 14.054 9.662 14.017 9.379 13.941 9.105 C 13.866 8.834 13.757 8.58 13.619 8.343 C 13.481 8.109 13.314 7.893 13.12 7.7 C 12.927 7.506 12.712 7.339 12.477 7.201 C 12.24 7.062 11.986 6.953 11.714 6.879 C 11.441 6.804 11.157 6.765 10.865 6.765 C 10.57 6.765 10.287 6.804 10.013 6.879 C 9.743 6.953 9.488 7.062 9.251 7.201 C 9.016 7.339 8.8 7.506 8.607 7.7 C 8.413 7.893 8.248 8.109 8.11 8.343 C 7.97 8.58 7.862 8.834 7.786 9.105 C 7.711 9.379 7.674 9.662 7.674 9.955 C 7.674 10.251 7.711 10.533 7.786 10.807 C 7.862 11.078 7.97 11.332 8.107 11.568 C 8.246 11.804 8.411 12.02 8.605 12.216 C 8.8 12.41 9.016 12.575 9.251 12.712 C 9.488 12.851 9.743 12.958 10.013 13.035 C 10.287 13.109 10.57 13.145 10.865 13.145 C 11.157 13.145 11.441 13.109 11.714 13.035 C 11.986 12.958 12.24 12.851 12.477 12.712 C 12.712 12.575 12.928 12.41 13.122 12.216 C 13.318 12.02 13.482 11.804 13.622 11.568 C 13.76 11.332 13.866 11.078 13.941 10.807 C 14.017 10.533 14.054 10.251 14.054 9.955 Z M 9.147 9.955 C 9.147 9.892 9.169 9.831 9.22 9.784 C 9.268 9.734 9.326 9.711 9.392 9.711 C 9.457 9.711 9.515 9.734 9.564 9.784 L 10.373 10.589 L 12.164 8.803 C 12.214 8.753 12.271 8.727 12.337 8.727 C 12.4 8.727 12.461 8.753 12.51 8.803 C 12.557 8.851 12.58 8.907 12.58 8.976 C 12.58 9.041 12.557 9.099 12.51 9.147 L 10.544 11.11 C 10.498 11.16 10.441 11.183 10.373 11.183 C 10.306 11.183 10.249 11.16 10.199 11.11 L 9.22 10.128 C 9.169 10.08 9.147 10.022 9.147 9.955 Z" style="fill: rgb(255, 255, 255);"/>
</svg>