<?xml version="1.0" encoding="utf-8"?>
<svg xmlns="http://www.w3.org/2000/svg" width="22px" height="22px" viewBox="0 0 16 16">
  <path d="M 8 6.067 C 7.539 6.067 7.084 6.112 6.634 6.205 C 6.182 6.296 5.747 6.431 5.324 6.607 C 4.901 6.785 4.497 7.002 4.113 7.258 C 3.729 7.514 3.374 7.807 3.049 8.135 C 2.887 8.298 2.742 8.467 2.615 8.645 C 2.486 8.821 2.349 8.996 2.204 9.167 C 2.153 9.226 2.104 9.271 2.057 9.301 C 2.01 9.331 1.946 9.346 1.865 9.346 C 1.75 9.346 1.652 9.307 1.573 9.227 C 1.494 9.148 1.455 9.052 1.455 8.936 C 1.455 8.855 1.479 8.779 1.526 8.705 C 1.862 8.167 2.272 7.685 2.752 7.258 C 3.233 6.831 3.757 6.468 4.325 6.169 C 4.892 5.87 5.488 5.642 6.115 5.484 C 6.739 5.326 7.369 5.247 8 5.247 C 8.628 5.247 9.256 5.326 9.884 5.484 C 10.51 5.642 11.108 5.87 11.674 6.169 C 12.24 6.468 12.763 6.831 13.243 7.258 C 13.724 7.685 14.134 8.167 14.476 8.705 C 14.522 8.779 14.546 8.855 14.546 8.936 C 14.546 9.052 14.507 9.148 14.428 9.227 C 14.349 9.307 14.252 9.346 14.136 9.346 C 14.063 9.346 14 9.33 13.947 9.298 C 13.895 9.266 13.844 9.222 13.797 9.167 C 13.751 9.107 13.706 9.046 13.666 8.984 C 13.625 8.923 13.582 8.861 13.535 8.801 C 13.444 8.682 13.351 8.568 13.253 8.459 C 13.154 8.35 13.054 8.242 12.952 8.135 C 12.623 7.807 12.268 7.514 11.885 7.258 C 11.503 7.002 11.102 6.785 10.681 6.607 C 10.261 6.431 9.824 6.296 9.371 6.205 C 8.918 6.112 8.462 6.067 8 6.067 Z M 8 8.527 C 7.684 8.527 7.37 8.56 7.059 8.629 C 6.747 8.698 6.448 8.797 6.16 8.926 C 5.871 9.056 5.597 9.216 5.34 9.403 C 5.081 9.592 4.847 9.802 4.638 10.038 C 4.535 10.153 4.443 10.275 4.36 10.402 C 4.277 10.531 4.188 10.657 4.093 10.78 C 4.043 10.844 3.992 10.895 3.944 10.931 C 3.894 10.968 3.827 10.986 3.742 10.986 C 3.631 10.986 3.534 10.945 3.453 10.864 C 3.372 10.783 3.332 10.687 3.332 10.576 C 3.332 10.507 3.348 10.439 3.382 10.371 C 3.6 9.964 3.878 9.598 4.216 9.269 C 4.552 8.941 4.927 8.66 5.336 8.43 C 5.747 8.2 6.179 8.021 6.634 7.895 C 7.088 7.769 7.544 7.706 8 7.706 C 8.453 7.706 8.908 7.769 9.365 7.895 C 9.822 8.021 10.255 8.2 10.665 8.43 C 11.075 8.66 11.449 8.941 11.786 9.269 C 12.123 9.598 12.4 9.964 12.619 10.371 C 12.652 10.439 12.669 10.507 12.669 10.576 C 12.669 10.687 12.629 10.783 12.548 10.864 C 12.467 10.945 12.371 10.986 12.26 10.986 C 12.174 10.986 12.107 10.968 12.058 10.931 C 12.009 10.895 11.959 10.844 11.908 10.78 C 11.813 10.657 11.725 10.531 11.642 10.402 C 11.558 10.275 11.466 10.153 11.363 10.038 C 11.154 9.802 10.92 9.592 10.661 9.403 C 10.404 9.216 10.13 9.056 9.842 8.926 C 9.554 8.797 9.254 8.698 8.942 8.629 C 8.63 8.56 8.317 8.527 8 8.527 Z M 8 10.986 C 7.762 10.986 7.534 11.019 7.315 11.085 C 7.097 11.151 6.887 11.246 6.681 11.37 C 6.566 11.443 6.467 11.515 6.383 11.588 C 6.301 11.66 6.225 11.737 6.16 11.818 C 6.094 11.899 6.031 11.986 5.971 12.077 C 5.911 12.169 5.846 12.273 5.779 12.388 C 5.736 12.461 5.684 12.518 5.624 12.561 C 5.565 12.604 5.492 12.625 5.407 12.625 C 5.291 12.625 5.195 12.585 5.116 12.504 C 5.036 12.423 4.997 12.325 4.997 12.209 C 4.997 12.154 5.009 12.096 5.036 12.036 C 5.159 11.762 5.327 11.511 5.541 11.281 C 5.755 11.05 5.993 10.852 6.259 10.688 C 6.523 10.524 6.806 10.395 7.104 10.303 C 7.403 10.212 7.702 10.166 8 10.166 C 8.309 10.166 8.611 10.211 8.911 10.3 C 9.209 10.39 9.49 10.516 9.752 10.678 C 10.015 10.84 10.251 11.037 10.46 11.267 C 10.67 11.498 10.838 11.754 10.966 12.036 C 10.992 12.096 11.004 12.154 11.004 12.209 C 11.004 12.319 10.964 12.417 10.883 12.5 C 10.802 12.583 10.706 12.625 10.595 12.625 C 10.509 12.625 10.436 12.604 10.377 12.561 C 10.317 12.518 10.265 12.461 10.222 12.388 C 10.155 12.273 10.091 12.169 10.031 12.077 C 9.97 11.986 9.907 11.899 9.839 11.818 C 9.77 11.737 9.695 11.66 9.612 11.588 C 9.528 11.515 9.429 11.443 9.313 11.37 C 9.113 11.246 8.903 11.151 8.683 11.085 C 8.463 11.019 8.236 10.986 8 10.986 Z M 6.977 13.445 C 6.977 13.303 7.004 13.172 7.059 13.048 C 7.115 12.924 7.188 12.816 7.279 12.724 C 7.373 12.633 7.48 12.559 7.603 12.504 C 7.727 12.448 7.86 12.42 8 12.42 C 8.141 12.42 8.274 12.448 8.398 12.504 C 8.521 12.559 8.629 12.633 8.722 12.724 C 8.813 12.816 8.887 12.924 8.942 13.048 C 8.998 13.172 9.025 13.303 9.025 13.445 C 9.025 13.586 8.998 13.719 8.942 13.842 C 8.887 13.966 8.813 14.074 8.722 14.165 C 8.629 14.258 8.521 14.331 8.398 14.386 C 8.274 14.442 8.141 14.47 8 14.47 C 7.86 14.47 7.727 14.442 7.603 14.386 C 7.48 14.331 7.373 14.258 7.279 14.165 C 7.188 14.074 7.115 13.966 7.059 13.842 C 7.004 13.719 6.977 13.586 6.977 13.445 Z" style="fill-opacity: 0.5; fill: rgb(255, 255, 255);"/>
  <path d="M 7.563 2 L 7.167 2.228 L 7.168 2.229 L 7.619 3.019 L 6.71 3.023 L 6.708 3.023 L 6.708 3.482 L 6.71 3.482 L 7.619 3.487 L 7.168 4.277 L 7.167 4.278 L 7.563 4.506 L 7.565 4.505 L 7.592 4.458 L 8.022 3.72 L 8.482 4.505 L 8.482 4.506 L 8.878 4.278 L 8.878 4.277 L 8.838 4.209 L 8.426 3.487 L 9.337 3.482 L 9.339 3.482 L 9.339 3.023 L 9.337 3.023 L 8.426 3.019 L 8.838 2.297 L 8.878 2.229 L 8.878 2.228 L 8.482 2 L 8.482 2.001 L 8.022 2.786 L 7.592 2.048 L 7.565 2.001 L 7.563 2 Z" color="#000000" color-rendering="auto" dominant-baseline="auto" image-rendering="auto" shape-rendering="auto" solid-color="#000000" style="font-feature-settings: normal; font-variant-alternates: normal; font-variant-caps: normal; font-variant-ligatures: normal; font-variant-numeric: normal; font-variant-position: normal; isolation: auto; mix-blend-mode: normal; text-decoration-color: rgb(0, 0, 0); text-decoration-line: none; text-decoration-style: solid; text-indent: 0px; text-orientation: mixed; text-transform: none; white-space: normal; fill: rgb(255, 255, 255); transform-box: fill-box; transform-origin: 50% 50%;"/>
</svg>