<?xml version="1.0" encoding="utf-8"?>
<svg xmlns="http://www.w3.org/2000/svg" viewBox="0 0 16 16" width="22px" height="22px">
  <path d="M 14.546 10.181 L 14.546 13.457 C 14.546 13.568 14.505 13.664 14.424 13.745 C 14.343 13.826 14.248 13.866 14.138 13.866 L 10.042 13.866 C 9.931 13.866 9.835 13.826 9.754 13.745 C 9.673 13.664 9.632 13.568 9.632 13.457 L 9.632 10.181 C 9.632 10.087 9.65 10.013 9.687 9.959 C 9.723 9.906 9.77 9.866 9.828 9.839 C 9.885 9.811 9.949 9.793 10.019 9.784 C 10.09 9.776 10.162 9.771 10.234 9.771 L 10.451 9.771 L 10.451 8.952 C 10.451 8.731 10.496 8.519 10.582 8.319 C 10.67 8.119 10.787 7.943 10.935 7.793 C 11.081 7.645 11.255 7.526 11.453 7.439 C 11.651 7.351 11.864 7.307 12.089 7.307 C 12.255 7.307 12.416 7.332 12.571 7.382 C 12.728 7.43 12.871 7.5 13.001 7.589 C 13.131 7.679 13.249 7.786 13.353 7.909 C 13.457 8.033 13.541 8.171 13.605 8.324 C 13.661 8.457 13.698 8.593 13.715 8.735 C 13.731 8.876 13.74 9.016 13.74 9.157 C 13.74 9.263 13.738 9.367 13.734 9.47 C 13.73 9.572 13.727 9.673 13.727 9.771 L 13.945 9.771 C 14.018 9.771 14.089 9.776 14.159 9.784 C 14.23 9.793 14.294 9.811 14.351 9.839 C 14.409 9.866 14.456 9.906 14.492 9.959 C 14.528 10.013 14.546 10.087 14.546 10.181 Z M 11.27 9.771 L 12.908 9.771 L 12.908 8.952 C 12.908 8.836 12.886 8.728 12.845 8.629 C 12.802 8.528 12.744 8.443 12.672 8.369 C 12.598 8.297 12.513 8.24 12.413 8.197 C 12.312 8.155 12.205 8.133 12.089 8.133 C 11.974 8.133 11.867 8.155 11.769 8.197 C 11.671 8.24 11.585 8.299 11.509 8.373 C 11.435 8.447 11.377 8.534 11.334 8.633 C 11.291 8.731 11.27 8.836 11.27 8.952 L 11.27 9.771 Z M 12.908 11.819 C 12.908 11.707 12.886 11.603 12.845 11.502 C 12.802 11.401 12.742 11.315 12.668 11.239 C 12.594 11.165 12.506 11.107 12.406 11.063 C 12.306 11.021 12.2 11 12.089 11 C 11.974 11 11.867 11.021 11.769 11.063 C 11.671 11.107 11.585 11.165 11.509 11.239 C 11.435 11.315 11.377 11.4 11.334 11.498 C 11.291 11.597 11.27 11.703 11.27 11.819 C 11.27 11.934 11.291 12.042 11.334 12.142 C 11.377 12.242 11.435 12.328 11.507 12.4 C 11.579 12.472 11.666 12.531 11.766 12.574 C 11.867 12.616 11.974 12.638 12.089 12.638 C 12.205 12.638 12.31 12.616 12.409 12.574 C 12.507 12.531 12.594 12.472 12.668 12.398 C 12.742 12.323 12.802 12.236 12.845 12.138 C 12.886 12.04 12.908 11.934 12.908 11.819 Z" style="fill: rgb(255, 255, 255);"/>
  <path d="M 7.994 5.676 C 7.674 5.676 7.358 5.711 7.044 5.778 C 6.73 5.846 6.43 5.946 6.142 6.077 C 5.854 6.206 5.582 6.365 5.326 6.553 C 5.07 6.74 4.836 6.953 4.622 7.193 C 4.516 7.312 4.423 7.433 4.344 7.557 C 4.264 7.681 4.181 7.805 4.091 7.928 C 4.045 7.993 3.995 8.042 3.944 8.078 C 3.893 8.115 3.824 8.133 3.74 8.133 C 3.629 8.133 3.533 8.093 3.452 8.012 C 3.371 7.931 3.329 7.835 3.329 7.724 C 3.329 7.655 3.346 7.588 3.381 7.519 C 3.607 7.109 3.887 6.74 4.223 6.412 C 4.557 6.083 4.926 5.803 5.33 5.574 C 5.732 5.343 6.161 5.166 6.616 5.043 C 7.07 4.919 7.529 4.857 7.994 4.857 C 8.728 4.857 9.428 4.999 10.093 5.282 C 10.758 5.567 11.343 5.974 11.846 6.509 C 11.526 6.541 11.225 6.631 10.944 6.776 C 10.535 6.419 10.077 6.145 9.572 5.957 C 9.066 5.771 8.539 5.676 7.994 5.676 Z M 7.994 8.133 C 7.76 8.133 7.53 8.165 7.306 8.229 C 7.082 8.293 6.87 8.39 6.67 8.517 C 6.457 8.654 6.284 8.803 6.152 8.965 C 6.019 9.128 5.893 9.317 5.774 9.534 C 5.731 9.607 5.681 9.664 5.621 9.707 C 5.56 9.75 5.488 9.771 5.403 9.771 C 5.291 9.771 5.196 9.731 5.115 9.65 C 5.034 9.569 4.993 9.473 4.993 9.362 C 4.993 9.298 5.006 9.24 5.031 9.188 C 5.16 8.907 5.328 8.651 5.537 8.418 C 5.747 8.186 5.982 7.988 6.244 7.826 C 6.506 7.664 6.788 7.538 7.086 7.448 C 7.385 7.359 7.688 7.314 7.994 7.314 C 8.327 7.314 8.654 7.364 8.977 7.465 C 9.299 7.565 9.596 7.711 9.869 7.903 C 9.801 8.039 9.749 8.179 9.713 8.324 C 9.677 8.471 9.652 8.618 9.639 8.767 C 9.412 8.562 9.158 8.404 8.873 8.296 C 8.591 8.187 8.296 8.133 7.994 8.133 Z M 8.813 9.976 L 8.813 11.205 C 8.719 11.333 8.6 11.432 8.455 11.505 C 8.31 11.578 8.156 11.614 7.994 11.614 C 7.853 11.614 7.721 11.586 7.598 11.531 C 7.474 11.476 7.366 11.401 7.274 11.31 C 7.183 11.218 7.108 11.111 7.054 10.987 C 6.998 10.863 6.971 10.731 6.971 10.59 C 6.971 10.45 6.998 10.317 7.054 10.193 C 7.108 10.069 7.183 9.961 7.274 9.87 C 7.366 9.779 7.474 9.705 7.598 9.65 C 7.721 9.593 7.853 9.566 7.994 9.566 C 8.156 9.566 8.31 9.602 8.455 9.674 C 8.6 9.748 8.719 9.848 8.813 9.976 Z" style="fill: rgb(255, 255, 255);"/>
  <path d="M 7.994 3.219 C 7.526 3.219 7.064 3.265 6.612 3.356 C 6.16 3.449 5.722 3.582 5.3 3.76 C 4.878 3.937 4.475 4.155 4.091 4.415 C 3.707 4.676 3.351 4.973 3.022 5.305 C 2.921 5.407 2.822 5.513 2.725 5.621 C 2.63 5.73 2.538 5.845 2.453 5.964 C 2.407 6.024 2.363 6.082 2.326 6.14 C 2.288 6.197 2.246 6.257 2.203 6.316 C 2.162 6.371 2.112 6.415 2.057 6.447 C 2.001 6.478 1.937 6.495 1.865 6.495 C 1.753 6.495 1.658 6.455 1.577 6.374 C 1.496 6.293 1.455 6.197 1.455 6.086 C 1.455 6.005 1.479 5.927 1.526 5.855 C 1.87 5.317 2.284 4.835 2.763 4.406 C 3.244 3.977 3.765 3.615 4.327 3.318 C 4.891 3.022 5.484 2.795 6.107 2.636 C 6.729 2.479 7.358 2.4 7.994 2.4 C 8.629 2.4 9.259 2.479 9.882 2.636 C 10.505 2.795 11.098 3.022 11.66 3.318 C 12.224 3.615 12.746 3.977 13.225 4.406 C 13.706 4.835 14.117 5.317 14.463 5.855 C 14.51 5.927 14.534 6.005 14.534 6.086 C 14.534 6.197 14.493 6.293 14.412 6.374 C 14.331 6.455 14.234 6.495 14.124 6.495 C 14.048 6.495 13.983 6.481 13.932 6.45 C 13.881 6.421 13.832 6.376 13.784 6.316 C 13.712 6.222 13.646 6.133 13.583 6.046 C 13.521 5.962 13.46 5.88 13.397 5.801 C 13.336 5.722 13.271 5.641 13.203 5.56 C 13.134 5.479 13.055 5.395 12.965 5.305 C 12.638 4.973 12.281 4.676 11.896 4.415 C 11.513 4.155 11.111 3.937 10.688 3.76 C 10.265 3.582 9.828 3.449 9.373 3.356 C 8.918 3.265 8.458 3.219 7.994 3.219 Z" style="fill: rgb(255, 255, 255); fill-opacity: 0.5;"/>
</svg>