<?xml version="1.0" encoding="utf-8"?>
<svg viewBox="0 0 16 16" xmlns="http://www.w3.org/2000/svg" width="22px" height="22px">
  <path d="M 1.455 5.87 C 1.455 5.788 1.479 5.711 1.526 5.639 C 1.862 5.101 2.272 4.619 2.751 4.192 C 3.231 3.765 3.755 3.403 4.323 3.105 C 4.891 2.805 5.487 2.577 6.113 2.418 C 6.737 2.261 7.366 2.182 7.997 2.182 C 8.629 2.182 9.257 2.261 9.883 2.418 C 10.508 2.577 11.103 2.805 11.669 3.105 C 12.234 3.403 12.757 3.765 13.237 4.192 C 13.718 4.619 14.129 5.101 14.469 5.639 C 14.516 5.711 14.54 5.788 14.54 5.87 C 14.54 5.98 14.5 6.077 14.419 6.158 C 14.337 6.239 14.241 6.278 14.13 6.278 C 14.045 6.278 13.98 6.264 13.935 6.234 C 13.89 6.204 13.842 6.159 13.791 6.099 C 13.65 5.929 13.518 5.757 13.394 5.584 C 13.27 5.412 13.129 5.247 12.971 5.088 C 12.643 4.755 12.287 4.459 11.903 4.199 C 11.518 3.938 11.115 3.72 10.693 3.542 C 10.271 3.366 9.833 3.231 9.38 3.139 C 8.927 3.047 8.467 3.001 7.997 3.001 C 7.528 3.001 7.067 3.047 6.614 3.139 C 6.162 3.231 5.726 3.366 5.303 3.542 C 4.88 3.72 4.478 3.938 4.095 4.199 C 3.714 4.459 3.356 4.755 3.023 5.088 C 2.921 5.19 2.822 5.296 2.725 5.405 C 2.63 5.513 2.54 5.628 2.454 5.747 C 2.41 5.808 2.371 5.868 2.333 5.927 C 2.293 5.987 2.252 6.044 2.203 6.099 C 2.157 6.156 2.108 6.2 2.054 6.231 C 2 6.264 1.937 6.278 1.865 6.278 C 1.753 6.278 1.658 6.239 1.577 6.158 C 1.496 6.077 1.455 5.98 1.455 5.87 Z M 3.33 7.509 C 3.33 7.439 3.347 7.372 3.382 7.303 C 3.599 6.894 3.877 6.525 4.214 6.196 C 4.551 5.868 4.923 5.587 5.331 5.358 C 5.739 5.126 6.171 4.95 6.628 4.826 C 7.085 4.702 7.54 4.64 7.997 4.64 C 8.501 4.64 8.994 4.71 9.475 4.848 C 9.959 4.987 10.413 5.19 10.84 5.459 C 10.652 5.464 10.469 5.499 10.292 5.562 C 10.114 5.626 9.955 5.718 9.808 5.837 C 9.232 5.585 8.629 5.459 7.997 5.459 C 7.678 5.459 7.361 5.494 7.05 5.562 C 6.738 5.63 6.438 5.729 6.148 5.86 C 5.857 5.99 5.583 6.149 5.325 6.337 C 5.066 6.525 4.832 6.737 4.624 6.977 C 4.522 7.092 4.431 7.214 4.352 7.341 C 4.273 7.47 4.187 7.593 4.092 7.713 C 4.041 7.777 3.992 7.826 3.946 7.863 C 3.899 7.899 3.83 7.917 3.74 7.917 C 3.63 7.917 3.533 7.878 3.452 7.797 C 3.371 7.715 3.33 7.619 3.33 7.509 Z M 4.995 9.14 C 4.995 9.081 5.008 9.026 5.034 8.974 C 5.162 8.693 5.33 8.436 5.54 8.202 C 5.748 7.97 5.983 7.772 6.247 7.61 C 6.509 7.448 6.79 7.322 7.088 7.232 C 7.387 7.143 7.691 7.098 7.997 7.098 C 8.33 7.098 8.651 7.146 8.958 7.239 L 8.587 7.988 C 8.386 7.941 8.189 7.917 7.997 7.917 C 7.609 7.917 7.252 7.997 6.928 8.158 C 6.604 8.318 6.32 8.552 6.077 8.859 C 6.017 8.931 5.964 9.005 5.917 9.083 C 5.87 9.159 5.824 9.239 5.776 9.32 C 5.734 9.392 5.682 9.45 5.622 9.492 C 5.563 9.535 5.491 9.557 5.405 9.557 C 5.294 9.557 5.198 9.515 5.117 9.432 C 5.036 9.348 4.995 9.252 4.995 9.14 Z M 7.126 10.913 C 7.025 10.756 6.973 10.577 6.973 10.377 C 6.973 10.247 6.998 10.125 7.046 10.004 C 7.096 9.885 7.162 9.779 7.246 9.688 C 7.328 9.596 7.427 9.521 7.54 9.461 C 7.653 9.401 7.773 9.366 7.901 9.359 L 7.126 10.913 Z" style="fill: rgb(255, 255, 255); fill-opacity: 0.5;"/>
  <path d="M 7.997 13.654 C 7.886 13.654 7.782 13.631 7.684 13.586 C 7.585 13.541 7.499 13.482 7.424 13.406 C 7.35 13.332 7.291 13.246 7.246 13.148 C 7.201 13.05 7.178 12.945 7.178 12.834 C 7.178 12.702 7.206 12.581 7.261 12.469 L 10.129 6.734 C 10.202 6.593 10.302 6.482 10.429 6.401 C 10.559 6.32 10.703 6.278 10.865 6.278 C 11.027 6.278 11.171 6.319 11.297 6.398 C 11.423 6.476 11.523 6.588 11.595 6.734 L 14.463 12.469 C 14.519 12.581 14.546 12.702 14.546 12.834 C 14.546 12.945 14.525 13.05 14.48 13.148 C 14.435 13.246 14.375 13.332 14.3 13.406 C 14.225 13.482 14.139 13.541 14.041 13.586 C 13.943 13.631 13.838 13.654 13.727 13.654 L 7.997 13.654 Z M 11.269 10.785 L 11.269 8.321 C 11.269 8.211 11.228 8.114 11.147 8.033 C 11.066 7.952 10.969 7.911 10.859 7.911 C 10.748 7.911 10.652 7.952 10.571 8.033 C 10.49 8.114 10.45 8.211 10.45 8.321 L 10.45 10.785 C 10.45 10.897 10.49 10.992 10.571 11.073 C 10.652 11.155 10.748 11.196 10.859 11.196 C 10.969 11.196 11.066 11.155 11.147 11.073 C 11.228 10.992 11.269 10.897 11.269 10.785 Z M 11.269 12.424 C 11.269 12.31 11.229 12.213 11.149 12.133 C 11.072 12.054 10.974 12.015 10.859 12.015 C 10.748 12.015 10.652 12.055 10.571 12.136 C 10.49 12.217 10.45 12.314 10.45 12.424 C 10.45 12.536 10.49 12.631 10.571 12.712 C 10.652 12.794 10.748 12.834 10.859 12.834 C 10.969 12.834 11.066 12.794 11.147 12.712 C 11.228 12.631 11.269 12.536 11.269 12.424 Z" style="fill: rgb(255, 204, 0);"/>
</svg>