<?xml version="1.0" encoding="utf-8"?>
<svg viewBox="0 0 16 16" xmlns="http://www.w3.org/2000/svg" width="22px" height="22px">
  <path d="M 14 8 C 14 8.664 13.894 9.303 13.683 9.916 C 13.473 10.529 13.178 11.09 12.799 11.598 C 12.42 12.106 11.965 12.546 11.433 12.919 C 10.903 13.292 10.318 13.573 9.682 13.76 C 9.685 13.741 9.688 13.72 9.688 13.699 L 9.688 13.637 C 9.688 13.504 9.674 13.387 9.646 13.285 C 9.619 13.183 9.58 13.091 9.529 13.007 C 9.478 12.923 9.419 12.842 9.351 12.764 C 9.283 12.685 9.205 12.601 9.119 12.512 C 9.358 12.18 9.546 11.819 9.685 11.431 C 9.823 11.042 9.936 10.648 10.021 10.25 L 8.164 10.25 C 8.172 10.188 8.178 10.125 8.182 10.063 C 8.185 10 8.188 9.937 8.188 9.875 C 8.188 9.813 8.185 9.75 8.182 9.688 C 8.178 9.625 8.172 9.562 8.164 9.5 L 10.15 9.5 C 10.182 9.25 10.206 9.001 10.224 8.753 C 10.241 8.505 10.25 8.254 10.25 8 C 10.25 7.746 10.241 7.495 10.224 7.247 C 10.206 6.999 10.182 6.75 10.15 6.5 L 5.85 6.5 L 5.844 6.529 C 5.653 6.455 5.453 6.4 5.246 6.365 C 5.039 6.33 4.832 6.313 4.625 6.313 C 4.34 6.313 4.07 6.344 3.817 6.406 C 3.797 6.41 3.772 6.417 3.74 6.427 C 3.709 6.436 3.676 6.448 3.641 6.459 C 3.606 6.471 3.574 6.481 3.544 6.488 C 3.515 6.496 3.494 6.5 3.483 6.5 C 3.451 6.504 3.422 6.506 3.394 6.506 L 3.313 6.506 C 3.254 6.506 3.196 6.505 3.137 6.503 C 3.079 6.501 3.022 6.5 2.967 6.5 L 2.896 6.758 C 2.569 6.942 2.279 7.168 2.029 7.438 C 2.077 6.926 2.185 6.435 2.355 5.967 C 2.524 5.498 2.745 5.062 3.016 4.66 C 3.288 4.258 3.603 3.892 3.96 3.565 C 4.318 3.236 4.71 2.956 5.138 2.724 C 5.566 2.491 6.021 2.313 6.503 2.188 C 6.985 2.062 7.485 2 8 2 C 8.551 2 9.082 2.071 9.594 2.214 C 10.105 2.356 10.584 2.557 11.029 2.818 C 11.475 3.077 11.88 3.39 12.245 3.755 C 12.61 4.12 12.923 4.525 13.183 4.971 C 13.443 5.416 13.644 5.895 13.786 6.406 C 13.929 6.918 14 7.45 14 8 Z M 10.021 5.75 C 9.991 5.598 9.945 5.418 9.887 5.211 C 9.829 5.004 9.756 4.789 9.67 4.567 C 9.584 4.344 9.485 4.124 9.374 3.907 C 9.263 3.691 9.138 3.496 8.999 3.325 C 8.86 3.152 8.707 3.014 8.539 2.908 C 8.371 2.803 8.191 2.75 8 2.75 C 7.805 2.75 7.624 2.803 7.458 2.908 C 7.292 3.014 7.14 3.152 7.001 3.325 C 6.862 3.496 6.737 3.691 6.626 3.907 C 6.515 4.124 6.416 4.344 6.33 4.567 C 6.244 4.789 6.172 5.004 6.113 5.211 C 6.055 5.418 6.01 5.598 5.979 5.75 L 10.021 5.75 Z M 5.211 5.75 C 5.254 5.524 5.308 5.289 5.375 5.047 C 5.442 4.805 5.518 4.567 5.607 4.332 C 5.695 4.098 5.795 3.87 5.908 3.649 C 6.021 3.429 6.148 3.225 6.289 3.037 C 5.953 3.151 5.635 3.296 5.334 3.474 C 5.033 3.652 4.754 3.856 4.496 4.086 C 4.238 4.317 4.005 4.571 3.796 4.851 C 3.587 5.13 3.406 5.43 3.254 5.75 L 5.211 5.75 Z M 12.746 5.75 C 12.598 5.434 12.418 5.136 12.207 4.857 C 11.996 4.577 11.761 4.321 11.501 4.089 C 11.241 3.856 10.961 3.652 10.66 3.474 C 10.36 3.296 10.045 3.151 9.717 3.037 C 10.002 3.432 10.23 3.865 10.399 4.335 C 10.57 4.806 10.699 5.278 10.789 5.75 L 12.746 5.75 Z M 13.033 9.5 C 13.178 9.019 13.25 8.52 13.25 8 C 13.25 7.48 13.178 6.981 13.033 6.5 L 10.906 6.5 C 10.942 6.75 10.966 6.999 10.98 7.247 C 10.993 7.495 11 7.746 11 8 C 11 8.254 10.993 8.505 10.98 8.753 C 10.966 9.001 10.942 9.25 10.906 9.5 L 13.033 9.5 Z M 8.75 13.625 C 8.75 13.726 8.713 13.815 8.639 13.889 C 8.565 13.963 8.476 14 8.375 14 C 8.274 14 8.185 13.963 8.111 13.889 L 6.196 11.973 C 5.957 12.157 5.704 12.29 5.434 12.374 C 5.164 12.458 4.879 12.5 4.579 12.5 C 4.223 12.5 3.889 12.429 3.577 12.286 C 3.264 12.144 2.99 11.953 2.756 11.712 C 2.521 11.472 2.337 11.193 2.203 10.874 C 2.068 10.556 2 10.223 2 9.875 C 2 9.516 2.069 9.177 2.208 8.859 C 2.347 8.54 2.536 8.262 2.773 8.023 C 3.012 7.786 3.29 7.597 3.609 7.458 C 3.927 7.319 4.266 7.25 4.625 7.25 C 4.973 7.25 5.306 7.318 5.624 7.453 C 5.943 7.587 6.222 7.771 6.462 8.006 C 6.703 8.24 6.894 8.514 7.036 8.827 C 7.179 9.139 7.25 9.473 7.25 9.829 C 7.25 10.129 7.208 10.414 7.124 10.683 C 7.04 10.954 6.906 11.207 6.723 11.446 L 8.639 13.361 C 8.713 13.435 8.75 13.524 8.75 13.625 Z M 4.625 11.75 L 4.666 11.75 C 4.92 11.75 5.158 11.699 5.381 11.598 C 5.604 11.496 5.798 11.359 5.964 11.188 C 6.13 11.016 6.261 10.816 6.357 10.59 C 6.452 10.363 6.5 10.125 6.5 9.875 C 6.5 9.613 6.451 9.37 6.354 9.142 C 6.256 8.916 6.122 8.718 5.952 8.548 C 5.782 8.378 5.584 8.245 5.358 8.146 C 5.131 8.049 4.887 8 4.625 8 C 4.363 8 4.12 8.049 3.892 8.146 C 3.666 8.245 3.468 8.378 3.298 8.548 C 3.128 8.718 2.995 8.916 2.896 9.142 C 2.799 9.37 2.75 9.613 2.75 9.875 C 2.75 10.137 2.799 10.381 2.896 10.608 C 2.995 10.834 3.128 11.032 3.298 11.203 C 3.468 11.372 3.666 11.506 3.892 11.604 C 4.12 11.701 4.363 11.75 4.625 11.75 Z M 12.746 10.25 L 10.789 10.25 C 10.742 10.48 10.687 10.716 10.622 10.956 C 10.558 11.197 10.482 11.433 10.393 11.668 C 10.306 11.902 10.205 12.129 10.092 12.348 C 9.979 12.567 9.852 12.772 9.711 12.963 C 10.043 12.846 10.36 12.7 10.66 12.523 C 10.961 12.348 11.24 12.145 11.498 11.914 C 11.756 11.683 11.99 11.429 12.202 11.149 C 12.412 10.87 12.594 10.57 12.746 10.25 Z" style="fill: rgb(255, 255, 255);"/>
</svg>