<?xml version="1.0" encoding="utf-8"?>
<svg xmlns="http://www.w3.org/2000/svg" width="22px" height="22px" viewBox="0 0 16 16">
  <path d="M 7.133 5.4 L 7.133 7.4 C 7.133 7.468 7.107 7.526 7.059 7.576 C 7.009 7.625 6.951 7.649 6.883 7.649 L 4.384 7.649 C 4.315 7.649 4.257 7.625 4.207 7.576 C 4.159 7.526 4.133 7.468 4.133 7.4 L 4.133 5.4 C 4.133 5.342 4.144 5.298 4.166 5.264 C 4.189 5.232 4.217 5.208 4.252 5.191 C 4.288 5.174 4.326 5.163 4.369 5.158 C 4.412 5.152 4.456 5.15 4.5 5.15 L 4.633 5.15 L 4.633 4.65 C 4.633 4.515 4.66 4.386 4.713 4.263 C 4.766 4.142 4.838 4.035 4.928 3.943 C 5.017 3.852 5.123 3.78 5.245 3.726 C 5.365 3.673 5.495 3.646 5.633 3.646 C 5.734 3.646 5.833 3.661 5.928 3.691 C 6.023 3.721 6.11 3.764 6.189 3.818 C 6.269 3.873 6.34 3.938 6.405 4.014 C 6.468 4.089 6.519 4.173 6.558 4.267 C 6.592 4.348 6.615 4.431 6.625 4.517 C 6.635 4.603 6.641 4.689 6.641 4.775 C 6.641 4.84 6.639 4.904 6.637 4.967 C 6.634 5.028 6.633 5.09 6.633 5.15 L 6.765 5.15 C 6.81 5.15 6.853 5.152 6.897 5.158 C 6.939 5.163 6.978 5.174 7.013 5.191 C 7.049 5.208 7.077 5.232 7.1 5.264 C 7.122 5.298 7.133 5.342 7.133 5.4 Z M 5.134 5.15 L 6.132 5.15 L 6.132 4.65 C 6.132 4.58 6.12 4.514 6.094 4.453 C 6.068 4.392 6.032 4.339 5.988 4.295 C 5.944 4.251 5.892 4.215 5.83 4.19 C 5.769 4.164 5.704 4.15 5.633 4.15 C 5.563 4.15 5.497 4.164 5.437 4.19 C 5.377 4.215 5.325 4.251 5.279 4.296 C 5.234 4.342 5.198 4.395 5.172 4.455 C 5.146 4.515 5.134 4.58 5.134 4.65 L 5.134 5.15 Z M 6.132 6.399 C 6.132 6.332 6.12 6.268 6.094 6.206 C 6.068 6.145 6.032 6.092 5.986 6.047 C 5.941 6.001 5.888 5.966 5.827 5.939 C 5.765 5.912 5.701 5.9 5.633 5.9 C 5.563 5.9 5.497 5.912 5.437 5.939 C 5.377 5.966 5.325 6.001 5.279 6.047 C 5.234 6.092 5.198 6.144 5.172 6.204 C 5.146 6.264 5.134 6.329 5.134 6.399 C 5.134 6.47 5.146 6.536 5.172 6.596 C 5.198 6.659 5.233 6.71 5.277 6.755 C 5.322 6.799 5.375 6.834 5.436 6.86 C 5.497 6.887 5.563 6.899 5.633 6.899 C 5.704 6.899 5.769 6.887 5.829 6.86 C 5.889 6.834 5.941 6.798 5.986 6.753 C 6.032 6.708 6.068 6.655 6.094 6.595 C 6.12 6.535 6.132 6.47 6.132 6.399 Z" style="fill: rgb(255, 255, 255);"/>
  <path d="M 11 11 L 11 11.75 L 10.25 11.75 L 10.25 13.25 L 11 13.25 L 11 14 L 4.625 14 C 4.524 14 4.435 13.963 4.361 13.889 C 4.287 13.815 4.25 13.726 4.25 13.625 C 4.25 13.524 4.287 13.435 4.361 13.361 C 4.435 13.287 4.524 13.25 4.625 13.25 L 5.75 13.25 L 5.75 11.75 L 3.471 11.75 C 3.276 11.75 3.089 11.71 2.911 11.63 C 2.734 11.55 2.578 11.442 2.443 11.308 C 2.308 11.173 2.2 11.017 2.12 10.839 C 2.04 10.661 2 10.474 2 10.279 L 2 3.471 C 2 3.276 2.04 3.089 2.12 2.911 C 2.2 2.734 2.308 2.578 2.443 2.443 C 2.578 2.308 2.734 2.2 2.911 2.12 C 3.089 2.04 3.276 2 3.471 2 L 9.7 2 C 9.567 2.227 9.5 2.476 9.5 2.75 L 3.5 2.75 C 3.394 2.75 3.297 2.77 3.207 2.809 C 3.118 2.848 3.038 2.902 2.97 2.97 C 2.902 3.038 2.848 3.118 2.809 3.207 C 2.77 3.297 2.75 3.394 2.75 3.5 L 2.75 10.25 C 2.75 10.356 2.77 10.454 2.809 10.546 C 2.848 10.638 2.901 10.717 2.967 10.783 C 3.034 10.849 3.112 10.903 3.204 10.942 C 3.296 10.981 3.394 11 3.5 11 L 11 11 Z M 6.5 13.25 L 9.5 13.25 L 9.5 11.75 L 6.5 11.75 L 6.5 13.25 Z" style="fill: rgb(255, 255, 255);"/>
  <path d="M 12.875 2 C 13.027 2 13.172 2.029 13.308 2.088 C 13.445 2.146 13.566 2.227 13.669 2.331 C 13.773 2.434 13.854 2.555 13.912 2.692 C 13.971 2.828 14 2.973 14 3.125 L 14 6.125 C 14 6.277 13.971 6.422 13.912 6.559 C 13.854 6.695 13.773 6.816 13.669 6.919 C 13.566 7.023 13.445 7.104 13.308 7.162 C 13.172 7.221 13.027 7.25 12.875 7.25 L 12.5 7.25 L 12.5 13.625 C 12.5 13.726 12.463 13.815 12.389 13.889 C 12.315 13.963 12.226 14 12.125 14 C 12.024 14 11.935 13.963 11.861 13.889 C 11.787 13.815 11.75 13.726 11.75 13.625 L 11.75 7.25 L 11.375 7.25 C 11.223 7.25 11.078 7.221 10.942 7.162 C 10.805 7.104 10.684 7.023 10.581 6.919 C 10.477 6.816 10.396 6.695 10.338 6.559 C 10.279 6.422 10.25 6.277 10.25 6.125 L 10.25 3.125 C 10.25 2.973 10.279 2.828 10.338 2.692 C 10.396 2.555 10.477 2.434 10.581 2.331 C 10.684 2.227 10.805 2.146 10.942 2.088 C 11.078 2.029 11.223 2 11.375 2 L 12.875 2 Z M 11.375 2.75 C 11.274 2.75 11.185 2.787 11.111 2.861 C 11.037 2.935 11 3.024 11 3.125 L 11 3.5 L 13.25 3.5 L 13.25 3.125 C 13.25 3.024 13.213 2.935 13.139 2.861 C 13.065 2.787 12.976 2.75 12.875 2.75 L 11.375 2.75 Z M 12.875 6.5 C 12.976 6.5 13.065 6.463 13.139 6.389 C 13.213 6.315 13.25 6.226 13.25 6.125 L 13.25 4.25 L 11 4.25 L 11 6.125 C 11 6.226 11.037 6.315 11.111 6.389 C 11.185 6.463 11.274 6.5 11.375 6.5 L 12.875 6.5 Z" style="fill: rgb(255, 255, 255); stroke-width: 1; fill-opacity: 0.5;"/>
  <path style="border-block-color: rgb(238, 238, 236); border-color: rgb(238, 238, 236); border-inline-color: rgb(238, 238, 236); caret-color: rgb(238, 238, 236); color: rgb(238, 238, 236); column-rule-color: rgb(238, 238, 236); outline-color: rgb(238, 238, 236); text-decoration: rgb(238, 238, 236); text-emphasis-color: rgb(238, 238, 236); -webkit-text-fill-color: rgb(238, 238, 236); -webkit-text-stroke-color: rgb(238, 238, 236); stroke-width: 0.727; fill: rgb(255, 255, 255); transform-box: fill-box; transform-origin: 50% 50%;" class="ColorScheme-Text" d="M 5.653 6.455 C 5.101 6.455 4.653 6.903 4.653 7.455 C 4.654 7.852 4.889 8.212 5.253 8.37 L 5.253 9.455 L 5.653 9.856 L 6.053 9.455 L 6.053 9.315 L 6.253 9.166 L 6.053 9.016 L 6.053 8.866 L 6.253 8.666 L 6.053 8.466 L 6.053 8.371 C 6.417 8.212 6.653 7.853 6.653 7.455 C 6.653 6.903 6.205 6.455 5.653 6.455 Z M 5.653 6.655 C 5.874 6.655 6.053 6.834 6.053 7.055 C 6.053 7.276 5.874 7.455 5.653 7.455 C 5.432 7.455 5.253 7.276 5.253 7.055 C 5.253 6.834 5.432 6.655 5.653 6.655 Z M 5.453 8.455 L 5.653 8.455 L 5.653 9.255 L 5.453 9.255 L 5.453 8.455 Z" transform="matrix(-1, 0, 0, -1, 0, -0.000001)"/>
</svg>