<?xml version="1.0" encoding="utf-8"?>
<svg xmlns="http://www.w3.org/2000/svg" viewBox="0 0 16 16">
  <path d="M 16 11.509 L 16 15.513 C 16 15.649 15.95 15.766 15.851 15.865 C 15.752 15.964 15.635 16.014 15.5 16.014 L 10.495 16.014 C 10.359 16.014 10.242 15.964 10.143 15.865 C 10.044 15.766 9.994 15.649 9.994 15.513 L 9.994 11.509 C 9.994 11.395 10.016 11.305 10.061 11.239 C 10.105 11.174 10.162 11.125 10.233 11.091 C 10.303 11.057 10.381 11.035 10.467 11.024 C 10.553 11.014 10.641 11.009 10.729 11.009 L 10.995 11.009 L 10.995 10.008 C 10.995 9.737 11.049 9.479 11.155 9.234 C 11.262 8.989 11.406 8.775 11.586 8.592 C 11.765 8.41 11.977 8.265 12.219 8.158 C 12.461 8.051 12.721 7.998 12.997 7.998 C 13.2 7.998 13.397 8.028 13.587 8.088 C 13.778 8.148 13.952 8.233 14.111 8.342 C 14.27 8.452 14.414 8.582 14.542 8.733 C 14.669 8.884 14.772 9.054 14.85 9.241 C 14.918 9.403 14.963 9.57 14.983 9.742 C 15.004 9.914 15.015 10.086 15.015 10.258 C 15.015 10.388 15.012 10.516 15.007 10.641 C 15.002 10.766 14.999 10.889 14.999 11.009 L 15.265 11.009 C 15.354 11.009 15.441 11.014 15.527 11.024 C 15.613 11.035 15.691 11.057 15.761 11.091 C 15.832 11.125 15.889 11.174 15.934 11.239 C 15.978 11.305 16 11.395 16 11.509 Z M 11.996 11.009 L 13.998 11.009 L 13.998 10.008 C 13.998 9.867 13.972 9.735 13.92 9.613 C 13.868 9.49 13.797 9.385 13.709 9.296 C 13.62 9.208 13.515 9.137 13.392 9.085 C 13.269 9.033 13.138 9.007 12.997 9.007 C 12.856 9.007 12.726 9.033 12.606 9.085 C 12.486 9.137 12.381 9.209 12.289 9.3 C 12.198 9.391 12.126 9.497 12.074 9.617 C 12.022 9.737 11.996 9.867 11.996 10.008 L 11.996 11.009 Z M 13.998 13.511 C 13.998 13.376 13.972 13.247 13.92 13.124 C 13.868 13.002 13.796 12.895 13.705 12.804 C 13.614 12.712 13.507 12.641 13.384 12.588 C 13.262 12.536 13.133 12.51 12.997 12.51 C 12.856 12.51 12.726 12.536 12.606 12.588 C 12.486 12.641 12.381 12.712 12.289 12.804 C 12.198 12.895 12.126 13 12.074 13.12 C 12.022 13.24 11.996 13.37 11.996 13.511 C 11.996 13.652 12.022 13.784 12.074 13.906 C 12.126 14.029 12.197 14.134 12.285 14.223 C 12.374 14.311 12.48 14.382 12.602 14.434 C 12.725 14.486 12.856 14.512 12.997 14.512 C 13.138 14.512 13.268 14.486 13.388 14.434 C 13.508 14.382 13.614 14.31 13.705 14.219 C 13.796 14.128 13.868 14.022 13.92 13.902 C 13.972 13.782 13.998 13.652 13.998 13.511 Z" style="fill: rgb(255, 255, 255);"/>
  <path d="M 7.992 3.001 C 7.419 3.001 6.856 3.057 6.303 3.169 C 5.75 3.281 5.216 3.445 4.7 3.662 C 4.184 3.878 3.691 4.145 3.222 4.463 C 2.753 4.781 2.317 5.144 1.916 5.55 C 1.791 5.675 1.67 5.804 1.552 5.937 C 1.435 6.07 1.324 6.21 1.22 6.356 C 1.163 6.429 1.11 6.5 1.064 6.571 C 1.017 6.641 0.967 6.713 0.915 6.786 C 0.863 6.854 0.803 6.907 0.735 6.946 C 0.667 6.985 0.589 7.005 0.5 7.005 C 0.365 7.005 0.248 6.955 0.149 6.856 C 0.05 6.757 0 6.64 0 6.504 C 0 6.405 0.029 6.311 0.086 6.223 C 0.508 5.566 1.013 4.976 1.599 4.452 C 2.186 3.928 2.823 3.485 3.511 3.122 C 4.199 2.76 4.924 2.482 5.685 2.289 C 6.446 2.096 7.215 2 7.992 2 C 8.769 2 9.538 2.096 10.299 2.289 C 11.06 2.482 11.785 2.76 12.473 3.122 C 13.161 3.485 13.799 3.928 14.385 4.452 C 14.972 4.976 15.476 5.566 15.898 6.223 C 15.956 6.311 15.984 6.405 15.984 6.504 C 15.984 6.64 15.935 6.757 15.836 6.856 C 15.737 6.955 15.619 7.005 15.484 7.005 C 15.39 7.005 15.312 6.987 15.249 6.95 C 15.187 6.914 15.127 6.859 15.069 6.786 C 14.981 6.671 14.899 6.562 14.823 6.457 C 14.747 6.353 14.672 6.253 14.596 6.156 C 14.521 6.06 14.441 5.962 14.358 5.863 C 14.274 5.764 14.178 5.66 14.068 5.55 C 13.667 5.144 13.232 4.781 12.762 4.463 C 12.293 4.145 11.801 3.878 11.284 3.662 C 10.768 3.445 10.233 3.281 9.677 3.169 C 9.122 3.057 8.56 3.001 7.992 3.001 Z M 7.992 6.004 C 7.601 6.004 7.214 6.046 6.831 6.129 C 6.448 6.212 6.08 6.334 5.728 6.493 C 5.376 6.652 5.044 6.846 4.731 7.075 C 4.418 7.305 4.132 7.565 3.871 7.857 C 3.741 8.003 3.627 8.152 3.531 8.303 C 3.434 8.454 3.331 8.605 3.222 8.757 C 3.165 8.835 3.105 8.896 3.042 8.94 C 2.979 8.985 2.896 9.007 2.792 9.007 C 2.656 9.007 2.539 8.957 2.44 8.858 C 2.341 8.759 2.291 8.642 2.291 8.506 C 2.291 8.423 2.312 8.34 2.354 8.256 C 2.63 7.756 2.973 7.305 3.382 6.903 C 3.791 6.502 4.242 6.16 4.735 5.879 C 5.228 5.597 5.752 5.381 6.307 5.23 C 6.862 5.079 7.424 5.003 7.992 5.003 C 8.889 5.003 9.744 5.176 10.557 5.523 C 11.37 5.87 12.085 6.369 12.7 7.021 C 12.309 7.062 11.941 7.172 11.597 7.349 C 11.097 6.911 10.538 6.577 9.92 6.348 C 9.302 6.119 8.659 6.004 7.992 6.004 Z M 7.992 9.007 C 7.705 9.007 7.425 9.046 7.152 9.124 C 6.878 9.202 6.618 9.32 6.373 9.476 C 6.113 9.643 5.902 9.825 5.74 10.023 C 5.578 10.222 5.425 10.454 5.279 10.719 C 5.226 10.808 5.164 10.878 5.091 10.931 C 5.018 10.983 4.929 11.009 4.825 11.009 C 4.689 11.009 4.572 10.959 4.473 10.86 C 4.374 10.761 4.325 10.644 4.325 10.508 C 4.325 10.43 4.34 10.36 4.371 10.297 C 4.528 9.953 4.734 9.639 4.989 9.355 C 5.245 9.071 5.533 8.83 5.853 8.631 C 6.174 8.433 6.517 8.28 6.882 8.17 C 7.247 8.061 7.617 8.006 7.992 8.006 C 8.399 8.006 8.799 8.067 9.193 8.19 C 9.586 8.312 9.95 8.491 10.283 8.725 C 10.2 8.892 10.136 9.064 10.092 9.241 C 10.048 9.419 10.018 9.599 10.002 9.781 C 9.726 9.531 9.414 9.339 9.067 9.206 C 8.721 9.073 8.362 9.007 7.992 9.007 Z M 8.993 11.259 L 8.993 12.761 C 8.878 12.917 8.733 13.039 8.555 13.128 C 8.378 13.217 8.19 13.261 7.992 13.261 C 7.82 13.261 7.659 13.227 7.507 13.159 C 7.356 13.092 7.224 13.002 7.112 12.89 C 7 12.777 6.91 12.646 6.843 12.495 C 6.775 12.343 6.741 12.182 6.741 12.01 C 6.741 11.838 6.775 11.676 6.843 11.525 C 6.91 11.374 7 11.242 7.112 11.13 C 7.224 11.018 7.356 10.928 7.507 10.86 C 7.659 10.792 7.82 10.759 7.992 10.759 C 8.19 10.759 8.378 10.803 8.555 10.891 C 8.733 10.98 8.878 11.103 8.993 11.259 Z" style="fill: rgb(255, 255, 255); fill-opacity: 0.5;"/>
</svg>