<?xml version="1.0" encoding="utf-8"?>
<svg viewBox="0 0 16 16" xmlns="http://www.w3.org/2000/svg">
  <path d="M 8 3.002 C 7.436 3.002 6.879 3.058 6.329 3.17 C 5.778 3.282 5.245 3.447 4.728 3.663 C 4.211 3.88 3.718 4.145 3.249 4.458 C 2.779 4.771 2.346 5.128 1.949 5.53 C 1.751 5.729 1.573 5.936 1.417 6.153 C 1.26 6.369 1.093 6.582 0.916 6.791 C 0.853 6.864 0.793 6.918 0.736 6.955 C 0.678 6.992 0.6 7.01 0.501 7.01 C 0.36 7.01 0.241 6.962 0.145 6.865 C 0.048 6.768 0 6.65 0 6.509 C 0 6.41 0.029 6.316 0.086 6.227 C 0.498 5.569 0.998 4.98 1.585 4.458 C 2.172 3.936 2.813 3.492 3.507 3.127 C 4.201 2.762 4.93 2.483 5.695 2.29 C 6.459 2.097 7.228 2 8 2 C 8.767 2 9.534 2.097 10.301 2.29 C 11.068 2.483 11.798 2.762 12.489 3.127 C 13.181 3.492 13.82 3.936 14.407 4.458 C 14.994 4.98 15.496 5.569 15.914 6.227 C 15.971 6.316 16 6.41 16 6.509 C 16 6.65 15.952 6.768 15.855 6.865 C 15.759 6.962 15.64 7.01 15.499 7.01 C 15.41 7.01 15.333 6.99 15.268 6.951 C 15.203 6.912 15.142 6.858 15.084 6.791 C 15.027 6.718 14.973 6.643 14.924 6.568 C 14.874 6.492 14.821 6.417 14.763 6.344 C 14.654 6.198 14.539 6.059 14.419 5.926 C 14.299 5.793 14.176 5.661 14.051 5.53 C 13.649 5.128 13.215 4.771 12.748 4.458 C 12.28 4.145 11.79 3.88 11.276 3.663 C 10.762 3.447 10.228 3.282 9.675 3.17 C 9.122 3.058 8.564 3.002 8 3.002 Z M 8 6.008 C 7.614 6.008 7.23 6.05 6.849 6.133 C 6.468 6.217 6.102 6.338 5.75 6.497 C 5.397 6.656 5.063 6.851 4.748 7.08 C 4.432 7.31 4.146 7.568 3.89 7.855 C 3.765 7.996 3.652 8.145 3.55 8.301 C 3.448 8.458 3.34 8.612 3.225 8.763 C 3.162 8.841 3.101 8.903 3.041 8.947 C 2.981 8.992 2.899 9.014 2.795 9.014 C 2.659 9.014 2.541 8.964 2.442 8.865 C 2.343 8.766 2.294 8.648 2.294 8.513 C 2.294 8.429 2.314 8.346 2.356 8.262 C 2.622 7.766 2.962 7.318 3.374 6.916 C 3.786 6.514 4.243 6.172 4.744 5.89 C 5.245 5.609 5.773 5.391 6.329 5.237 C 6.885 5.083 7.442 5.006 8 5.006 C 8.553 5.006 9.109 5.083 9.667 5.237 C 10.226 5.391 10.755 5.609 11.256 5.89 C 11.757 6.172 12.214 6.514 12.626 6.916 C 13.038 7.318 13.378 7.766 13.644 8.262 C 13.686 8.346 13.706 8.429 13.706 8.513 C 13.706 8.648 13.657 8.766 13.558 8.865 C 13.459 8.964 13.341 9.014 13.205 9.014 C 13.101 9.014 13.019 8.992 12.959 8.947 C 12.899 8.903 12.838 8.841 12.775 8.763 C 12.66 8.612 12.552 8.458 12.45 8.301 C 12.348 8.145 12.235 7.996 12.11 7.855 C 11.854 7.568 11.568 7.31 11.252 7.08 C 10.937 6.851 10.603 6.656 10.25 6.497 C 9.898 6.338 9.532 6.217 9.151 6.133 C 8.77 6.05 8.386 6.008 8 6.008 Z M 8 9.014 C 7.708 9.014 7.429 9.054 7.162 9.135 C 6.896 9.216 6.638 9.332 6.387 9.483 C 6.247 9.572 6.125 9.661 6.023 9.75 C 5.922 9.838 5.83 9.932 5.75 10.031 C 5.669 10.13 5.592 10.236 5.519 10.348 C 5.446 10.461 5.367 10.587 5.284 10.728 C 5.232 10.817 5.169 10.887 5.096 10.939 C 5.023 10.992 4.934 11.018 4.83 11.018 C 4.689 11.018 4.57 10.968 4.474 10.869 C 4.377 10.77 4.329 10.65 4.329 10.509 C 4.329 10.441 4.344 10.371 4.376 10.297 C 4.527 9.963 4.733 9.656 4.994 9.374 C 5.255 9.092 5.547 8.851 5.871 8.65 C 6.194 8.449 6.539 8.292 6.904 8.18 C 7.269 8.068 7.635 8.012 8 8.012 C 8.376 8.012 8.746 8.067 9.112 8.176 C 9.477 8.286 9.82 8.44 10.141 8.638 C 10.462 8.836 10.75 9.076 11.006 9.358 C 11.262 9.64 11.468 9.953 11.624 10.297 C 11.656 10.371 11.671 10.441 11.671 10.509 C 11.671 10.644 11.622 10.763 11.523 10.865 C 11.423 10.967 11.306 11.018 11.17 11.018 C 11.066 11.018 10.977 10.992 10.904 10.939 C 10.831 10.887 10.768 10.817 10.716 10.728 C 10.633 10.587 10.554 10.461 10.481 10.348 C 10.408 10.236 10.33 10.13 10.247 10.031 C 10.163 9.932 10.07 9.838 9.969 9.75 C 9.867 9.661 9.746 9.572 9.605 9.483 C 9.359 9.332 9.102 9.216 8.834 9.135 C 8.565 9.054 8.287 9.014 8 9.014 Z M 6.748 12.02 C 6.748 11.847 6.781 11.686 6.849 11.534 C 6.917 11.383 7.007 11.251 7.119 11.139 C 7.232 11.027 7.363 10.937 7.515 10.869 C 7.666 10.801 7.828 10.767 8 10.767 C 8.172 10.767 8.334 10.801 8.485 10.869 C 8.637 10.937 8.768 11.027 8.881 11.139 C 8.993 11.251 9.083 11.383 9.151 11.534 C 9.219 11.686 9.252 11.847 9.252 12.02 C 9.252 12.192 9.219 12.354 9.151 12.505 C 9.083 12.656 8.993 12.788 8.881 12.9 C 8.768 13.012 8.637 13.102 8.485 13.17 C 8.334 13.238 8.172 13.272 8 13.272 C 7.828 13.272 7.666 13.238 7.515 13.17 C 7.363 13.102 7.232 13.012 7.119 12.9 C 7.007 12.788 6.917 12.656 6.849 12.505 C 6.781 12.354 6.748 12.192 6.748 12.02 Z" style="fill: rgb(255, 255, 255);"/>
</svg>