<?xml version="1.0" encoding="utf-8"?>
<svg viewBox="0 0 16 16" xmlns="http://www.w3.org/2000/svg" width="22px" height="22px">
  <path d="M 14.546 10.181 L 14.546 13.457 C 14.546 13.568 14.505 13.664 14.424 13.745 C 14.343 13.826 14.248 13.866 14.138 13.866 L 10.042 13.866 C 9.931 13.866 9.835 13.826 9.754 13.745 C 9.673 13.664 9.632 13.568 9.632 13.457 L 9.632 10.181 C 9.632 10.087 9.65 10.013 9.687 9.959 C 9.723 9.906 9.77 9.866 9.828 9.839 C 9.885 9.811 9.949 9.793 10.019 9.784 C 10.09 9.776 10.162 9.771 10.234 9.771 L 10.451 9.771 L 10.451 8.952 C 10.451 8.731 10.496 8.519 10.582 8.319 C 10.67 8.119 10.787 7.943 10.935 7.793 C 11.081 7.645 11.255 7.526 11.453 7.439 C 11.651 7.351 11.864 7.307 12.089 7.307 C 12.255 7.307 12.416 7.332 12.571 7.382 C 12.728 7.43 12.871 7.5 13.001 7.589 C 13.131 7.679 13.249 7.786 13.353 7.909 C 13.457 8.033 13.541 8.171 13.605 8.324 C 13.661 8.457 13.698 8.593 13.715 8.735 C 13.731 8.876 13.74 9.016 13.74 9.157 C 13.74 9.263 13.738 9.367 13.734 9.47 C 13.73 9.572 13.727 9.673 13.727 9.771 L 13.945 9.771 C 14.018 9.771 14.089 9.776 14.159 9.784 C 14.23 9.793 14.294 9.811 14.351 9.839 C 14.409 9.866 14.456 9.906 14.492 9.959 C 14.528 10.013 14.546 10.087 14.546 10.181 Z M 11.27 9.771 L 12.908 9.771 L 12.908 8.952 C 12.908 8.836 12.886 8.728 12.845 8.629 C 12.802 8.528 12.744 8.443 12.672 8.369 C 12.598 8.297 12.513 8.24 12.413 8.197 C 12.312 8.155 12.205 8.133 12.089 8.133 C 11.974 8.133 11.867 8.155 11.769 8.197 C 11.671 8.24 11.585 8.299 11.509 8.373 C 11.435 8.447 11.377 8.534 11.334 8.633 C 11.291 8.731 11.27 8.836 11.27 8.952 L 11.27 9.771 Z M 12.908 11.819 C 12.908 11.707 12.886 11.603 12.845 11.502 C 12.802 11.401 12.742 11.315 12.668 11.239 C 12.594 11.165 12.506 11.107 12.406 11.063 C 12.306 11.021 12.2 11 12.089 11 C 11.974 11 11.867 11.021 11.769 11.063 C 11.671 11.107 11.585 11.165 11.509 11.239 C 11.435 11.315 11.377 11.4 11.334 11.498 C 11.291 11.597 11.27 11.703 11.27 11.819 C 11.27 11.934 11.291 12.042 11.334 12.142 C 11.377 12.242 11.435 12.328 11.507 12.4 C 11.579 12.472 11.666 12.531 11.766 12.574 C 11.867 12.616 11.974 12.638 12.089 12.638 C 12.205 12.638 12.31 12.616 12.409 12.574 C 12.507 12.531 12.594 12.472 12.668 12.398 C 12.742 12.323 12.802 12.236 12.845 12.138 C 12.886 12.04 12.908 11.934 12.908 11.819 Z" style="fill: rgb(255, 255, 255);"/>
</svg>