<?xml version="1.0" encoding="utf-8"?>
<svg xmlns="http://www.w3.org/2000/svg" viewBox="0 0 16 16">
  <path d="M 2.336 7.875 C 2.242 7.875 2.163 7.842 2.098 7.777 C 2.033 7.712 2 7.633 2 7.539 L 2 4.938 L 0.406 4.938 C 0.333 4.938 0.273 4.914 0.227 4.867 C 0.18 4.82 0.156 4.76 0.156 4.688 C 0.156 4.667 0.185 4.592 0.242 4.465 C 0.299 4.337 0.376 4.174 0.473 3.977 C 0.569 3.779 0.68 3.555 0.805 3.305 C 0.93 3.055 1.057 2.798 1.188 2.535 C 1.318 2.272 1.448 2.012 1.578 1.754 C 1.708 1.496 1.828 1.26 1.938 1.047 C 2.047 0.833 2.141 0.65 2.219 0.496 C 2.297 0.342 2.349 0.24 2.375 0.188 C 2.401 0.13 2.44 0.085 2.492 0.051 C 2.544 0.017 2.602 0 2.664 0 C 2.758 0 2.837 0.033 2.902 0.098 C 2.967 0.163 3 0.242 3 0.336 L 3 2.938 L 4.594 2.938 C 4.667 2.938 4.727 2.961 4.773 3.008 C 4.82 3.055 4.844 3.115 4.844 3.188 C 4.844 3.229 4.836 3.266 4.82 3.297 L 2.625 7.688 C 2.599 7.745 2.56 7.79 2.508 7.824 C 2.456 7.858 2.398 7.875 2.336 7.875 Z M 2.445 12.938 C 2.117 12.938 1.805 12.871 1.508 12.738 C 1.211 12.605 0.952 12.428 0.73 12.207 C 0.509 11.986 0.332 11.727 0.199 11.43 C 0.066 11.133 0 10.82 0 10.492 L 0 5.938 L 1 5.938 L 1 10.438 C 1 10.641 1.039 10.833 1.117 11.016 C 1.195 11.198 1.303 11.358 1.441 11.496 C 1.579 11.634 1.74 11.742 1.922 11.82 C 2.104 11.898 2.297 11.938 2.5 11.938 L 11.5 11.938 C 11.703 11.938 11.896 11.898 12.078 11.82 C 12.26 11.742 12.421 11.634 12.559 11.496 C 12.697 11.358 12.805 11.198 12.883 11.016 C 12.961 10.833 13 10.641 13 10.438 L 13 5.438 C 13 5.234 12.961 5.042 12.883 4.859 C 12.805 4.677 12.697 4.517 12.559 4.379 C 12.421 4.241 12.26 4.133 12.078 4.055 C 11.896 3.977 11.703 3.938 11.5 3.938 L 5.898 3.938 C 6.029 3.688 6.094 3.432 6.094 3.172 C 6.094 3.13 6.092 3.091 6.09 3.055 C 6.087 3.018 6.083 2.979 6.078 2.938 L 11.555 2.938 C 11.888 2.938 12.202 3.004 12.496 3.137 C 12.79 3.27 13.048 3.447 13.27 3.668 C 13.491 3.889 13.667 4.148 13.797 4.445 C 13.927 4.742 13.995 5.055 14 5.383 L 14 6.438 L 15 6.438 C 15.135 6.438 15.263 6.464 15.383 6.516 C 15.503 6.568 15.609 6.641 15.703 6.734 C 15.797 6.828 15.87 6.935 15.922 7.055 C 15.974 7.174 16 7.302 16 7.438 L 16 8.438 C 16 8.714 15.901 8.951 15.703 9.148 C 15.51 9.341 15.276 9.438 15 9.438 L 14 9.438 L 14 10.492 C 14 10.82 13.934 11.133 13.801 11.43 C 13.668 11.727 13.491 11.986 13.27 12.207 C 13.048 12.428 12.789 12.605 12.492 12.738 C 12.195 12.871 11.883 12.938 11.555 12.938 L 2.445 12.938 Z" style="fill: rgb(255, 255, 255);"/>
  <path d="M 2.495 10.825 C 2.37 10.825 2.298 10.774 2.21 10.628 C 2.123 10.482 2 10.396 2 10.188 L 2 9.086 C 2.078 9.112 2.148 9.125 2.211 9.125 C 2.389 9.125 2.865 9.222 3.013 9.063 C 3.161 8.904 3.579 8.692 3.66 8.426 L 5.405 4.938 L 7.55 4.938 C 7.675 4.938 7.781 5.01 7.869 5.156 C 7.956 5.302 8 5.479 8 5.688 L 8 10.188 C 8 10.396 7.956 10.573 7.869 10.719 C 7.781 10.865 7.675 10.938 7.55 10.938 L 2.495 10.825 Z" style="fill: rgb(255, 255, 255);"/>
  <path d="M 2.75 10.938 C 2.542 10.938 2.365 10.865 2.219 10.719 C 2.073 10.573 2 10.396 2 10.188 L 2 9.086 C 2.13 9.112 2.247 9.125 2.352 9.125 C 2.648 9.125 2.921 9.046 3.168 8.887 C 3.415 8.728 3.607 8.516 3.742 8.25 L 5.398 4.938 L 7.425 4.972 C 7.633 4.972 7.709 5.191 7.855 5.337 C 8.001 5.483 7.961 5.615 7.961 5.824 L 7.961 9.679 C 7.961 9.887 8.08 10.041 7.934 10.187 C 7.788 10.333 7.607 10.927 7.607 10.927 L 2.75 10.938 Z" style="fill: rgb(255, 255, 255);"/>
  <path d="M 2.75 10.938 C 2.542 10.938 2.365 10.865 2.219 10.719 C 2.073 10.573 2 10.396 2 10.188 L 2 9.086 C 2.13 9.112 2.247 9.125 2.352 9.125 C 2.648 9.125 2.921 9.046 3.168 8.887 C 3.415 8.728 3.607 8.516 3.742 8.25 L 5.398 4.938 L 11.25 4.938 C 11.458 4.938 11.635 5.01 11.781 5.156 C 11.927 5.302 12 5.479 12 5.688 L 12 10.188 C 12 10.396 11.927 10.573 11.781 10.719 C 11.635 10.865 11.458 10.938 11.25 10.938 L 2.75 10.938 Z" style="fill-opacity: 0.5; fill: rgb(255, 255, 255);"/>
</svg>