<?xml version="1.0" encoding="utf-8"?>
<svg viewBox="0 0 16 16" xmlns="http://www.w3.org/2000/svg">
  <path d="M 16 8 C 16 8.885 15.859 9.737 15.578 10.555 C 15.297 11.372 14.904 12.12 14.398 12.797 C 13.893 13.474 13.286 14.061 12.578 14.559 C 11.87 15.056 11.091 15.43 10.242 15.68 C 10.247 15.654 10.25 15.626 10.25 15.598 L 10.25 15.516 C 10.25 15.339 10.232 15.182 10.195 15.047 C 10.159 14.911 10.107 14.788 10.039 14.676 C 9.971 14.564 9.892 14.456 9.801 14.352 C 9.71 14.247 9.607 14.135 9.492 14.016 C 9.81 13.573 10.061 13.092 10.246 12.574 C 10.431 12.056 10.581 11.531 10.695 11 L 8.219 11 C 8.229 10.917 8.237 10.833 8.242 10.75 C 8.247 10.667 8.25 10.583 8.25 10.5 C 8.25 10.417 8.247 10.333 8.242 10.25 C 8.237 10.167 8.229 10.083 8.219 10 L 10.867 10 C 10.909 9.667 10.941 9.335 10.965 9.004 C 10.988 8.673 11 8.339 11 8 C 11 7.661 10.988 7.327 10.965 6.996 C 10.941 6.665 10.909 6.333 10.867 6 L 5.133 6 L 5.125 6.039 C 4.87 5.94 4.604 5.867 4.328 5.82 C 4.052 5.773 3.776 5.75 3.5 5.75 C 3.12 5.75 2.76 5.792 2.422 5.875 C 2.396 5.88 2.362 5.889 2.32 5.902 C 2.279 5.915 2.234 5.93 2.188 5.945 C 2.141 5.961 2.098 5.974 2.059 5.984 C 2.02 5.995 1.992 6 1.977 6 C 1.935 6.005 1.896 6.008 1.859 6.008 L 1.75 6.008 C 1.672 6.008 1.594 6.007 1.516 6.004 C 1.438 6.001 1.362 6 1.289 6 L 1.195 6.344 C 0.758 6.589 0.372 6.891 0.039 7.25 C 0.102 6.568 0.246 5.914 0.473 5.289 C 0.699 4.664 0.993 4.083 1.355 3.547 C 1.717 3.01 2.137 2.523 2.613 2.086 C 3.09 1.648 3.613 1.275 4.184 0.965 C 4.754 0.655 5.361 0.417 6.004 0.25 C 6.647 0.083 7.313 0 8 0 C 8.734 0 9.443 0.095 10.125 0.285 C 10.807 0.475 11.445 0.743 12.039 1.09 C 12.633 1.436 13.173 1.853 13.66 2.34 C 14.147 2.827 14.564 3.367 14.91 3.961 C 15.257 4.555 15.525 5.193 15.715 5.875 C 15.905 6.557 16 7.266 16 8 Z M 10.695 5 C 10.654 4.797 10.594 4.557 10.516 4.281 C 10.438 4.005 10.341 3.719 10.227 3.422 C 10.112 3.125 9.98 2.832 9.832 2.543 C 9.684 2.254 9.517 1.995 9.332 1.766 C 9.147 1.536 8.943 1.352 8.719 1.211 C 8.495 1.07 8.255 1 8 1 C 7.74 1 7.499 1.07 7.277 1.211 C 7.056 1.352 6.853 1.536 6.668 1.766 C 6.483 1.995 6.316 2.254 6.168 2.543 C 6.02 2.832 5.888 3.125 5.773 3.422 C 5.659 3.719 5.563 4.005 5.484 4.281 C 5.406 4.557 5.346 4.797 5.305 5 L 10.695 5 Z M 4.281 5 C 4.339 4.698 4.411 4.385 4.5 4.063 C 4.589 3.74 4.691 3.422 4.809 3.109 C 4.926 2.797 5.06 2.493 5.211 2.199 C 5.362 1.905 5.531 1.633 5.719 1.383 C 5.271 1.534 4.846 1.728 4.445 1.965 C 4.044 2.202 3.672 2.474 3.328 2.781 C 2.984 3.089 2.673 3.428 2.395 3.801 C 2.116 4.173 1.875 4.573 1.672 5 L 4.281 5 Z M 14.328 5 C 14.13 4.578 13.891 4.181 13.609 3.809 C 13.328 3.436 13.014 3.095 12.668 2.785 C 12.322 2.475 11.948 2.202 11.547 1.965 C 11.146 1.728 10.727 1.534 10.289 1.383 C 10.669 1.909 10.973 2.486 11.199 3.113 C 11.426 3.741 11.599 4.37 11.719 5 L 14.328 5 Z M 14.711 10 C 14.904 9.359 15 8.693 15 8 C 15 7.307 14.904 6.641 14.711 6 L 11.875 6 C 11.922 6.333 11.954 6.665 11.973 6.996 C 11.991 7.327 12 7.661 12 8 C 12 8.339 11.991 8.673 11.973 9.004 C 11.954 9.335 11.922 9.667 11.875 10 L 14.711 10 Z M 9 15.5 C 9 15.635 8.951 15.753 8.852 15.852 C 8.753 15.951 8.635 16 8.5 16 C 8.365 16 8.247 15.951 8.148 15.852 L 5.594 13.297 C 5.276 13.542 4.938 13.72 4.578 13.832 C 4.219 13.944 3.839 14 3.438 14 C 2.964 14 2.518 13.905 2.102 13.715 C 1.685 13.525 1.32 13.27 1.008 12.949 C 0.695 12.629 0.449 12.257 0.27 11.832 C 0.09 11.408 0 10.964 0 10.5 C 0 10.021 0.092 9.569 0.277 9.145 C 0.462 8.72 0.714 8.349 1.031 8.031 C 1.349 7.714 1.72 7.462 2.145 7.277 C 2.569 7.092 3.021 7 3.5 7 C 3.964 7 4.408 7.09 4.832 7.27 C 5.257 7.449 5.629 7.695 5.949 8.008 C 6.27 8.32 6.525 8.685 6.715 9.102 C 6.905 9.518 7 9.964 7 10.438 C 7 10.839 6.944 11.219 6.832 11.578 C 6.72 11.938 6.542 12.276 6.297 12.594 L 8.852 15.148 C 8.951 15.247 9 15.365 9 15.5 Z M 3.5 13 L 3.555 13 C 3.893 13 4.211 12.932 4.508 12.797 C 4.805 12.661 5.064 12.479 5.285 12.25 C 5.507 12.021 5.681 11.755 5.809 11.453 C 5.936 11.151 6 10.833 6 10.5 C 6 10.151 5.935 9.826 5.805 9.523 C 5.674 9.221 5.496 8.957 5.27 8.73 C 5.043 8.504 4.779 8.326 4.477 8.195 C 4.174 8.065 3.849 8 3.5 8 C 3.151 8 2.826 8.065 2.523 8.195 C 2.221 8.326 1.957 8.504 1.73 8.73 C 1.504 8.957 1.326 9.221 1.195 9.523 C 1.065 9.826 1 10.151 1 10.5 C 1 10.849 1.065 11.174 1.195 11.477 C 1.326 11.779 1.504 12.043 1.73 12.27 C 1.957 12.496 2.221 12.674 2.523 12.805 C 2.826 12.935 3.151 13 3.5 13 Z M 14.328 11 L 11.719 11 C 11.656 11.307 11.582 11.621 11.496 11.941 C 11.41 12.262 11.309 12.578 11.191 12.891 C 11.074 13.203 10.94 13.505 10.789 13.797 C 10.638 14.089 10.469 14.362 10.281 14.617 C 10.724 14.461 11.146 14.266 11.547 14.031 C 11.948 13.797 12.32 13.526 12.664 13.219 C 13.008 12.911 13.32 12.572 13.602 12.199 C 13.883 11.827 14.125 11.427 14.328 11 Z" style="fill: rgb(255, 255, 255);"/>
</svg>