<?xml version="1.0" encoding="utf-8"?>
<svg viewBox="0 0 16 16" xmlns="http://www.w3.org/2000/svg">
  <path d="M 13.485 0 C 13.687 0 13.881 0.039 14.062 0.117 C 14.245 0.195 14.405 0.303 14.543 0.441 C 14.681 0.579 14.79 0.739 14.867 0.922 C 14.945 1.104 14.984 1.297 14.984 1.5 L 14.984 5.5 C 14.984 5.703 14.945 5.896 14.867 6.078 C 14.79 6.261 14.681 6.421 14.543 6.559 C 14.405 6.697 14.245 6.804 14.062 6.883 C 13.881 6.961 13.687 7 13.485 7 L 12.985 7 L 12.985 15.5 C 12.985 15.636 12.935 15.753 12.836 15.851 C 12.737 15.951 12.62 16 12.485 16 C 12.349 16 12.232 15.951 12.133 15.851 C 12.034 15.753 11.985 15.636 11.985 15.5 L 11.985 7 L 11.485 7 C 11.281 7 11.089 6.961 10.906 6.883 C 10.724 6.804 10.564 6.697 10.426 6.559 C 10.287 6.421 10.18 6.261 10.101 6.078 C 10.023 5.896 9.984 5.703 9.984 5.5 L 9.984 1.5 C 9.984 1.297 10.023 1.104 10.101 0.922 C 10.18 0.739 10.287 0.579 10.426 0.441 C 10.564 0.303 10.724 0.195 10.906 0.117 C 11.089 0.039 11.281 0 11.485 0 L 13.485 0 Z M 11.485 1 C 11.349 1 11.232 1.05 11.133 1.148 C 11.034 1.247 10.984 1.364 10.984 1.5 L 10.984 2 L 13.985 2 L 13.985 1.5 C 13.985 1.364 13.935 1.247 13.836 1.148 C 13.737 1.05 13.62 1 13.485 1 L 11.485 1 Z M 8.984 3 L 8.93 3 C 8.367 3 7.811 3.057 7.262 3.172 C 6.713 3.286 6.181 3.453 5.668 3.672 C 5.155 3.89 4.666 4.158 4.199 4.472 C 3.733 4.788 3.305 5.146 2.914 5.547 C 2.789 5.672 2.668 5.801 2.551 5.934 C 2.433 6.067 2.323 6.206 2.218 6.352 C 2.162 6.424 2.109 6.496 2.063 6.567 C 2.016 6.637 1.966 6.708 1.914 6.782 C 1.862 6.849 1.802 6.902 1.734 6.942 C 1.667 6.981 1.588 7 1.5 7 C 1.364 7 1.247 6.95 1.149 6.852 C 1.05 6.753 1 6.636 1 6.5 C 1 6.401 1.029 6.307 1.086 6.219 C 1.503 5.573 2.002 4.99 2.582 4.469 C 3.162 3.948 3.796 3.504 4.48 3.137 C 5.166 2.77 5.886 2.488 6.641 2.293 C 7.396 2.098 8.157 2 8.922 2 L 8.984 2 L 8.984 3 Z M 13.485 6 C 13.62 6 13.737 5.95 13.836 5.852 C 13.935 5.753 13.985 5.636 13.985 5.5 L 13.985 3 L 10.984 3 L 10.984 5.5 C 10.984 5.636 11.034 5.753 11.133 5.852 C 11.232 5.95 11.349 6 11.485 6 L 13.485 6 Z M 8.984 6 C 8.594 6 8.207 6.041 7.824 6.125 C 7.442 6.208 7.075 6.33 6.722 6.488 C 6.371 6.647 6.039 6.841 5.727 7.07 C 5.414 7.3 5.128 7.56 4.868 7.851 C 4.737 7.997 4.624 8.146 4.528 8.297 C 4.431 8.448 4.328 8.599 4.219 8.75 C 4.161 8.829 4.102 8.89 4.039 8.933 C 3.977 8.978 3.893 9 3.789 9 C 3.654 9 3.536 8.951 3.438 8.851 C 3.339 8.753 3.289 8.635 3.289 8.5 C 3.289 8.417 3.31 8.333 3.352 8.25 C 3.622 7.755 3.961 7.308 4.368 6.907 C 4.773 6.505 5.222 6.165 5.711 5.883 C 6.2 5.602 6.721 5.384 7.274 5.23 C 7.825 5.077 8.383 5 8.946 5 L 8.984 5 L 8.984 6 Z M 8.984 8 C 9.338 8 9.683 8.045 10.02 8.133 C 10.356 8.221 10.677 8.354 10.984 8.531 L 10.984 9.766 C 10.709 9.516 10.398 9.326 10.055 9.196 C 9.711 9.065 9.354 9 8.984 9 C 8.692 9 8.412 9.039 8.141 9.117 C 7.87 9.196 7.612 9.313 7.367 9.469 C 7.107 9.635 6.896 9.818 6.735 10.016 C 6.573 10.214 6.419 10.446 6.274 10.711 C 6.221 10.8 6.159 10.869 6.086 10.922 C 6.013 10.974 5.924 11 5.82 11 C 5.685 11 5.568 10.951 5.469 10.852 C 5.37 10.752 5.32 10.635 5.32 10.5 C 5.32 10.422 5.336 10.352 5.368 10.289 C 5.523 9.946 5.729 9.632 5.985 9.348 C 6.24 9.064 6.527 8.823 6.848 8.625 C 7.168 8.427 7.511 8.274 7.875 8.164 C 8.24 8.055 8.609 8 8.984 8 Z M 10.234 12 C 10.234 12.172 10.201 12.333 10.133 12.485 C 10.065 12.636 9.975 12.767 9.864 12.879 C 9.752 12.991 9.62 13.081 9.468 13.149 C 9.318 13.216 9.156 13.25 8.984 13.25 C 8.813 13.25 8.651 13.216 8.5 13.149 C 8.349 13.081 8.218 12.991 8.106 12.879 C 7.993 12.767 7.904 12.636 7.836 12.485 C 7.768 12.333 7.734 12.172 7.734 12 C 7.734 11.828 7.768 11.667 7.836 11.515 C 7.904 11.365 7.993 11.233 8.106 11.121 C 8.218 11.009 8.349 10.919 8.5 10.852 C 8.651 10.784 8.813 10.75 8.984 10.75 C 9.156 10.75 9.318 10.784 9.468 10.852 C 9.62 10.919 9.752 11.009 9.864 11.121 C 9.975 11.233 10.065 11.365 10.133 11.515 C 10.201 11.667 10.234 11.828 10.234 12 Z" style="fill: rgb(255, 255, 255);"/>
</svg>