<?xml version="1.0" encoding="utf-8"?>
<svg xmlns="http://www.w3.org/2000/svg" viewBox="0 0 64 64" width="64px" height="64px">
  <g transform="matrix(4, 0, 0, 4, 0, -10.8)">
    <path d="M 8 6.709 C 7.614 6.709 7.23 6.751 6.849 6.834 C 6.468 6.918 6.102 7.039 5.75 7.198 C 5.397 7.357 5.063 7.552 4.748 7.781 C 4.432 8.011 4.146 8.269 3.89 8.556 C 3.765 8.697 3.652 8.846 3.55 9.002 C 3.448 9.159 3.34 9.313 3.225 9.464 C 3.162 9.542 3.101 9.604 3.041 9.648 C 2.981 9.693 2.899 9.715 2.795 9.715 C 2.659 9.715 2.541 9.665 2.442 9.566 C 2.343 9.467 2.294 9.349 2.294 9.214 C 2.294 9.13 2.314 9.047 2.356 8.963 C 2.622 8.467 2.962 8.019 3.374 7.617 C 3.786 7.215 4.243 6.873 4.744 6.591 C 5.245 6.31 5.773 6.092 6.329 5.938 C 6.885 5.784 7.442 5.707 8 5.707 C 8.553 5.707 9.109 5.784 9.667 5.938 C 10.226 6.092 10.755 6.31 11.256 6.591 C 11.757 6.873 12.214 7.215 12.626 7.617 C 13.038 8.019 13.378 8.467 13.644 8.963 C 13.686 9.047 13.706 9.13 13.706 9.214 C 13.706 9.349 13.657 9.467 13.558 9.566 C 13.459 9.665 13.341 9.715 13.205 9.715 C 13.101 9.715 13.019 9.693 12.959 9.648 C 12.899 9.604 12.838 9.542 12.775 9.464 C 12.66 9.313 12.552 9.159 12.45 9.002 C 12.348 8.846 12.235 8.697 12.11 8.556 C 11.854 8.269 11.568 8.011 11.252 7.781 C 10.937 7.552 10.603 7.357 10.25 7.198 C 9.898 7.039 9.532 6.918 9.151 6.834 C 8.77 6.751 8.386 6.709 8 6.709 Z M 8 9.715 C 7.708 9.715 7.429 9.755 7.162 9.836 C 6.896 9.917 6.638 10.033 6.387 10.184 C 6.247 10.273 6.125 10.362 6.023 10.451 C 5.922 10.539 5.83 10.633 5.75 10.732 C 5.669 10.831 5.592 10.937 5.519 11.049 C 5.446 11.162 5.367 11.288 5.284 11.429 C 5.232 11.518 5.169 11.588 5.096 11.64 C 5.023 11.693 4.934 11.719 4.83 11.719 C 4.689 11.719 4.57 11.669 4.474 11.57 C 4.377 11.471 4.329 11.351 4.329 11.21 C 4.329 11.142 4.344 11.072 4.376 10.998 C 4.527 10.664 4.733 10.357 4.994 10.075 C 5.255 9.793 5.547 9.552 5.871 9.351 C 6.194 9.15 6.539 8.993 6.904 8.881 C 7.269 8.769 7.635 8.713 8 8.713 C 8.376 8.713 8.746 8.768 9.112 8.877 C 9.477 8.987 9.82 9.141 10.141 9.339 C 10.462 9.537 10.75 9.777 11.006 10.059 C 11.262 10.341 11.468 10.654 11.624 10.998 C 11.656 11.072 11.671 11.142 11.671 11.21 C 11.671 11.345 11.622 11.464 11.523 11.566 C 11.423 11.668 11.306 11.719 11.17 11.719 C 11.066 11.719 10.977 11.693 10.904 11.64 C 10.831 11.588 10.768 11.518 10.716 11.429 C 10.633 11.288 10.554 11.162 10.481 11.049 C 10.408 10.937 10.33 10.831 10.247 10.732 C 10.163 10.633 10.07 10.539 9.969 10.451 C 9.867 10.362 9.746 10.273 9.605 10.184 C 9.359 10.033 9.102 9.917 8.834 9.836 C 8.565 9.755 8.287 9.715 8 9.715 Z M 6.748 12.721 C 6.748 12.548 6.781 12.387 6.849 12.235 C 6.917 12.084 7.007 11.952 7.119 11.84 C 7.232 11.728 7.363 11.638 7.515 11.57 C 7.666 11.502 7.828 11.468 8 11.468 C 8.172 11.468 8.334 11.502 8.485 11.57 C 8.637 11.638 8.768 11.728 8.881 11.84 C 8.993 11.952 9.083 12.084 9.151 12.235 C 9.219 12.387 9.252 12.548 9.252 12.721 C 9.252 12.893 9.219 13.055 9.151 13.206 C 9.083 13.357 8.993 13.489 8.881 13.601 C 8.768 13.713 8.637 13.803 8.485 13.871 C 8.334 13.939 8.172 13.973 8 13.973 C 7.828 13.973 7.666 13.939 7.515 13.871 C 7.363 13.803 7.232 13.713 7.119 13.601 C 7.007 13.489 6.917 13.357 6.849 13.206 C 6.781 13.055 6.748 12.893 6.748 12.721 Z" style="fill: rgb(255, 255, 255);"/>
    <path d="M 8 3.702 C 7.436 3.702 6.879 3.758 6.329 3.87 C 5.778 3.982 5.245 4.147 4.728 4.363 C 4.211 4.58 3.718 4.845 3.249 5.158 C 2.779 5.471 2.346 5.828 1.949 6.23 C 1.751 6.429 1.573 6.636 1.417 6.853 C 1.26 7.069 1.093 7.282 0.916 7.491 C 0.853 7.564 0.793 7.618 0.736 7.655 C 0.678 7.692 0.6 7.71 0.501 7.71 C 0.36 7.71 0.241 7.662 0.145 7.565 C 0.048 7.468 0 7.35 0 7.209 C 0 7.11 0.029 7.016 0.086 6.927 C 0.498 6.269 0.998 5.68 1.585 5.158 C 2.172 4.636 2.813 4.192 3.507 3.827 C 4.201 3.462 4.93 3.183 5.695 2.99 C 6.459 2.797 7.228 2.7 8 2.7 C 8.767 2.7 9.534 2.797 10.301 2.99 C 11.068 3.183 11.798 3.462 12.489 3.827 C 13.181 4.192 13.82 4.636 14.407 5.158 C 14.994 5.68 15.496 6.269 15.914 6.927 C 15.971 7.016 16 7.11 16 7.209 C 16 7.35 15.952 7.468 15.855 7.565 C 15.759 7.662 15.64 7.71 15.499 7.71 C 15.41 7.71 15.333 7.69 15.268 7.651 C 15.203 7.612 15.142 7.558 15.084 7.491 C 15.027 7.418 14.973 7.343 14.924 7.268 C 14.874 7.192 14.821 7.117 14.763 7.044 C 14.654 6.898 14.539 6.759 14.419 6.626 C 14.299 6.493 14.176 6.361 14.051 6.23 C 13.649 5.828 13.215 5.471 12.748 5.158 C 12.28 4.845 11.79 4.58 11.276 4.363 C 10.762 4.147 10.228 3.982 9.675 3.87 C 9.122 3.758 8.564 3.702 8 3.702 Z" style="fill-opacity: 0.5; fill: rgb(255, 255, 255);"/>
  </g>
</svg>