<?xml version="1.0" encoding="utf-8"?>
<svg viewBox="0 0 64 64" xmlns="http://www.w3.org/2000/svg" width="64px" height="64px">
  <g transform="matrix(4, 0, 0, 4, 0, -2.7)" style="transform-origin: 0px 2.7px;">
    <path d="M 8 3.702 C 7.436 3.702 6.879 3.758 6.329 3.87 C 5.778 3.982 5.245 4.147 4.728 4.363 C 4.211 4.58 3.718 4.845 3.249 5.158 C 2.779 5.471 2.346 5.828 1.949 6.23 C 1.751 6.429 1.573 6.636 1.417 6.853 C 1.26 7.069 1.093 7.282 0.916 7.491 C 0.853 7.564 0.793 7.618 0.736 7.655 C 0.678 7.692 0.6 7.71 0.501 7.71 C 0.36 7.71 0.241 7.662 0.145 7.565 C 0.048 7.468 0 7.35 0 7.209 C 0 7.11 0.029 7.016 0.086 6.927 C 0.498 6.269 0.998 5.68 1.585 5.158 C 2.172 4.636 2.813 4.192 3.507 3.827 C 4.201 3.462 4.93 3.183 5.695 2.99 C 6.459 2.797 7.228 2.7 8 2.7 C 8.767 2.7 9.534 2.797 10.301 2.99 C 11.068 3.183 11.798 3.462 12.489 3.827 C 13.181 4.192 13.82 4.636 14.407 5.158 C 14.994 5.68 15.496 6.269 15.914 6.927 C 15.971 7.016 16 7.11 16 7.209 C 16 7.35 15.952 7.468 15.855 7.565 C 15.759 7.662 15.64 7.71 15.499 7.71 C 15.41 7.71 15.333 7.69 15.268 7.651 C 15.203 7.612 15.142 7.558 15.084 7.491 C 15.027 7.418 14.973 7.343 14.924 7.268 C 14.874 7.192 14.821 7.117 14.763 7.044 C 14.654 6.898 14.539 6.759 14.419 6.626 C 14.299 6.493 14.176 6.361 14.051 6.23 C 13.649 5.828 13.215 5.471 12.748 5.158 C 12.28 4.845 11.79 4.58 11.276 4.363 C 10.762 4.147 10.228 3.982 9.675 3.87 C 9.122 3.758 8.564 3.702 8 3.702 Z M 8 6.708 C 7.614 6.708 7.23 6.75 6.849 6.833 C 6.468 6.917 6.102 7.038 5.75 7.197 C 5.397 7.356 5.063 7.551 4.748 7.78 C 4.432 8.01 4.146 8.268 3.89 8.555 C 3.765 8.696 3.652 8.845 3.55 9.001 C 3.448 9.158 3.34 9.312 3.225 9.463 C 3.162 9.541 3.101 9.603 3.041 9.647 C 2.981 9.692 2.899 9.714 2.795 9.714 C 2.659 9.714 2.541 9.664 2.442 9.565 C 2.343 9.466 2.294 9.348 2.294 9.213 C 2.294 9.129 2.314 9.046 2.356 8.962 C 2.622 8.466 2.962 8.018 3.374 7.616 C 3.786 7.214 4.243 6.872 4.744 6.59 C 5.245 6.309 5.773 6.091 6.329 5.937 C 6.885 5.783 7.442 5.706 8 5.706 C 8.553 5.706 9.109 5.783 9.667 5.937 C 10.226 6.091 10.755 6.309 11.256 6.59 C 11.757 6.872 12.214 7.214 12.626 7.616 C 13.038 8.018 13.378 8.466 13.644 8.962 C 13.686 9.046 13.706 9.129 13.706 9.213 C 13.706 9.348 13.657 9.466 13.558 9.565 C 13.459 9.664 13.341 9.714 13.205 9.714 C 13.101 9.714 13.019 9.692 12.959 9.647 C 12.899 9.603 12.838 9.541 12.775 9.463 C 12.66 9.312 12.552 9.158 12.45 9.001 C 12.348 8.845 12.235 8.696 12.11 8.555 C 11.854 8.268 11.568 8.01 11.252 7.78 C 10.937 7.551 10.603 7.356 10.25 7.197 C 9.898 7.038 9.532 6.917 9.151 6.833 C 8.77 6.75 8.386 6.708 8 6.708 Z" style="fill: rgb(255, 255, 255); fill-opacity: 0.5;"/>
    <path d="M 8 9.714 C 7.708 9.714 7.429 9.754 7.162 9.835 C 6.896 9.916 6.638 10.032 6.387 10.183 C 6.247 10.272 6.125 10.361 6.023 10.45 C 5.922 10.538 5.83 10.632 5.75 10.731 C 5.669 10.83 5.592 10.936 5.519 11.048 C 5.446 11.161 5.367 11.287 5.284 11.428 C 5.232 11.517 5.169 11.587 5.096 11.639 C 5.023 11.692 4.934 11.718 4.83 11.718 C 4.689 11.718 4.57 11.668 4.474 11.569 C 4.377 11.47 4.329 11.35 4.329 11.209 C 4.329 11.141 4.344 11.071 4.376 10.997 C 4.527 10.663 4.733 10.356 4.994 10.074 C 5.255 9.792 5.547 9.551 5.871 9.35 C 6.194 9.149 6.539 8.992 6.904 8.88 C 7.269 8.768 7.635 8.712 8 8.712 C 8.376 8.712 8.746 8.767 9.112 8.876 C 9.477 8.986 9.82 9.14 10.141 9.338 C 10.462 9.536 10.75 9.776 11.006 10.058 C 11.262 10.34 11.468 10.653 11.624 10.997 C 11.656 11.071 11.671 11.141 11.671 11.209 C 11.671 11.344 11.622 11.463 11.523 11.565 C 11.423 11.667 11.306 11.718 11.17 11.718 C 11.066 11.718 10.977 11.692 10.904 11.639 C 10.831 11.587 10.768 11.517 10.716 11.428 C 10.633 11.287 10.554 11.161 10.481 11.048 C 10.408 10.936 10.33 10.83 10.247 10.731 C 10.163 10.632 10.07 10.538 9.969 10.45 C 9.867 10.361 9.746 10.272 9.605 10.183 C 9.359 10.032 9.102 9.916 8.834 9.835 C 8.565 9.754 8.287 9.714 8 9.714 Z M 6.748 12.72 C 6.748 12.547 6.781 12.386 6.849 12.234 C 6.917 12.083 7.007 11.951 7.119 11.839 C 7.232 11.727 7.363 11.637 7.515 11.569 C 7.666 11.501 7.828 11.467 8 11.467 C 8.172 11.467 8.334 11.501 8.485 11.569 C 8.637 11.637 8.768 11.727 8.881 11.839 C 8.993 11.951 9.083 12.083 9.151 12.234 C 9.219 12.386 9.252 12.547 9.252 12.72 C 9.252 12.892 9.219 13.054 9.151 13.205 C 9.083 13.356 8.993 13.488 8.881 13.6 C 8.768 13.712 8.637 13.802 8.485 13.87 C 8.334 13.938 8.172 13.972 8 13.972 C 7.828 13.972 7.666 13.938 7.515 13.87 C 7.363 13.802 7.232 13.712 7.119 13.6 C 7.007 13.488 6.917 13.356 6.849 13.205 C 6.781 13.054 6.748 12.892 6.748 12.72 Z" style="fill: rgb(255, 255, 255);"/>
  </g>
</svg>