<?xml version="1.0" encoding="utf-8"?>
<svg xmlns="http://www.w3.org/2000/svg" viewBox="0 0 64 64" width="64px" height="64px">
  <path d="M 31.688 64 C 28.772 63.98 25.964 63.584 23.264 62.812 C 20.568 62.04 18.048 60.952 15.704 59.548 C 13.36 58.14 11.22 56.464 9.28 54.516 C 7.344 52.568 5.688 50.412 4.312 48.048 C 2.936 45.684 1.876 43.144 1.124 40.436 C 0.376 37.728 0 34.916 0 32 C 0 29.064 0.38 26.228 1.14 23.5 C 1.9 20.772 2.98 18.224 4.376 15.86 C 5.772 13.496 7.444 11.34 9.392 9.392 C 11.34 7.444 13.496 5.772 15.86 4.376 C 18.224 2.98 20.772 1.9 23.5 1.14 C 26.228 0.38 29.064 0 32 0 C 34.896 0 37.696 0.38 40.408 1.14 C 43.116 1.9 45.652 2.968 48.016 4.344 C 50.38 5.72 52.54 7.368 54.5 9.296 C 56.46 11.224 58.136 13.36 59.532 15.704 C 60.928 18.048 62.016 20.568 62.796 23.264 C 63.58 25.964 63.98 28.772 64 31.688 C 63.356 30.896 62.672 30.152 61.952 29.452 C 61.236 28.756 60.46 28.104 59.624 27.5 C 59.52 26.896 59.4 26.308 59.264 25.736 C 59.132 25.16 58.98 24.584 58.812 24 C 58.144 24 57.468 24.004 56.78 24.016 C 56.092 24.028 55.416 24.032 54.752 24.032 L 53.736 24.032 C 53.412 24.032 53.072 24.02 52.72 24 C 52.616 24 52.468 23.98 52.28 23.936 C 52.092 23.896 51.892 23.844 51.672 23.78 C 51.452 23.72 51.24 23.656 51.032 23.592 C 50.824 23.532 50.656 23.48 50.532 23.436 C 49.78 23.292 49.032 23.184 48.28 23.108 C 47.532 23.036 46.772 23 46 23 L 45.968 23 C 45.532 23 45.092 23.016 44.656 23.048 C 44.22 23.08 43.78 23.116 43.344 23.156 C 42.408 23.26 41.488 23.416 40.592 23.624 C 40.364 23.688 40.144 23.764 39.936 23.86 C 39.728 23.952 39.512 24 39.28 24 L 20.532 24 C 20.364 25.332 20.236 26.66 20.14 27.984 C 20.048 29.308 20 30.644 20 32 C 20 33.356 20.048 34.692 20.14 36.016 C 20.236 37.34 20.364 38.668 20.532 40 L 23.78 40 C 23.592 40.668 23.448 41.332 23.344 42 C 23.24 42.668 23.156 43.332 23.092 44 L 21.22 44 C 21.448 45.064 21.708 46.108 22 47.14 C 22.292 48.172 22.636 49.188 23.032 50.188 C 23.156 50.5 23.292 50.812 23.436 51.124 C 23.584 51.436 23.708 51.752 23.812 52.064 C 23.936 52.396 24.048 52.728 24.14 53.064 C 24.236 53.396 24.344 53.74 24.468 54.092 C 24.824 55.092 25.256 56.052 25.764 56.968 C 26.276 57.884 26.844 58.772 27.468 59.624 L 27.5 59.624 C 28.104 60.46 28.756 61.236 29.452 61.952 C 30.152 62.672 30.896 63.356 31.688 64 Z M 42.78 20 C 42.616 19.228 42.376 18.296 42.064 17.204 C 41.752 16.108 41.364 14.972 40.908 13.796 C 40.448 12.62 39.916 11.444 39.312 10.264 C 38.708 9.088 38.032 8.036 37.28 7.108 C 36.532 6.184 35.72 5.432 34.844 4.86 C 33.968 4.288 33.02 4 32 4 C 30.98 4 30.032 4.288 29.156 4.86 C 28.28 5.432 27.468 6.184 26.72 7.108 C 25.968 8.036 25.292 9.088 24.688 10.264 C 24.084 11.444 23.552 12.62 23.092 13.796 C 22.636 14.972 22.252 16.108 21.936 17.204 C 21.624 18.296 21.384 19.228 21.22 20 L 42.78 20 Z M 6.72 20 L 17.124 20 C 17.376 18.772 17.672 17.516 18.016 16.236 C 18.36 14.952 18.764 13.688 19.236 12.436 C 19.704 11.188 20.24 9.98 20.844 8.812 C 21.448 7.644 22.136 6.552 22.908 5.532 C 21.136 6.136 19.448 6.912 17.844 7.86 C 16.24 8.808 14.744 9.9 13.36 11.14 C 11.972 12.38 10.72 13.744 9.592 15.236 C 8.468 16.724 7.512 18.312 6.72 20 Z M 57.28 20 C 56.468 18.292 55.5 16.692 54.376 15.204 C 53.252 13.712 52 12.356 50.624 11.124 C 49.252 9.896 47.76 8.812 46.156 7.876 C 44.552 6.936 42.864 6.156 41.092 5.532 C 41.864 6.552 42.552 7.644 43.156 8.812 C 43.76 9.98 44.296 11.188 44.764 12.436 C 45.236 13.688 45.64 14.952 45.984 16.236 C 46.328 17.516 46.624 18.772 46.876 20 L 57.28 20 Z M 16.468 40 C 16.156 37.356 16 34.688 16 32 C 16 30.644 16.036 29.308 16.108 27.984 C 16.184 26.66 16.312 25.332 16.5 24 L 5.156 24 C 4.384 26.564 4 29.228 4 32 C 4 34.772 4.384 37.436 5.156 40 L 16.468 40 Z M 64 46 C 64 48.48 63.524 50.812 62.58 53 C 61.632 55.188 60.344 57.092 58.72 58.72 C 57.092 60.344 55.188 61.632 53 62.58 C 50.812 63.524 48.48 64 46 64 C 43.5 64 41.156 63.532 38.968 62.592 C 36.78 61.656 34.876 60.376 33.252 58.752 C 31.624 57.124 30.344 55.22 29.408 53.032 C 28.468 50.844 28 48.5 28 46 C 28 43.52 28.472 41.188 29.42 39 C 30.368 36.812 31.656 34.908 33.28 33.28 C 34.908 31.656 36.812 30.368 39 29.42 C 41.188 28.472 43.52 28 46 28 C 47.644 28 49.236 28.212 50.764 28.64 C 52.296 29.068 53.728 29.672 55.064 30.452 C 56.396 31.236 57.616 32.176 58.72 33.28 C 59.824 34.384 60.764 35.604 61.548 36.936 C 62.328 38.272 62.932 39.704 63.36 41.236 C 63.788 42.764 64 44.356 64 46 Z M 34.812 54.376 L 54.376 34.812 C 53.104 33.832 51.752 33.12 50.312 32.672 C 48.876 32.224 47.356 32 45.752 32 C 43.916 32 42.172 32.376 40.516 33.124 C 38.86 33.876 37.4 34.88 36.14 36.14 C 34.88 37.4 33.876 38.86 33.124 40.516 C 32.376 42.172 32 43.916 32 45.752 C 32 47.356 32.224 48.876 32.672 50.312 C 33.12 51.752 33.832 53.104 34.812 54.376 Z M 57.188 37.624 L 37.624 57.188 C 38.896 58.168 40.252 58.88 41.688 59.328 C 43.124 59.776 44.644 60 46.252 60 C 48.084 60 49.828 59.624 51.484 58.876 C 53.14 58.124 54.6 57.12 55.86 55.86 C 57.12 54.6 58.124 53.14 58.876 51.484 C 59.624 49.828 60 48.084 60 46.252 C 60 44.644 59.776 43.124 59.328 41.688 C 58.88 40.252 58.168 38.896 57.188 37.624 Z M 6.72 44 C 7.512 45.688 8.468 47.276 9.592 48.764 C 10.72 50.256 11.968 51.62 13.344 52.86 C 14.72 54.1 16.208 55.192 17.812 56.14 C 19.416 57.088 21.104 57.864 22.876 58.468 C 22.124 57.428 21.448 56.324 20.844 55.156 C 20.24 53.988 19.704 52.788 19.236 51.548 C 18.764 50.308 18.36 49.052 18.016 47.78 C 17.672 46.512 17.376 45.252 17.124 44 L 6.72 44 Z" style="fill: rgb(255, 255, 255);"/>
</svg>