<?xml version="1.0" encoding="utf-8"?>
<svg xmlns="http://www.w3.org/2000/svg" viewBox="0 0 16 16">
  <path d="M 3.297 11.054 L 1.5 11.054 C 1.297 11.054 1.104 11.014 0.922 10.936 C 0.74 10.858 0.579 10.75 0.441 10.612 C 0.303 10.474 0.195 10.314 0.117 10.131 C 0.039 9.948 0 9.755 0 9.552 L 0 6.548 C 0 6.345 0.039 6.152 0.117 5.969 C 0.195 5.787 0.303 5.627 0.441 5.489 C 0.579 5.351 0.74 5.243 0.922 5.164 C 1.104 5.086 1.297 5.046 1.5 5.046 L 3.297 5.046 L 5.719 2.615 C 5.792 2.541 5.874 2.487 5.965 2.453 C 6.056 2.42 6.151 2.404 6.25 2.404 C 6.464 2.404 6.642 2.474 6.785 2.615 C 6.928 2.755 7 2.932 7 3.146 L 7 12.955 C 7 13.059 6.98 13.155 6.941 13.244 C 6.902 13.332 6.848 13.412 6.777 13.482 C 6.707 13.553 6.626 13.608 6.535 13.647 C 6.444 13.685 6.349 13.706 6.25 13.706 C 6.042 13.706 5.865 13.632 5.719 13.486 L 3.297 11.054 Z M 6 12.344 L 6 3.748 L 3.852 5.899 C 3.753 5.999 3.635 6.048 3.5 6.048 L 1.5 6.048 C 1.365 6.048 1.247 6.098 1.148 6.197 C 1.049 6.296 1 6.413 1 6.548 L 1 9.552 C 1 9.688 1.049 9.805 1.148 9.905 C 1.247 10.003 1.365 10.052 1.5 10.052 L 3.5 10.052 C 3.635 10.052 3.753 10.103 3.852 10.202 L 6 12.344 Z" style="fill: rgb(255, 255, 255);"/>
  <path d="M 12.5 8.767 L 10.208 11.058 C 10.103 11.164 9.978 11.217 9.833 11.217 C 9.689 11.217 9.564 11.164 9.458 11.058 C 9.353 10.953 9.3 10.828 9.3 10.683 C 9.3 10.539 9.353 10.414 9.458 10.308 L 11.75 8.017 L 9.458 5.725 C 9.353 5.619 9.3 5.494 9.3 5.35 C 9.3 5.206 9.353 5.081 9.458 4.975 C 9.564 4.869 9.689 4.817 9.833 4.817 C 9.978 4.817 10.103 4.869 10.208 4.975 L 12.5 7.258 L 14.792 4.975 C 14.897 4.869 15.022 4.817 15.167 4.817 C 15.311 4.817 15.436 4.869 15.542 4.975 C 15.647 5.081 15.7 5.206 15.7 5.35 C 15.7 5.494 15.647 5.619 15.542 5.725 L 13.258 8.017 L 15.542 10.308 C 15.647 10.414 15.7 10.539 15.7 10.683 C 15.7 10.828 15.647 10.953 15.542 11.058 C 15.436 11.164 15.311 11.217 15.167 11.217 C 15.022 11.217 14.897 11.164 14.792 11.058 L 12.5 8.767 Z" style="fill: rgb(255, 0, 0);"/>
</svg>