<?xml version="1.0" encoding="utf-8"?>
<svg viewBox="0 0 16 16" xmlns="http://www.w3.org/2000/svg">
  <path d="M 16 8.5 C 16 8.776 15.901 9.013 15.703 9.211 C 15.51 9.404 15.276 9.5 15 9.5 L 14 9.5 L 14 10.555 C 14 10.883 13.934 11.195 13.801 11.492 C 13.668 11.789 13.491 12.048 13.27 12.27 C 13.048 12.491 12.789 12.668 12.492 12.801 C 12.195 12.934 11.883 13 11.555 13 L 9.234 13 L 8.734 12 L 11.5 12 C 11.703 12 11.896 11.961 12.078 11.883 C 12.26 11.805 12.421 11.697 12.559 11.559 C 12.697 11.421 12.805 11.26 12.883 11.078 C 12.961 10.896 13 10.703 13 10.5 L 13 5.5 C 13 5.297 12.961 5.104 12.883 4.922 C 12.805 4.74 12.697 4.579 12.559 4.441 C 12.421 4.303 12.26 4.195 12.078 4.117 C 11.896 4.039 11.703 4 11.5 4 L 2.5 4 C 2.297 4 2.104 4.039 1.922 4.117 C 1.74 4.195 1.579 4.303 1.441 4.441 C 1.303 4.579 1.195 4.74 1.117 4.922 C 1.039 5.104 1 5.297 1 5.5 L 1 10.523 L 0.367 11.797 C 0.122 11.401 0 10.969 0 10.5 L 0 5.445 C 0 5.117 0.066 4.805 0.199 4.508 C 0.332 4.211 0.509 3.952 0.73 3.73 C 0.952 3.509 1.211 3.332 1.508 3.199 C 1.805 3.066 2.117 3 2.445 3 L 11.555 3 C 11.888 3 12.202 3.066 12.496 3.199 C 12.79 3.332 13.048 3.509 13.27 3.73 C 13.491 3.952 13.667 4.211 13.797 4.508 C 13.927 4.805 13.995 5.117 14 5.445 L 14 6.5 L 15 6.5 C 15.135 6.5 15.263 6.526 15.383 6.578 C 15.503 6.63 15.609 6.703 15.703 6.797 C 15.797 6.891 15.87 6.997 15.922 7.117 C 15.974 7.237 16 7.365 16 7.5 L 16 8.5 Z" style="fill: rgb(255, 255, 255);"/>
  <path d="M 8.992 15 C 8.992 15.135 8.965 15.263 8.91 15.383 C 8.855 15.503 8.783 15.608 8.691 15.699 C 8.6 15.79 8.495 15.863 8.375 15.918 C 8.255 15.973 8.128 16 7.992 16 L 1 16 C 0.865 16 0.737 15.973 0.617 15.918 C 0.497 15.863 0.392 15.79 0.301 15.699 C 0.21 15.608 0.137 15.503 0.082 15.383 C 0.027 15.263 0 15.135 0 15 C 0 14.839 0.034 14.69 0.102 14.555 L 3.602 7.555 C 3.69 7.378 3.813 7.241 3.969 7.145 C 4.125 7.048 4.302 7 4.5 7 C 4.698 7 4.874 7.048 5.027 7.145 C 5.181 7.241 5.302 7.378 5.391 7.555 L 8.891 14.555 C 8.958 14.69 8.992 14.839 8.992 15 Z M 4.992 9.492 C 4.992 9.357 4.943 9.24 4.844 9.141 C 4.745 9.042 4.628 8.992 4.492 8.992 C 4.357 8.992 4.24 9.042 4.141 9.141 C 4.042 9.24 3.992 9.357 3.992 9.492 L 3.992 12.5 C 3.992 12.635 4.042 12.753 4.141 12.852 C 4.24 12.951 4.357 13 4.492 13 C 4.628 13 4.745 12.951 4.844 12.852 C 4.943 12.753 4.992 12.635 4.992 12.5 L 4.992 9.492 Z M 4.992 14.5 C 4.992 14.359 4.944 14.241 4.848 14.145 C 4.751 14.048 4.633 14 4.492 14 C 4.357 14 4.24 14.049 4.141 14.148 C 4.042 14.247 3.992 14.365 3.992 14.5 C 3.992 14.635 4.042 14.753 4.141 14.852 C 4.24 14.951 4.357 15 4.492 15 C 4.628 15 4.745 14.951 4.844 14.852 C 4.943 14.753 4.992 14.635 4.992 14.5 Z" style="fill: rgb(255, 204, 0);"/>
</svg>