<?xml version="1.0" encoding="utf-8"?>
<svg viewBox="0 0 16 16" xmlns="http://www.w3.org/2000/svg">
  <path d="M 1 6.938 C 0.813 7.078 0.635 7.232 0.469 7.398 C 0.302 7.565 0.146 7.74 0 7.922 L 0 1.961 C 0 1.701 0.053 1.452 0.16 1.215 C 0.267 0.978 0.41 0.77 0.59 0.59 C 0.77 0.41 0.978 0.267 1.215 0.16 C 1.452 0.053 1.701 0 1.961 0 L 10.266 0 C 10.089 0.302 10 0.635 10 1 L 2 1 C 1.859 1 1.729 1.026 1.609 1.078 C 1.49 1.13 1.384 1.202 1.293 1.293 C 1.202 1.384 1.13 1.49 1.078 1.609 C 1.026 1.729 1 1.859 1 2 L 1 6.938 Z M 14.5 0 C 14.703 0 14.896 0.039 15.078 0.117 C 15.26 0.195 15.421 0.303 15.559 0.441 C 15.697 0.579 15.805 0.74 15.883 0.922 C 15.961 1.104 16 1.297 16 1.5 L 16 5.5 C 16 5.703 15.961 5.896 15.883 6.078 C 15.805 6.26 15.697 6.421 15.559 6.559 C 15.421 6.697 15.26 6.805 15.078 6.883 C 14.896 6.961 14.703 7 14.5 7 L 14 7 L 14 15.5 C 14 15.635 13.951 15.753 13.852 15.852 C 13.753 15.951 13.635 16 13.5 16 C 13.365 16 13.247 15.951 13.148 15.852 C 13.049 15.753 13 15.635 13 15.5 L 13 7 L 12.5 7 C 12.297 7 12.104 6.961 11.922 6.883 C 11.74 6.805 11.579 6.697 11.441 6.559 C 11.303 6.421 11.195 6.26 11.117 6.078 C 11.039 5.896 11 5.703 11 5.5 L 11 1.5 C 11 1.297 11.039 1.104 11.117 0.922 C 11.195 0.74 11.303 0.579 11.441 0.441 C 11.579 0.303 11.74 0.195 11.922 0.117 C 12.104 0.039 12.297 0 12.5 0 L 14.5 0 Z M 12.5 1 C 12.365 1 12.247 1.049 12.148 1.148 C 12.049 1.247 12 1.365 12 1.5 L 12 2 L 15 2 L 15 1.5 C 15 1.365 14.951 1.247 14.852 1.148 C 14.753 1.049 14.635 1 14.5 1 L 12.5 1 Z M 14.5 6 C 14.635 6 14.753 5.951 14.852 5.852 C 14.951 5.753 15 5.635 15 5.5 L 15 3 L 12 3 L 12 5.5 C 12 5.635 12.049 5.753 12.148 5.852 C 12.247 5.951 12.365 6 12.5 6 L 14.5 6 Z M 12 12 L 12 13 L 11 13 L 11 15 L 12 15 L 12 16 L 8.078 16 C 8.26 15.854 8.435 15.698 8.602 15.531 C 8.768 15.365 8.922 15.188 9.063 15 L 10 15 L 10 13.18 C 10 13.169 10.009 13.126 10.027 13.051 C 10.046 12.975 10.066 12.888 10.09 12.789 C 10.113 12.69 10.135 12.595 10.156 12.504 C 10.177 12.413 10.19 12.346 10.195 12.305 L 10.227 12 L 12 12 Z" style="fill: rgb(255, 255, 255); fill-opacity: 0.5;"/>
  <path d="M 4.499 7 C 4.61 7 4.714 7.021 4.81 7.063 C 4.908 7.105 4.994 7.162 5.067 7.236 C 5.14 7.31 5.199 7.394 5.241 7.492 C 5.282 7.589 5.303 7.693 5.303 7.803 C 5.303 7.914 5.282 8.018 5.241 8.115 C 5.199 8.212 5.14 8.297 5.067 8.371 C 4.994 8.444 4.908 8.502 4.81 8.544 C 4.714 8.586 4.61 8.607 4.499 8.607 C 4.389 8.607 4.285 8.586 4.189 8.544 C 4.091 8.502 4.006 8.444 3.932 8.371 C 3.859 8.297 3.801 8.212 3.759 8.115 C 3.717 8.018 3.696 7.914 3.696 7.803 C 3.696 7.693 3.717 7.589 3.759 7.492 C 3.801 7.394 3.859 7.31 3.932 7.236 C 4.006 7.162 4.091 7.105 4.189 7.063 C 4.285 7.021 4.389 7 4.499 7 Z M 1.049 8.933 C 1.049 8.833 1.068 8.739 1.105 8.652 C 1.142 8.565 1.193 8.489 1.257 8.424 C 1.324 8.359 1.4 8.307 1.489 8.268 C 1.577 8.229 1.672 8.21 1.773 8.21 C 1.873 8.21 1.967 8.229 2.054 8.268 C 2.142 8.307 2.217 8.359 2.282 8.424 C 2.348 8.489 2.399 8.565 2.438 8.652 C 2.476 8.739 2.496 8.833 2.496 8.933 C 2.496 9.034 2.476 9.128 2.438 9.217 C 2.399 9.306 2.348 9.384 2.282 9.448 C 2.217 9.514 2.142 9.564 2.054 9.601 C 1.967 9.638 1.873 9.656 1.773 9.656 C 1.672 9.656 1.577 9.638 1.489 9.601 C 1.4 9.564 1.324 9.514 1.257 9.448 C 1.193 9.384 1.142 9.306 1.105 9.217 C 1.068 9.128 1.049 9.034 1.049 8.933 Z M 0.643 11.017 C 0.734 11.017 0.817 11.034 0.894 11.068 C 0.971 11.102 1.038 11.147 1.097 11.206 C 1.156 11.265 1.202 11.332 1.235 11.409 C 1.269 11.487 1.285 11.57 1.285 11.661 C 1.285 11.751 1.269 11.835 1.235 11.912 C 1.202 11.989 1.156 12.056 1.097 12.115 C 1.038 12.174 0.971 12.219 0.894 12.253 C 0.817 12.287 0.734 12.303 0.643 12.303 C 0.552 12.303 0.469 12.287 0.391 12.253 C 0.314 12.219 0.247 12.174 0.188 12.115 C 0.129 12.056 0.084 11.989 0.05 11.912 C 0.016 11.835 0 11.751 0 11.661 C 0 11.57 0.016 11.487 0.05 11.409 C 0.084 11.332 0.129 11.265 0.188 11.206 C 0.247 11.147 0.314 11.102 0.391 11.068 C 0.469 11.034 0.552 11.017 0.643 11.017 Z M 1.21 14.387 C 1.21 14.31 1.226 14.237 1.255 14.169 C 1.285 14.1 1.326 14.041 1.376 13.991 C 1.426 13.94 1.486 13.9 1.554 13.87 C 1.623 13.84 1.696 13.825 1.773 13.825 C 1.849 13.825 1.923 13.84 1.991 13.87 C 2.06 13.9 2.119 13.94 2.169 13.991 C 2.22 14.041 2.26 14.1 2.29 14.169 C 2.32 14.237 2.335 14.31 2.335 14.387 C 2.335 14.464 2.32 14.537 2.29 14.606 C 2.26 14.674 2.22 14.734 2.169 14.784 C 2.119 14.834 2.06 14.875 1.991 14.905 C 1.923 14.935 1.849 14.95 1.773 14.95 C 1.696 14.95 1.623 14.935 1.554 14.905 C 1.486 14.875 1.426 14.834 1.376 14.784 C 1.326 14.734 1.285 14.674 1.255 14.606 C 1.226 14.537 1.21 14.464 1.21 14.387 Z M 4.499 15.035 C 4.633 15.035 4.748 15.082 4.841 15.176 C 4.935 15.269 4.982 15.384 4.982 15.517 C 4.982 15.651 4.935 15.765 4.841 15.858 C 4.748 15.953 4.633 16 4.499 16 C 4.366 16 4.252 15.953 4.159 15.858 C 4.064 15.765 4.017 15.651 4.017 15.517 C 4.017 15.384 4.064 15.269 4.159 15.176 C 4.252 15.082 4.366 15.035 4.499 15.035 Z M 6.825 14.387 C 6.825 14.273 6.863 14.179 6.94 14.101 C 7.018 14.024 7.113 13.986 7.227 13.986 C 7.341 13.986 7.436 14.024 7.513 14.101 C 7.59 14.179 7.629 14.273 7.629 14.387 C 7.629 14.501 7.59 14.596 7.513 14.673 C 7.436 14.75 7.341 14.789 7.227 14.789 C 7.113 14.789 7.018 14.75 6.94 14.673 C 6.863 14.596 6.825 14.501 6.825 14.387 Z M 8.356 11.339 C 8.444 11.339 8.519 11.371 8.582 11.434 C 8.646 11.498 8.678 11.573 8.678 11.661 C 8.678 11.748 8.646 11.823 8.582 11.887 C 8.519 11.95 8.444 11.982 8.356 11.982 C 8.269 11.982 8.194 11.95 8.13 11.887 C 8.067 11.823 8.035 11.748 8.035 11.661 C 8.035 11.573 8.067 11.498 8.13 11.434 C 8.194 11.371 8.269 11.339 8.356 11.339 Z M 7.227 8.049 C 7.347 8.049 7.461 8.073 7.568 8.12 C 7.675 8.167 7.769 8.23 7.849 8.311 C 7.93 8.391 7.993 8.485 8.04 8.592 C 8.087 8.699 8.111 8.813 8.111 8.933 C 8.111 9.054 8.087 9.168 8.04 9.275 C 7.993 9.382 7.93 9.476 7.849 9.556 C 7.769 9.636 7.675 9.7 7.568 9.747 C 7.461 9.793 7.347 9.817 7.227 9.817 C 7.106 9.817 6.993 9.793 6.885 9.747 C 6.778 9.7 6.684 9.636 6.604 9.556 C 6.524 9.476 6.459 9.382 6.413 9.275 C 6.367 9.168 6.343 9.054 6.343 8.933 C 6.343 8.813 6.367 8.699 6.413 8.592 C 6.459 8.485 6.524 8.391 6.604 8.311 C 6.684 8.23 6.778 8.167 6.885 8.12 C 6.993 8.073 7.106 8.049 7.227 8.049 Z" style="fill: rgb(255, 255, 255);"/>
</svg>