<?xml version="1.0" encoding="utf-8"?>
<svg width="81" height="16" version="1.1" viewBox="0 0 21.431 4.2333" xmlns="http://www.w3.org/2000/svg">
  <path id="inactive-center" d="m19.381 0.26459c-1.0229 0-1.8521 0.8292-1.8521 1.8521s0.8292 1.8521 1.8521 1.8521c1.0229 0 1.8521-0.8292 1.8521-1.8521s-0.8292-1.8521-1.8521-1.8521z" fill="#fff" opacity=".3" stroke-width=".26458"/>
  <path id="deactivated-center" d="m15.065 0.26459c-1.0229 0-1.8521 0.8292-1.8521 1.8521s0.8292 1.8521 1.8521 1.8521 1.8521-0.8292 1.8521-1.8521-0.8292-1.8521-1.8521-1.8521z" fill="#fff" opacity=".3" stroke-width=".26458"/>
  <path id="active-center" d="m2.1167 0.26458c-1.0229 0-1.8521 0.8292-1.8521 1.8521 0 1.0229 0.8292 1.8521 1.8521 1.8521s1.8521-0.8292 1.8521-1.8521c0-1.0229-0.8292-1.8521-1.8521-1.8521z" stroke-width=".13229" style="fill: rgb(250, 54, 54); stroke: rgb(168, 38, 38);"/>
  <path d="M 1.778 1.323 L 2.673 1.323 C 2.792 1.323 2.889 1.421 2.889 1.54 L 2.889 2.435 L 1.778 1.323 Z M 2.415 2.912 L 1.517 2.912 C 1.397 2.912 1.3 2.815 1.3 2.696 L 1.3 1.798 L 2.415 2.912" fill-rule="evenodd" opacity=".5" stroke-width=".26458"/>
  <g id="pressed-center" transform="translate(12.819 6.2177)">
    <path d="m-6.3861-5.9531c-1.0229 0-1.8521 0.8292-1.8521 1.8521s0.8292 1.8521 1.8521 1.8521 1.8521-0.8292 1.8521-1.8521-0.8292-1.8521-1.8521-1.8521z" stroke-width=".13229" style="fill: rgb(250, 54, 54); stroke: rgb(168, 38, 38);"/>
    <path d="m-6.7036-4.8948h0.89474c0.11914 0 0.21596 0.097491 0.21663 0.21664v0.89474zm0.63696 1.5893h-0.89829c-0.11916 0-0.21663-0.097478-0.21663-0.21663v-0.89829l1.1149 1.1149" fill-rule="evenodd" opacity=".5" stroke-width=".26458"/>
  </g>
  <g id="hover-center" transform="translate(17.135 6.2177)">
    <path d="m-6.3861-5.9531c-1.0229 0-1.8521 0.8292-1.8521 1.8521s0.8292 1.8521 1.8521 1.8521 1.8521-0.8292 1.8521-1.8521-0.8292-1.8521-1.8521-1.8521z" stroke-width=".13229" style="fill: rgb(250, 54, 54); stroke: rgb(168, 38, 38);"/>
    <path d="m-6.7036-4.8948h0.89474c0.11914 0 0.21596 0.097491 0.21663 0.21664v0.89474zm0.63696 1.5893h-0.89829c-0.11916 0-0.21663-0.097478-0.21663-0.21663v-0.89829l1.1149 1.1149" fill-rule="evenodd" opacity=".5" stroke-width=".26458"/>
  </g>
</svg>