<?xml version="1.0" encoding="utf-8"?>
<svg viewBox="0 0 16 16" xmlns="http://www.w3.org/2000/svg">
  <path d="M 14 7.125 C 14 7.332 13.926 7.51 13.777 7.658 C 13.633 7.803 13.457 7.875 13.25 7.875 L 12.5 7.875 L 12.5 8.666 C 12.5 8.912 12.451 9.146 12.351 9.369 C 12.251 9.592 12.118 9.786 11.953 9.953 C 11.786 10.118 11.592 10.251 11.369 10.351 C 11.146 10.451 10.912 10.5 10.666 10.5 L 8.926 10.5 L 8.551 9.75 L 10.625 9.75 C 10.777 9.75 10.922 9.721 11.058 9.662 C 11.195 9.604 11.316 9.523 11.419 9.419 C 11.523 9.316 11.604 9.195 11.662 9.058 C 11.721 8.922 11.75 8.777 11.75 8.625 L 11.75 4.875 C 11.75 4.723 11.721 4.578 11.662 4.442 C 11.604 4.305 11.523 4.184 11.419 4.081 C 11.316 3.977 11.195 3.896 11.058 3.838 C 10.922 3.779 10.777 3.75 10.625 3.75 L 3.875 3.75 C 3.723 3.75 3.578 3.779 3.442 3.838 C 3.305 3.896 3.184 3.977 3.081 4.081 C 2.977 4.184 2.896 4.305 2.838 4.442 C 2.779 4.578 2.75 4.723 2.75 4.875 L 2.75 8.642 L 2.275 9.598 C 2.092 9.301 2 8.977 2 8.625 L 2 4.834 C 2 4.588 2.05 4.354 2.149 4.131 C 2.249 3.908 2.382 3.714 2.548 3.548 C 2.714 3.382 2.908 3.249 3.131 3.149 C 3.354 3.05 3.588 3 3.834 3 L 10.666 3 C 10.916 3 11.152 3.05 11.372 3.149 C 11.593 3.249 11.786 3.382 11.953 3.548 C 12.118 3.714 12.25 3.908 12.348 4.131 C 12.445 4.354 12.496 4.588 12.5 4.834 L 12.5 5.625 L 13.25 5.625 C 13.351 5.625 13.447 5.645 13.537 5.684 C 13.627 5.723 13.707 5.777 13.777 5.848 C 13.848 5.918 13.903 5.998 13.942 6.088 C 13.981 6.178 14 6.274 14 6.375 L 14 7.125 Z" style="fill: rgb(255, 255, 255);"/>
  <path d="M 8.744 12 C 8.744 12.101 8.724 12.197 8.683 12.287 C 8.641 12.377 8.587 12.456 8.518 12.524 C 8.45 12.593 8.371 12.647 8.281 12.689 C 8.191 12.73 8.096 12.75 7.994 12.75 L 2.75 12.75 C 2.649 12.75 2.553 12.73 2.463 12.689 C 2.373 12.647 2.294 12.593 2.226 12.524 C 2.158 12.456 2.103 12.377 2.062 12.287 C 2.02 12.197 2 12.101 2 12 C 2 11.879 2.026 11.768 2.077 11.666 L 4.702 6.416 C 4.768 6.284 4.86 6.181 4.977 6.109 C 5.094 6.036 5.226 6 5.375 6 C 5.524 6 5.656 6.036 5.77 6.109 C 5.886 6.181 5.976 6.284 6.043 6.416 L 8.668 11.666 C 8.719 11.768 8.744 11.879 8.744 12 Z M 5.744 7.869 C 5.744 7.768 5.707 7.68 5.633 7.606 C 5.559 7.531 5.471 7.494 5.369 7.494 C 5.268 7.494 5.18 7.531 5.106 7.606 C 5.032 7.68 4.994 7.768 4.994 7.869 L 4.994 10.125 C 4.994 10.226 5.032 10.315 5.106 10.389 C 5.18 10.463 5.268 10.5 5.369 10.5 C 5.471 10.5 5.559 10.463 5.633 10.389 C 5.707 10.315 5.744 10.226 5.744 10.125 L 5.744 7.869 Z M 5.744 11.625 C 5.744 11.519 5.708 11.431 5.636 11.359 C 5.563 11.286 5.475 11.25 5.369 11.25 C 5.268 11.25 5.18 11.287 5.106 11.361 C 5.032 11.435 4.994 11.524 4.994 11.625 C 4.994 11.726 5.032 11.815 5.106 11.889 C 5.18 11.963 5.268 12 5.369 12 C 5.471 12 5.559 11.963 5.633 11.889 C 5.707 11.815 5.744 11.726 5.744 11.625 Z" style="fill: rgb(255, 204, 0);"/>
</svg>