<?xml version="1.0" encoding="utf-8"?>
<svg viewBox="0 0 16 16" xmlns="http://www.w3.org/2000/svg">
  <path d="M 8.75 9.378 C 8.75 9.84 8.66 10.278 8.486 10.686 C 8.306 11.1 8.066 11.454 7.76 11.76 C 7.454 12.066 7.1 12.306 6.686 12.486 C 6.278 12.66 5.84 12.75 5.378 12.75 C 4.904 12.75 4.466 12.66 4.058 12.486 C 3.644 12.312 3.29 12.072 2.984 11.766 C 2.678 11.46 2.438 11.106 2.264 10.692 C 2.09 10.284 2 9.846 2 9.378 C 2 8.91 2.09 8.472 2.264 8.064 C 2.444 7.65 2.684 7.296 2.99 6.99 C 3.296 6.684 3.65 6.444 4.064 6.264 C 4.472 6.09 4.91 6 5.378 6 C 5.684 6 5.984 6.042 6.266 6.12 C 6.554 6.198 6.824 6.312 7.076 6.462 C 7.322 6.606 7.556 6.786 7.76 6.99 C 7.97 7.2 8.144 7.428 8.288 7.674 C 8.438 7.926 8.552 8.196 8.63 8.484 C 8.708 8.766 8.75 9.066 8.75 9.378 Z M 5.942 9.378 L 7.16 8.16 C 7.238 8.082 7.28 7.986 7.28 7.878 C 7.28 7.764 7.238 7.668 7.16 7.59 C 7.082 7.512 6.986 7.47 6.878 7.47 C 6.764 7.47 6.668 7.512 6.59 7.59 L 5.378 8.808 L 4.16 7.59 C 4.082 7.512 3.986 7.47 3.878 7.47 C 3.764 7.47 3.668 7.512 3.59 7.59 C 3.512 7.668 3.47 7.764 3.47 7.878 C 3.47 7.926 3.482 7.98 3.506 8.028 C 3.524 8.082 3.554 8.13 3.59 8.16 L 4.808 9.378 L 3.59 10.59 C 3.512 10.668 3.47 10.764 3.47 10.878 C 3.47 10.986 3.512 11.082 3.59 11.16 C 3.668 11.238 3.764 11.28 3.878 11.28 C 3.986 11.28 4.082 11.238 4.16 11.16 L 5.378 9.942 L 6.59 11.16 C 6.626 11.196 6.668 11.226 6.722 11.25 C 6.77 11.268 6.824 11.28 6.878 11.28 C 6.986 11.28 7.082 11.238 7.16 11.16 C 7.238 11.082 7.28 10.986 7.28 10.878 C 7.28 10.764 7.238 10.668 7.16 10.59 L 5.942 9.378 Z" style="fill: rgb(255, 0, 0);"/>
  <path d="M 14 7.128 C 14 7.332 13.928 7.512 13.778 7.656 C 13.634 7.806 13.46 7.878 13.25 7.878 L 12.5 7.878 L 12.5 8.664 C 12.5 8.91 12.452 9.144 12.35 9.372 C 12.254 9.594 12.116 9.786 11.954 9.954 C 11.786 10.116 11.594 10.254 11.372 10.35 C 11.144 10.452 10.91 10.5 10.664 10.5 L 9.542 10.5 C 9.578 10.374 9.602 10.248 9.626 10.128 C 9.644 10.002 9.656 9.876 9.668 9.75 L 10.628 9.75 C 10.778 9.75 10.922 9.72 11.06 9.66 C 11.198 9.606 11.318 9.522 11.42 9.42 C 11.522 9.318 11.606 9.192 11.66 9.06 C 11.72 8.922 11.75 8.778 11.75 8.628 L 11.75 4.878 C 11.75 4.722 11.72 4.578 11.66 4.44 C 11.606 4.308 11.522 4.182 11.42 4.08 C 11.318 3.978 11.198 3.894 11.06 3.84 C 10.922 3.78 10.778 3.75 10.628 3.75 L 3.878 3.75 C 3.722 3.75 3.578 3.78 3.44 3.84 C 3.308 3.894 3.182 3.978 3.08 4.08 C 2.978 4.182 2.894 4.308 2.84 4.44 C 2.78 4.578 2.75 4.722 2.75 4.878 L 2.75 5.952 C 2.612 6.06 2.474 6.174 2.354 6.3 C 2.228 6.426 2.108 6.558 2 6.69 L 2 4.836 C 2 4.59 2.048 4.356 2.15 4.134 C 2.252 3.906 2.384 3.714 2.546 3.546 C 2.714 3.384 2.906 3.252 3.134 3.15 C 3.356 3.048 3.59 3 3.836 3 L 10.664 3 C 10.916 3 11.15 3.048 11.372 3.15 C 11.594 3.252 11.786 3.384 11.954 3.546 C 12.116 3.714 12.248 3.906 12.35 4.134 C 12.446 4.356 12.494 4.59 12.5 4.836 L 12.5 5.628 L 13.25 5.628 C 13.352 5.628 13.448 5.646 13.538 5.682 C 13.628 5.724 13.706 5.778 13.778 5.85 C 13.85 5.916 13.904 6 13.94 6.09 C 13.982 6.18 14 6.276 14 6.378 L 14 7.128 Z" style="fill: rgb(255, 255, 255);"/>
</svg>