<?xml version="1.0" encoding="utf-8"?>
<svg viewBox="0 0 16 16" xmlns="http://www.w3.org/2000/svg">
  <path d="M 3.517 10.517 L 1.6 10.517 C 1.383 10.517 1.178 10.475 0.983 10.392 C 0.789 10.308 0.618 10.193 0.471 10.046 C 0.324 9.899 0.208 9.728 0.125 9.533 C 0.042 9.339 0 9.133 0 8.917 L 0 5.717 C 0 5.5 0.042 5.294 0.125 5.1 C 0.208 4.906 0.324 4.735 0.471 4.588 C 0.618 4.44 0.789 4.325 0.983 4.242 C 1.178 4.158 1.383 4.117 1.6 4.117 L 3.517 4.117 L 6.1 1.525 C 6.178 1.447 6.265 1.39 6.363 1.354 C 6.46 1.318 6.561 1.3 6.667 1.3 C 6.894 1.3 7.085 1.375 7.238 1.525 C 7.39 1.675 7.467 1.864 7.467 2.092 L 7.467 12.542 C 7.467 12.653 7.446 12.756 7.404 12.85 C 7.363 12.944 7.304 13.029 7.229 13.104 C 7.154 13.179 7.068 13.238 6.971 13.279 C 6.874 13.321 6.772 13.342 6.667 13.342 C 6.444 13.342 6.256 13.264 6.1 13.108 L 3.517 10.517 Z M 6.4 11.892 L 6.4 2.733 L 4.108 5.025 C 4.003 5.131 3.878 5.183 3.733 5.183 L 1.6 5.183 C 1.456 5.183 1.331 5.236 1.225 5.342 C 1.119 5.447 1.067 5.572 1.067 5.717 L 1.067 8.917 C 1.067 9.061 1.119 9.186 1.225 9.292 C 1.331 9.397 1.456 9.45 1.6 9.45 L 3.733 9.45 C 3.878 9.45 4.003 9.503 4.108 9.608 L 6.4 11.892 Z" style="fill: rgb(255, 255, 255);"/>
  <path d="M 12.8 8.067 L 10.508 10.358 C 10.403 10.464 10.278 10.517 10.133 10.517 C 9.989 10.517 9.864 10.464 9.758 10.358 C 9.653 10.253 9.6 10.128 9.6 9.983 C 9.6 9.839 9.653 9.714 9.758 9.608 L 12.05 7.317 L 9.758 5.025 C 9.653 4.919 9.6 4.794 9.6 4.65 C 9.6 4.506 9.653 4.381 9.758 4.275 C 9.864 4.169 9.989 4.117 10.133 4.117 C 10.278 4.117 10.403 4.169 10.508 4.275 L 12.8 6.558 L 15.092 4.275 C 15.197 4.169 15.322 4.117 15.467 4.117 C 15.611 4.117 15.736 4.169 15.842 4.275 C 15.947 4.381 16 4.506 16 4.65 C 16 4.794 15.947 4.919 15.842 5.025 L 13.558 7.317 L 15.842 9.608 C 15.947 9.714 16 9.839 16 9.983 C 16 10.128 15.947 10.253 15.842 10.358 C 15.736 10.464 15.611 10.517 15.467 10.517 C 15.322 10.517 15.197 10.464 15.092 10.358 L 12.8 8.067 Z" style="fill: rgb(255, 255, 255);"/>
</svg>