<?xml version="1.0" encoding="utf-8"?>
<svg viewBox="0 0 16 16" xmlns="http://www.w3.org/2000/svg">
  <path d="M 2.499 15.992 C 2.296 15.992 2.104 15.953 1.922 15.875 C 1.739 15.797 1.579 15.689 1.441 15.55 C 1.303 15.412 1.195 15.252 1.117 15.07 C 1.039 14.888 1 14.696 1 14.492 L 1 2.499 C 1 2.296 1.039 2.103 1.117 1.921 C 1.195 1.739 1.303 1.579 1.441 1.44 C 1.579 1.303 1.739 1.195 1.922 1.117 C 2.104 1.039 2.296 1 2.499 1 L 4.085 1 C 4.136 0.848 4.21 0.712 4.303 0.589 C 4.397 0.467 4.506 0.362 4.631 0.274 C 4.756 0.185 4.891 0.117 5.037 0.07 C 5.183 0.024 5.336 0 5.498 0 L 8.496 0 C 8.658 0 8.812 0.024 8.957 0.07 C 9.103 0.117 9.238 0.185 9.363 0.274 C 9.488 0.362 9.597 0.467 9.691 0.589 C 9.785 0.712 9.858 0.848 9.91 1 L 11.495 1 C 11.698 1 11.89 1.039 12.073 1.117 C 12.255 1.195 12.415 1.303 12.553 1.44 C 12.691 1.579 12.799 1.739 12.876 1.921 C 12.955 2.103 12.994 2.296 12.994 2.499 L 12.994 10.034 C 12.869 10.018 12.744 10.008 12.619 10.003 C 12.494 9.998 12.369 9.995 12.244 9.995 L 11.994 9.995 L 11.994 2.499 C 11.994 2.363 11.945 2.246 11.846 2.147 C 11.747 2.048 11.63 1.999 11.495 1.999 L 9.91 1.999 C 9.858 2.15 9.785 2.287 9.691 2.409 C 9.597 2.531 9.488 2.637 9.363 2.725 C 9.238 2.813 9.103 2.882 8.957 2.928 C 8.812 2.975 8.658 2.999 8.496 2.999 L 5.498 2.999 C 5.336 2.999 5.183 2.975 5.037 2.928 C 4.891 2.882 4.756 2.813 4.631 2.725 C 4.506 2.637 4.397 2.531 4.303 2.409 C 4.21 2.287 4.136 2.15 4.085 1.999 L 2.499 1.999 C 2.364 1.999 2.247 2.048 2.148 2.147 C 2.049 2.246 2 2.363 2 2.499 L 2 14.492 C 2 14.628 2.049 14.745 2.148 14.844 C 2.247 14.943 2.364 14.993 2.499 14.993 L 5.333 14.993 C 5.516 15.367 5.753 15.7 6.044 15.992 L 2.499 15.992 Z M 8.496 1.999 C 8.631 1.999 8.749 1.949 8.847 1.851 C 8.946 1.752 8.996 1.635 8.996 1.499 C 8.996 1.364 8.946 1.247 8.847 1.148 C 8.749 1.049 8.631 1 8.496 1 L 5.498 1 C 5.362 1 5.245 1.049 5.146 1.148 C 5.047 1.247 4.998 1.364 4.998 1.499 C 4.998 1.635 5.047 1.752 5.146 1.851 C 5.245 1.949 5.362 1.999 5.498 1.999 L 8.496 1.999 Z M 8.442 15.992 C 8.103 15.992 7.786 15.924 7.489 15.789 C 7.192 15.654 6.933 15.471 6.712 15.243 C 6.49 15.014 6.316 14.748 6.189 14.446 C 6.061 14.144 5.997 13.827 5.997 13.494 C 5.997 13.16 6.061 12.843 6.189 12.54 C 6.316 12.239 6.49 11.973 6.712 11.744 C 6.933 11.515 7.192 11.332 7.489 11.198 C 7.786 11.062 8.103 10.994 8.442 10.994 C 8.489 10.994 8.538 10.993 8.59 10.991 C 8.642 10.988 8.697 10.987 8.754 10.987 C 8.842 10.987 8.93 10.991 9.02 11.002 C 9.108 11.012 9.188 11.036 9.258 11.073 C 9.328 11.109 9.385 11.159 9.429 11.225 C 9.474 11.29 9.495 11.38 9.495 11.494 C 9.495 11.63 9.446 11.747 9.348 11.846 C 9.249 11.945 9.132 11.994 8.996 11.994 L 8.496 11.994 C 8.293 11.994 8.101 12.033 7.919 12.111 C 7.736 12.19 7.576 12.297 7.438 12.435 C 7.3 12.573 7.192 12.734 7.114 12.915 C 7.036 13.097 6.997 13.29 6.997 13.494 C 6.997 13.696 7.036 13.889 7.114 14.071 C 7.192 14.254 7.3 14.414 7.438 14.551 C 7.576 14.689 7.736 14.797 7.919 14.875 C 8.101 14.953 8.293 14.993 8.496 14.993 L 8.996 14.993 C 9.132 14.993 9.249 15.041 9.348 15.141 C 9.446 15.24 9.495 15.357 9.495 15.492 C 9.495 15.627 9.446 15.745 9.348 15.843 C 9.249 15.942 9.132 15.992 8.996 15.992 L 8.442 15.992 Z M 11.495 15.492 C 11.495 15.357 11.545 15.24 11.643 15.141 C 11.742 15.041 11.859 14.993 11.994 14.993 L 12.494 14.993 C 12.697 14.993 12.89 14.953 13.072 14.875 C 13.254 14.797 13.414 14.689 13.553 14.551 C 13.69 14.414 13.798 14.254 13.876 14.071 C 13.955 13.889 13.993 13.696 13.993 13.494 C 13.993 13.29 13.955 13.097 13.876 12.915 C 13.798 12.734 13.69 12.573 13.553 12.435 C 13.414 12.297 13.254 12.19 13.072 12.111 C 12.89 12.033 12.697 11.994 12.494 11.994 L 11.994 11.994 C 11.859 11.994 11.742 11.945 11.643 11.846 C 11.545 11.747 11.495 11.63 11.495 11.494 C 11.495 11.359 11.545 11.242 11.643 11.143 C 11.742 11.044 11.859 10.994 11.994 10.994 L 12.549 10.994 C 12.887 10.994 13.204 11.062 13.502 11.198 C 13.798 11.332 14.057 11.515 14.278 11.744 C 14.5 11.973 14.674 12.239 14.801 12.54 C 14.929 12.843 14.993 13.16 14.993 13.494 C 14.993 13.827 14.929 14.144 14.801 14.446 C 14.674 14.748 14.5 15.014 14.278 15.243 C 14.057 15.471 13.798 15.654 13.502 15.789 C 13.204 15.924 12.887 15.992 12.549 15.992 C 12.502 15.992 12.451 15.993 12.396 15.996 C 12.342 15.998 12.286 16 12.228 16 C 12.14 16 12.052 15.995 11.963 15.984 C 11.875 15.974 11.796 15.952 11.725 15.918 C 11.655 15.884 11.599 15.833 11.557 15.766 C 11.516 15.697 11.495 15.606 11.495 15.492 Z M 8.496 13.993 C 8.361 13.993 8.244 13.943 8.145 13.844 C 8.046 13.745 7.996 13.628 7.996 13.494 C 7.996 13.358 8.046 13.241 8.145 13.142 C 8.244 13.043 8.361 12.993 8.496 12.993 L 12.494 12.993 C 12.63 12.993 12.747 13.043 12.846 13.142 C 12.945 13.241 12.994 13.358 12.994 13.494 C 12.994 13.628 12.945 13.745 12.846 13.844 C 12.747 13.943 12.63 13.993 12.494 13.993 L 8.496 13.993 Z" style="fill: rgb(255, 255, 255);"/>
</svg>