<?xml version="1.0" encoding="utf-8"?>
<svg viewBox="0 0 16 16" xmlns="http://www.w3.org/2000/svg">
  <path d="M 7.922 16 C 7.193 15.995 6.491 15.896 5.816 15.703 C 5.142 15.51 4.512 15.238 3.926 14.887 C 3.34 14.535 2.805 14.116 2.32 13.629 C 1.836 13.142 1.422 12.603 1.078 12.012 C 0.734 11.421 0.469 10.786 0.281 10.109 C 0.094 9.432 0 8.729 0 8 C 0 7.266 0.095 6.557 0.285 5.875 C 0.475 5.193 0.745 4.556 1.094 3.965 C 1.443 3.374 1.861 2.835 2.348 2.348 C 2.835 1.861 3.374 1.443 3.965 1.094 C 4.556 0.745 5.193 0.475 5.875 0.285 C 6.557 0.095 7.266 0 8 0 C 8.724 0 9.424 0.095 10.102 0.285 C 10.779 0.475 11.413 0.742 12.004 1.086 C 12.595 1.43 13.135 1.842 13.625 2.324 C 14.115 2.806 14.534 3.34 14.883 3.926 C 15.232 4.512 15.504 5.142 15.699 5.816 C 15.895 6.491 15.995 7.193 16 7.922 C 15.839 7.724 15.668 7.538 15.488 7.363 C 15.309 7.189 15.115 7.026 14.906 6.875 C 14.88 6.724 14.85 6.577 14.816 6.434 C 14.783 6.29 14.745 6.146 14.703 6 C 14.536 6 14.367 6.001 14.195 6.004 C 14.023 6.007 13.854 6.008 13.688 6.008 L 13.434 6.008 C 13.353 6.008 13.268 6.005 13.18 6 C 13.154 6 13.117 5.995 13.07 5.984 C 13.023 5.974 12.973 5.961 12.918 5.945 C 12.863 5.93 12.81 5.914 12.758 5.898 C 12.706 5.883 12.664 5.87 12.633 5.859 C 12.445 5.823 12.258 5.796 12.07 5.777 C 11.883 5.759 11.693 5.75 11.5 5.75 L 11.492 5.75 C 11.383 5.75 11.273 5.754 11.164 5.762 C 11.055 5.77 10.945 5.779 10.836 5.789 C 10.602 5.815 10.372 5.854 10.148 5.906 C 10.091 5.922 10.036 5.941 9.984 5.965 C 9.932 5.988 9.878 6 9.82 6 L 5.133 6 C 5.091 6.333 5.059 6.665 5.035 6.996 C 5.012 7.327 5 7.661 5 8 C 5 8.339 5.012 8.673 5.035 9.004 C 5.059 9.335 5.091 9.667 5.133 10 L 5.945 10 C 5.898 10.167 5.862 10.333 5.836 10.5 C 5.81 10.667 5.789 10.833 5.773 11 L 5.305 11 C 5.362 11.266 5.427 11.527 5.5 11.785 C 5.573 12.043 5.659 12.297 5.758 12.547 C 5.789 12.625 5.823 12.703 5.859 12.781 C 5.896 12.859 5.927 12.938 5.953 13.016 C 5.984 13.099 6.012 13.182 6.035 13.266 C 6.059 13.349 6.086 13.435 6.117 13.523 C 6.206 13.773 6.314 14.013 6.441 14.242 C 6.569 14.471 6.711 14.693 6.867 14.906 L 6.875 14.906 C 7.026 15.115 7.189 15.309 7.363 15.488 C 7.538 15.668 7.724 15.839 7.922 16 Z M 10.695 5 C 10.654 4.807 10.594 4.574 10.516 4.301 C 10.438 4.027 10.341 3.743 10.227 3.449 C 10.112 3.155 9.979 2.861 9.828 2.566 C 9.677 2.272 9.508 2.009 9.32 1.777 C 9.133 1.546 8.93 1.358 8.711 1.215 C 8.492 1.072 8.255 1 8 1 C 7.745 1 7.508 1.072 7.289 1.215 C 7.07 1.358 6.867 1.546 6.68 1.777 C 6.492 2.009 6.323 2.272 6.172 2.566 C 6.021 2.861 5.888 3.155 5.773 3.449 C 5.659 3.743 5.563 4.027 5.484 4.301 C 5.406 4.574 5.346 4.807 5.305 5 L 10.695 5 Z M 1.68 5 L 4.281 5 C 4.344 4.693 4.418 4.379 4.504 4.059 C 4.59 3.738 4.691 3.422 4.809 3.109 C 4.926 2.797 5.06 2.495 5.211 2.203 C 5.362 1.911 5.534 1.638 5.727 1.383 C 5.284 1.534 4.862 1.728 4.461 1.965 C 4.06 2.202 3.686 2.475 3.34 2.785 C 2.993 3.095 2.68 3.436 2.398 3.809 C 2.117 4.181 1.878 4.578 1.68 5 Z M 14.32 5 C 14.117 4.573 13.875 4.173 13.594 3.801 C 13.313 3.428 13 3.089 12.656 2.781 C 12.313 2.474 11.94 2.203 11.539 1.969 C 11.138 1.734 10.716 1.539 10.273 1.383 C 10.466 1.638 10.638 1.911 10.789 2.203 C 10.94 2.495 11.074 2.797 11.191 3.109 C 11.309 3.422 11.41 3.738 11.496 4.059 C 11.582 4.379 11.656 4.693 11.719 5 L 14.32 5 Z M 4.117 10 C 4.039 9.339 4 8.672 4 8 C 4 7.661 4.009 7.327 4.027 6.996 C 4.046 6.665 4.078 6.333 4.125 6 L 1.289 6 C 1.096 6.641 1 7.307 1 8 C 1 8.693 1.096 9.359 1.289 10 L 4.117 10 Z M 1.68 11 C 1.878 11.422 2.117 11.819 2.398 12.191 C 2.68 12.564 2.992 12.905 3.336 13.215 C 3.68 13.525 4.052 13.798 4.453 14.035 C 4.854 14.272 5.276 14.466 5.719 14.617 C 5.531 14.357 5.362 14.081 5.211 13.789 C 5.06 13.497 4.926 13.197 4.809 12.887 C 4.691 12.577 4.59 12.263 4.504 11.945 C 4.418 11.628 4.344 11.313 4.281 11 L 1.68 11 Z" style="fill: rgb(255, 255, 255);"/>
  <path d="M 16 11.5 C 16 12.12 15.881 12.703 15.645 13.25 C 15.408 13.797 15.086 14.273 14.68 14.68 C 14.273 15.086 13.797 15.408 13.25 15.645 C 12.703 15.881 12.12 16 11.5 16 C 10.875 16 10.289 15.883 9.742 15.648 C 9.195 15.414 8.719 15.094 8.313 14.688 C 7.906 14.281 7.586 13.805 7.352 13.258 C 7.117 12.711 7 12.125 7 11.5 C 7 10.88 7.118 10.297 7.355 9.75 C 7.592 9.203 7.914 8.727 8.32 8.32 C 8.727 7.914 9.203 7.592 9.75 7.355 C 10.297 7.118 10.88 7 11.5 7 C 11.911 7 12.309 7.053 12.691 7.16 C 13.074 7.267 13.432 7.418 13.766 7.613 C 14.099 7.809 14.404 8.044 14.68 8.32 C 14.956 8.596 15.191 8.901 15.387 9.234 C 15.582 9.568 15.733 9.926 15.84 10.309 C 15.947 10.691 16 11.089 16 11.5 Z M 8.703 13.594 L 13.594 8.703 C 13.276 8.458 12.938 8.28 12.578 8.168 C 12.219 8.056 11.839 8 11.438 8 C 10.979 8 10.543 8.094 10.129 8.281 C 9.715 8.469 9.35 8.72 9.035 9.035 C 8.72 9.35 8.469 9.715 8.281 10.129 C 8.094 10.543 8 10.979 8 11.438 C 8 11.839 8.056 12.219 8.168 12.578 C 8.28 12.938 8.458 13.276 8.703 13.594 Z M 14.297 9.406 L 9.406 14.297 C 9.724 14.542 10.063 14.72 10.422 14.832 C 10.781 14.944 11.161 15 11.563 15 C 12.021 15 12.457 14.906 12.871 14.719 C 13.285 14.531 13.65 14.28 13.965 13.965 C 14.28 13.65 14.531 13.285 14.719 12.871 C 14.906 12.457 15 12.021 15 11.563 C 15 11.161 14.944 10.781 14.832 10.422 C 14.72 10.063 14.542 9.724 14.297 9.406 Z" style="fill: rgb(255, 0, 0);"/>
</svg>