<?xml version="1.0" encoding="utf-8"?>
<svg viewBox="0 0 16 16" xmlns="http://www.w3.org/2000/svg">
  <path d="M 12 12 L 12 13 L 11 13 L 11 15 L 12 15 L 12 16 L 3.5 16 C 3.365 16 3.247 15.951 3.148 15.852 C 3.049 15.753 3 15.635 3 15.5 C 3 15.365 3.049 15.247 3.148 15.148 C 3.247 15.049 3.365 15 3.5 15 L 5 15 L 5 13 L 1.961 13 C 1.701 13 1.452 12.947 1.215 12.84 C 0.978 12.733 0.77 12.59 0.59 12.41 C 0.41 12.23 0.267 12.022 0.16 11.785 C 0.053 11.548 0 11.299 0 11.039 L 0 1.961 C 0 1.701 0.053 1.452 0.16 1.215 C 0.267 0.978 0.41 0.77 0.59 0.59 C 0.77 0.41 0.978 0.267 1.215 0.16 C 1.452 0.053 1.701 0 1.961 0 L 10.266 0 C 10.089 0.302 10 0.635 10 1 L 2 1 C 1.859 1 1.729 1.026 1.609 1.078 C 1.49 1.13 1.384 1.202 1.293 1.293 C 1.202 1.384 1.13 1.49 1.078 1.609 C 1.026 1.729 1 1.859 1 2 L 1 11 C 1 11.141 1.026 11.272 1.078 11.395 C 1.13 11.517 1.201 11.622 1.289 11.711 C 1.378 11.799 1.483 11.87 1.605 11.922 C 1.728 11.974 1.859 12 2 12 L 12 12 Z M 14.5 0 C 14.703 0 14.896 0.039 15.078 0.117 C 15.26 0.195 15.421 0.303 15.559 0.441 C 15.697 0.579 15.805 0.74 15.883 0.922 C 15.961 1.104 16 1.297 16 1.5 L 16 5.5 C 16 5.703 15.961 5.896 15.883 6.078 C 15.805 6.26 15.697 6.421 15.559 6.559 C 15.421 6.697 15.26 6.805 15.078 6.883 C 14.896 6.961 14.703 7 14.5 7 L 14 7 L 14 15.5 C 14 15.635 13.951 15.753 13.852 15.852 C 13.753 15.951 13.635 16 13.5 16 C 13.365 16 13.247 15.951 13.148 15.852 C 13.049 15.753 13 15.635 13 15.5 L 13 7 L 12.5 7 C 12.297 7 12.104 6.961 11.922 6.883 C 11.74 6.805 11.579 6.697 11.441 6.559 C 11.303 6.421 11.195 6.26 11.117 6.078 C 11.039 5.896 11 5.703 11 5.5 L 11 1.5 C 11 1.297 11.039 1.104 11.117 0.922 C 11.195 0.74 11.303 0.579 11.441 0.441 C 11.579 0.303 11.74 0.195 11.922 0.117 C 12.104 0.039 12.297 0 12.5 0 L 14.5 0 Z M 12.5 1 C 12.365 1 12.247 1.049 12.148 1.148 C 12.049 1.247 12 1.365 12 1.5 L 12 2 L 15 2 L 15 1.5 C 15 1.365 14.951 1.247 14.852 1.148 C 14.753 1.049 14.635 1 14.5 1 L 12.5 1 Z M 14.5 6 C 14.635 6 14.753 5.951 14.852 5.852 C 14.951 5.753 15 5.635 15 5.5 L 15 3 L 12 3 L 12 5.5 C 12 5.635 12.049 5.753 12.148 5.852 C 12.247 5.951 12.365 6 12.5 6 L 14.5 6 Z M 6 15 L 10 15 L 10 13 L 6 13 L 6 15 Z" style="fill: rgb(255, 255, 255);"/>
</svg>