<?xml version="1.0" encoding="utf-8"?>
<svg xmlns="http://www.w3.org/2000/svg" viewBox="0 0 16 16">
  <path d="M 16 10.509 L 16 14.513 C 16 14.649 15.95 14.766 15.851 14.865 C 15.752 14.964 15.635 15.014 15.5 15.014 L 10.495 15.014 C 10.359 15.014 10.242 14.964 10.143 14.865 C 10.044 14.766 9.994 14.649 9.994 14.513 L 9.994 10.509 C 9.994 10.395 10.016 10.305 10.061 10.239 C 10.105 10.174 10.162 10.125 10.233 10.091 C 10.303 10.057 10.381 10.035 10.467 10.024 C 10.553 10.014 10.641 10.009 10.729 10.009 L 10.995 10.009 L 10.995 9.008 C 10.995 8.737 11.049 8.479 11.155 8.234 C 11.262 7.989 11.406 7.775 11.586 7.592 C 11.765 7.41 11.977 7.265 12.219 7.158 C 12.461 7.051 12.721 6.998 12.997 6.998 C 13.2 6.998 13.397 7.028 13.587 7.088 C 13.778 7.148 13.952 7.233 14.111 7.342 C 14.27 7.452 14.414 7.582 14.542 7.733 C 14.669 7.884 14.772 8.054 14.85 8.241 C 14.918 8.403 14.963 8.57 14.983 8.742 C 15.004 8.914 15.015 9.086 15.015 9.258 C 15.015 9.388 15.012 9.516 15.007 9.641 C 15.002 9.766 14.999 9.889 14.999 10.009 L 15.265 10.009 C 15.354 10.009 15.441 10.014 15.527 10.024 C 15.613 10.035 15.691 10.057 15.761 10.091 C 15.832 10.125 15.889 10.174 15.934 10.239 C 15.978 10.305 16 10.395 16 10.509 Z M 11.996 10.009 L 13.998 10.009 L 13.998 9.008 C 13.998 8.867 13.972 8.735 13.92 8.613 C 13.868 8.49 13.797 8.385 13.709 8.296 C 13.62 8.208 13.515 8.137 13.392 8.085 C 13.269 8.033 13.138 8.007 12.997 8.007 C 12.856 8.007 12.726 8.033 12.606 8.085 C 12.486 8.137 12.381 8.209 12.289 8.3 C 12.198 8.391 12.126 8.497 12.074 8.617 C 12.022 8.737 11.996 8.867 11.996 9.008 L 11.996 10.009 Z M 13.998 12.511 C 13.998 12.376 13.972 12.247 13.92 12.124 C 13.868 12.002 13.796 11.895 13.705 11.804 C 13.614 11.712 13.507 11.641 13.384 11.588 C 13.262 11.536 13.133 11.51 12.997 11.51 C 12.856 11.51 12.726 11.536 12.606 11.588 C 12.486 11.641 12.381 11.712 12.289 11.804 C 12.198 11.895 12.126 12 12.074 12.12 C 12.022 12.24 11.996 12.37 11.996 12.511 C 11.996 12.652 12.022 12.784 12.074 12.906 C 12.126 13.029 12.197 13.134 12.285 13.223 C 12.374 13.311 12.48 13.382 12.602 13.434 C 12.725 13.486 12.856 13.512 12.997 13.512 C 13.138 13.512 13.268 13.486 13.388 13.434 C 13.508 13.382 13.614 13.31 13.705 13.219 C 13.796 13.128 13.868 13.022 13.92 12.902 C 13.972 12.782 13.998 12.652 13.998 12.511 Z" style="fill: rgb(255, 255, 255);"/>
  <path d="M 7.992 5.004 C 7.601 5.004 7.214 5.046 6.831 5.129 C 6.448 5.212 6.08 5.334 5.728 5.493 C 5.376 5.652 5.044 5.846 4.731 6.075 C 4.418 6.305 4.132 6.565 3.871 6.857 C 3.741 7.003 3.627 7.152 3.531 7.303 C 3.434 7.454 3.331 7.605 3.222 7.757 C 3.165 7.835 3.105 7.896 3.042 7.94 C 2.979 7.985 2.896 8.007 2.792 8.007 C 2.656 8.007 2.539 7.957 2.44 7.858 C 2.341 7.759 2.291 7.642 2.291 7.506 C 2.291 7.423 2.312 7.34 2.354 7.256 C 2.63 6.756 2.973 6.305 3.382 5.903 C 3.791 5.502 4.242 5.16 4.735 4.879 C 5.228 4.597 5.752 4.381 6.307 4.23 C 6.862 4.079 7.424 4.003 7.992 4.003 C 8.889 4.003 9.744 4.176 10.557 4.523 C 11.37 4.87 12.085 5.369 12.7 6.021 C 12.309 6.062 11.941 6.172 11.597 6.349 C 11.097 5.911 10.538 5.577 9.92 5.348 C 9.302 5.119 8.659 5.004 7.992 5.004 Z M 7.992 8.007 C 7.705 8.007 7.425 8.046 7.152 8.124 C 6.878 8.202 6.618 8.32 6.373 8.476 C 6.113 8.643 5.902 8.825 5.74 9.023 C 5.578 9.222 5.425 9.454 5.279 9.719 C 5.226 9.808 5.164 9.878 5.091 9.931 C 5.018 9.983 4.929 10.009 4.825 10.009 C 4.689 10.009 4.572 9.959 4.473 9.86 C 4.374 9.761 4.325 9.644 4.325 9.508 C 4.325 9.43 4.34 9.36 4.371 9.297 C 4.528 8.953 4.734 8.639 4.989 8.355 C 5.245 8.071 5.533 7.83 5.853 7.631 C 6.174 7.433 6.517 7.28 6.882 7.17 C 7.247 7.061 7.617 7.006 7.992 7.006 C 8.399 7.006 8.799 7.067 9.193 7.19 C 9.586 7.312 9.95 7.491 10.283 7.725 C 10.2 7.892 10.136 8.064 10.092 8.241 C 10.048 8.419 10.018 8.599 10.002 8.781 C 9.726 8.531 9.414 8.339 9.067 8.206 C 8.721 8.073 8.362 8.007 7.992 8.007 Z M 8.993 10.259 L 8.993 11.761 C 8.878 11.917 8.733 12.039 8.555 12.128 C 8.378 12.217 8.19 12.261 7.992 12.261 C 7.82 12.261 7.659 12.227 7.507 12.159 C 7.356 12.092 7.224 12.002 7.112 11.89 C 7 11.777 6.91 11.646 6.843 11.495 C 6.775 11.343 6.741 11.182 6.741 11.01 C 6.741 10.838 6.775 10.676 6.843 10.525 C 6.91 10.374 7 10.242 7.112 10.13 C 7.224 10.018 7.356 9.928 7.507 9.86 C 7.659 9.792 7.82 9.759 7.992 9.759 C 8.19 9.759 8.378 9.803 8.555 9.891 C 8.733 9.98 8.878 10.103 8.993 10.259 Z" style="fill: rgb(255, 255, 255);"/>
  <path d="M 7.992 2.001 C 7.419 2.001 6.856 2.057 6.303 2.169 C 5.75 2.281 5.216 2.445 4.7 2.662 C 4.184 2.878 3.691 3.145 3.222 3.463 C 2.753 3.781 2.317 4.144 1.916 4.55 C 1.791 4.675 1.67 4.804 1.552 4.937 C 1.435 5.07 1.324 5.21 1.22 5.356 C 1.163 5.429 1.11 5.5 1.064 5.571 C 1.017 5.641 0.967 5.713 0.915 5.786 C 0.863 5.854 0.803 5.907 0.735 5.946 C 0.667 5.985 0.589 6.005 0.5 6.005 C 0.365 6.005 0.248 5.955 0.149 5.856 C 0.05 5.757 0 5.64 0 5.504 C 0 5.405 0.029 5.311 0.086 5.223 C 0.508 4.566 1.013 3.976 1.599 3.452 C 2.186 2.928 2.823 2.485 3.511 2.122 C 4.199 1.76 4.924 1.482 5.685 1.289 C 6.446 1.096 7.215 1 7.992 1 C 8.769 1 9.538 1.096 10.299 1.289 C 11.06 1.482 11.785 1.76 12.473 2.122 C 13.161 2.485 13.799 2.928 14.385 3.452 C 14.972 3.976 15.476 4.566 15.898 5.223 C 15.956 5.311 15.984 5.405 15.984 5.504 C 15.984 5.64 15.935 5.757 15.836 5.856 C 15.737 5.955 15.619 6.005 15.484 6.005 C 15.39 6.005 15.312 5.987 15.249 5.95 C 15.187 5.914 15.127 5.859 15.069 5.786 C 14.981 5.671 14.899 5.562 14.823 5.457 C 14.747 5.353 14.672 5.253 14.596 5.156 C 14.521 5.06 14.441 4.962 14.358 4.863 C 14.274 4.764 14.178 4.66 14.068 4.55 C 13.667 4.144 13.232 3.781 12.762 3.463 C 12.293 3.145 11.801 2.878 11.284 2.662 C 10.768 2.445 10.233 2.281 9.677 2.169 C 9.122 2.057 8.56 2.001 7.992 2.001 Z" style="fill: rgb(255, 255, 255); fill-opacity: 0.5;"/>
</svg>