<?xml version="1.0" encoding="utf-8"?>
<svg xmlns="http://www.w3.org/2000/svg" viewBox="0 0 16 16">
  <path d="M 4.351 12.8 L 2.093 12.8 C 1.809 12.8 1.555 12.74 1.301 12.636 C 1.047 12.516 0.822 12.366 0.628 12.172 C 0.434 11.978 0.284 11.753 0.164 11.499 C 0.06 11.245 0 10.991 0 10.707 L 0 2.093 C 0 1.809 0.06 1.555 0.164 1.301 C 0.284 1.047 0.434 0.822 0.628 0.628 C 0.822 0.434 1.047 0.284 1.301 0.164 C 1.555 0.06 1.809 0 2.093 0 L 12.845 0 C 13.114 0 13.383 0.06 13.637 0.164 C 13.892 0.284 14.116 0.434 14.31 0.628 C 14.49 0.822 14.654 1.047 14.759 1.301 C 14.879 1.555 14.938 1.809 14.938 2.093 L 14.938 6.325 C 14.759 6.206 14.594 6.086 14.415 5.981 C 14.236 5.877 14.056 5.772 13.862 5.682 L 13.862 2.138 C 13.862 1.989 13.832 1.854 13.787 1.72 C 13.727 1.585 13.652 1.48 13.548 1.376 C 13.458 1.286 13.338 1.211 13.219 1.151 C 13.084 1.092 12.95 1.062 12.8 1.062 L 2.138 1.062 C 1.989 1.062 1.839 1.092 1.72 1.151 C 1.585 1.211 1.48 1.286 1.376 1.376 C 1.286 1.48 1.211 1.585 1.151 1.72 C 1.092 1.839 1.062 1.989 1.062 2.138 L 1.062 10.662 C 1.062 10.811 1.092 10.961 1.151 11.095 C 1.211 11.215 1.286 11.335 1.376 11.424 C 1.465 11.514 1.585 11.589 1.72 11.649 C 1.839 11.708 1.989 11.738 2.138 11.738 L 4.591 11.738 C 4.665 11.738 4.74 11.753 4.8 11.768 C 4.875 11.798 4.935 11.843 4.979 11.903 L 5.951 12.979 C 5.892 13.129 5.847 13.293 5.832 13.458 C 5.802 13.622 5.787 13.787 5.787 13.936 C 5.787 14.026 5.787 14.116 5.802 14.191 C 5.802 14.28 5.817 14.37 5.832 14.445 L 4.351 12.8 Z" style="fill: rgb(255, 255, 255); fill-opacity: 0.5;"/>
  <path d="M 7.133 13.652 C 7.133 13.563 7.163 13.488 7.222 13.428 C 7.297 13.368 7.372 13.338 7.462 13.338 C 8.329 13.338 9.121 13.114 9.869 12.695 C 10.243 12.471 10.572 12.217 10.871 11.918 C 11.155 11.619 11.409 11.29 11.619 10.931 C 11.828 10.572 11.993 10.183 12.097 9.779 C 12.217 9.376 12.262 8.957 12.262 8.538 C 12.262 8.329 12.247 8.135 12.232 7.94 C 12.202 7.746 12.157 7.551 12.112 7.357 C 12.112 7.297 12.097 7.237 12.097 7.207 C 12.097 7.058 12.142 6.923 12.232 6.804 C 12.321 6.684 12.441 6.624 12.591 6.624 C 12.636 6.624 12.695 6.639 12.74 6.654 C 13.219 6.819 13.652 7.043 14.056 7.342 C 14.46 7.641 14.804 7.985 15.088 8.374 C 15.372 8.778 15.596 9.211 15.761 9.69 C 15.925 10.153 16 10.647 16 11.14 C 16 11.813 15.88 12.441 15.626 13.039 C 15.387 13.622 15.043 14.131 14.609 14.579 C 14.176 15.013 13.667 15.357 13.084 15.611 C 12.501 15.865 11.873 16 11.2 16 C 10.796 16 10.407 15.955 10.019 15.85 C 9.63 15.746 9.256 15.611 8.897 15.417 C 8.553 15.222 8.224 14.998 7.925 14.729 C 7.626 14.46 7.372 14.146 7.163 13.802 C 7.133 13.757 7.133 13.712 7.133 13.652 Z" style="fill: rgb(255, 255, 255);"/>
</svg>