<?xml version="1.0" encoding="utf-8"?>
<svg viewBox="0 0 16 16" xmlns="http://www.w3.org/2000/svg" width="16px" height="16px">
  <path d="M 7.828 0 C 8.352 0 8.858 0.069 9.347 0.205 C 9.834 0.343 10.29 0.534 10.713 0.781 C 11.135 1.028 11.52 1.326 11.869 1.674 C 12.217 2.022 12.514 2.408 12.761 2.83 C 13.009 3.253 13.2 3.709 13.338 4.196 C 13.474 4.685 13.543 5.191 13.543 5.714 L 13.543 9.92 L 15.025 11.884 C 15.096 11.985 15.153 12.094 15.195 12.21 C 15.237 12.326 15.257 12.444 15.257 12.562 C 15.257 12.723 15.227 12.874 15.168 13.013 C 15.108 13.153 15.027 13.275 14.922 13.38 C 14.818 13.484 14.696 13.565 14.556 13.625 C 14.417 13.684 14.266 13.714 14.106 13.714 L 10.632 13.714 C 10.56 14.047 10.439 14.354 10.266 14.634 C 10.093 14.914 9.883 15.155 9.636 15.357 C 9.389 15.559 9.111 15.717 8.802 15.83 C 8.492 15.943 8.167 16 7.828 16 C 7.49 16 7.165 15.943 6.855 15.83 C 6.546 15.717 6.268 15.559 6.021 15.357 C 5.774 15.155 5.564 14.914 5.391 14.634 C 5.218 14.354 5.097 14.047 5.025 13.714 L 1.551 13.714 C 1.391 13.714 1.24 13.684 1.101 13.625 C 0.961 13.565 0.839 13.484 0.735 13.38 C 0.63 13.275 0.549 13.153 0.489 13.013 C 0.43 12.874 0.4 12.723 0.4 12.562 C 0.4 12.444 0.42 12.326 0.462 12.21 C 0.504 12.094 0.561 11.985 0.632 11.884 L 2.114 9.92 L 2.114 5.714 C 2.114 5.191 2.183 4.685 2.319 4.196 C 2.457 3.709 2.648 3.253 2.895 2.83 C 3.143 2.408 3.44 2.022 3.788 1.674 C 4.137 1.326 4.522 1.028 4.944 0.781 C 5.367 0.534 5.823 0.343 6.31 0.205 C 6.799 0.069 7.305 0 7.828 0 Z M 7.828 1.143 C 7.198 1.143 6.604 1.262 6.047 1.5 C 5.49 1.738 5.006 2.064 4.592 2.477 C 4.178 2.892 3.852 3.376 3.615 3.933 C 3.376 4.49 3.257 5.083 3.257 5.714 L 3.257 10.017 C 3.257 10.107 3.242 10.197 3.213 10.29 C 3.183 10.382 3.141 10.464 3.087 10.535 L 1.551 12.571 L 14.106 12.571 L 12.57 10.535 C 12.516 10.464 12.474 10.382 12.444 10.29 C 12.415 10.197 12.4 10.107 12.4 10.017 L 12.4 5.714 C 12.4 5.083 12.281 4.49 12.042 3.933 C 11.805 3.376 11.479 2.892 11.065 2.477 C 10.651 2.064 10.167 1.738 9.609 1.5 C 9.053 1.262 8.459 1.143 7.828 1.143 Z M 6.213 13.714 C 6.272 13.887 6.355 14.043 6.463 14.183 C 6.569 14.323 6.695 14.443 6.838 14.544 C 6.981 14.645 7.137 14.723 7.306 14.776 C 7.476 14.83 7.65 14.857 7.828 14.857 C 8.007 14.857 8.181 14.83 8.35 14.776 C 8.52 14.723 8.676 14.645 8.819 14.544 C 8.962 14.443 9.088 14.323 9.194 14.183 C 9.302 14.043 9.385 13.887 9.444 13.714 L 6.213 13.714 Z" style="fill: rgb(255, 255, 255);"/>
</svg>