<?xml version="1.0" encoding="utf-8"?>
<svg viewBox="0 0 16 16" xmlns="http://www.w3.org/2000/svg">
  <path d="M 4.85 12.8 L 2.592 12.8 C 2.314 12.8 2.049 12.743 1.796 12.63 C 1.544 12.516 1.321 12.362 1.13 12.17 C 0.938 11.979 0.784 11.756 0.67 11.504 C 0.557 11.251 0.5 10.986 0.5 10.708 L 0.5 2.092 C 0.5 1.814 0.557 1.549 0.67 1.296 C 0.784 1.044 0.938 0.821 1.13 0.63 C 1.321 0.438 1.544 0.284 1.796 0.17 C 2.049 0.057 2.314 0 2.592 0 L 13.342 0 C 13.62 0 13.885 0.057 14.137 0.17 C 14.39 0.284 14.613 0.438 14.804 0.63 C 14.996 0.821 15.148 1.044 15.262 1.296 C 15.377 1.549 15.434 1.814 15.434 2.092 L 15.434 10.708 C 15.434 10.997 15.376 11.269 15.259 11.521 C 15.142 11.774 14.987 11.994 14.792 12.184 C 14.598 12.372 14.371 12.522 14.112 12.634 C 13.855 12.745 13.583 12.8 13.3 12.8 L 11.084 12.8 L 8.367 15.825 C 8.261 15.942 8.128 16 7.966 16 C 7.806 16 7.672 15.942 7.567 15.825 L 4.85 12.8 Z M 12.766 5.334 C 12.911 5.334 13.037 5.28 13.141 5.175 C 13.248 5.069 13.3 4.945 13.3 4.8 C 13.3 4.655 13.248 4.531 13.141 4.425 C 13.037 4.32 12.911 4.266 12.766 4.266 L 3.166 4.266 C 3.023 4.266 2.897 4.32 2.792 4.425 C 2.686 4.531 2.634 4.655 2.634 4.8 C 2.634 4.945 2.686 5.069 2.792 5.175 C 2.897 5.28 3.023 5.334 3.166 5.334 L 12.766 5.334 Z M 12.766 8.534 C 12.911 8.534 13.037 8.48 13.141 8.375 C 13.248 8.269 13.3 8.145 13.3 8 C 13.3 7.855 13.248 7.731 13.141 7.625 C 13.037 7.52 12.911 7.466 12.766 7.466 L 3.166 7.466 C 3.023 7.466 2.897 7.52 2.792 7.625 C 2.686 7.731 2.634 7.855 2.634 8 C 2.634 8.145 2.686 8.269 2.792 8.375 C 2.897 8.48 3.023 8.534 3.166 8.534 L 12.766 8.534 Z" style="fill: rgb(255, 255, 255);"/>
</svg>