<?xml version="1.0" encoding="utf-8"?>
<svg xmlns="http://www.w3.org/2000/svg" viewBox="0 0 16 16">
  <path d="M 2.336 7.875 C 2.242 7.875 2.163 7.842 2.098 7.777 C 2.033 7.712 2 7.633 2 7.539 L 2 4.938 L 0.406 4.938 C 0.333 4.938 0.273 4.914 0.227 4.867 C 0.18 4.82 0.156 4.76 0.156 4.688 C 0.156 4.667 0.185 4.592 0.242 4.465 C 0.299 4.337 0.376 4.174 0.473 3.977 C 0.569 3.779 0.68 3.555 0.805 3.305 C 0.93 3.055 1.057 2.798 1.188 2.535 C 1.318 2.272 1.448 2.012 1.578 1.754 C 1.708 1.496 1.828 1.26 1.938 1.047 C 2.047 0.833 2.141 0.65 2.219 0.496 C 2.297 0.342 2.349 0.24 2.375 0.188 C 2.401 0.13 2.44 0.085 2.492 0.051 C 2.544 0.017 2.602 0 2.664 0 C 2.758 0 2.837 0.033 2.902 0.098 C 2.967 0.163 3 0.242 3 0.336 L 3 2.938 L 4.594 2.938 C 4.667 2.938 4.727 2.961 4.773 3.008 C 4.82 3.055 4.844 3.115 4.844 3.188 C 4.844 3.229 4.836 3.266 4.82 3.297 L 2.625 7.688 C 2.599 7.745 2.56 7.79 2.508 7.824 C 2.456 7.858 2.398 7.875 2.336 7.875 Z M 14.094 8.695 C 13.708 8.695 13.344 8.76 13 8.891 L 13 5.438 C 13 5.234 12.961 5.042 12.883 4.859 C 12.805 4.677 12.697 4.517 12.559 4.379 C 12.421 4.241 12.26 4.133 12.078 4.055 C 11.896 3.977 11.703 3.938 11.5 3.938 L 5.898 3.938 C 6.029 3.688 6.094 3.432 6.094 3.172 C 6.094 3.13 6.092 3.091 6.09 3.055 C 6.087 3.018 6.083 2.979 6.078 2.938 L 11.555 2.938 C 11.893 2.938 12.211 3.005 12.508 3.141 C 12.805 3.276 13.064 3.458 13.285 3.688 C 13.507 3.917 13.681 4.182 13.809 4.484 C 13.936 4.786 14 5.104 14 5.438 L 14 6.438 L 15 6.438 C 15.135 6.438 15.263 6.464 15.383 6.516 C 15.503 6.568 15.609 6.641 15.703 6.734 C 15.797 6.828 15.87 6.935 15.922 7.055 C 15.974 7.174 16 7.302 16 7.438 L 16 8.438 C 16 8.714 15.904 8.948 15.711 9.141 C 15.216 8.844 14.677 8.695 14.094 8.695 Z M 2.445 12.938 C 2.117 12.938 1.805 12.871 1.508 12.738 C 1.211 12.605 0.952 12.428 0.73 12.207 C 0.509 11.986 0.332 11.727 0.199 11.43 C 0.066 11.133 0 10.82 0 10.492 L 0 5.938 L 1 5.938 L 1 10.438 C 1 10.641 1.039 10.833 1.117 11.016 C 1.195 11.198 1.303 11.358 1.441 11.496 C 1.579 11.634 1.74 11.742 1.922 11.82 C 2.104 11.898 2.297 11.938 2.5 11.938 L 7.75 11.938 C 7.766 12.286 7.836 12.62 7.961 12.938 L 2.445 12.938 Z M 9 11.797 C 9 11.536 9.049 11.293 9.148 11.066 C 9.247 10.84 9.383 10.643 9.555 10.477 C 9.727 10.31 9.926 10.178 10.152 10.082 C 10.379 9.986 10.622 9.938 10.883 9.938 C 11.065 9.938 11.229 9.957 11.375 9.996 C 11.521 10.035 11.656 10.09 11.781 10.16 C 11.906 10.23 12.026 10.316 12.141 10.418 C 12.255 10.52 12.375 10.63 12.5 10.75 C 12.625 10.625 12.743 10.513 12.855 10.414 C 12.967 10.315 13.085 10.23 13.207 10.16 C 13.329 10.09 13.462 10.036 13.605 10 C 13.749 9.964 13.911 9.945 14.094 9.945 C 14.354 9.945 14.6 9.995 14.832 10.094 C 15.064 10.193 15.266 10.327 15.438 10.496 C 15.609 10.665 15.746 10.865 15.848 11.094 C 15.949 11.323 16 11.568 16 11.828 C 16 12.339 15.815 12.779 15.445 13.148 L 12.719 15.852 C 12.661 15.909 12.594 15.938 12.516 15.938 C 12.432 15.938 12.362 15.909 12.305 15.852 L 9.563 13.133 C 9.385 12.956 9.247 12.751 9.148 12.52 C 9.049 12.288 9 12.047 9 11.797 Z" style="fill: rgb(255, 255, 255);"/>
  <path d="M 2.6 10.938 C 2.434 10.938 2.291 10.865 2.175 10.719 C 2.058 10.572 2 10.396 2 10.188 L 2 9.086 C 2.104 9.112 2.198 9.125 2.282 9.125 C 2.518 9.125 2.967 9.039 3.176 8.892 C 3.385 8.745 3.571 8.551 3.708 8.303 L 5.383 4.938 L 9.4 4.938 C 9.566 4.938 9.668 5.034 9.786 5.18 C 9.903 5.326 10 5.479 10 5.688 L 9.988 8.781 C 9.695 8.645 9.41 8.688 9.106 8.688 C 8.827 8.688 8.559 8.742 8.303 8.852 C 8.047 8.961 7.813 9.115 7.6 9.312 C 7.387 9.51 7.203 9.747 7.05 10.022 C 6.896 10.299 6.779 10.604 6.699 10.938 L 2.6 10.938 Z" style="fill: rgb(255, 255, 255);"/>
  <path d="M 2.75 10.938 C 2.542 10.938 2.364 10.865 2.219 10.719 C 2.073 10.572 2 10.396 2 10.188 L 2 9.086 C 2.13 9.112 2.247 9.125 2.352 9.125 C 2.648 9.125 2.921 9.046 3.168 8.887 C 3.414 8.728 3.607 8.516 3.742 8.25 L 5.398 4.938 L 9.48 4.947 C 9.648 4.954 9.923 5.276 9.96 5.441 C 9.997 5.606 9.997 5.591 9.997 5.8 L 9.989 8.511 C 9.623 8.375 10.234 6.786 9.854 6.786 C 9.505 6.786 10.231 8.729 9.911 8.839 C 9.591 8.948 9.266 9.115 9 9.312 C 8.734 9.51 8.504 9.747 8.313 10.022 C 8.12 10.299 7.974 10.604 7.874 10.938 L 2.75 10.938 Z" style="fill: rgb(255, 255, 255);" transform="matrix(1, 0, 0, 1, 0, 2.38419e-7)"/>
  <path d="M 2.75 10.938 C 2.542 10.938 2.364 10.865 2.219 10.719 C 2.073 10.572 2 10.396 2 10.188 L 2 9.086 C 2.13 9.112 2.247 9.125 2.352 9.125 C 2.648 9.125 2.921 9.046 3.168 8.887 C 3.414 8.728 3.607 8.516 3.742 8.25 L 5.398 4.938 L 11.25 4.938 C 11.458 4.938 11.634 5.01 11.781 5.156 C 11.927 5.302 12 5.479 12 5.688 L 12 8.891 C 11.634 8.755 11.263 8.688 10.883 8.688 C 10.534 8.688 10.199 8.742 9.879 8.852 C 9.559 8.961 9.266 9.115 9 9.312 C 8.734 9.51 8.504 9.747 8.313 10.022 C 8.12 10.299 7.974 10.604 7.874 10.938 L 2.75 10.938 Z" style="fill-opacity: 0.5; fill: rgb(255, 255, 255);"/>
</svg>