<?xml version="1.0" encoding="utf-8"?>
<svg viewBox="0 0 16 16" xmlns="http://www.w3.org/2000/svg">
  <path d="M 3.499 15.992 C 3.296 15.992 3.104 15.953 2.922 15.875 C 2.739 15.797 2.579 15.689 2.441 15.55 C 2.303 15.412 2.195 15.252 2.117 15.07 C 2.039 14.888 2 14.696 2 14.492 L 2 2.499 C 2 2.296 2.039 2.103 2.117 1.921 C 2.195 1.739 2.303 1.579 2.441 1.44 C 2.579 1.303 2.739 1.195 2.922 1.117 C 3.104 1.039 3.296 1 3.499 1 L 5.085 1 C 5.136 0.848 5.21 0.712 5.303 0.589 C 5.397 0.467 5.506 0.362 5.631 0.274 C 5.756 0.185 5.891 0.117 6.037 0.07 C 6.183 0.024 6.336 0 6.498 0 L 9.496 0 C 9.658 0 9.812 0.024 9.957 0.07 C 10.103 0.117 10.238 0.185 10.363 0.274 C 10.488 0.362 10.597 0.467 10.691 0.589 C 10.785 0.712 10.858 0.848 10.91 1 L 12.495 1 C 12.698 1 12.89 1.039 13.073 1.117 C 13.255 1.195 13.415 1.303 13.553 1.44 C 13.691 1.579 13.799 1.739 13.876 1.921 C 13.955 2.103 13.994 2.296 13.994 2.499 L 13.994 10.034 C 13.869 10.018 13.744 10.008 13.619 10.003 C 13.494 9.998 13.369 9.995 13.244 9.995 L 12.994 9.995 L 12.994 2.499 C 12.994 2.363 12.945 2.246 12.846 2.147 C 12.747 2.048 12.63 1.999 12.495 1.999 L 10.91 1.999 C 10.858 2.15 10.785 2.287 10.691 2.409 C 10.597 2.531 10.488 2.637 10.363 2.725 C 10.238 2.813 10.103 2.882 9.957 2.928 C 9.812 2.975 9.658 2.999 9.496 2.999 L 6.498 2.999 C 6.336 2.999 6.183 2.975 6.037 2.928 C 5.891 2.882 5.756 2.813 5.631 2.725 C 5.506 2.637 5.397 2.531 5.303 2.409 C 5.21 2.287 5.136 2.15 5.085 1.999 L 3.499 1.999 C 3.364 1.999 3.247 2.048 3.148 2.147 C 3.049 2.246 3 2.363 3 2.499 L 3 14.492 C 3 14.628 3.049 14.745 3.148 14.844 C 3.247 14.943 3.364 14.993 3.499 14.993 L 6.333 14.993 C 6.516 15.367 6.753 15.7 7.044 15.992 L 3.499 15.992 Z M 9.496 1.999 C 9.631 1.999 9.749 1.949 9.847 1.851 C 9.946 1.752 9.996 1.635 9.996 1.499 C 9.996 1.364 9.946 1.247 9.847 1.148 C 9.749 1.049 9.631 1 9.496 1 L 6.498 1 C 6.362 1 6.245 1.049 6.146 1.148 C 6.047 1.247 5.998 1.364 5.998 1.499 C 5.998 1.635 6.047 1.752 6.146 1.851 C 6.245 1.949 6.362 1.999 6.498 1.999 L 9.496 1.999 Z M 9.442 15.992 C 9.103 15.992 8.786 15.924 8.489 15.789 C 8.192 15.654 7.933 15.471 7.712 15.243 C 7.49 15.014 7.316 14.748 7.189 14.446 C 7.061 14.144 6.997 13.827 6.997 13.494 C 6.997 13.16 7.061 12.843 7.189 12.54 C 7.316 12.239 7.49 11.973 7.712 11.744 C 7.933 11.515 8.192 11.332 8.489 11.198 C 8.786 11.062 9.103 10.994 9.442 10.994 C 9.489 10.994 9.538 10.993 9.59 10.991 C 9.642 10.988 9.697 10.987 9.754 10.987 C 9.842 10.987 9.93 10.991 10.02 11.002 C 10.108 11.012 10.188 11.036 10.258 11.073 C 10.328 11.109 10.385 11.159 10.429 11.225 C 10.474 11.29 10.495 11.38 10.495 11.494 C 10.495 11.63 10.446 11.747 10.348 11.846 C 10.249 11.945 10.132 11.994 9.996 11.994 L 9.496 11.994 C 9.293 11.994 9.101 12.033 8.919 12.111 C 8.736 12.19 8.576 12.297 8.438 12.435 C 8.3 12.573 8.192 12.734 8.114 12.915 C 8.036 13.097 7.997 13.29 7.997 13.494 C 7.997 13.696 8.036 13.889 8.114 14.071 C 8.192 14.254 8.3 14.414 8.438 14.551 C 8.576 14.689 8.736 14.797 8.919 14.875 C 9.101 14.953 9.293 14.993 9.496 14.993 L 9.996 14.993 C 10.132 14.993 10.249 15.041 10.348 15.141 C 10.446 15.24 10.495 15.357 10.495 15.492 C 10.495 15.627 10.446 15.745 10.348 15.843 C 10.249 15.942 10.132 15.992 9.996 15.992 L 9.442 15.992 Z M 12.495 15.492 C 12.495 15.357 12.545 15.24 12.643 15.141 C 12.742 15.041 12.859 14.993 12.994 14.993 L 13.494 14.993 C 13.697 14.993 13.89 14.953 14.072 14.875 C 14.254 14.797 14.414 14.689 14.553 14.551 C 14.69 14.414 14.798 14.254 14.876 14.071 C 14.955 13.889 14.993 13.696 14.993 13.494 C 14.993 13.29 14.955 13.097 14.876 12.915 C 14.798 12.734 14.69 12.573 14.553 12.435 C 14.414 12.297 14.254 12.19 14.072 12.111 C 13.89 12.033 13.697 11.994 13.494 11.994 L 12.994 11.994 C 12.859 11.994 12.742 11.945 12.643 11.846 C 12.545 11.747 12.495 11.63 12.495 11.494 C 12.495 11.359 12.545 11.242 12.643 11.143 C 12.742 11.044 12.859 10.994 12.994 10.994 L 13.549 10.994 C 13.887 10.994 14.204 11.062 14.502 11.198 C 14.798 11.332 15.057 11.515 15.278 11.744 C 15.5 11.973 15.674 12.239 15.801 12.54 C 15.929 12.843 15.993 13.16 15.993 13.494 C 15.993 13.827 15.929 14.144 15.801 14.446 C 15.674 14.748 15.5 15.014 15.278 15.243 C 15.057 15.471 14.798 15.654 14.502 15.789 C 14.204 15.924 13.887 15.992 13.549 15.992 C 13.502 15.992 13.451 15.993 13.396 15.996 C 13.342 15.998 13.286 16 13.228 16 C 13.14 16 13.052 15.995 12.963 15.984 C 12.875 15.974 12.796 15.952 12.725 15.918 C 12.655 15.884 12.599 15.833 12.557 15.766 C 12.516 15.697 12.495 15.606 12.495 15.492 Z M 9.496 13.993 C 9.361 13.993 9.244 13.943 9.145 13.844 C 9.046 13.745 8.996 13.628 8.996 13.494 C 8.996 13.358 9.046 13.241 9.145 13.142 C 9.244 13.043 9.361 12.993 9.496 12.993 L 13.494 12.993 C 13.63 12.993 13.747 13.043 13.846 13.142 C 13.945 13.241 13.994 13.358 13.994 13.494 C 13.994 13.628 13.945 13.745 13.846 13.844 C 13.747 13.943 13.63 13.993 13.494 13.993 L 9.496 13.993 Z" style="fill: rgb(255, 255, 255);"/>
</svg>