<?xml version="1.0" encoding="utf-8"?>
<svg viewBox="0 0 16 16" xmlns="http://www.w3.org/2000/svg">
  <path d="M 9 11.5 C 9 12.12 8.881 12.703 8.645 13.25 C 8.408 13.797 8.086 14.273 7.68 14.68 C 7.273 15.086 6.797 15.408 6.25 15.645 C 5.703 15.881 5.12 16 4.5 16 C 3.875 16 3.289 15.883 2.742 15.648 C 2.195 15.414 1.719 15.094 1.313 14.688 C 0.906 14.281 0.586 13.805 0.352 13.258 C 0.117 12.711 0 12.125 0 11.5 C 0 10.88 0.118 10.297 0.355 9.75 C 0.592 9.203 0.914 8.727 1.32 8.32 C 1.727 7.914 2.203 7.592 2.75 7.355 C 3.297 7.118 3.88 7 4.5 7 C 4.911 7 5.309 7.053 5.691 7.16 C 6.074 7.267 6.432 7.418 6.766 7.613 C 7.099 7.809 7.404 8.044 7.68 8.32 C 7.956 8.596 8.191 8.901 8.387 9.234 C 8.582 9.568 8.733 9.926 8.84 10.309 C 8.947 10.691 9 11.089 9 11.5 Z M 5.258 11.5 L 6.883 9.883 C 6.987 9.779 7.039 9.651 7.039 9.5 C 7.039 9.349 6.987 9.221 6.883 9.117 C 6.779 9.013 6.651 8.961 6.5 8.961 C 6.349 8.961 6.221 9.013 6.117 9.117 L 4.5 10.742 L 2.883 9.117 C 2.779 9.013 2.651 8.961 2.5 8.961 C 2.349 8.961 2.221 9.013 2.117 9.117 C 2.013 9.221 1.961 9.349 1.961 9.5 C 1.961 9.568 1.975 9.637 2.004 9.707 C 2.033 9.777 2.07 9.836 2.117 9.883 L 3.742 11.5 L 2.117 13.117 C 2.013 13.221 1.961 13.349 1.961 13.5 C 1.961 13.651 2.013 13.779 2.117 13.883 C 2.221 13.987 2.349 14.039 2.5 14.039 C 2.651 14.039 2.779 13.987 2.883 13.883 L 4.5 12.258 L 6.117 13.883 C 6.164 13.93 6.223 13.967 6.293 13.996 C 6.363 14.025 6.432 14.039 6.5 14.039 C 6.651 14.039 6.779 13.987 6.883 13.883 C 6.987 13.779 7.039 13.651 7.039 13.5 C 7.039 13.349 6.987 13.221 6.883 13.117 L 5.258 11.5 Z" style="fill: rgb(255, 0, 0);"/>
  <path d="M 1 6.938 C 0.813 7.078 0.635 7.232 0.469 7.398 C 0.302 7.565 0.146 7.74 0 7.922 L 0 1.961 C 0 1.701 0.053 1.452 0.16 1.215 C 0.267 0.978 0.41 0.77 0.59 0.59 C 0.77 0.41 0.978 0.267 1.215 0.16 C 1.452 0.053 1.701 0 1.961 0 L 10.266 0 C 10.089 0.302 10 0.635 10 1 L 2 1 C 1.859 1 1.729 1.026 1.609 1.078 C 1.49 1.13 1.384 1.202 1.293 1.293 C 1.202 1.384 1.13 1.49 1.078 1.609 C 1.026 1.729 1 1.859 1 2 L 1 6.938 Z M 14.5 0 C 14.703 0 14.896 0.039 15.078 0.117 C 15.26 0.195 15.421 0.303 15.559 0.441 C 15.697 0.579 15.805 0.74 15.883 0.922 C 15.961 1.104 16 1.297 16 1.5 L 16 5.5 C 16 5.703 15.961 5.896 15.883 6.078 C 15.805 6.26 15.697 6.421 15.559 6.559 C 15.421 6.697 15.26 6.805 15.078 6.883 C 14.896 6.961 14.703 7 14.5 7 L 14 7 L 14 15.5 C 14 15.635 13.951 15.753 13.852 15.852 C 13.753 15.951 13.635 16 13.5 16 C 13.365 16 13.247 15.951 13.148 15.852 C 13.049 15.753 13 15.635 13 15.5 L 13 7 L 12.5 7 C 12.297 7 12.104 6.961 11.922 6.883 C 11.74 6.805 11.579 6.697 11.441 6.559 C 11.303 6.421 11.195 6.26 11.117 6.078 C 11.039 5.896 11 5.703 11 5.5 L 11 1.5 C 11 1.297 11.039 1.104 11.117 0.922 C 11.195 0.74 11.303 0.579 11.441 0.441 C 11.579 0.303 11.74 0.195 11.922 0.117 C 12.104 0.039 12.297 0 12.5 0 L 14.5 0 Z M 12.5 1 C 12.365 1 12.247 1.049 12.148 1.148 C 12.049 1.247 12 1.365 12 1.5 L 12 2 L 15 2 L 15 1.5 C 15 1.365 14.951 1.247 14.852 1.148 C 14.753 1.049 14.635 1 14.5 1 L 12.5 1 Z M 14.5 6 C 14.635 6 14.753 5.951 14.852 5.852 C 14.951 5.753 15 5.635 15 5.5 L 15 3 L 12 3 L 12 5.5 C 12 5.635 12.049 5.753 12.148 5.852 C 12.247 5.951 12.365 6 12.5 6 L 14.5 6 Z M 12 12 L 12 13 L 11 13 L 11 15 L 12 15 L 12 16 L 8.078 16 C 8.26 15.854 8.435 15.698 8.602 15.531 C 8.768 15.365 8.922 15.188 9.063 15 L 10 15 L 10 13.18 C 10 13.169 10.009 13.126 10.027 13.051 C 10.046 12.975 10.066 12.888 10.09 12.789 C 10.113 12.69 10.135 12.595 10.156 12.504 C 10.177 12.413 10.19 12.346 10.195 12.305 L 10.227 12 L 12 12 Z" style="fill: rgb(255, 255, 255);"/>
</svg>