<?xml version="1.0" encoding="utf-8"?>
<svg xmlns="http://www.w3.org/2000/svg" viewBox="0 0 16 16">
  <path d="M 8.85 5.706 L 8.85 9.71 C 8.85 9.846 8.8 9.963 8.701 10.062 C 8.602 10.161 8.485 10.211 8.35 10.211 L 3.345 10.211 C 3.209 10.211 3.092 10.161 2.993 10.062 C 2.894 9.963 2.844 9.846 2.844 9.71 L 2.844 5.706 C 2.844 5.592 2.866 5.502 2.911 5.436 C 2.955 5.371 3.012 5.322 3.083 5.288 C 3.153 5.254 3.231 5.232 3.317 5.221 C 3.403 5.211 3.491 5.206 3.579 5.206 L 3.845 5.206 L 3.845 4.205 C 3.845 3.934 3.899 3.676 4.005 3.431 C 4.112 3.186 4.256 2.972 4.436 2.789 C 4.615 2.607 4.827 2.462 5.069 2.355 C 5.311 2.248 5.571 2.195 5.847 2.195 C 6.05 2.195 6.247 2.225 6.437 2.285 C 6.628 2.345 6.802 2.43 6.961 2.539 C 7.12 2.649 7.264 2.779 7.392 2.93 C 7.519 3.081 7.622 3.251 7.7 3.438 C 7.768 3.6 7.813 3.767 7.833 3.939 C 7.854 4.111 7.865 4.283 7.865 4.455 C 7.865 4.585 7.862 4.713 7.857 4.838 C 7.852 4.963 7.849 5.086 7.849 5.206 L 8.115 5.206 C 8.204 5.206 8.291 5.211 8.377 5.221 C 8.463 5.232 8.541 5.254 8.611 5.288 C 8.682 5.322 8.739 5.371 8.784 5.436 C 8.828 5.502 8.85 5.592 8.85 5.706 Z M 4.846 5.206 L 6.848 5.206 L 6.848 4.205 C 6.848 4.064 6.822 3.932 6.77 3.81 C 6.718 3.687 6.647 3.582 6.559 3.493 C 6.47 3.405 6.365 3.334 6.242 3.282 C 6.119 3.23 5.988 3.204 5.847 3.204 C 5.706 3.204 5.576 3.23 5.456 3.282 C 5.336 3.334 5.231 3.406 5.139 3.497 C 5.048 3.588 4.976 3.694 4.924 3.814 C 4.872 3.934 4.846 4.064 4.846 4.205 L 4.846 5.206 Z M 6.848 7.708 C 6.848 7.573 6.822 7.444 6.77 7.321 C 6.718 7.199 6.646 7.092 6.555 7.001 C 6.464 6.909 6.357 6.838 6.234 6.785 C 6.112 6.733 5.983 6.707 5.847 6.707 C 5.706 6.707 5.576 6.733 5.456 6.785 C 5.336 6.838 5.231 6.909 5.139 7.001 C 5.048 7.092 4.976 7.197 4.924 7.317 C 4.872 7.437 4.846 7.567 4.846 7.708 C 4.846 7.849 4.872 7.981 4.924 8.103 C 4.976 8.226 5.047 8.331 5.135 8.42 C 5.224 8.508 5.33 8.579 5.452 8.631 C 5.575 8.683 5.706 8.709 5.847 8.709 C 5.988 8.709 6.118 8.683 6.238 8.631 C 6.358 8.579 6.464 8.507 6.555 8.416 C 6.646 8.325 6.718 8.219 6.77 8.099 C 6.822 7.979 6.848 7.849 6.848 7.708 Z" style="fill: rgb(255, 255, 255);"/>
  <path d="M 12 12 L 12 13 L 11 13 L 11 15 L 12 15 L 12 16 L 3.5 16 C 3.365 16 3.247 15.951 3.148 15.852 C 3.049 15.753 3 15.635 3 15.5 C 3 15.365 3.049 15.247 3.148 15.148 C 3.247 15.049 3.365 15 3.5 15 L 5 15 L 5 13 L 1.961 13 C 1.701 13 1.452 12.947 1.215 12.84 C 0.978 12.733 0.77 12.59 0.59 12.41 C 0.41 12.23 0.267 12.022 0.16 11.785 C 0.053 11.548 0 11.299 0 11.039 L 0 1.961 C 0 1.701 0.053 1.452 0.16 1.215 C 0.267 0.978 0.41 0.77 0.59 0.59 C 0.77 0.41 0.978 0.267 1.215 0.16 C 1.452 0.053 1.701 0 1.961 0 L 10.266 0 C 10.089 0.302 10 0.635 10 1 L 2 1 C 1.859 1 1.729 1.026 1.609 1.078 C 1.49 1.13 1.384 1.202 1.293 1.293 C 1.202 1.384 1.13 1.49 1.078 1.609 C 1.026 1.729 1 1.859 1 2 L 1 11 C 1 11.141 1.026 11.272 1.078 11.395 C 1.13 11.517 1.201 11.622 1.289 11.711 C 1.378 11.799 1.483 11.87 1.605 11.922 C 1.728 11.974 1.859 12 2 12 L 12 12 Z M 14.5 0 C 14.703 0 14.896 0.039 15.078 0.117 C 15.26 0.195 15.421 0.303 15.559 0.441 C 15.697 0.579 15.805 0.74 15.883 0.922 C 15.961 1.104 16 1.297 16 1.5 L 16 5.5 C 16 5.703 15.961 5.896 15.883 6.078 C 15.805 6.26 15.697 6.421 15.559 6.559 C 15.421 6.697 15.26 6.805 15.078 6.883 C 14.896 6.961 14.703 7 14.5 7 L 14 7 L 14 15.5 C 14 15.635 13.951 15.753 13.852 15.852 C 13.753 15.951 13.635 16 13.5 16 C 13.365 16 13.247 15.951 13.148 15.852 C 13.049 15.753 13 15.635 13 15.5 L 13 7 L 12.5 7 C 12.297 7 12.104 6.961 11.922 6.883 C 11.74 6.805 11.579 6.697 11.441 6.559 C 11.303 6.421 11.195 6.26 11.117 6.078 C 11.039 5.896 11 5.703 11 5.5 L 11 1.5 C 11 1.297 11.039 1.104 11.117 0.922 C 11.195 0.74 11.303 0.579 11.441 0.441 C 11.579 0.303 11.74 0.195 11.922 0.117 C 12.104 0.039 12.297 0 12.5 0 L 14.5 0 Z M 12.5 1 C 12.365 1 12.247 1.049 12.148 1.148 C 12.049 1.247 12 1.365 12 1.5 L 12 2 L 15 2 L 15 1.5 C 15 1.365 14.951 1.247 14.852 1.148 C 14.753 1.049 14.635 1 14.5 1 L 12.5 1 Z M 14.5 6 C 14.635 6 14.753 5.951 14.852 5.852 C 14.951 5.753 15 5.635 15 5.5 L 15 3 L 12 3 L 12 5.5 C 12 5.635 12.049 5.753 12.148 5.852 C 12.247 5.951 12.365 6 12.5 6 L 14.5 6 Z M 6 15 L 10 15 L 10 13 L 6 13 L 6 15 Z" style="fill: rgb(255, 255, 255);"/>
</svg>