<?xml version="1.0" encoding="utf-8"?>
<svg xmlns="http://www.w3.org/2000/svg" viewBox="0 0 16 16">
  <path d="M 8 4.453 C 7.436 4.453 6.879 4.509 6.329 4.621 C 5.778 4.733 5.245 4.898 4.728 5.114 C 4.211 5.331 3.718 5.596 3.249 5.909 C 2.779 6.222 2.346 6.579 1.949 6.981 C 1.751 7.18 1.573 7.387 1.417 7.604 C 1.26 7.82 1.093 8.033 0.916 8.242 C 0.853 8.315 0.793 8.369 0.736 8.406 C 0.678 8.443 0.6 8.461 0.501 8.461 C 0.36 8.461 0.241 8.413 0.145 8.316 C 0.048 8.219 0 8.101 0 7.96 C 0 7.861 0.029 7.767 0.086 7.678 C 0.498 7.02 0.998 6.431 1.585 5.909 C 2.172 5.387 2.813 4.943 3.507 4.578 C 4.201 4.213 4.93 3.934 5.695 3.741 C 6.459 3.548 7.228 3.451 8 3.451 C 8.767 3.451 9.534 3.548 10.301 3.741 C 11.068 3.934 11.798 4.213 12.489 4.578 C 13.181 4.943 13.82 5.387 14.407 5.909 C 14.994 6.431 15.496 7.02 15.914 7.678 C 15.971 7.767 16 7.861 16 7.96 C 16 8.101 15.952 8.219 15.855 8.316 C 15.759 8.413 15.64 8.461 15.499 8.461 C 15.41 8.461 15.333 8.441 15.268 8.402 C 15.203 8.363 15.142 8.309 15.084 8.242 C 15.027 8.169 14.973 8.094 14.924 8.019 C 14.874 7.943 14.821 7.868 14.763 7.795 C 14.654 7.649 14.539 7.51 14.419 7.377 C 14.299 7.244 14.176 7.112 14.051 6.981 C 13.649 6.579 13.215 6.222 12.748 5.909 C 12.28 5.596 11.79 5.331 11.276 5.114 C 10.762 4.898 10.228 4.733 9.675 4.621 C 9.122 4.509 8.564 4.453 8 4.453 Z M 8 7.459 C 7.614 7.459 7.23 7.501 6.849 7.584 C 6.468 7.668 6.102 7.789 5.75 7.948 C 5.397 8.107 5.063 8.302 4.748 8.531 C 4.432 8.761 4.146 9.019 3.89 9.306 C 3.765 9.447 3.652 9.596 3.55 9.752 C 3.448 9.909 3.34 10.063 3.225 10.214 C 3.162 10.292 3.101 10.354 3.041 10.398 C 2.981 10.443 2.899 10.465 2.795 10.465 C 2.659 10.465 2.541 10.415 2.442 10.316 C 2.343 10.217 2.294 10.099 2.294 9.964 C 2.294 9.88 2.314 9.797 2.356 9.713 C 2.622 9.217 2.962 8.769 3.374 8.367 C 3.786 7.965 4.243 7.623 4.744 7.341 C 5.245 7.06 5.773 6.842 6.329 6.688 C 6.885 6.534 7.442 6.457 8 6.457 C 8.553 6.457 9.109 6.534 9.667 6.688 C 10.226 6.842 10.755 7.06 11.256 7.341 C 11.757 7.623 12.214 7.965 12.626 8.367 C 13.038 8.769 13.378 9.217 13.644 9.713 C 13.686 9.797 13.706 9.88 13.706 9.964 C 13.706 10.099 13.657 10.217 13.558 10.316 C 13.459 10.415 13.341 10.465 13.205 10.465 C 13.101 10.465 13.019 10.443 12.959 10.398 C 12.899 10.354 12.838 10.292 12.775 10.214 C 12.66 10.063 12.552 9.909 12.45 9.752 C 12.348 9.596 12.235 9.447 12.11 9.306 C 11.854 9.019 11.568 8.761 11.252 8.531 C 10.937 8.302 10.603 8.107 10.25 7.948 C 9.898 7.789 9.532 7.668 9.151 7.584 C 8.77 7.501 8.386 7.459 8 7.459 Z M 8 10.465 C 7.708 10.465 7.429 10.505 7.162 10.586 C 6.896 10.667 6.638 10.783 6.387 10.934 C 6.247 11.023 6.125 11.112 6.023 11.201 C 5.922 11.289 5.83 11.383 5.75 11.482 C 5.669 11.581 5.592 11.687 5.519 11.799 C 5.446 11.912 5.367 12.038 5.284 12.179 C 5.232 12.268 5.169 12.338 5.096 12.39 C 5.023 12.443 4.934 12.469 4.83 12.469 C 4.689 12.469 4.57 12.419 4.474 12.32 C 4.377 12.221 4.329 12.101 4.329 11.96 C 4.329 11.892 4.344 11.822 4.376 11.748 C 4.527 11.414 4.733 11.107 4.994 10.825 C 5.255 10.543 5.547 10.302 5.871 10.101 C 6.194 9.9 6.539 9.743 6.904 9.631 C 7.269 9.519 7.635 9.463 8 9.463 C 8.376 9.463 8.746 9.518 9.112 9.627 C 9.477 9.737 9.82 9.891 10.141 10.089 C 10.462 10.287 10.75 10.527 11.006 10.809 C 11.262 11.091 11.468 11.404 11.624 11.748 C 11.656 11.822 11.671 11.892 11.671 11.96 C 11.671 12.095 11.622 12.214 11.523 12.316 C 11.423 12.418 11.306 12.469 11.17 12.469 C 11.066 12.469 10.977 12.443 10.904 12.39 C 10.831 12.338 10.768 12.268 10.716 12.179 C 10.633 12.038 10.554 11.912 10.481 11.799 C 10.408 11.687 10.33 11.581 10.247 11.482 C 10.163 11.383 10.07 11.289 9.969 11.201 C 9.867 11.112 9.746 11.023 9.605 10.934 C 9.359 10.783 9.102 10.667 8.834 10.586 C 8.565 10.505 8.287 10.465 8 10.465 Z M 6.748 13.471 C 6.748 13.298 6.781 13.137 6.849 12.985 C 6.917 12.834 7.007 12.702 7.119 12.59 C 7.232 12.478 7.363 12.388 7.515 12.32 C 7.666 12.252 7.828 12.218 8 12.218 C 8.172 12.218 8.334 12.252 8.485 12.32 C 8.637 12.388 8.768 12.478 8.881 12.59 C 8.993 12.702 9.083 12.834 9.151 12.985 C 9.219 13.137 9.252 13.298 9.252 13.471 C 9.252 13.643 9.219 13.805 9.151 13.956 C 9.083 14.107 8.993 14.239 8.881 14.351 C 8.768 14.463 8.637 14.553 8.485 14.621 C 8.334 14.689 8.172 14.723 8 14.723 C 7.828 14.723 7.666 14.689 7.515 14.621 C 7.363 14.553 7.232 14.463 7.119 14.351 C 7.007 14.239 6.917 14.107 6.849 13.956 C 6.781 13.805 6.748 13.643 6.748 13.471 Z" style="fill-opacity: 0.5; fill: rgb(255, 255, 255);"/>
  <path d="M 7.526 0 L 7.041 0.279 L 7.043 0.281 L 7.594 1.246 L 6.483 1.252 L 6.481 1.252 L 6.481 1.812 L 6.483 1.812 L 7.594 1.818 L 7.043 2.783 L 7.041 2.785 L 7.526 3.064 L 7.528 3.062 L 7.561 3.004 L 8.086 2.103 L 8.649 3.062 L 8.649 3.064 L 9.133 2.785 L 9.133 2.783 L 9.084 2.701 L 8.58 1.818 L 9.694 1.812 L 9.696 1.812 L 9.696 1.252 L 9.694 1.252 L 8.58 1.246 L 9.084 0.363 L 9.133 0.281 L 9.133 0.279 L 8.649 0 L 8.649 0.002 L 8.086 0.961 L 7.561 0.06 L 7.528 0.002 L 7.526 0 Z" color="#000000" color-rendering="auto" dominant-baseline="auto" image-rendering="auto" shape-rendering="auto" solid-color="#000000" style="font-feature-settings: normal; font-variant-alternates: normal; font-variant-caps: normal; font-variant-ligatures: normal; font-variant-numeric: normal; font-variant-position: normal; isolation: auto; mix-blend-mode: normal; text-decoration-color: rgb(0, 0, 0); text-decoration-line: none; text-decoration-style: solid; text-indent: 0px; text-orientation: mixed; text-transform: none; white-space: normal; transform-box: fill-box; transform-origin: 50% 50%; fill: rgb(255, 255, 255);"/>
</svg>