<?xml version="1.0" encoding="utf-8"?>
<svg viewBox="0 0 16 16" xmlns="http://www.w3.org/2000/svg">
  <path d="M 8.992 15 C 8.992 15.135 8.965 15.263 8.91 15.383 C 8.855 15.503 8.783 15.608 8.691 15.699 C 8.6 15.79 8.495 15.863 8.375 15.918 C 8.255 15.973 8.128 16 7.992 16 L 1 16 C 0.865 16 0.737 15.973 0.617 15.918 C 0.497 15.863 0.392 15.79 0.301 15.699 C 0.21 15.608 0.137 15.503 0.082 15.383 C 0.027 15.263 0 15.135 0 15 C 0 14.839 0.034 14.69 0.102 14.555 L 3.602 7.555 C 3.69 7.378 3.813 7.241 3.969 7.145 C 4.125 7.048 4.302 7 4.5 7 C 4.698 7 4.874 7.048 5.027 7.145 C 5.181 7.241 5.302 7.378 5.391 7.555 L 8.891 14.555 C 8.958 14.69 8.992 14.839 8.992 15 Z M 4.992 9.492 C 4.992 9.357 4.943 9.24 4.844 9.141 C 4.745 9.042 4.628 8.992 4.492 8.992 C 4.357 8.992 4.24 9.042 4.141 9.141 C 4.042 9.24 3.992 9.357 3.992 9.492 L 3.992 12.5 C 3.992 12.635 4.042 12.753 4.141 12.852 C 4.24 12.951 4.357 13 4.492 13 C 4.628 13 4.745 12.951 4.844 12.852 C 4.943 12.753 4.992 12.635 4.992 12.5 L 4.992 9.492 Z M 4.992 14.5 C 4.992 14.359 4.944 14.241 4.848 14.145 C 4.751 14.048 4.633 14 4.492 14 C 4.357 14 4.24 14.049 4.141 14.148 C 4.042 14.247 3.992 14.365 3.992 14.5 C 3.992 14.635 4.042 14.753 4.141 14.852 C 4.24 14.951 4.357 15 4.492 15 C 4.628 15 4.745 14.951 4.844 14.852 C 4.943 14.753 4.992 14.635 4.992 14.5 Z" style="fill: rgb(255, 204, 0);"/>
  <path d="M 1 10.531 L 0.266 12 C 0.089 11.698 0 11.365 0 11 L 0 1.961 C 0 1.701 0.053 1.452 0.16 1.215 C 0.267 0.978 0.41 0.77 0.59 0.59 C 0.77 0.41 0.978 0.267 1.215 0.16 C 1.452 0.053 1.701 0 1.961 0 L 10.266 0 C 10.089 0.302 10 0.635 10 1 L 2 1 C 1.859 1 1.729 1.026 1.609 1.078 C 1.49 1.13 1.384 1.202 1.293 1.293 C 1.202 1.384 1.13 1.49 1.078 1.609 C 1.026 1.729 1 1.859 1 2 L 1 10.531 Z M 14.5 0 C 14.703 0 14.896 0.039 15.078 0.117 C 15.26 0.195 15.421 0.303 15.559 0.441 C 15.697 0.579 15.805 0.74 15.883 0.922 C 15.961 1.104 16 1.297 16 1.5 L 16 5.5 C 16 5.703 15.961 5.896 15.883 6.078 C 15.805 6.26 15.697 6.421 15.559 6.559 C 15.421 6.697 15.26 6.805 15.078 6.883 C 14.896 6.961 14.703 7 14.5 7 L 14 7 L 14 15.5 C 14 15.635 13.951 15.753 13.852 15.852 C 13.753 15.951 13.635 16 13.5 16 C 13.365 16 13.247 15.951 13.148 15.852 C 13.049 15.753 13 15.635 13 15.5 L 13 7 L 12.5 7 C 12.297 7 12.104 6.961 11.922 6.883 C 11.74 6.805 11.579 6.697 11.441 6.559 C 11.303 6.421 11.195 6.26 11.117 6.078 C 11.039 5.896 11 5.703 11 5.5 L 11 1.5 C 11 1.297 11.039 1.104 11.117 0.922 C 11.195 0.74 11.303 0.579 11.441 0.441 C 11.579 0.303 11.74 0.195 11.922 0.117 C 12.104 0.039 12.297 0 12.5 0 L 14.5 0 Z M 12.5 1 C 12.365 1 12.247 1.049 12.148 1.148 C 12.049 1.247 12 1.365 12 1.5 L 12 2 L 15 2 L 15 1.5 C 15 1.365 14.951 1.247 14.852 1.148 C 14.753 1.049 14.635 1 14.5 1 L 12.5 1 Z M 14.5 6 C 14.635 6 14.753 5.951 14.852 5.852 C 14.951 5.753 15 5.635 15 5.5 L 15 3 L 12 3 L 12 5.5 C 12 5.635 12.049 5.753 12.148 5.852 C 12.247 5.951 12.365 6 12.5 6 L 14.5 6 Z M 8.734 12 L 12 12 L 12 13 L 11 13 L 11 15 L 12 15 L 12 16 L 9.727 16 C 9.815 15.849 9.883 15.689 9.93 15.52 C 9.977 15.35 10 15.177 10 15 L 10 13 L 9.234 13 L 8.734 12 Z" style="fill: rgb(255, 255, 255);"/>
</svg>