<?xml version="1.0" encoding="utf-8"?>
<svg viewBox="0 0 16 16" xmlns="http://www.w3.org/2000/svg">
  <path d="M 0 6.504 C 0 6.405 0.029 6.311 0.086 6.223 C 0.498 5.566 0.997 4.977 1.584 4.456 C 2.17 3.934 2.81 3.491 3.503 3.126 C 4.197 2.761 4.925 2.482 5.689 2.289 C 6.453 2.096 7.221 2 7.992 2 C 8.764 2 9.531 2.096 10.295 2.289 C 11.059 2.482 11.786 2.761 12.477 3.126 C 13.168 3.491 13.806 3.934 14.393 4.456 C 14.979 4.977 15.481 5.566 15.898 6.223 C 15.956 6.311 15.984 6.405 15.984 6.504 C 15.984 6.64 15.935 6.757 15.836 6.856 C 15.737 6.955 15.619 7.005 15.484 7.005 C 15.38 7.005 15.3 6.987 15.245 6.95 C 15.191 6.914 15.132 6.859 15.069 6.786 C 14.897 6.577 14.736 6.368 14.585 6.156 C 14.433 5.945 14.261 5.743 14.068 5.55 C 13.667 5.144 13.232 4.781 12.762 4.463 C 12.293 4.145 11.801 3.878 11.284 3.662 C 10.768 3.445 10.234 3.281 9.681 3.169 C 9.129 3.057 8.566 3.001 7.992 3.001 C 7.419 3.001 6.856 3.057 6.303 3.169 C 5.75 3.281 5.216 3.445 4.7 3.662 C 4.184 3.878 3.692 4.145 3.226 4.463 C 2.759 4.781 2.323 5.144 1.916 5.55 C 1.791 5.675 1.67 5.804 1.552 5.937 C 1.435 6.07 1.324 6.21 1.22 6.356 C 1.168 6.429 1.118 6.502 1.071 6.575 C 1.024 6.648 0.972 6.718 0.915 6.786 C 0.858 6.854 0.796 6.907 0.731 6.946 C 0.666 6.985 0.589 7.005 0.5 7.005 C 0.365 7.005 0.248 6.955 0.149 6.856 C 0.05 6.757 0 6.64 0 6.504 Z M 2.291 8.506 C 2.291 8.423 2.312 8.34 2.354 8.256 C 2.62 7.756 2.959 7.305 3.37 6.903 C 3.782 6.502 4.237 6.16 4.735 5.879 C 5.233 5.597 5.761 5.381 6.319 5.23 C 6.877 5.079 7.434 5.003 7.992 5.003 C 8.529 5.003 9.056 5.068 9.572 5.198 C 10.088 5.329 10.583 5.519 11.058 5.769 C 10.463 5.816 9.892 5.949 9.345 6.168 C 8.897 6.059 8.446 6.004 7.992 6.004 C 7.601 6.004 7.215 6.046 6.835 6.129 C 6.454 6.212 6.087 6.334 5.732 6.493 C 5.378 6.652 5.043 6.846 4.727 7.075 C 4.412 7.305 4.126 7.565 3.871 7.857 C 3.746 7.998 3.635 8.147 3.539 8.303 C 3.442 8.459 3.337 8.611 3.222 8.757 C 3.159 8.835 3.099 8.896 3.042 8.94 C 2.985 8.985 2.901 9.007 2.792 9.007 C 2.656 9.007 2.539 8.957 2.44 8.858 C 2.341 8.759 2.291 8.642 2.291 8.506 Z M 4.325 10.5 C 4.325 10.428 4.34 10.36 4.371 10.297 C 4.481 10.047 4.62 9.812 4.79 9.593 C 4.959 9.374 5.15 9.174 5.361 8.991 C 5.572 8.809 5.8 8.648 6.045 8.51 C 6.29 8.372 6.54 8.264 6.796 8.186 C 6.457 8.665 6.196 9.187 6.014 9.75 C 5.852 9.896 5.717 10.048 5.607 10.207 C 5.498 10.366 5.388 10.537 5.279 10.719 C 5.226 10.808 5.164 10.878 5.091 10.931 C 5.018 10.983 4.929 11.009 4.825 11.009 C 4.689 11.009 4.572 10.958 4.473 10.856 C 4.374 10.755 4.325 10.636 4.325 10.5 Z" style="fill: rgb(255, 255, 255);"/>
  <path style="fill: rgb(255, 0, 0);" d="M 6.991 11.509 C 6.991 10.889 7.11 10.305 7.347 9.758 C 7.584 9.21 7.906 8.733 8.313 8.326 C 8.719 7.92 9.196 7.598 9.744 7.361 C 10.291 7.123 10.875 7.005 11.496 7.005 C 11.907 7.005 12.305 7.058 12.688 7.165 C 13.071 7.272 13.43 7.423 13.763 7.619 C 14.097 7.814 14.402 8.05 14.678 8.326 C 14.955 8.603 15.191 8.908 15.386 9.241 C 15.582 9.575 15.733 9.934 15.84 10.317 C 15.947 10.7 16 11.097 16 11.509 C 16 12.13 15.881 12.714 15.644 13.261 C 15.407 13.808 15.085 14.285 14.678 14.692 C 14.272 15.099 13.795 15.421 13.247 15.658 C 12.7 15.895 12.116 16.014 11.496 16.014 C 10.87 16.014 10.283 15.896 9.736 15.662 C 9.189 15.427 8.712 15.107 8.305 14.7 C 7.898 14.293 7.578 13.816 7.343 13.269 C 7.109 12.721 6.991 12.135 6.991 11.509 Z M 9.494 14.051 C 9.645 14.051 9.773 13.999 9.877 13.894 L 11.496 12.268 L 13.114 13.894 C 13.219 13.999 13.346 14.051 13.498 14.051 C 13.649 14.051 13.776 13.999 13.881 13.894 C 13.985 13.79 14.037 13.662 14.037 13.511 C 14.037 13.36 13.985 13.232 13.881 13.128 L 12.254 11.509 L 13.881 9.891 C 13.985 9.786 14.037 9.658 14.037 9.507 C 14.037 9.356 13.985 9.228 13.881 9.124 C 13.776 9.02 13.649 8.968 13.498 8.968 C 13.346 8.968 13.219 9.02 13.114 9.124 L 11.496 10.751 L 9.877 9.124 C 9.773 9.02 9.645 8.968 9.494 8.968 C 9.342 8.968 9.215 9.02 9.11 9.124 C 9.006 9.228 8.954 9.356 8.954 9.507 C 8.954 9.58 8.968 9.651 8.997 9.718 C 9.026 9.786 9.064 9.844 9.11 9.891 L 10.737 11.509 L 9.11 13.128 C 9.006 13.232 8.954 13.36 8.954 13.511 C 8.954 13.662 9.006 13.79 9.11 13.894 C 9.215 13.999 9.342 14.051 9.494 14.051 Z"/>
</svg>