<?xml version="1.0" encoding="utf-8"?>
<svg xmlns="http://www.w3.org/2000/svg" width="16px" height="16px">
  <path d="M 3.984 14.508 C 3.984 14.372 4.034 14.255 4.133 14.156 L 6.273 12.016 C 6.138 11.854 6.013 11.686 5.898 11.512 C 5.784 11.337 5.68 11.156 5.586 10.969 C 5.487 10.979 5.389 10.987 5.293 10.992 C 5.197 10.997 5.099 11 5 11 C 4.307 11 3.658 10.87 3.051 10.609 C 2.444 10.349 1.914 9.992 1.461 9.539 C 1.008 9.086 0.651 8.556 0.391 7.949 C 0.13 7.342 0 6.693 0 6 L 0 2.32 C 0 2.143 0.035 1.974 0.105 1.813 C 0.176 1.651 0.271 1.51 0.391 1.391 C 0.51 1.271 0.65 1.176 0.809 1.105 C 0.967 1.035 1.138 1 1.32 1 L 5 1 C 5.417 1 5.822 1.049 6.215 1.148 C 6.608 1.247 6.98 1.389 7.332 1.574 C 7.684 1.759 8.012 1.986 8.316 2.254 C 8.621 2.522 8.891 2.828 9.125 3.172 C 9.568 3.057 10.026 3 10.5 3 L 14.594 3 C 14.786 3 14.967 3.038 15.137 3.113 C 15.306 3.189 15.454 3.29 15.582 3.418 C 15.71 3.546 15.811 3.694 15.887 3.863 C 15.962 4.033 16 4.214 16 4.406 L 16 8.5 C 16 9.01 15.935 9.5 15.805 9.969 C 15.674 10.438 15.49 10.875 15.25 11.281 C 15.01 11.688 14.724 12.057 14.391 12.391 C 14.057 12.724 13.688 13.01 13.281 13.25 C 12.875 13.49 12.436 13.674 11.965 13.805 C 11.493 13.935 11.005 14 10.5 14 C 9.849 14 9.224 13.891 8.625 13.672 C 8.026 13.453 7.477 13.138 6.977 12.727 L 4.844 14.867 C 4.745 14.966 4.628 15.016 4.492 15.016 C 4.352 15.016 4.232 14.966 4.133 14.867 C 4.034 14.768 3.984 14.648 3.984 14.508 Z M 5.203 9.992 C 5.068 9.497 5 9 5 8.5 C 5 7.969 5.076 7.445 5.227 6.93 L 3.148 4.852 C 3.049 4.753 3 4.635 3 4.5 C 3 4.365 3.049 4.247 3.148 4.148 C 3.247 4.049 3.365 4 3.5 4 C 3.635 4 3.753 4.049 3.852 4.148 L 5.633 5.93 C 5.909 5.404 6.263 4.936 6.695 4.527 C 7.128 4.118 7.612 3.786 8.148 3.531 C 7.961 3.292 7.749 3.077 7.512 2.887 C 7.275 2.697 7.021 2.536 6.75 2.406 C 6.479 2.276 6.197 2.176 5.902 2.105 C 5.608 2.035 5.307 2 5 2 L 1.32 2 C 1.232 2 1.156 2.031 1.094 2.094 C 1.031 2.156 1 2.232 1 2.32 L 1 6.078 C 1 6.604 1.105 7.104 1.316 7.578 C 1.527 8.052 1.813 8.469 2.172 8.828 C 2.531 9.188 2.948 9.473 3.422 9.684 C 3.896 9.895 4.396 10 4.922 10 L 5.133 10 C 5.154 10 5.177 9.997 5.203 9.992 Z M 15 8.5 L 15 4.406 C 15 4.292 14.961 4.195 14.883 4.117 C 14.805 4.039 14.708 4 14.594 4 L 10.5 4 C 9.88 4 9.297 4.118 8.75 4.355 C 8.203 4.592 7.727 4.914 7.32 5.32 C 6.914 5.727 6.592 6.203 6.355 6.75 C 6.118 7.297 6 7.88 6 8.5 C 6 9.01 6.085 9.507 6.254 9.988 C 6.423 10.47 6.667 10.911 6.984 11.313 L 10.148 8.148 C 10.247 8.049 10.365 8 10.5 8 C 10.635 8 10.753 8.049 10.852 8.148 C 10.951 8.247 11 8.365 11 8.5 C 11 8.635 10.951 8.753 10.852 8.852 L 7.688 12.016 C 8.089 12.333 8.53 12.577 9.012 12.746 C 9.493 12.915 9.99 13 10.5 13 C 11.12 13 11.703 12.882 12.25 12.645 C 12.797 12.408 13.273 12.086 13.68 11.68 C 14.086 11.273 14.408 10.797 14.645 10.25 C 14.882 9.703 15 9.12 15 8.5 Z" style="fill: rgb(92, 97, 108);"/>
</svg>