<?xml version="1.0" encoding="utf-8"?>
<svg width="81" height="16" version="1.1" xmlns="http://www.w3.org/2000/svg">
  <g>
    <path id="active-center" d="m8 1c-3.866 0-7 3.134-7 7 0 3.866 3.134 7 7 7 3.866 0 7-3.134 7-7 0-3.866-3.134-7-7-7z" stroke-width=".5" style="fill: rgb(39, 119, 255); stroke: rgb(34, 47, 255);"/>
    <path d="M 5 4.92 L 5.75 4.92 C 5.758 4.92 5.766 4.92 5.773 4.92 C 5.965 4.928 6.156 5.016 6.289 5.154 L 8 6.865 L 9.734 5.154 C 9.934 4.982 10.069 4.925 10.25 4.92 L 11 4.92 L 11 5.67 C 11 5.885 10.974 6.083 10.812 6.233 L 9.102 7.943 L 10.789 9.631 C 10.93 9.772 11 9.971 11 10.17 L 11 10.92 L 10.25 10.92 C 10.051 10.92 9.852 10.85 9.711 10.709 L 8 8.998 L 6.289 10.709 C 6.148 10.85 5.949 10.92 5.75 10.92 L 5 10.92 L 5 10.17 C 5 9.971 5.07 9.772 5.211 9.631 L 6.922 7.943 L 5.211 6.233 C 5.053 6.087 4.984 5.881 5 5.67 L 5 4.92 L 5 4.92 Z" color="#bebebe" enable-background="new" opacity=".5" style="text-decoration-line:none;text-indent:0;text-transform:none"/>
  </g>
  <g id="hover-center" transform="translate(76.896 -6.3051)">
    <path d="m-36.271 7.3051c-3.866 0-7 3.134-7 7s3.134 7 7 7 7-3.134 7-7-3.134-7-7-7z" stroke-width=".5" style="fill: rgb(39, 119, 255); stroke: rgb(34, 47, 255);"/>
    <path d="m-39.271 11.225h0.75c8e-3 -9e-5 0.0156-3.5e-4 0.0234 0 0.19122 8e-3 0.3824 0.0964 0.51563 0.23437l1.7109 1.7109 1.7344-1.7109c0.19922-0.17287 0.335-0.22912 0.51562-0.23437h0.75v0.75c0 0.21485-0.0257 0.41298-0.1875 0.5625l-1.7109 1.7109 1.6875 1.6875c0.14114 0.14113 0.21093 0.34009 0.21093 0.53907v0.75h-0.75c-0.19897-1e-5 -0.39793-0.0698-0.53906-0.21094l-1.7109-1.7109-1.7109 1.7109c-0.14113 0.14114-0.3401 0.21094-0.53907 0.21094h-0.75v-0.75c0-0.19897 0.0698-0.39794 0.21094-0.53907l1.7109-1.6875-1.7109-1.7109c-0.15805-0.14598-0.22737-0.35194-0.21094-0.5625v-0.75z" color="#bebebe" enable-background="new" opacity=".5" style="text-decoration-line:none;text-indent:0;text-transform:none"/>
  </g>
  <path id="inactive-center" d="m73.25 1c-3.866 0-7 3.134-7 7 0 3.866 3.134 7 7 7s7-3.134 7-7c0-3.866-3.134-7-7-7z" fill="#fff" opacity=".3"/>
  <g id="pressed-center" transform="translate(74.346 -.88136)">
    <path d="m-50.034 1.8814c-3.866 0-7 3.134-7 7 0 3.866 3.134 7 7 7s7-3.134 7-7c0-3.866-3.134-7-7-7z" stroke-width=".5" style="fill: rgb(39, 119, 255); stroke: rgb(34, 47, 255);"/>
    <path d="m-53.034 5.8014h0.75c8e-3 -9e-5 0.0156-3.5e-4 0.0234 0 0.19122 8e-3 0.3824 0.0964 0.51563 0.23437l1.7109 1.7109 1.7344-1.7109c0.19922-0.17287 0.335-0.22912 0.51562-0.23437h0.75v0.75c0 0.21485-0.0257 0.41298-0.1875 0.5625l-1.7109 1.7109 1.6875 1.6875c0.14114 0.14113 0.21093 0.34009 0.21093 0.53907v0.75h-0.75c-0.19897-1e-5 -0.39793-0.0698-0.53906-0.21094l-1.7109-1.7109-1.7109 1.7109c-0.14113 0.14114-0.3401 0.21094-0.53907 0.21094h-0.75v-0.75c0-0.19897 0.0698-0.39794 0.21094-0.53907l1.7109-1.6875-1.7109-1.7109c-0.15805-0.14598-0.22737-0.35194-0.21094-0.5625v-0.75z" color="#bebebe" enable-background="new" opacity=".5" style="text-decoration-line:none;text-indent:0;text-transform:none"/>
  </g>
  <path id="deactivated-center" d="m56.938 1c-3.866 0-7 3.134-7 7 0 3.866 3.134 7 7 7s7-3.134 7-7c0-3.866-3.134-7-7-7z" fill="#fff" opacity=".3"/>
  <g id="group-1" transform="matrix(1, 0, 0, 1, 74.346, -0.881)">
    <path d="m-50.034 1.8814c-3.866 0-7 3.134-7 7 0 3.866 3.134 7 7 7s7-3.134 7-7c0-3.866-3.134-7-7-7z" stroke-width=".5" style="fill: rgb(39, 119, 255); stroke: rgb(34, 47, 255);"/>
    <path d="m-53.034 5.8014h0.75c8e-3 -9e-5 0.0156-3.5e-4 0.0234 0 0.19122 8e-3 0.3824 0.0964 0.51563 0.23437l1.7109 1.7109 1.7344-1.7109c0.19922-0.17287 0.335-0.22912 0.51562-0.23437h0.75v0.75c0 0.21485-0.0257 0.41298-0.1875 0.5625l-1.7109 1.7109 1.6875 1.6875c0.14114 0.14113 0.21093 0.34009 0.21093 0.53907v0.75h-0.75c-0.19897-1e-5 -0.39793-0.0698-0.53906-0.21094l-1.7109-1.7109-1.7109 1.7109c-0.14113 0.14114-0.3401 0.21094-0.53907 0.21094h-0.75v-0.75c0-0.19897 0.0698-0.39794 0.21094-0.53907l1.7109-1.6875-1.7109-1.7109c-0.15805-0.14598-0.22737-0.35194-0.21094-0.5625v-0.75z" color="#bebebe" enable-background="new" opacity=".5" style="text-decoration-line:none;text-indent:0;text-transform:none"/>
  </g>
  <g id="group-2" transform="matrix(1, 0, 0, 1, 44.271, -6.305099)"/>
</svg>