<?xml version="1.0" encoding="utf-8"?>
<svg xmlns="http://www.w3.org/2000/svg" viewBox="0 0 16 16">
  <path d="M 3.752 9.406 C 3.682 9.406 3.622 9.382 3.574 9.333 C 3.525 9.284 3.5 9.225 3.5 9.154 L 3.5 7.204 L 2.305 7.204 C 2.25 7.204 2.205 7.186 2.17 7.15 C 2.135 7.115 2.117 7.07 2.117 7.016 C 2.117 7 2.139 6.944 2.182 6.849 C 2.224 6.753 2.282 6.631 2.355 6.483 C 2.427 6.334 2.51 6.166 2.604 5.979 C 2.698 5.791 2.793 5.599 2.891 5.401 C 2.989 5.204 3.086 5.009 3.184 4.816 C 3.281 4.622 3.371 4.445 3.454 4.285 C 3.535 4.125 3.606 3.988 3.664 3.872 C 3.723 3.757 3.762 3.68 3.781 3.641 C 3.801 3.598 3.83 3.564 3.869 3.538 C 3.908 3.513 3.952 3.5 3.998 3.5 C 4.069 3.5 4.128 3.525 4.177 3.574 C 4.225 3.622 4.25 3.682 4.25 3.752 L 4.25 5.704 L 5.446 5.704 C 5.5 5.704 5.545 5.721 5.58 5.756 C 5.615 5.791 5.633 5.836 5.633 5.891 C 5.633 5.922 5.627 5.95 5.615 5.973 L 3.969 9.266 C 3.949 9.309 3.92 9.343 3.881 9.368 C 3.842 9.394 3.799 9.406 3.752 9.406 Z M 3.834 13.204 C 3.588 13.204 3.354 13.153 3.131 13.054 C 2.908 12.954 2.714 12.821 2.548 12.655 C 2.382 12.49 2.249 12.295 2.149 12.073 C 2.05 11.85 2 11.615 2 11.369 L 2 7.954 L 2.75 7.954 L 2.75 11.329 C 2.75 11.481 2.779 11.625 2.838 11.762 C 2.896 11.899 2.977 12.019 3.081 12.122 C 3.184 12.226 3.305 12.307 3.442 12.365 C 3.578 12.424 3.723 12.454 3.875 12.454 L 10.625 12.454 C 10.777 12.454 10.922 12.424 11.058 12.365 C 11.195 12.307 11.316 12.226 11.419 12.122 C 11.523 12.019 11.604 11.899 11.662 11.762 C 11.721 11.625 11.75 11.481 11.75 11.329 L 11.75 7.579 C 11.75 7.426 11.721 7.282 11.662 7.144 C 11.604 7.008 11.523 6.888 11.419 6.784 C 11.316 6.681 11.195 6.6 11.058 6.541 C 10.922 6.483 10.777 6.454 10.625 6.454 L 6.424 6.454 C 6.522 6.266 6.571 6.074 6.571 5.879 C 6.571 5.848 6.569 5.818 6.568 5.791 C 6.565 5.763 6.562 5.734 6.559 5.704 L 10.666 5.704 C 10.916 5.704 11.152 5.753 11.372 5.853 C 11.593 5.953 11.786 6.085 11.953 6.251 C 12.118 6.417 12.25 6.611 12.348 6.834 C 12.445 7.057 12.496 7.291 12.5 7.537 L 12.5 8.329 L 13.25 8.329 C 13.351 8.329 13.447 8.348 13.537 8.387 C 13.627 8.426 13.707 8.481 13.777 8.551 C 13.848 8.621 13.903 8.701 13.942 8.791 C 13.981 8.881 14 8.977 14 9.079 L 14 9.829 C 14 10.036 13.926 10.213 13.777 10.361 C 13.633 10.506 13.457 10.579 13.25 10.579 L 12.5 10.579 L 12.5 11.369 C 12.5 11.615 12.451 11.85 12.351 12.073 C 12.251 12.295 12.118 12.49 11.953 12.655 C 11.786 12.821 11.592 12.954 11.369 13.054 C 11.146 13.153 10.912 13.204 10.666 13.204 L 3.834 13.204 Z" style="fill: rgb(255, 255, 255);"/>
</svg>