<?xml version="1.0" encoding="utf-8"?>
<svg viewBox="0 0 16 16" xmlns="http://www.w3.org/2000/svg">
  <path d="M 3.624 13.994 C 3.472 13.994 3.328 13.965 3.192 13.906 C 3.054 13.848 2.934 13.767 2.831 13.663 C 2.727 13.559 2.646 13.439 2.588 13.303 C 2.529 13.166 2.5 13.022 2.5 12.869 L 2.5 3.874 C 2.5 3.722 2.529 3.577 2.588 3.441 C 2.646 3.304 2.727 3.184 2.831 3.08 C 2.934 2.977 3.054 2.896 3.192 2.838 C 3.328 2.779 3.472 2.75 3.624 2.75 L 4.814 2.75 C 4.852 2.636 4.908 2.534 4.977 2.442 C 5.048 2.35 5.13 2.272 5.223 2.206 C 5.317 2.139 5.418 2.088 5.528 2.053 C 5.637 2.018 5.752 2 5.874 2 L 8.122 2 C 8.243 2 8.359 2.018 8.468 2.053 C 8.577 2.088 8.679 2.139 8.772 2.206 C 8.866 2.272 8.948 2.35 9.018 2.442 C 9.089 2.534 9.144 2.636 9.183 2.75 L 10.371 2.75 C 10.524 2.75 10.668 2.779 10.805 2.838 C 10.941 2.896 11.061 2.977 11.165 3.08 C 11.268 3.184 11.349 3.304 11.407 3.441 C 11.466 3.577 11.496 3.722 11.496 3.874 L 11.496 9.526 C 11.402 9.514 11.308 9.506 11.214 9.502 C 11.121 9.499 11.027 9.496 10.933 9.496 L 10.746 9.496 L 10.746 3.874 C 10.746 3.772 10.709 3.685 10.635 3.61 C 10.56 3.536 10.473 3.499 10.371 3.499 L 9.183 3.499 C 9.144 3.613 9.089 3.715 9.018 3.807 C 8.948 3.898 8.866 3.978 8.772 4.044 C 8.679 4.11 8.577 4.162 8.468 4.196 C 8.359 4.231 8.243 4.249 8.122 4.249 L 5.874 4.249 C 5.752 4.249 5.637 4.231 5.528 4.196 C 5.418 4.162 5.317 4.11 5.223 4.044 C 5.13 3.978 5.048 3.898 4.977 3.807 C 4.908 3.715 4.852 3.613 4.814 3.499 L 3.624 3.499 C 3.523 3.499 3.435 3.536 3.361 3.61 C 3.287 3.685 3.25 3.772 3.25 3.874 L 3.25 12.869 C 3.25 12.971 3.287 13.059 3.361 13.133 C 3.435 13.207 3.523 13.245 3.624 13.245 L 5.75 13.245 C 5.887 13.525 6.065 13.775 6.283 13.994 L 3.624 13.994 Z M 8.122 3.499 C 8.223 3.499 8.312 3.462 8.385 3.388 C 8.46 3.314 8.497 3.226 8.497 3.124 C 8.497 3.023 8.46 2.935 8.385 2.861 C 8.312 2.787 8.223 2.75 8.122 2.75 L 5.874 2.75 C 5.772 2.75 5.684 2.787 5.61 2.861 C 5.535 2.935 5.499 3.023 5.499 3.124 C 5.499 3.226 5.535 3.314 5.61 3.388 C 5.684 3.462 5.772 3.499 5.874 3.499 L 8.122 3.499 Z M 8.082 13.994 C 7.827 13.994 7.589 13.943 7.367 13.842 C 7.144 13.741 6.95 13.603 6.784 13.432 C 6.618 13.261 6.487 13.061 6.392 12.835 C 6.296 12.608 6.248 12.37 6.248 12.121 C 6.248 11.87 6.296 11.632 6.392 11.405 C 6.487 11.179 6.618 10.98 6.784 10.808 C 6.95 10.636 7.144 10.499 7.367 10.399 C 7.589 10.297 7.827 10.246 8.082 10.246 C 8.117 10.246 8.154 10.245 8.193 10.243 C 8.232 10.241 8.273 10.24 8.316 10.24 C 8.382 10.24 8.448 10.243 8.515 10.252 C 8.581 10.259 8.641 10.277 8.694 10.305 C 8.746 10.332 8.789 10.369 8.822 10.419 C 8.856 10.468 8.871 10.535 8.871 10.621 C 8.871 10.723 8.835 10.81 8.761 10.885 C 8.687 10.959 8.599 10.996 8.497 10.996 L 8.122 10.996 C 7.97 10.996 7.826 11.025 7.689 11.083 C 7.552 11.143 7.432 11.223 7.329 11.326 C 7.225 11.43 7.144 11.551 7.086 11.686 C 7.027 11.823 6.998 11.968 6.998 12.121 C 6.998 12.272 7.027 12.417 7.086 12.553 C 7.144 12.691 7.225 12.811 7.329 12.913 C 7.432 13.017 7.552 13.098 7.689 13.156 C 7.826 13.215 7.97 13.245 8.122 13.245 L 8.497 13.245 C 8.599 13.245 8.687 13.281 8.761 13.356 C 8.835 13.43 8.871 13.518 8.871 13.619 C 8.871 13.72 8.835 13.809 8.761 13.882 C 8.687 13.957 8.599 13.994 8.497 13.994 L 8.082 13.994 Z M 10.371 13.619 C 10.371 13.518 10.409 13.43 10.482 13.356 C 10.557 13.281 10.644 13.245 10.746 13.245 L 11.121 13.245 C 11.273 13.245 11.418 13.215 11.554 13.156 C 11.691 13.098 11.811 13.017 11.915 12.913 C 12.018 12.811 12.099 12.691 12.157 12.553 C 12.216 12.417 12.245 12.272 12.245 12.121 C 12.245 11.968 12.216 11.823 12.157 11.686 C 12.099 11.551 12.018 11.43 11.915 11.326 C 11.811 11.223 11.691 11.143 11.554 11.083 C 11.418 11.025 11.273 10.996 11.121 10.996 L 10.746 10.996 C 10.644 10.996 10.557 10.959 10.482 10.885 C 10.409 10.81 10.371 10.723 10.371 10.621 C 10.371 10.519 10.409 10.432 10.482 10.357 C 10.557 10.283 10.644 10.246 10.746 10.246 L 11.162 10.246 C 11.415 10.246 11.653 10.297 11.877 10.399 C 12.099 10.499 12.293 10.636 12.459 10.808 C 12.625 10.98 12.756 11.179 12.851 11.405 C 12.947 11.632 12.995 11.87 12.995 12.121 C 12.995 12.37 12.947 12.608 12.851 12.835 C 12.756 13.061 12.625 13.261 12.459 13.432 C 12.293 13.603 12.099 13.741 11.877 13.842 C 11.653 13.943 11.415 13.994 11.162 13.994 C 11.127 13.994 11.088 13.995 11.047 13.997 C 11.007 13.999 10.965 14 10.921 14 C 10.855 14 10.789 13.996 10.722 13.988 C 10.656 13.981 10.597 13.964 10.544 13.939 C 10.491 13.913 10.449 13.875 10.418 13.825 C 10.387 13.773 10.371 13.705 10.371 13.619 Z M 8.122 12.495 C 8.021 12.495 7.933 12.457 7.859 12.383 C 7.784 12.309 7.747 12.221 7.747 12.121 C 7.747 12.019 7.784 11.931 7.859 11.857 C 7.933 11.782 8.021 11.745 8.122 11.745 L 11.121 11.745 C 11.223 11.745 11.31 11.782 11.385 11.857 C 11.459 11.931 11.496 12.019 11.496 12.121 C 11.496 12.221 11.459 12.309 11.385 12.383 C 11.31 12.457 11.223 12.495 11.121 12.495 L 8.122 12.495 Z" style="fill: rgb(255, 255, 255);"/>
</svg>