<?xml version="1.0" encoding="utf-8"?>
<svg xmlns="http://www.w3.org/2000/svg" viewBox="0 0 16 16">
  <path d="M 7.932 15 C 7.295 14.996 6.68 14.91 6.09 14.739 C 5.499 14.571 4.948 14.333 4.435 14.025 C 3.923 13.717 3.454 13.351 3.03 12.926 C 2.607 12.499 2.245 12.028 1.943 11.511 C 1.643 10.994 1.41 10.437 1.247 9.846 C 1.083 9.254 1 8.639 1 8 C 1 7.358 1.083 6.738 1.25 6.14 C 1.416 5.545 1.653 4.987 1.957 4.47 C 2.262 3.953 2.628 3.48 3.055 3.055 C 3.48 2.628 3.953 2.262 4.47 1.957 C 4.987 1.653 5.545 1.416 6.14 1.25 C 6.738 1.083 7.358 1 8 1 C 8.633 1 9.246 1.083 9.839 1.25 C 10.432 1.416 10.986 1.649 11.503 1.951 C 12.02 2.251 12.493 2.612 12.923 3.033 C 13.35 3.455 13.717 3.923 14.022 4.435 C 14.328 4.948 14.566 5.499 14.736 6.09 C 14.907 6.68 14.996 7.295 15 7.932 C 14.859 7.759 14.709 7.596 14.552 7.442 C 14.396 7.29 14.226 7.148 14.044 7.016 C 14.02 6.883 13.994 6.755 13.964 6.63 C 13.935 6.504 13.903 6.378 13.865 6.25 C 13.72 6.25 13.571 6.251 13.42 6.253 C 13.269 6.255 13.123 6.258 12.978 6.258 L 12.756 6.258 C 12.685 6.258 12.609 6.254 12.533 6.25 C 12.51 6.25 12.478 6.246 12.437 6.236 C 12.395 6.227 12.352 6.217 12.303 6.203 C 12.255 6.19 12.21 6.175 12.163 6.162 C 12.117 6.148 12.082 6.137 12.055 6.126 C 11.89 6.095 11.726 6.071 11.561 6.055 C 11.398 6.039 11.232 6.031 11.063 6.031 L 11.055 6.031 C 10.959 6.031 10.865 6.036 10.769 6.042 C 10.673 6.05 10.577 6.056 10.481 6.066 C 10.278 6.087 10.075 6.123 9.879 6.168 C 9.83 6.182 9.781 6.198 9.736 6.22 C 9.691 6.239 9.643 6.25 9.593 6.25 L 5.492 6.25 C 5.454 6.542 5.426 6.833 5.406 7.121 C 5.385 7.411 5.376 7.704 5.376 8 C 5.376 8.296 5.385 8.589 5.406 8.879 C 5.426 9.167 5.454 9.458 5.492 9.75 L 6.203 9.75 C 6.162 9.895 6.129 10.042 6.107 10.187 C 6.084 10.334 6.066 10.479 6.052 10.626 L 5.643 10.626 C 5.691 10.858 5.748 11.085 5.813 11.313 C 5.876 11.538 5.952 11.761 6.039 11.978 C 6.066 12.047 6.095 12.115 6.126 12.184 C 6.16 12.252 6.185 12.322 6.209 12.39 C 6.236 12.462 6.261 12.535 6.28 12.608 C 6.302 12.68 6.325 12.756 6.352 12.832 C 6.431 13.052 6.526 13.262 6.637 13.462 C 6.749 13.661 6.871 13.856 7.008 14.044 L 7.016 14.044 C 7.148 14.226 7.29 14.396 7.442 14.552 C 7.596 14.709 7.759 14.859 7.932 15 Z M 10.357 5.376 C 10.323 5.205 10.269 5.003 10.201 4.764 C 10.133 4.524 10.048 4.275 9.948 4.019 C 9.848 3.76 9.732 3.504 9.599 3.245 C 9.468 2.988 9.319 2.759 9.156 2.555 C 8.992 2.354 8.814 2.189 8.621 2.063 C 8.431 1.938 8.223 1.876 8 1.876 C 7.777 1.876 7.569 1.938 7.379 2.063 C 7.187 2.189 7.008 2.354 6.846 2.555 C 6.681 2.759 6.532 2.988 6.401 3.245 C 6.268 3.504 6.152 3.76 6.052 4.019 C 5.952 4.275 5.868 4.524 5.799 4.764 C 5.731 5.003 5.678 5.205 5.643 5.376 L 10.357 5.376 Z M 2.47 5.376 L 4.747 5.376 C 4.802 5.106 4.866 4.832 4.942 4.552 C 5.017 4.272 5.104 3.995 5.209 3.72 C 5.311 3.448 5.427 3.183 5.56 2.928 C 5.691 2.671 5.843 2.433 6.011 2.209 C 5.623 2.343 5.255 2.512 4.904 2.72 C 4.553 2.928 4.225 3.166 3.923 3.437 C 3.619 3.707 3.346 4.007 3.099 4.333 C 2.852 4.658 2.643 5.006 2.47 5.376 Z M 13.53 5.376 C 13.352 5.002 13.14 4.652 12.896 4.327 C 12.649 3.999 12.376 3.703 12.074 3.434 C 11.775 3.166 11.447 2.928 11.096 2.723 C 10.746 2.517 10.377 2.346 9.989 2.209 C 10.157 2.433 10.309 2.671 10.44 2.928 C 10.573 3.183 10.69 3.448 10.791 3.72 C 10.896 3.995 10.984 4.272 11.06 4.552 C 11.135 4.832 11.2 5.106 11.253 5.376 L 13.53 5.376 Z M 4.602 9.75 C 4.533 9.172 4.5 8.588 4.5 8 C 4.5 7.704 4.509 7.411 4.524 7.121 C 4.541 6.833 4.569 6.542 4.61 6.25 L 2.129 6.25 C 1.96 6.811 1.876 7.394 1.876 8 C 1.876 8.606 1.96 9.189 2.129 9.75 L 4.602 9.75 Z M 2.47 10.626 C 2.643 10.995 2.852 11.342 3.099 11.667 C 3.346 11.993 3.618 12.293 3.92 12.563 C 4.22 12.834 4.545 13.073 4.896 13.28 C 5.247 13.488 5.617 13.657 6.003 13.791 C 5.84 13.562 5.691 13.321 5.56 13.066 C 5.427 12.811 5.311 12.548 5.209 12.275 C 5.104 12.005 5.017 11.729 4.942 11.453 C 4.866 11.175 4.802 10.899 4.747 10.626 L 2.47 10.626 Z" style="fill: rgb(255, 255, 255);"/>
  <path d="M 7.121 11.062 C 7.121 10.699 7.17 10.35 7.26 10.015 C 7.353 9.681 7.484 9.368 7.659 9.074 C 7.828 8.782 8.03 8.517 8.271 8.277 C 8.513 8.036 8.778 7.832 9.069 7.662 C 9.362 7.49 9.677 7.357 10.012 7.267 C 10.347 7.173 10.693 7.126 11.061 7.126 C 11.419 7.126 11.767 7.173 12.101 7.268 C 12.437 7.361 12.75 7.494 13.042 7.666 C 13.336 7.835 13.6 8.042 13.841 8.28 C 14.079 8.521 14.286 8.786 14.456 9.079 C 14.627 9.371 14.761 9.685 14.855 10.02 C 14.948 10.354 14.997 10.702 14.997 11.062 C 14.997 11.428 14.948 11.776 14.856 12.112 C 14.764 12.446 14.633 12.759 14.459 13.052 C 14.289 13.345 14.087 13.61 13.846 13.85 C 13.604 14.091 13.339 14.295 13.049 14.466 C 12.756 14.637 12.44 14.77 12.106 14.862 C 11.771 14.953 11.424 15 11.061 15 C 10.693 15 10.347 14.953 10.012 14.862 C 9.671 14.77 9.359 14.637 9.068 14.466 C 8.778 14.295 8.513 14.091 8.271 13.85 C 8.03 13.61 7.828 13.347 7.659 13.053 C 7.484 12.762 7.353 12.45 7.26 12.112 C 7.17 11.776 7.121 11.428 7.121 11.062 Z M 14.47 11.062 C 14.47 10.749 14.43 10.446 14.35 10.154 C 14.27 9.864 14.154 9.592 14.005 9.339 C 13.856 9.088 13.68 8.856 13.472 8.649 C 13.265 8.444 13.036 8.265 12.784 8.116 C 12.531 7.969 12.258 7.851 11.967 7.773 C 11.677 7.691 11.373 7.651 11.061 7.651 C 10.744 7.651 10.44 7.691 10.15 7.773 C 9.86 7.851 9.587 7.969 9.334 8.116 C 9.082 8.265 8.852 8.444 8.645 8.649 C 8.438 8.856 8.262 9.088 8.113 9.339 C 7.963 9.592 7.848 9.864 7.766 10.154 C 7.688 10.446 7.648 10.749 7.648 11.062 C 7.648 11.377 7.688 11.68 7.766 11.973 C 7.848 12.261 7.963 12.535 8.111 12.787 C 8.257 13.039 8.435 13.269 8.643 13.479 C 8.852 13.686 9.082 13.864 9.334 14.01 C 9.587 14.159 9.86 14.273 10.15 14.355 C 10.44 14.436 10.744 14.473 11.061 14.473 C 11.373 14.473 11.677 14.436 11.967 14.355 C 12.258 14.273 12.531 14.159 12.784 14.01 C 13.036 13.864 13.266 13.686 13.473 13.479 C 13.683 13.269 13.857 13.039 14.008 12.787 C 14.156 12.535 14.27 12.261 14.35 11.973 C 14.43 11.68 14.47 11.377 14.47 11.062 Z" style="fill: rgb(255, 255, 255);"/>
  <path d="M 9.222 11.062 C 9.222 10.995 9.246 10.929 9.301 10.88 C 9.353 10.827 9.413 10.801 9.484 10.801 C 9.555 10.801 9.615 10.827 9.668 10.88 L 10.533 11.74 L 12.45 9.83 C 12.503 9.776 12.563 9.749 12.634 9.749 C 12.703 9.749 12.765 9.776 12.818 9.83 C 12.87 9.881 12.896 9.942 12.896 10.015 C 12.896 10.085 12.87 10.146 12.818 10.198 L 10.717 12.297 C 10.668 12.35 10.606 12.376 10.533 12.376 C 10.462 12.376 10.402 12.35 10.348 12.297 L 9.301 11.247 C 9.246 11.195 9.222 11.135 9.222 11.062 Z" style="fill: rgb(77, 255, 0);"/>
</svg>