<?xml version="1.0" encoding="utf-8"?>
<svg xmlns="http://www.w3.org/2000/svg" viewBox="0 0 16 16">
  <path d="M 15 8 C 15 8.643 14.917 9.262 14.75 9.859 C 14.584 10.456 14.348 11.014 14.043 11.531 C 13.738 12.048 13.372 12.52 12.946 12.946 C 12.52 13.372 12.048 13.738 11.531 14.043 C 11.014 14.348 10.456 14.584 9.859 14.75 C 9.262 14.917 8.643 15 8 15 C 7.357 15 6.738 14.917 6.141 14.75 C 5.544 14.584 4.986 14.348 4.469 14.043 C 3.952 13.738 3.48 13.372 3.054 12.946 C 2.628 12.52 2.262 12.048 1.957 11.531 C 1.652 11.014 1.416 10.456 1.25 9.859 C 1.083 9.262 1 8.643 1 8 C 1 7.357 1.083 6.738 1.25 6.141 C 1.416 5.544 1.652 4.986 1.957 4.469 C 2.262 3.952 2.628 3.48 3.054 3.054 C 3.48 2.628 3.952 2.262 4.469 1.957 C 4.986 1.652 5.544 1.416 6.141 1.25 C 6.738 1.083 7.357 1 8 1 C 8.643 1 9.262 1.083 9.859 1.25 C 10.456 1.416 11.014 1.652 11.531 1.957 C 12.048 2.262 12.52 2.628 12.946 3.054 C 13.372 3.48 13.738 3.952 14.043 4.469 C 14.348 4.986 14.584 5.544 14.75 6.141 C 14.917 6.738 15 7.357 15 8 Z M 3.461 12.108 C 3.753 12.432 4.072 12.719 4.418 12.97 C 4.764 13.22 5.131 13.431 5.519 13.602 C 5.906 13.773 6.308 13.903 6.725 13.992 C 7.142 14.081 7.567 14.125 8 14.125 C 8.57 14.125 9.129 14.048 9.678 13.893 C 10.227 13.738 10.743 13.51 11.227 13.209 C 11.135 13.122 11.047 13.027 10.96 12.922 C 10.873 12.817 10.797 12.708 10.731 12.594 C 10.665 12.48 10.612 12.36 10.574 12.235 C 10.535 12.11 10.516 11.981 10.516 11.849 C 10.516 11.657 10.553 11.478 10.628 11.312 C 10.704 11.146 10.798 10.993 10.912 10.854 C 11.026 10.715 11.15 10.585 11.285 10.464 C 11.419 10.344 11.543 10.23 11.657 10.123 C 11.771 10.015 11.866 9.914 11.941 9.818 C 12.016 9.723 12.054 9.629 12.054 9.538 C 12.054 9.456 12.018 9.384 11.948 9.323 C 11.877 9.261 11.803 9.23 11.726 9.23 C 11.639 9.23 11.554 9.25 11.469 9.289 C 11.385 9.327 11.302 9.371 11.22 9.418 C 11.138 9.466 11.056 9.51 10.974 9.548 C 10.892 9.587 10.812 9.606 10.734 9.606 C 10.584 9.606 10.463 9.562 10.372 9.473 C 10.281 9.384 10.219 9.269 10.188 9.128 C 10.165 9.028 10.145 8.905 10.129 8.759 C 10.113 8.613 10.094 8.465 10.071 8.314 C 10.049 8.164 10.022 8.021 9.993 7.884 C 9.963 7.747 9.925 7.638 9.88 7.556 C 9.748 7.319 9.596 7.097 9.425 6.889 C 9.254 6.682 9.096 6.464 8.95 6.236 C 8.9 6.154 8.862 6.078 8.837 6.007 C 8.812 5.937 8.8 5.854 8.8 5.758 C 8.8 5.626 8.828 5.505 8.885 5.396 C 8.942 5.286 9.019 5.186 9.114 5.095 C 9.242 4.976 9.372 4.86 9.504 4.746 C 9.636 4.632 9.766 4.516 9.894 4.397 C 10.153 4.156 10.403 3.908 10.642 3.652 C 10.881 3.397 11.117 3.137 11.35 2.873 C 10.853 2.549 10.32 2.302 9.75 2.131 C 9.18 1.96 8.597 1.875 8 1.875 L 7.894 1.875 C 7.86 1.875 7.825 1.877 7.788 1.882 C 7.866 2.019 7.941 2.178 8.014 2.36 C 8.087 2.543 8.152 2.731 8.208 2.924 C 8.265 3.118 8.311 3.312 8.345 3.505 C 8.379 3.699 8.396 3.873 8.396 4.028 C 8.396 4.243 8.368 4.453 8.311 4.661 C 8.254 4.868 8.166 5.061 8.048 5.238 C 7.943 5.393 7.833 5.521 7.716 5.621 C 7.6 5.721 7.474 5.806 7.337 5.874 C 7.2 5.942 7.056 5.998 6.903 6.042 C 6.75 6.085 6.587 6.122 6.414 6.154 C 6.309 6.177 6.206 6.211 6.103 6.257 C 6 6.302 5.92 6.373 5.86 6.469 C 5.819 6.533 5.792 6.603 5.778 6.681 C 5.765 6.758 5.758 6.836 5.758 6.913 C 5.758 7.059 5.777 7.201 5.816 7.34 C 5.855 7.479 5.897 7.617 5.942 7.754 C 5.988 7.891 6.03 8.027 6.069 8.164 C 6.108 8.301 6.127 8.442 6.127 8.588 C 6.127 8.82 6.078 9.013 5.98 9.166 C 5.882 9.318 5.756 9.444 5.601 9.542 C 5.446 9.639 5.272 9.717 5.081 9.774 C 4.89 9.831 4.701 9.88 4.514 9.921 C 4.432 9.939 4.347 9.963 4.261 9.993 C 4.174 10.022 4.093 10.061 4.018 10.109 C 3.943 10.157 3.877 10.214 3.82 10.28 C 3.763 10.346 3.728 10.427 3.714 10.522 L 3.461 12.108 Z M 1.875 8 C 1.875 8.551 1.948 9.091 2.094 9.62 C 2.24 10.149 2.451 10.65 2.729 11.124 C 2.752 10.996 2.773 10.869 2.791 10.741 C 2.809 10.614 2.83 10.486 2.853 10.358 C 2.889 10.167 2.955 10 3.051 9.856 C 3.146 9.712 3.263 9.587 3.399 9.48 C 3.536 9.373 3.688 9.285 3.854 9.217 C 4.02 9.148 4.192 9.096 4.37 9.06 C 4.429 9.046 4.509 9.03 4.609 9.012 C 4.71 8.993 4.808 8.966 4.903 8.93 C 4.999 8.893 5.081 8.848 5.149 8.793 C 5.218 8.738 5.252 8.67 5.252 8.588 C 5.252 8.529 5.243 8.461 5.225 8.386 C 5.206 8.311 5.186 8.236 5.163 8.161 C 5.14 8.085 5.115 8.011 5.088 7.938 C 5.061 7.866 5.038 7.799 5.02 7.74 C 4.928 7.467 4.883 7.191 4.883 6.913 C 4.883 6.453 5.008 6.088 5.259 5.819 C 5.509 5.55 5.854 5.373 6.291 5.286 C 6.478 5.25 6.648 5.203 6.8 5.146 C 6.953 5.089 7.083 5.013 7.19 4.917 C 7.297 4.821 7.379 4.702 7.436 4.558 C 7.493 4.415 7.521 4.236 7.521 4.021 C 7.521 3.912 7.509 3.788 7.484 3.649 C 7.459 3.51 7.427 3.369 7.388 3.225 C 7.349 3.082 7.305 2.944 7.255 2.812 C 7.205 2.679 7.155 2.563 7.104 2.463 C 7.063 2.381 7.018 2.301 6.968 2.224 C 6.918 2.146 6.872 2.066 6.831 1.984 C 6.111 2.126 5.449 2.381 4.845 2.75 C 4.241 3.119 3.718 3.57 3.276 4.104 C 2.834 4.637 2.49 5.236 2.244 5.901 C 1.998 6.567 1.875 7.266 1.875 8 Z M 14.125 8 C 14.125 7.563 14.079 7.132 13.988 6.708 C 13.897 6.284 13.763 5.875 13.585 5.481 C 13.407 5.087 13.19 4.714 12.932 4.363 C 12.675 4.012 12.38 3.693 12.047 3.406 C 11.855 3.625 11.666 3.836 11.479 4.039 C 11.293 4.241 11.102 4.44 10.909 4.633 C 10.715 4.827 10.517 5.017 10.314 5.204 C 10.111 5.391 9.898 5.578 9.675 5.765 C 9.752 5.856 9.825 5.95 9.894 6.048 C 9.962 6.146 10.03 6.243 10.099 6.339 C 10.272 6.58 10.407 6.776 10.505 6.927 C 10.603 7.077 10.681 7.223 10.738 7.364 C 10.795 7.506 10.84 7.665 10.875 7.843 C 10.909 8.021 10.949 8.255 10.994 8.547 C 11.113 8.492 11.237 8.447 11.367 8.41 C 11.497 8.374 11.628 8.355 11.76 8.355 C 11.915 8.355 12.063 8.387 12.204 8.451 C 12.345 8.515 12.471 8.602 12.58 8.711 C 12.689 8.82 12.776 8.946 12.84 9.087 C 12.904 9.228 12.936 9.376 12.936 9.531 C 12.936 9.709 12.898 9.874 12.823 10.027 C 12.748 10.18 12.652 10.323 12.536 10.458 C 12.419 10.592 12.295 10.72 12.163 10.84 C 12.031 10.961 11.907 11.077 11.791 11.189 C 11.674 11.301 11.579 11.411 11.503 11.521 C 11.428 11.63 11.391 11.742 11.391 11.855 C 11.391 11.933 11.41 12.01 11.449 12.088 C 11.487 12.165 11.534 12.241 11.589 12.313 C 11.644 12.386 11.703 12.455 11.767 12.519 C 11.83 12.582 11.89 12.637 11.944 12.683 C 12.291 12.391 12.598 12.067 12.867 11.712 C 13.136 11.356 13.364 10.979 13.551 10.581 C 13.738 10.182 13.88 9.766 13.978 9.333 C 14.076 8.9 14.125 8.456 14.125 8 Z" style="fill: rgb(255, 255, 255);"/>
</svg>