<?xml version="1.0" encoding="utf-8"?>
<svg viewBox="0 0 16 16" xmlns="http://www.w3.org/2000/svg" width="16px" height="16px">
  <path d="M 7.967 2.5 C 8.318 2.5 8.657 2.546 8.983 2.637 C 9.309 2.729 9.614 2.858 9.897 3.023 C 10.179 3.187 10.436 3.387 10.67 3.62 C 10.903 3.853 11.102 4.11 11.267 4.393 C 11.432 4.676 11.56 4.981 11.653 5.306 C 11.744 5.633 11.789 5.971 11.789 6.322 L 11.789 9.134 L 12.781 10.447 C 12.828 10.515 12.866 10.588 12.894 10.666 C 12.922 10.743 12.936 10.822 12.936 10.901 C 12.936 11.008 12.915 11.11 12.876 11.203 C 12.836 11.296 12.782 11.377 12.712 11.448 C 12.642 11.517 12.56 11.572 12.467 11.612 C 12.374 11.651 12.273 11.672 12.166 11.672 L 9.843 11.672 C 9.794 11.894 9.713 12.1 9.598 12.287 C 9.482 12.474 9.342 12.635 9.177 12.77 C 9.012 12.905 8.825 13.011 8.619 13.087 C 8.412 13.162 8.194 13.2 7.967 13.2 C 7.742 13.2 7.524 13.162 7.317 13.087 C 7.111 13.011 6.924 12.905 6.759 12.77 C 6.594 12.635 6.453 12.474 6.338 12.287 C 6.222 12.1 6.141 11.894 6.093 11.672 L 3.77 11.672 C 3.663 11.672 3.562 11.651 3.469 11.612 C 3.375 11.572 3.293 11.517 3.224 11.448 C 3.154 11.377 3.1 11.296 3.06 11.203 C 3.021 11.11 3 11.008 3 10.901 C 3 10.822 3.013 10.743 3.042 10.666 C 3.07 10.588 3.108 10.515 3.155 10.447 L 4.147 9.134 L 4.147 6.322 C 4.147 5.971 4.192 5.633 4.283 5.306 C 4.376 4.981 4.503 4.676 4.668 4.393 C 4.834 4.11 5.033 3.853 5.266 3.62 C 5.499 3.387 5.757 3.187 6.039 3.023 C 6.321 2.858 6.626 2.729 6.953 2.637 C 7.279 2.546 7.618 2.5 7.967 2.5 Z M 7.967 3.264 C 7.547 3.264 7.149 3.344 6.776 3.503 C 6.404 3.663 6.081 3.88 5.803 4.157 C 5.527 4.434 5.309 4.758 5.15 5.13 C 4.99 5.503 4.911 5.899 4.911 6.322 L 4.911 9.199 C 4.911 9.259 4.901 9.319 4.881 9.381 C 4.861 9.443 4.833 9.498 4.797 9.545 L 3.77 10.907 L 12.166 10.907 L 11.139 9.545 C 11.103 9.498 11.075 9.443 11.054 9.381 C 11.035 9.319 11.025 9.259 11.025 9.199 L 11.025 6.322 C 11.025 5.899 10.946 5.503 10.786 5.13 C 10.627 4.758 10.409 4.434 10.132 4.157 C 9.855 3.88 9.531 3.663 9.159 3.503 C 8.787 3.344 8.389 3.264 7.967 3.264 Z M 6.888 11.672 C 6.927 11.787 6.982 11.891 7.054 11.985 C 7.126 12.078 7.21 12.159 7.306 12.226 C 7.401 12.294 7.506 12.346 7.619 12.381 C 7.732 12.418 7.849 12.436 7.967 12.436 C 8.087 12.436 8.204 12.418 8.317 12.381 C 8.43 12.346 8.535 12.294 8.63 12.226 C 8.726 12.159 8.81 12.078 8.881 11.985 C 8.954 11.891 9.009 11.787 9.048 11.672 L 6.888 11.672 Z" style="fill: rgb(255, 255, 255);"/>
</svg>