<?xml version="1.0" encoding="utf-8"?>
<svg viewBox="0 0 16 16" xmlns="http://www.w3.org/2000/svg" width="16px" height="16px">
  <g transform="matrix(0.64485, 0, 0, 0.64485, 3, 2.5)">
    <path d="M 16 5.333 C 16 5.494 15.941 5.633 15.824 5.75 C 15.707 5.867 15.568 5.926 15.407 5.926 L 11.852 5.926 C 11.691 5.926 11.553 5.867 11.435 5.75 C 11.318 5.633 11.259 5.494 11.259 5.333 C 11.259 5.204 11.299 5.086 11.38 4.981 L 14.222 1.185 L 11.852 1.185 C 11.691 1.185 11.553 1.127 11.435 1.009 C 11.318 0.892 11.259 0.753 11.259 0.593 C 11.259 0.432 11.318 0.293 11.435 0.176 C 11.553 0.059 11.691 0 11.852 0 L 15.407 0 C 15.568 0 15.707 0.059 15.824 0.176 C 15.941 0.293 16 0.432 16 0.593 C 16 0.722 15.96 0.84 15.88 0.944 L 13.037 4.741 L 15.407 4.741 C 15.568 4.741 15.707 4.799 15.824 4.917 C 15.941 5.034 16 5.173 16 5.333 Z M 10.074 5.333 C 10.074 5.475 10.028 5.602 9.935 5.713 L 7.787 8.296 L 9.481 8.296 C 9.642 8.296 9.781 8.355 9.898 8.472 C 10.015 8.59 10.074 8.728 10.074 8.889 C 10.074 9.049 10.015 9.188 9.898 9.306 C 9.781 9.423 9.642 9.481 9.481 9.481 L 6.519 9.481 C 6.358 9.481 6.219 9.423 6.102 9.306 C 5.985 9.188 5.926 9.049 5.926 8.889 C 5.926 8.747 5.972 8.62 6.065 8.509 L 8.213 5.926 L 6.519 5.926 C 6.358 5.926 6.219 5.867 6.102 5.75 C 5.985 5.633 5.926 5.494 5.926 5.333 C 5.926 5.173 5.985 5.034 6.102 4.917 C 6.219 4.799 6.358 4.741 6.519 4.741 L 9.481 4.741 C 9.642 4.741 9.781 4.799 9.898 4.917 C 10.015 5.034 10.074 5.173 10.074 5.333 Z" style="fill: rgb(255, 255, 255);"/>
    <path d="M 13.63 10.269 L 15.176 12.324 C 15.256 12.429 15.315 12.542 15.352 12.662 C 15.389 12.782 15.407 12.904 15.407 13.028 C 15.407 13.194 15.378 13.35 15.319 13.495 C 15.261 13.64 15.178 13.767 15.069 13.875 C 14.961 13.983 14.835 14.068 14.69 14.13 C 14.545 14.191 14.389 14.222 14.222 14.222 L 10.611 14.222 C 10.543 14.562 10.418 14.877 10.236 15.167 C 10.054 15.457 9.833 15.707 9.574 15.917 C 9.315 16.127 9.025 16.292 8.704 16.412 C 8.383 16.532 8.049 16.593 7.704 16.593 C 7.358 16.593 7.025 16.532 6.704 16.412 C 6.383 16.292 6.093 16.127 5.833 15.917 C 5.574 15.707 5.353 15.457 5.171 15.167 C 4.989 14.877 4.864 14.562 4.796 14.222 L 1.185 14.222 C 1.019 14.222 0.864 14.191 0.722 14.13 C 0.58 14.068 0.455 13.983 0.347 13.875 C 0.239 13.767 0.154 13.64 0.093 13.495 C 0.031 13.35 0 13.194 0 13.028 C 0 12.898 0.022 12.775 0.065 12.657 C 0.108 12.54 0.167 12.429 0.241 12.324 L 1.778 10.269 L 1.778 5.926 C 1.778 5.105 1.932 4.335 2.241 3.616 C 2.549 2.897 2.972 2.269 3.509 1.731 C 4.046 1.194 4.674 0.772 5.394 0.463 C 6.113 0.154 6.883 0 7.704 0 C 8.031 0 8.364 0.025 8.704 0.074 C 9.043 0.123 9.367 0.21 9.676 0.333 C 9.799 0.383 9.897 0.454 9.968 0.546 C 10.039 0.639 10.074 0.753 10.074 0.889 C 10.074 1.056 10.017 1.198 9.903 1.315 C 9.789 1.432 9.648 1.491 9.481 1.491 C 9.451 1.491 9.418 1.488 9.384 1.481 C 9.35 1.475 9.318 1.466 9.287 1.454 C 9.009 1.367 8.735 1.301 8.463 1.255 C 8.191 1.208 7.907 1.185 7.611 1.185 C 6.969 1.185 6.366 1.313 5.801 1.569 C 5.236 1.826 4.744 2.171 4.324 2.606 C 3.904 3.042 3.573 3.545 3.329 4.116 C 3.085 4.687 2.963 5.29 2.963 5.926 L 2.963 10.472 C 2.963 10.602 2.923 10.719 2.843 10.824 L 1.185 13.037 L 14.222 13.037 L 12.565 10.824 C 12.485 10.725 12.444 10.605 12.444 10.463 L 12.444 7.704 C 12.444 7.543 12.503 7.404 12.62 7.287 C 12.738 7.17 12.877 7.111 13.037 7.111 C 13.198 7.111 13.336 7.17 13.454 7.287 C 13.571 7.404 13.63 7.543 13.63 7.704 L 13.63 10.269 Z M 9.38 14.222 L 6.028 14.222 C 6.09 14.401 6.176 14.563 6.287 14.708 C 6.398 14.853 6.528 14.978 6.676 15.083 C 6.824 15.188 6.985 15.269 7.157 15.324 C 7.33 15.38 7.512 15.407 7.704 15.407 C 7.895 15.407 8.077 15.38 8.25 15.324 C 8.423 15.269 8.583 15.188 8.731 15.083 C 8.88 14.978 9.009 14.853 9.12 14.708 C 9.231 14.563 9.318 14.401 9.38 14.222 Z" style="fill: rgb(255, 204, 0);"/>
  </g>
</svg>