<?xml version="1.0" encoding="utf-8"?>
<svg id="Layer_1" data-name="Layer 1" xmlns="http://www.w3.org/2000/svg" width="24px" height="24px">
  <defs>
    <style>.cls-1{fill-rule:evenodd;}</style>
  </defs>
  <title>fan-blades</title>
  <path class="cls-1" d="M 12.761 14.87 C 12.747 15.039 12.729 15.21 12.701 15.382 C 12.514 16.56 11.946 17.26 11.648 18.286 C 11.291 19.53 12.505 20.064 13.542 19.994 C 14.069 19.948 14.584 19.814 15.068 19.601 C 15.498 19.418 15.908 19.182 16.281 18.9 C 18.901 16.958 18.365 14.325 15.486 12.824 C 15.317 12.734 15.134 12.672 14.947 12.638 C 14.832 13.189 14.56 13.693 14.166 14.089 C 13.782 14.478 13.294 14.747 12.761 14.87 Z M 12.125 9.799 C 13.839 9.799 14.91 11.666 14.054 13.161 C 13.195 14.656 11.054 14.656 10.198 13.161 C 10.001 12.822 9.898 12.433 9.898 12.041 C 9.898 10.802 10.895 9.799 12.125 9.799 Z M 14.945 11.45 C 15.11 11.457 15.274 11.47 15.439 11.489 C 16.618 11.62 17.337 12.168 18.368 12.42 C 19.62 12.729 20.096 11.481 19.984 10.441 C 19.913 9.913 19.757 9.401 19.521 8.925 C 19.321 8.5 19.068 8.1 18.773 7.735 C 16.73 5.18 14.141 5.836 12.777 8.804 C 12.719 8.926 12.674 9.055 12.646 9.189 C 13.218 9.295 13.745 9.575 14.156 9.991 C 14.553 10.39 14.825 10.896 14.937 11.449 L 14.945 11.45 Z M 11.442 9.223 C 11.442 9.013 11.46 8.802 11.482 8.591 C 11.613 7.402 12.15 6.678 12.394 5.641 C 12.705 4.379 11.464 3.902 10.433 4.017 C 9.912 4.09 9.401 4.247 8.927 4.486 C 8.505 4.689 8.109 4.944 7.748 5.243 C 5.22 7.305 5.873 9.911 8.817 11.278 C 8.974 11.351 9.138 11.401 9.307 11.428 C 9.541 10.343 10.37 9.485 11.442 9.223 Z M 9.294 12.577 C 9.048 12.582 8.797 12.569 8.552 12.545 C 7.367 12.43 6.639 11.901 5.605 11.664 C 4.348 11.375 3.891 12.633 4.021 13.67 C 4.101 14.194 4.263 14.704 4.507 15.178 C 4.716 15.599 4.975 15.997 5.278 16.358 C 7.36 18.87 9.938 18.176 11.256 15.19 C 11.304 15.077 11.342 14.959 11.369 14.841 C 10.305 14.549 9.499 13.672 9.294 12.577 Z" style="fill: rgb(92, 97, 108);"/>
</svg>