<?xml version="1.0" encoding="utf-8"?>
<svg xmlns="http://www.w3.org/2000/svg" viewBox="0 0 16 16" width="22px" height="22px">
  <path d="M 4.473 10.316 L 3.125 10.316 C 2.973 10.316 2.828 10.286 2.692 10.227 C 2.555 10.169 2.434 10.088 2.331 9.984 C 2.227 9.881 2.146 9.761 2.088 9.623 C 2.029 9.486 2 9.341 2 9.189 L 2 6.936 C 2 6.784 2.029 6.639 2.088 6.502 C 2.146 6.365 2.227 6.245 2.331 6.142 C 2.434 6.038 2.555 5.957 2.692 5.898 C 2.828 5.84 2.973 5.81 3.125 5.81 L 4.473 5.81 L 6.289 3.986 C 6.344 3.931 6.406 3.89 6.474 3.865 C 6.542 3.84 6.613 3.828 6.688 3.828 C 6.848 3.828 6.982 3.881 7.089 3.986 C 7.196 4.091 7.25 4.224 7.25 4.385 L 7.25 11.741 C 7.25 11.819 7.235 11.891 7.206 11.958 C 7.177 12.024 7.136 12.084 7.083 12.137 C 7.03 12.19 6.97 12.231 6.901 12.26 C 6.833 12.289 6.762 12.305 6.688 12.305 C 6.531 12.305 6.399 12.249 6.289 12.14 L 4.473 10.316 Z M 6.5 11.283 L 6.5 4.836 L 4.889 6.449 C 4.815 6.524 4.726 6.561 4.625 6.561 L 3.125 6.561 C 3.024 6.561 2.935 6.599 2.861 6.673 C 2.787 6.747 2.75 6.835 2.75 6.936 L 2.75 9.189 C 2.75 9.291 2.787 9.379 2.861 9.454 C 2.935 9.527 3.024 9.564 3.125 9.564 L 4.625 9.564 C 4.726 9.564 4.815 9.602 4.889 9.677 L 6.5 11.283 Z" style="fill: rgb(255, 255, 255);"/>
  <path d="M 11.537 8.607 L 9.796 10.347 C 9.716 10.427 9.621 10.467 9.511 10.467 C 9.402 10.467 9.307 10.427 9.226 10.347 C 9.146 10.267 9.106 10.172 9.106 10.062 C 9.106 9.952 9.146 9.858 9.226 9.777 L 10.967 8.037 L 9.226 6.296 C 9.146 6.216 9.106 6.121 9.106 6.011 C 9.106 5.902 9.146 5.807 9.226 5.727 C 9.307 5.646 9.402 5.607 9.511 5.607 C 9.621 5.607 9.716 5.646 9.796 5.727 L 11.537 7.461 L 13.277 5.727 C 13.357 5.646 13.452 5.607 13.562 5.607 C 13.672 5.607 13.766 5.646 13.847 5.727 C 13.927 5.807 13.967 5.902 13.967 6.011 C 13.967 6.121 13.927 6.216 13.847 6.296 L 12.112 8.037 L 13.847 9.777 C 13.927 9.858 13.967 9.952 13.967 10.062 C 13.967 10.172 13.927 10.267 13.847 10.347 C 13.766 10.427 13.672 10.467 13.562 10.467 C 13.452 10.467 13.357 10.427 13.277 10.347 L 11.537 8.607 Z" style="fill: rgb(255, 0, 0);"/>
</svg>