<?xml version="1.0" encoding="utf-8"?>
<svg xmlns="http://www.w3.org/2000/svg" viewBox="0 0 16 16">
  <path d="M 3.752 7.906 C 3.682 7.906 3.622 7.882 3.574 7.833 C 3.525 7.784 3.5 7.725 3.5 7.654 L 3.5 5.704 L 2.305 5.704 C 2.25 5.704 2.205 5.686 2.17 5.65 C 2.135 5.615 2.117 5.57 2.117 5.516 C 2.117 5.5 2.139 5.444 2.182 5.349 C 2.224 5.253 2.282 5.131 2.355 4.983 C 2.427 4.834 2.51 4.666 2.604 4.479 C 2.698 4.291 2.793 4.099 2.891 3.901 C 2.989 3.704 3.086 3.509 3.184 3.316 C 3.281 3.122 3.371 2.945 3.454 2.785 C 3.535 2.625 3.606 2.488 3.664 2.372 C 3.723 2.257 3.762 2.18 3.781 2.141 C 3.801 2.098 3.83 2.064 3.869 2.038 C 3.908 2.013 3.952 2 3.998 2 C 4.069 2 4.128 2.025 4.177 2.074 C 4.225 2.122 4.25 2.182 4.25 2.252 L 4.25 4.204 L 5.446 4.204 C 5.5 4.204 5.545 4.221 5.58 4.256 C 5.615 4.291 5.633 4.336 5.633 4.391 C 5.633 4.422 5.627 4.45 5.615 4.473 L 3.969 7.766 C 3.949 7.809 3.92 7.843 3.881 7.868 C 3.842 7.894 3.799 7.906 3.752 7.906 Z M 12.571 8.521 C 12.281 8.521 12.008 8.57 11.75 8.668 L 11.75 6.079 C 11.75 5.926 11.721 5.782 11.662 5.644 C 11.604 5.508 11.523 5.388 11.419 5.284 C 11.316 5.181 11.195 5.1 11.058 5.041 C 10.922 4.983 10.777 4.954 10.625 4.954 L 6.424 4.954 C 6.522 4.766 6.571 4.574 6.571 4.379 C 6.571 4.348 6.569 4.318 6.568 4.291 C 6.565 4.263 6.562 4.234 6.559 4.204 L 10.666 4.204 C 10.92 4.204 11.158 4.254 11.381 4.356 C 11.604 4.457 11.798 4.594 11.964 4.766 C 12.13 4.938 12.261 5.137 12.357 5.363 C 12.452 5.59 12.5 5.828 12.5 6.079 L 12.5 6.829 L 13.25 6.829 C 13.351 6.829 13.447 6.848 13.537 6.887 C 13.627 6.926 13.707 6.981 13.777 7.051 C 13.848 7.121 13.903 7.201 13.942 7.291 C 13.981 7.381 14 7.477 14 7.579 L 14 8.329 C 14 8.536 13.928 8.711 13.783 8.856 C 13.412 8.633 13.008 8.521 12.571 8.521 Z M 3.834 11.704 C 3.588 11.704 3.354 11.653 3.131 11.554 C 2.908 11.454 2.714 11.321 2.548 11.155 C 2.382 10.99 2.249 10.795 2.149 10.573 C 2.05 10.35 2 10.115 2 9.869 L 2 6.454 L 2.75 6.454 L 2.75 9.829 C 2.75 9.981 2.779 10.125 2.838 10.262 C 2.896 10.399 2.977 10.519 3.081 10.622 C 3.184 10.726 3.305 10.807 3.442 10.865 C 3.578 10.924 3.723 10.954 3.875 10.954 L 7.813 10.954 C 7.825 11.215 7.877 11.465 7.971 11.704 L 3.834 11.704 Z M 8.75 10.848 C 8.75 10.652 8.787 10.47 8.861 10.3 C 8.935 10.13 9.037 9.982 9.166 9.858 C 9.295 9.733 9.445 9.634 9.614 9.562 C 9.784 9.49 9.967 9.454 10.162 9.454 C 10.299 9.454 10.422 9.468 10.531 9.497 C 10.641 9.526 10.742 9.568 10.836 9.62 C 10.93 9.673 11.02 9.737 11.106 9.813 C 11.191 9.89 11.281 9.973 11.375 10.063 C 11.469 9.969 11.557 9.885 11.641 9.81 C 11.725 9.736 11.814 9.673 11.905 9.62 C 11.997 9.568 12.096 9.527 12.204 9.5 C 12.312 9.473 12.433 9.459 12.571 9.459 C 12.766 9.459 12.95 9.496 13.124 9.57 C 13.298 9.645 13.45 9.745 13.579 9.872 C 13.707 9.999 13.81 10.149 13.886 10.321 C 13.962 10.492 14 10.676 14 10.871 C 14 11.254 13.861 11.584 13.584 11.861 L 11.539 13.889 C 11.496 13.932 11.446 13.954 11.387 13.954 C 11.324 13.954 11.272 13.932 11.229 13.889 L 9.172 11.85 C 9.039 11.717 8.935 11.563 8.861 11.39 C 8.787 11.216 8.75 11.035 8.75 10.848 Z" style="fill: rgb(255, 255, 255);"/>
  <path d="M 3.95 10.204 C 3.826 10.204 3.718 10.149 3.631 10.039 C 3.544 9.929 3.5 9.797 3.5 9.641 L 3.5 8.815 C 3.578 8.834 3.649 8.844 3.712 8.844 C 3.889 8.844 4.225 8.779 4.382 8.669 C 4.539 8.559 4.678 8.413 4.781 8.227 L 6.037 5.704 L 9.05 5.704 C 9.175 5.704 9.251 5.776 9.339 5.885 C 9.427 5.994 9.5 6.109 9.5 6.266 L 9.491 8.586 C 9.271 8.484 9.058 8.516 8.829 8.516 C 8.62 8.516 8.419 8.557 8.227 8.639 C 8.035 8.721 7.86 8.836 7.7 8.984 C 7.54 9.133 7.402 9.31 7.288 9.517 C 7.172 9.724 7.084 9.953 7.024 10.204 L 3.95 10.204 Z" style="fill: rgb(255, 255, 255);"/>
  <path d="M 4.063 10.204 C 3.907 10.204 3.773 10.149 3.664 10.039 C 3.555 9.929 3.5 9.797 3.5 9.641 L 3.5 8.815 C 3.598 8.834 3.685 8.844 3.764 8.844 C 3.986 8.844 4.191 8.785 4.376 8.665 C 4.561 8.546 4.705 8.387 4.807 8.188 L 6.048 5.704 L 9.11 5.71 C 9.236 5.716 9.442 5.957 9.47 6.081 C 9.498 6.205 9.498 6.193 9.498 6.35 L 9.492 8.383 C 9.217 8.281 9.676 7.09 9.39 7.09 C 9.129 7.09 9.673 8.547 9.433 8.629 C 9.193 8.711 8.95 8.836 8.75 8.984 C 8.551 9.133 8.378 9.31 8.235 9.517 C 8.09 9.724 7.981 9.953 7.906 10.204 L 4.063 10.204 Z" style="fill: rgb(255, 255, 255);"/>
  <path d="M 4.063 10.204 C 3.907 10.204 3.773 10.149 3.664 10.039 C 3.555 9.929 3.5 9.797 3.5 9.641 L 3.5 8.815 C 3.598 8.834 3.685 8.844 3.764 8.844 C 3.986 8.844 4.191 8.784 4.376 8.665 C 4.561 8.546 4.705 8.387 4.807 8.188 L 6.048 5.704 L 10.438 5.704 C 10.594 5.704 10.726 5.758 10.836 5.867 C 10.945 5.976 11 6.109 11 6.266 L 11 8.668 C 10.726 8.566 10.447 8.516 10.162 8.516 C 9.901 8.516 9.649 8.557 9.409 8.639 C 9.169 8.721 8.95 8.836 8.75 8.984 C 8.551 9.133 8.378 9.31 8.235 9.517 C 8.09 9.724 7.981 9.953 7.906 10.204 L 4.063 10.204 Z" style="fill-opacity: 0.5; fill: rgb(255, 255, 255);"/>
</svg>