<?xml version="1.0" encoding="utf-8"?>
<svg xmlns="http://www.w3.org/2000/svg" viewBox="0 0 16 16">
  <path d="M 3.752 9.206 C 3.682 9.206 3.622 9.182 3.574 9.133 C 3.525 9.084 3.5 9.025 3.5 8.954 L 3.5 7.004 L 2.305 7.004 C 2.25 7.004 2.205 6.986 2.17 6.95 C 2.135 6.915 2.117 6.87 2.117 6.816 C 2.117 6.8 2.139 6.744 2.182 6.649 C 2.224 6.553 2.282 6.431 2.355 6.283 C 2.427 6.134 2.51 5.966 2.604 5.779 C 2.698 5.591 2.793 5.399 2.891 5.201 C 2.989 5.004 3.086 4.809 3.184 4.616 C 3.281 4.422 3.371 4.245 3.454 4.085 C 3.535 3.925 3.606 3.788 3.664 3.672 C 3.723 3.557 3.762 3.48 3.781 3.441 C 3.801 3.398 3.83 3.364 3.869 3.338 C 3.908 3.313 3.952 3.3 3.998 3.3 C 4.069 3.3 4.128 3.325 4.177 3.374 C 4.225 3.422 4.25 3.482 4.25 3.552 L 4.25 5.504 L 5.446 5.504 C 5.5 5.504 5.545 5.521 5.58 5.556 C 5.615 5.591 5.633 5.636 5.633 5.691 C 5.633 5.722 5.627 5.75 5.615 5.773 L 3.969 9.066 C 3.949 9.109 3.92 9.143 3.881 9.168 C 3.842 9.194 3.799 9.206 3.752 9.206 Z M 3.834 13.004 C 3.588 13.004 3.354 12.953 3.131 12.854 C 2.908 12.754 2.714 12.621 2.548 12.455 C 2.382 12.29 2.249 12.095 2.149 11.873 C 2.05 11.65 2 11.415 2 11.169 L 2 7.754 L 2.75 7.754 L 2.75 11.129 C 2.75 11.281 2.779 11.425 2.838 11.562 C 2.896 11.699 2.977 11.819 3.081 11.922 C 3.184 12.026 3.305 12.107 3.442 12.165 C 3.578 12.224 3.723 12.254 3.875 12.254 L 10.625 12.254 C 10.777 12.254 10.922 12.224 11.058 12.165 C 11.195 12.107 11.316 12.026 11.419 11.922 C 11.523 11.819 11.604 11.699 11.662 11.562 C 11.721 11.425 11.75 11.281 11.75 11.129 L 11.75 7.379 C 11.75 7.226 11.721 7.082 11.662 6.944 C 11.604 6.808 11.523 6.688 11.419 6.584 C 11.316 6.481 11.195 6.4 11.058 6.341 C 10.922 6.283 10.777 6.254 10.625 6.254 L 6.424 6.254 C 6.522 6.066 6.571 5.874 6.571 5.679 C 6.571 5.648 6.569 5.618 6.568 5.591 C 6.565 5.563 6.562 5.534 6.559 5.504 L 10.666 5.504 C 10.916 5.504 11.152 5.553 11.372 5.653 C 11.593 5.753 11.786 5.885 11.953 6.051 C 12.118 6.217 12.25 6.411 12.348 6.634 C 12.445 6.857 12.496 7.091 12.5 7.337 L 12.5 8.129 L 13.25 8.129 C 13.351 8.129 13.447 8.148 13.537 8.187 C 13.627 8.226 13.707 8.281 13.777 8.351 C 13.848 8.421 13.903 8.501 13.942 8.591 C 13.981 8.681 14 8.777 14 8.879 L 14 9.629 C 14 9.836 13.926 10.013 13.777 10.161 C 13.633 10.306 13.457 10.379 13.25 10.379 L 12.5 10.379 L 12.5 11.169 C 12.5 11.415 12.451 11.65 12.351 11.873 C 12.251 12.095 12.118 12.29 11.953 12.455 C 11.786 12.621 11.592 12.754 11.369 12.854 C 11.146 12.953 10.912 13.004 10.666 13.004 L 3.834 13.004 Z" style="fill: rgb(255, 255, 255);"/>
  <path d="M 4.063 11.504 C 3.907 11.504 3.774 11.449 3.664 11.339 C 3.555 11.23 3.5 11.097 3.5 10.941 L 3.5 10.115 C 3.598 10.134 3.685 10.144 3.764 10.144 C 3.986 10.144 4.191 10.084 4.376 9.965 C 4.561 9.846 4.705 9.687 4.807 9.488 L 5.76 7.575 L 5.711 7.826 C 5.867 7.826 5.611 8.086 5.72 8.195 C 5.83 8.305 5.667 8.691 5.667 8.848 L 5.728 10.034 C 5.728 10.19 5.806 10.613 5.696 10.723 C 5.587 10.832 5.659 11.504 5.503 11.504 L 4.063 11.504 Z" style="fill: rgb(255, 255, 255);"/>
  <path d="M 4.001 11.504 C 3.955 11.504 3.658 11.389 3.625 11.279 C 3.592 11.17 3.5 11.097 3.5 10.941 L 3.5 10.115 C 3.529 10.134 3.556 10.144 3.58 10.144 C 3.646 10.144 4.063 10.305 4.118 10.186 C 4.174 10.067 4.652 9.932 4.683 9.733 L 5.25 8.603 C 5.25 8.603 5.68 7.748 5.764 7.566 L 5.75 10.941 C 5.75 11.097 5.734 11.23 5.701 11.339 C 5.668 11.449 5.628 11.504 5.581 11.504 L 4.001 11.504 Z" style="fill: rgb(255, 255, 255);"/>
  <path d="M 4.063 11.504 C 3.907 11.504 3.774 11.449 3.664 11.339 C 3.555 11.23 3.5 11.097 3.5 10.941 L 3.5 10.115 C 3.598 10.134 3.685 10.144 3.764 10.144 C 3.986 10.144 4.191 10.084 4.376 9.965 C 4.561 9.846 4.705 9.687 4.807 9.488 L 6.048 7.004 L 10.438 7.004 C 10.594 7.004 10.726 7.058 10.836 7.167 C 10.945 7.276 11 7.409 11 7.566 L 11 10.941 C 11 11.097 10.945 11.23 10.836 11.339 C 10.726 11.449 10.594 11.504 10.438 11.504 L 4.063 11.504 Z" style="fill-opacity: 0.5; fill: rgb(255, 255, 255);"/>
</svg>