<?xml version="1.0" encoding="utf-8"?>
<svg xmlns="http://www.w3.org/2000/svg" viewBox="0 0 16 16" width="22px" height="22px">
  <path d="M 8.75 10.878 C 8.75 11.34 8.66 11.778 8.486 12.186 C 8.306 12.6 8.066 12.954 7.76 13.26 C 7.454 13.566 7.1 13.806 6.686 13.986 C 6.278 14.16 5.84 14.25 5.378 14.25 C 4.904 14.25 4.466 14.16 4.058 13.986 C 3.644 13.812 3.29 13.572 2.984 13.266 C 2.678 12.96 2.438 12.606 2.264 12.192 C 2.09 11.784 2 11.346 2 10.878 C 2 10.41 2.09 9.972 2.264 9.564 C 2.444 9.15 2.684 8.796 2.99 8.49 C 3.296 8.184 3.65 7.944 4.064 7.764 C 4.472 7.59 4.91 7.5 5.378 7.5 C 5.684 7.5 5.984 7.542 6.266 7.62 C 6.554 7.698 6.824 7.812 7.076 7.962 C 7.322 8.106 7.556 8.286 7.76 8.49 C 7.97 8.7 8.144 8.928 8.288 9.174 C 8.438 9.426 8.552 9.696 8.63 9.984 C 8.708 10.266 8.75 10.566 8.75 10.878 Z M 5.942 10.878 L 7.16 9.66 C 7.238 9.582 7.28 9.486 7.28 9.378 C 7.28 9.264 7.238 9.168 7.16 9.09 C 7.082 9.012 6.986 8.97 6.878 8.97 C 6.764 8.97 6.668 9.012 6.59 9.09 L 5.378 10.308 L 4.16 9.09 C 4.082 9.012 3.986 8.97 3.878 8.97 C 3.764 8.97 3.668 9.012 3.59 9.09 C 3.512 9.168 3.47 9.264 3.47 9.378 C 3.47 9.426 3.482 9.48 3.506 9.528 C 3.524 9.582 3.554 9.63 3.59 9.66 L 4.808 10.878 L 3.59 12.09 C 3.512 12.168 3.47 12.264 3.47 12.378 C 3.47 12.486 3.512 12.582 3.59 12.66 C 3.668 12.738 3.764 12.78 3.878 12.78 C 3.986 12.78 4.082 12.738 4.16 12.66 L 5.378 11.442 L 6.59 12.66 C 6.626 12.696 6.668 12.726 6.722 12.75 C 6.77 12.768 6.824 12.78 6.878 12.78 C 6.986 12.78 7.082 12.738 7.16 12.66 C 7.238 12.582 7.28 12.486 7.28 12.378 C 7.28 12.264 7.238 12.168 7.16 12.09 L 5.942 10.878 Z" style="fill: rgb(255, 0, 0);"/>
  <path d="M 14 8.628 C 14 8.832 13.928 9.012 13.778 9.156 C 13.634 9.306 13.46 9.378 13.25 9.378 L 12.5 9.378 L 12.5 10.164 C 12.5 10.41 12.452 10.644 12.35 10.872 C 12.254 11.094 12.116 11.286 11.954 11.454 C 11.786 11.616 11.594 11.754 11.372 11.85 C 11.144 11.952 10.91 12 10.664 12 L 9.542 12 C 9.578 11.874 9.602 11.748 9.626 11.628 C 9.644 11.502 9.656 11.376 9.668 11.25 L 10.628 11.25 C 10.778 11.25 10.922 11.22 11.06 11.16 C 11.198 11.106 11.318 11.022 11.42 10.92 C 11.522 10.818 11.606 10.692 11.66 10.56 C 11.72 10.422 11.75 10.278 11.75 10.128 L 11.75 6.378 C 11.75 6.222 11.72 6.078 11.66 5.94 C 11.606 5.808 11.522 5.682 11.42 5.58 C 11.318 5.478 11.198 5.394 11.06 5.34 C 10.922 5.28 10.778 5.25 10.628 5.25 L 3.878 5.25 C 3.722 5.25 3.578 5.28 3.44 5.34 C 3.308 5.394 3.182 5.478 3.08 5.58 C 2.978 5.682 2.894 5.808 2.84 5.94 C 2.78 6.078 2.75 6.222 2.75 6.378 L 2.75 7.452 C 2.612 7.56 2.474 7.674 2.354 7.8 C 2.228 7.926 2.108 8.058 2 8.19 L 2 6.336 C 2 6.09 2.048 5.856 2.15 5.634 C 2.252 5.406 2.384 5.214 2.546 5.046 C 2.714 4.884 2.906 4.752 3.134 4.65 C 3.356 4.548 3.59 4.5 3.836 4.5 L 10.664 4.5 C 10.916 4.5 11.15 4.548 11.372 4.65 C 11.594 4.752 11.786 4.884 11.954 5.046 C 12.116 5.214 12.248 5.406 12.35 5.634 C 12.446 5.856 12.494 6.09 12.5 6.336 L 12.5 7.128 L 13.25 7.128 C 13.352 7.128 13.448 7.146 13.538 7.182 C 13.628 7.224 13.706 7.278 13.778 7.35 C 13.85 7.416 13.904 7.5 13.94 7.59 C 13.982 7.68 14 7.776 14 7.878 L 14 8.628 Z" style="fill: rgb(255, 255, 255);"/>
</svg>