<?xml version="1.0" encoding="utf-8"?>
<svg viewBox="0 0 16 16" xmlns="http://www.w3.org/2000/svg" width="22px" height="22px">
  <g transform="matrix(0.75, 0, 0, 0.75, 2, 2.25)">
    <path d="M 16 8.5 C 16 8.776 15.901 9.013 15.703 9.211 C 15.51 9.404 15.276 9.5 15 9.5 L 14 9.5 L 14 10.555 C 14 10.883 13.934 11.195 13.801 11.492 C 13.668 11.789 13.491 12.048 13.27 12.27 C 13.048 12.491 12.789 12.668 12.492 12.801 C 12.195 12.934 11.883 13 11.555 13 L 2.445 13 C 2.117 13 1.805 12.934 1.508 12.801 C 1.211 12.668 0.952 12.491 0.73 12.27 C 0.509 12.048 0.332 11.789 0.199 11.492 C 0.066 11.195 0 10.883 0 10.555 L 0 5.445 C 0 5.117 0.066 4.805 0.199 4.508 C 0.332 4.211 0.509 3.952 0.73 3.73 C 0.952 3.509 1.211 3.332 1.508 3.199 C 1.805 3.066 2.117 3 2.445 3 L 11.555 3 C 11.888 3 12.202 3.065 12.496 3.195 C 12.79 3.326 13.047 3.503 13.266 3.727 C 13.484 3.951 13.659 4.211 13.789 4.508 C 13.919 4.805 13.99 5.117 14 5.445 L 14 6.5 L 15 6.5 C 15.135 6.5 15.263 6.526 15.383 6.578 C 15.503 6.63 15.609 6.703 15.703 6.797 C 15.797 6.891 15.87 6.997 15.922 7.117 C 15.974 7.237 16 7.365 16 7.5 L 16 8.5 Z M 13 5.5 C 13 5.297 12.961 5.104 12.883 4.922 C 12.805 4.74 12.697 4.579 12.559 4.441 C 12.421 4.303 12.26 4.195 12.078 4.117 C 11.896 4.039 11.703 4 11.5 4 L 2.5 4 C 2.297 4 2.104 4.039 1.922 4.117 C 1.74 4.195 1.579 4.303 1.441 4.441 C 1.303 4.579 1.195 4.74 1.117 4.922 C 1.039 5.104 1 5.297 1 5.5 L 1 10.5 C 1 10.703 1.039 10.896 1.117 11.078 C 1.195 11.26 1.303 11.421 1.441 11.559 C 1.579 11.697 1.74 11.805 1.922 11.883 C 2.104 11.961 2.297 12 2.5 12 L 11.5 12 C 11.703 12 11.896 11.961 12.078 11.883 C 12.26 11.805 12.421 11.697 12.559 11.559 C 12.697 11.421 12.805 11.26 12.883 11.078 C 12.961 10.896 13 10.703 13 10.5 L 13 5.5 Z" style="fill: rgb(255, 255, 255);"/>
    <path d="M 11.25 5 C 11.458 5 11.635 5.073 11.781 5.219 C 11.927 5.365 12 5.542 12 5.75 L 12 10.25 C 12 10.458 11.927 10.635 11.781 10.781 C 11.635 10.927 11.458 11 11.25 11 L 2.75 11 C 2.542 11 2.365 10.927 2.219 10.781 C 2.073 10.635 2 10.458 2 10.25 L 2 5.75 C 2 5.542 2.073 5.365 2.219 5.219 C 2.365 5.073 2.542 5 2.75 5 L 11.25 5 Z" style="fill-opacity: 0.5; pointer-events: none; fill: rgb(255, 255, 255);"/>
    <path d="M 7.55 5 C 7.674 5 7.781 5.073 7.869 5.219 C 7.955 5.365 8 5.542 8 5.75 L 8 10.25 C 8 10.458 7.955 10.635 7.869 10.781 C 7.781 10.927 7.674 11 7.55 11 L 2.45 11 C 2.326 11 2.219 10.927 2.131 10.781 C 2.045 10.635 2 10.458 2 10.25 L 2 5.75 C 2 5.542 2.045 5.365 2.131 5.219 C 2.219 5.073 2.326 5 2.45 5 L 7.55 5 Z" style="fill: rgb(255, 255, 255);"/>
  </g>
</svg>