<?xml version="1.0" encoding="utf-8"?>
<svg xmlns="http://www.w3.org/2000/svg" viewBox="0 0 16 16" width="22px" height="22px">
  <path d="M 14 8 C 14 8.551 13.929 9.082 13.786 9.593 C 13.643 10.105 13.441 10.583 13.18 11.027 C 12.918 11.47 12.605 11.874 12.239 12.239 C 11.874 12.605 11.47 12.918 11.027 13.18 C 10.583 13.441 10.105 13.643 9.593 13.786 C 9.082 13.929 8.551 14 8 14 C 7.449 14 6.918 13.929 6.407 13.786 C 5.895 13.643 5.417 13.441 4.973 13.18 C 4.53 12.918 4.126 12.605 3.761 12.239 C 3.395 11.874 3.082 11.47 2.82 11.027 C 2.559 10.583 2.357 10.105 2.214 9.593 C 2.071 9.082 2 8.551 2 8 C 2 7.449 2.071 6.918 2.214 6.407 C 2.357 5.895 2.559 5.417 2.82 4.973 C 3.082 4.53 3.395 4.126 3.761 3.761 C 4.126 3.395 4.53 3.082 4.973 2.82 C 5.417 2.559 5.895 2.357 6.407 2.214 C 6.918 2.071 7.449 2 8 2 C 8.551 2 9.082 2.071 9.593 2.214 C 10.105 2.357 10.583 2.559 11.027 2.82 C 11.47 3.082 11.874 3.395 12.239 3.761 C 12.605 4.126 12.918 4.53 13.18 4.973 C 13.441 5.417 13.643 5.895 13.786 6.407 C 13.929 6.918 14 7.449 14 8 Z M 4.109 11.521 C 4.36 11.799 4.633 12.045 4.93 12.26 C 5.226 12.474 5.541 12.655 5.873 12.802 C 6.205 12.948 6.55 13.06 6.907 13.136 C 7.265 13.212 7.629 13.25 8 13.25 C 8.489 13.25 8.968 13.184 9.438 13.051 C 9.909 12.918 10.351 12.723 10.766 12.465 C 10.687 12.39 10.612 12.309 10.537 12.219 C 10.463 12.129 10.397 12.035 10.341 11.938 C 10.284 11.84 10.239 11.737 10.206 11.63 C 10.173 11.523 10.157 11.412 10.157 11.299 C 10.157 11.135 10.188 10.981 10.253 10.839 C 10.318 10.697 10.398 10.565 10.496 10.446 C 10.594 10.327 10.7 10.216 10.816 10.112 C 10.931 10.009 11.037 9.911 11.135 9.82 C 11.232 9.727 11.314 9.641 11.378 9.558 C 11.442 9.477 11.475 9.396 11.475 9.318 C 11.475 9.248 11.444 9.186 11.384 9.134 C 11.323 9.081 11.26 9.054 11.194 9.054 C 11.119 9.054 11.046 9.071 10.973 9.105 C 10.901 9.137 10.83 9.175 10.76 9.215 C 10.69 9.257 10.619 9.294 10.549 9.327 C 10.479 9.36 10.41 9.377 10.343 9.377 C 10.215 9.377 10.111 9.339 10.033 9.263 C 9.955 9.186 9.902 9.088 9.875 8.967 C 9.856 8.881 9.839 8.776 9.825 8.651 C 9.811 8.525 9.795 8.399 9.775 8.269 C 9.756 8.141 9.733 8.018 9.708 7.901 C 9.683 7.783 9.65 7.69 9.611 7.619 C 9.498 7.416 9.368 7.226 9.221 7.048 C 9.075 6.87 8.939 6.683 8.814 6.488 C 8.771 6.418 8.739 6.353 8.717 6.292 C 8.696 6.232 8.686 6.161 8.686 6.078 C 8.686 5.965 8.71 5.861 8.759 5.768 C 8.807 5.674 8.873 5.588 8.955 5.51 C 9.065 5.408 9.176 5.309 9.289 5.211 C 9.402 5.113 9.514 5.014 9.623 4.912 C 9.845 4.705 10.06 4.493 10.265 4.273 C 10.469 4.055 10.672 3.832 10.871 3.605 C 10.445 3.328 9.989 3.116 9.5 2.969 C 9.011 2.823 8.512 2.75 8 2.75 L 7.909 2.75 C 7.88 2.75 7.85 2.752 7.818 2.756 C 7.885 2.873 7.949 3.01 8.012 3.166 C 8.075 3.323 8.13 3.484 8.178 3.649 C 8.227 3.815 8.267 3.982 8.296 4.147 C 8.325 4.313 8.339 4.463 8.339 4.595 C 8.339 4.78 8.315 4.96 8.267 5.138 C 8.218 5.315 8.142 5.481 8.041 5.633 C 7.951 5.765 7.857 5.875 7.757 5.961 C 7.657 6.047 7.549 6.119 7.432 6.178 C 7.314 6.236 7.191 6.284 7.06 6.322 C 6.929 6.359 6.789 6.39 6.641 6.418 C 6.551 6.437 6.462 6.467 6.374 6.506 C 6.286 6.545 6.217 6.605 6.166 6.688 C 6.131 6.743 6.107 6.803 6.095 6.869 C 6.084 6.935 6.078 7.002 6.078 7.068 C 6.078 7.193 6.095 7.315 6.128 7.434 C 6.161 7.553 6.197 7.672 6.236 7.789 C 6.275 7.907 6.311 8.023 6.345 8.141 C 6.378 8.258 6.395 8.379 6.395 8.504 C 6.395 8.703 6.353 8.868 6.269 8.999 C 6.185 9.13 6.077 9.238 5.944 9.322 C 5.811 9.405 5.662 9.472 5.498 9.521 C 5.334 9.569 5.172 9.611 5.012 9.647 C 4.942 9.662 4.869 9.683 4.795 9.708 C 4.721 9.733 4.651 9.767 4.587 9.808 C 4.523 9.849 4.466 9.898 4.417 9.954 C 4.368 10.011 4.338 10.08 4.326 10.162 L 4.109 11.521 Z M 2.75 8 C 2.75 8.472 2.813 8.935 2.938 9.389 C 3.063 9.842 3.244 10.271 3.482 10.678 C 3.502 10.568 3.52 10.459 3.535 10.349 C 3.551 10.241 3.569 10.131 3.588 10.021 C 3.619 9.857 3.676 9.714 3.758 9.591 C 3.839 9.467 3.94 9.36 4.056 9.269 C 4.174 9.177 4.304 9.101 4.446 9.043 C 4.589 8.984 4.736 8.939 4.889 8.909 C 4.939 8.897 5.008 8.883 5.093 8.867 C 5.18 8.851 5.264 8.828 5.345 8.797 C 5.428 8.765 5.498 8.727 5.556 8.68 C 5.615 8.633 5.645 8.574 5.645 8.504 C 5.645 8.453 5.637 8.395 5.621 8.331 C 5.605 8.267 5.588 8.202 5.568 8.138 C 5.549 8.073 5.527 8.009 5.504 7.947 C 5.481 7.885 5.461 7.828 5.446 7.777 C 5.367 7.543 5.328 7.307 5.328 7.068 C 5.328 6.674 5.435 6.361 5.651 6.131 C 5.865 5.9 6.161 5.748 6.535 5.674 C 6.695 5.643 6.841 5.603 6.971 5.554 C 7.103 5.505 7.214 5.44 7.306 5.357 C 7.397 5.275 7.468 5.173 7.517 5.05 C 7.565 4.927 7.589 4.774 7.589 4.589 C 7.589 4.496 7.579 4.39 7.558 4.271 C 7.536 4.151 7.509 4.031 7.475 3.907 C 7.442 3.785 7.404 3.666 7.361 3.553 C 7.319 3.439 7.276 3.34 7.232 3.254 C 7.197 3.184 7.158 3.115 7.115 3.049 C 7.073 2.982 7.033 2.914 6.998 2.843 C 6.381 2.965 5.813 3.184 5.296 3.5 C 4.778 3.816 4.33 4.203 3.951 4.661 C 3.572 5.117 3.277 5.631 3.066 6.201 C 2.855 6.772 2.75 7.371 2.75 8 Z M 13.25 8 C 13.25 7.625 13.211 7.256 13.133 6.893 C 13.055 6.529 12.94 6.179 12.787 5.841 C 12.635 5.503 12.449 5.183 12.227 4.883 C 12.007 4.582 11.754 4.308 11.469 4.062 C 11.304 4.25 11.142 4.431 10.982 4.605 C 10.823 4.778 10.659 4.949 10.493 5.114 C 10.327 5.28 10.157 5.443 9.983 5.603 C 9.809 5.764 9.627 5.924 9.436 6.084 C 9.502 6.162 9.564 6.243 9.623 6.327 C 9.682 6.411 9.74 6.494 9.799 6.576 C 9.947 6.783 10.063 6.951 10.147 7.08 C 10.231 7.209 10.298 7.334 10.347 7.455 C 10.396 7.577 10.434 7.713 10.464 7.865 C 10.493 8.018 10.528 8.219 10.566 8.469 C 10.668 8.422 10.775 8.383 10.886 8.351 C 10.997 8.321 11.11 8.304 11.223 8.304 C 11.356 8.304 11.483 8.332 11.603 8.387 C 11.724 8.441 11.832 8.516 11.926 8.609 C 12.019 8.703 12.094 8.811 12.149 8.932 C 12.203 9.053 12.231 9.179 12.231 9.312 C 12.231 9.465 12.198 9.606 12.134 9.737 C 12.07 9.869 11.987 9.991 11.888 10.107 C 11.788 10.222 11.681 10.331 11.568 10.434 C 11.455 10.538 11.349 10.637 11.249 10.733 C 11.149 10.829 11.068 10.924 11.003 11.018 C 10.938 11.111 10.907 11.207 10.907 11.304 C 10.907 11.371 10.923 11.437 10.956 11.504 C 10.989 11.57 11.029 11.635 11.076 11.697 C 11.123 11.759 11.174 11.819 11.229 11.873 C 11.283 11.927 11.334 11.975 11.381 12.014 C 11.678 11.764 11.941 11.486 12.172 11.182 C 12.402 10.877 12.598 10.553 12.758 10.212 C 12.918 9.87 13.04 9.514 13.124 9.143 C 13.208 8.771 13.25 8.391 13.25 8 Z" style="fill: rgb(255, 255, 255);"/>
</svg>