<?xml version="1.0" encoding="utf-8"?>
<svg viewBox="0 0 16 16" xmlns="http://www.w3.org/2000/svg">
  <path d="M 0 6.507 C 0 6.407 0.029 6.314 0.086 6.225 C 0.498 5.568 0.998 4.978 1.584 4.457 C 2.171 3.935 2.811 3.492 3.505 3.127 C 4.199 2.762 4.928 2.482 5.692 2.289 C 6.456 2.096 7.224 2 7.996 2 C 8.768 2 9.536 2.096 10.3 2.289 C 11.064 2.482 11.792 2.762 12.483 3.127 C 13.174 3.492 13.813 3.935 14.4 4.457 C 14.987 4.978 15.489 5.568 15.906 6.225 C 15.963 6.314 15.992 6.407 15.992 6.507 C 15.992 6.642 15.943 6.76 15.844 6.859 C 15.744 6.958 15.627 7.007 15.491 7.007 C 15.387 7.007 15.308 6.989 15.253 6.953 C 15.198 6.916 15.139 6.861 15.077 6.788 C 14.905 6.58 14.743 6.37 14.592 6.158 C 14.44 5.947 14.268 5.745 14.075 5.552 C 13.674 5.145 13.238 4.783 12.769 4.465 C 12.299 4.146 11.806 3.879 11.29 3.663 C 10.774 3.446 10.239 3.282 9.686 3.17 C 9.133 3.058 8.57 3.001 7.996 3.001 C 7.422 3.001 6.859 3.058 6.306 3.17 C 5.753 3.282 5.219 3.446 4.702 3.663 C 4.186 3.879 3.694 4.146 3.227 4.465 C 2.761 4.783 2.324 5.145 1.917 5.552 C 1.792 5.677 1.67 5.806 1.553 5.939 C 1.436 6.072 1.325 6.212 1.221 6.358 C 1.168 6.431 1.119 6.504 1.072 6.577 C 1.025 6.65 0.973 6.72 0.915 6.788 C 0.858 6.856 0.797 6.91 0.732 6.949 C 0.666 6.988 0.589 7.007 0.501 7.007 C 0.365 7.007 0.248 6.958 0.149 6.859 C 0.05 6.76 0 6.642 0 6.507 Z M 2.292 8.51 C 2.292 8.426 2.313 8.343 2.355 8.259 C 2.621 7.758 2.96 7.307 3.372 6.906 C 3.784 6.504 4.239 6.162 4.737 5.881 C 5.236 5.599 5.764 5.383 6.322 5.231 C 6.88 5.08 7.438 5.004 7.996 5.004 C 8.612 5.004 9.214 5.089 9.803 5.259 C 10.393 5.428 10.948 5.677 11.47 6.006 C 11.24 6.011 11.017 6.053 10.801 6.131 C 10.584 6.209 10.388 6.321 10.21 6.467 C 9.506 6.16 8.768 6.006 7.996 6.006 C 7.605 6.006 7.219 6.048 6.838 6.131 C 6.457 6.215 6.09 6.336 5.735 6.495 C 5.38 6.654 5.045 6.848 4.73 7.078 C 4.414 7.307 4.128 7.568 3.873 7.86 C 3.748 8.001 3.637 8.15 3.54 8.306 C 3.444 8.463 3.338 8.614 3.223 8.76 C 3.161 8.838 3.101 8.899 3.044 8.944 C 2.986 8.988 2.903 9.01 2.793 9.01 C 2.658 9.01 2.54 8.961 2.441 8.862 C 2.342 8.762 2.292 8.645 2.292 8.51 Z M 4.327 10.505 C 4.327 10.432 4.342 10.364 4.374 10.301 C 4.53 9.957 4.736 9.643 4.992 9.358 C 5.247 9.074 5.535 8.833 5.856 8.635 C 6.177 8.437 6.52 8.283 6.885 8.173 C 7.25 8.064 7.621 8.009 7.996 8.009 C 8.403 8.009 8.794 8.066 9.17 8.181 L 8.716 9.096 C 8.471 9.039 8.231 9.01 7.996 9.01 C 7.521 9.01 7.086 9.108 6.689 9.304 C 6.293 9.499 5.946 9.785 5.649 10.16 C 5.576 10.249 5.511 10.34 5.453 10.434 C 5.396 10.528 5.339 10.625 5.281 10.724 C 5.229 10.812 5.166 10.883 5.093 10.935 C 5.02 10.987 4.932 11.013 4.827 11.013 C 4.692 11.013 4.574 10.962 4.475 10.861 C 4.376 10.759 4.327 10.64 4.327 10.505 Z M 6.932 12.672 C 6.807 12.479 6.744 12.26 6.744 12.015 C 6.744 11.858 6.774 11.707 6.834 11.561 C 6.894 11.415 6.975 11.286 7.077 11.174 C 7.178 11.061 7.298 10.969 7.437 10.896 C 7.575 10.823 7.722 10.781 7.879 10.771 L 6.932 12.672 Z" style="fill: rgb(255, 255, 255); fill-opacity: 0.5;"/>
  <path d="M 7.996 16.021 C 7.86 16.021 7.733 15.993 7.613 15.938 C 7.493 15.884 7.387 15.811 7.296 15.719 C 7.205 15.628 7.132 15.522 7.077 15.402 C 7.022 15.283 6.995 15.155 6.995 15.019 C 6.995 14.857 7.029 14.709 7.096 14.573 L 10.601 7.563 C 10.69 7.391 10.813 7.255 10.969 7.156 C 11.126 7.057 11.303 7.007 11.501 7.007 C 11.699 7.007 11.875 7.056 12.029 7.152 C 12.183 7.249 12.305 7.385 12.393 7.563 L 15.898 14.573 C 15.966 14.709 16 14.857 16 15.019 C 16 15.155 15.973 15.283 15.918 15.402 C 15.863 15.522 15.79 15.628 15.699 15.719 C 15.607 15.811 15.502 15.884 15.382 15.938 C 15.262 15.993 15.134 16.021 14.999 16.021 L 7.996 16.021 Z M 11.994 12.515 L 11.994 9.503 C 11.994 9.368 11.945 9.25 11.845 9.151 C 11.746 9.052 11.629 9.002 11.493 9.002 C 11.358 9.002 11.24 9.052 11.141 9.151 C 11.042 9.25 10.993 9.368 10.993 9.503 L 10.993 12.515 C 10.993 12.651 11.042 12.768 11.141 12.867 C 11.24 12.967 11.358 13.016 11.493 13.016 C 11.629 13.016 11.746 12.967 11.845 12.867 C 11.945 12.768 11.994 12.651 11.994 12.515 Z M 11.994 14.518 C 11.994 14.378 11.946 14.259 11.849 14.162 C 11.753 14.066 11.634 14.018 11.493 14.018 C 11.358 14.018 11.24 14.067 11.141 14.166 C 11.042 14.265 10.993 14.383 10.993 14.518 C 10.993 14.654 11.042 14.771 11.141 14.87 C 11.24 14.97 11.358 15.019 11.493 15.019 C 11.629 15.019 11.746 14.97 11.845 14.87 C 11.945 14.771 11.994 14.654 11.994 14.518 Z" style="fill: rgb(255, 204, 0);"/>
</svg>