<?xml version="1.0" encoding="utf-8"?>
<svg width="24" height="24" xmlns="http://www.w3.org/2000/svg" version="1.1">
  <defs>
    <style id="current-color-scheme" type="text/css">.ColorScheme-Text { color:#eeeeec; } .ColorScheme-Highlight { color:#367bf0; } .ColorScheme-NeutralText { color:#ffcc44; } .ColorScheme-PositiveText { color:#3db47e; } .ColorScheme-NegativeText { color:#dd4747; }</style>
    <style class="darkreader darkreader--sync" media="screen"/>
  </defs>
  <g class="layer" transform="matrix(1, 0, 0, 1, 0.000002, 13.000011)">
    <title>Layer 1</title>
    <g id="svg_1" transform="translate(-1) translate(-1) translate(1) translate(0.6) translate(0, 0.1) translate(-12.9, -11.9) translate(14.1, 11) matrix(1, 0, 0, 1, -164.8, -582.56)">
      <path class="ColorScheme-Text" d="m169,585.36c-1.11,0 -2,0.91 -2,2.03l0,0.97l-1,0l0,4l6,0l0,-4l-1,0l0,-0.97c0,-1.12 -0.89,-2.03 -2,-2.03zm0,1c0.55,0 1,0.44 1,1l0,1l-2,0l0,-1c0,-0.56 0.45,-1 1,-1z" fill="currentColor" id="svg_2" style="--darkreader-inline-fill: currentColor;"/>
    </g>
  </g>
</svg>