<?xml version="1.0" encoding="utf-8"?>
<svg viewBox="0 0 16 16" xmlns="http://www.w3.org/2000/svg" width="22px" height="22px">
  <path d="M 5.909 11.06 L 4.399 11.06 C 4.213 11.06 4.036 11.022 3.867 10.946 C 3.698 10.87 3.549 10.767 3.421 10.639 C 3.293 10.511 3.19 10.362 3.114 10.193 C 3.038 10.024 3 9.847 3 9.661 L 3 3.899 C 3 3.713 3.038 3.536 3.114 3.367 C 3.19 3.198 3.293 3.049 3.421 2.921 C 3.549 2.793 3.698 2.69 3.867 2.614 C 4.036 2.538 4.213 2.5 4.399 2.5 L 11.588 2.5 C 11.774 2.5 11.951 2.538 12.12 2.614 C 12.289 2.69 12.438 2.793 12.566 2.921 C 12.694 3.049 12.796 3.198 12.872 3.367 C 12.949 3.536 12.987 3.713 12.987 3.899 L 12.987 9.661 C 12.987 9.854 12.948 10.036 12.87 10.205 C 12.792 10.374 12.688 10.521 12.558 10.648 C 12.428 10.774 12.276 10.874 12.103 10.949 C 11.931 11.023 11.749 11.06 11.56 11.06 L 10.078 11.06 L 8.261 13.083 C 8.19 13.161 8.101 13.2 7.993 13.2 C 7.886 13.2 7.796 13.161 7.726 13.083 L 5.909 11.06 Z M 11.203 6.067 C 11.3 6.067 11.384 6.031 11.454 5.961 C 11.525 5.89 11.56 5.807 11.56 5.71 C 11.56 5.613 11.525 5.53 11.454 5.459 C 11.384 5.389 11.3 5.353 11.203 5.353 L 4.783 5.353 C 4.687 5.353 4.603 5.389 4.533 5.459 C 4.462 5.53 4.427 5.613 4.427 5.71 C 4.427 5.807 4.462 5.89 4.533 5.961 C 4.603 6.031 4.687 6.067 4.783 6.067 L 11.203 6.067 Z M 11.203 8.207 C 11.3 8.207 11.384 8.171 11.454 8.101 C 11.525 8.03 11.56 7.947 11.56 7.85 C 11.56 7.753 11.525 7.67 11.454 7.599 C 11.384 7.529 11.3 7.493 11.203 7.493 L 4.783 7.493 C 4.687 7.493 4.603 7.529 4.533 7.599 C 4.462 7.67 4.427 7.753 4.427 7.85 C 4.427 7.947 4.462 8.03 4.533 8.101 C 4.603 8.171 4.687 8.207 4.783 8.207 L 11.203 8.207 Z" style="fill: rgb(255, 255, 255);"/>
</svg>