<?xml version="1.0" encoding="utf-8"?>
<svg xmlns="http://www.w3.org/2000/svg" viewBox="0 0 22 22">
  <defs id="defs3051">
    <style type="text/css" id="current-color-scheme">
      .ColorScheme-Text {
        color:#eff0f1
      }
      </style>
  </defs>
  <path d="M 19.304 2.5 C 19.662 2.5 20.004 2.573 20.33 2.72 C 20.655 2.867 20.942 3.064 21.189 3.311 C 21.436 3.558 21.633 3.845 21.78 4.17 C 21.927 4.496 22 4.838 22 5.196 L 22 12.179 C 22 12.551 21.925 12.9 21.774 13.226 C 21.624 13.552 21.424 13.837 21.173 14.08 C 20.922 14.324 20.63 14.517 20.297 14.66 C 19.964 14.803 19.615 14.875 19.25 14.875 L 15.007 14.875 C 14.935 15.083 14.835 15.271 14.706 15.439 C 14.577 15.607 14.427 15.752 14.255 15.874 C 14.083 15.996 13.897 16.089 13.696 16.153 C 13.496 16.218 13.285 16.25 13.063 16.25 L 3.438 16.25 C 3.158 16.25 2.893 16.196 2.643 16.089 C 2.392 15.981 2.172 15.833 1.982 15.643 C 1.792 15.453 1.644 15.233 1.536 14.982 C 1.429 14.732 1.375 14.467 1.375 14.188 L 1.375 8.688 C 1.375 8.408 1.429 8.143 1.536 7.893 C 1.644 7.642 1.792 7.422 1.982 7.232 C 2.172 7.042 2.392 6.894 2.643 6.786 C 2.893 6.679 3.158 6.625 3.438 6.625 L 5.5 6.625 L 5.5 5.196 C 5.5 4.838 5.573 4.496 5.72 4.17 C 5.867 3.845 6.064 3.558 6.311 3.311 C 6.558 3.064 6.845 2.867 7.17 2.72 C 7.496 2.573 7.838 2.5 8.196 2.5 L 19.304 2.5 Z M 20.625 5.25 C 20.625 5.064 20.589 4.887 20.518 4.718 C 20.446 4.55 20.347 4.403 20.222 4.278 C 20.097 4.153 19.95 4.054 19.782 3.982 C 19.613 3.911 19.436 3.875 19.25 3.875 L 8.25 3.875 C 8.057 3.875 7.878 3.911 7.713 3.982 C 7.548 4.054 7.403 4.153 7.278 4.278 C 7.153 4.403 7.054 4.548 6.982 4.713 C 6.911 4.878 6.875 5.057 6.875 5.25 L 6.875 6.625 L 13.063 6.625 C 13.342 6.625 13.607 6.679 13.857 6.786 C 14.108 6.894 14.328 7.042 14.518 7.232 C 14.708 7.422 14.856 7.642 14.964 7.893 C 15.071 8.143 15.125 8.408 15.125 8.688 L 15.125 13.5 L 19.25 13.5 C 19.443 13.5 19.622 13.464 19.787 13.393 C 19.952 13.321 20.097 13.222 20.222 13.097 C 20.347 12.972 20.446 12.827 20.518 12.662 C 20.589 12.497 20.625 12.318 20.625 12.125 L 20.625 5.25 Z M 13.75 8.688 C 13.75 8.501 13.682 8.34 13.546 8.204 C 13.41 8.068 13.249 8 13.063 8 L 3.438 8 C 3.251 8 3.09 8.068 2.954 8.204 C 2.818 8.34 2.75 8.501 2.75 8.688 L 2.75 14.188 C 2.75 14.374 2.818 14.535 2.954 14.671 C 3.09 14.807 3.251 14.875 3.438 14.875 L 13.063 14.875 C 13.249 14.875 13.41 14.807 13.546 14.671 C 13.682 14.535 13.75 14.374 13.75 14.188 L 13.75 8.688 Z M 15.813 17.625 C 15.999 17.625 16.16 17.693 16.296 17.829 C 16.432 17.965 16.5 18.126 16.5 18.313 C 16.5 18.499 16.432 18.66 16.296 18.796 C 16.16 18.932 15.999 19 15.813 19 L 0.688 19 C 0.501 19 0.34 18.932 0.204 18.796 C 0.068 18.66 0 18.499 0 18.313 C 0 18.126 0.068 17.965 0.204 17.829 C 0.34 17.693 0.501 17.625 0.688 17.625 L 15.813 17.625 Z" style="fill: rgb(255, 255, 255);"/>
</svg>