<?xml version="1.0" encoding="utf-8"?>
<svg xmlns="http://www.w3.org/2000/svg" width="22" height="22" version="1.1">
  <defs>
    <style id="current-color-scheme" type="text/css">
   .ColorScheme-Text { color:#eeeeec; } .ColorScheme-Highlight { color:#367bf0; } .ColorScheme-NeutralText { color:#ffcc44; } .ColorScheme-PositiveText { color:#3db47e; } .ColorScheme-NegativeText { color:#dd4747; }
  </style>
  </defs>
  <path d="M 10.932 18 C 10.294 17.996 9.68 17.909 9.089 17.74 C 8.499 17.571 7.948 17.333 7.435 17.026 C 6.923 16.718 6.454 16.352 6.03 15.925 C 5.607 15.499 5.244 15.028 4.943 14.511 C 4.642 13.993 4.41 13.438 4.246 12.845 C 4.082 12.253 4 11.638 4 11 C 4 10.358 4.083 9.737 4.249 9.141 C 4.416 8.544 4.652 7.987 4.957 7.469 C 5.263 6.952 5.628 6.481 6.055 6.055 C 6.481 5.628 6.952 5.263 7.469 4.957 C 7.987 4.652 8.544 4.416 9.141 4.249 C 9.737 4.083 10.358 4 11 4 C 11.634 4 12.246 4.083 12.839 4.249 C 13.432 4.416 13.986 4.649 14.503 4.95 C 15.021 5.251 15.493 5.612 15.922 6.034 C 16.351 6.455 16.717 6.923 17.023 7.435 C 17.328 7.948 17.566 8.499 17.737 9.089 C 17.908 9.68 17.996 10.294 18 10.932 C 17.859 10.759 17.709 10.596 17.552 10.443 C 17.395 10.29 17.226 10.148 17.043 10.016 C 17.02 9.884 16.994 9.755 16.964 9.63 C 16.935 9.504 16.902 9.378 16.865 9.25 C 16.719 9.25 16.571 9.251 16.421 9.254 C 16.27 9.256 16.122 9.257 15.977 9.257 L 15.755 9.257 C 15.684 9.257 15.61 9.254 15.532 9.25 C 15.51 9.25 15.477 9.246 15.436 9.236 C 15.395 9.227 15.351 9.216 15.303 9.202 C 15.255 9.189 15.209 9.175 15.163 9.161 C 15.118 9.148 15.081 9.136 15.054 9.127 C 14.889 9.095 14.726 9.072 14.561 9.055 C 14.398 9.039 14.231 9.031 14.063 9.031 L 14.056 9.031 C 13.96 9.031 13.864 9.035 13.769 9.042 C 13.673 9.049 13.577 9.057 13.482 9.065 C 13.277 9.088 13.076 9.122 12.88 9.168 C 12.83 9.182 12.782 9.198 12.736 9.219 C 12.691 9.24 12.643 9.25 12.593 9.25 L 8.491 9.25 C 8.455 9.541 8.427 9.832 8.406 10.122 C 8.385 10.411 8.375 10.703 8.375 11 C 8.375 11.297 8.385 11.589 8.406 11.879 C 8.427 12.168 8.455 12.459 8.491 12.75 L 9.202 12.75 C 9.161 12.896 9.129 13.041 9.107 13.188 C 9.084 13.334 9.065 13.479 9.051 13.625 L 8.642 13.625 C 8.692 13.858 8.749 14.086 8.813 14.312 C 8.876 14.538 8.952 14.76 9.038 14.979 C 9.065 15.047 9.095 15.115 9.127 15.183 C 9.159 15.252 9.186 15.321 9.209 15.389 C 9.236 15.462 9.26 15.534 9.281 15.608 C 9.302 15.68 9.325 15.756 9.352 15.833 C 9.43 16.051 9.525 16.261 9.636 16.462 C 9.748 16.662 9.872 16.856 10.009 17.043 L 10.016 17.043 C 10.148 17.226 10.29 17.395 10.443 17.552 C 10.596 17.709 10.759 17.859 10.932 18 Z M 13.358 8.375 C 13.322 8.206 13.27 8.002 13.202 7.763 C 13.133 7.524 13.048 7.275 12.949 7.018 C 12.848 6.761 12.732 6.503 12.599 6.245 C 12.467 5.988 12.32 5.758 12.155 5.555 C 11.991 5.353 11.814 5.188 11.622 5.063 C 11.431 4.938 11.223 4.875 11 4.875 C 10.777 4.875 10.57 4.938 10.378 5.063 C 10.186 5.188 10.009 5.353 9.845 5.555 C 9.681 5.758 9.533 5.988 9.401 6.245 C 9.268 6.503 9.152 6.761 9.051 7.018 C 8.952 7.275 8.868 7.524 8.799 7.763 C 8.73 8.002 8.678 8.206 8.642 8.375 L 13.358 8.375 Z M 5.47 8.375 L 7.746 8.375 C 7.801 8.106 7.866 7.832 7.941 7.552 C 8.016 7.271 8.105 6.994 8.208 6.72 C 8.31 6.447 8.427 6.183 8.56 5.928 C 8.692 5.672 8.842 5.433 9.011 5.21 C 8.624 5.342 8.254 5.512 7.903 5.719 C 7.553 5.927 7.225 6.166 6.923 6.437 C 6.619 6.708 6.345 7.007 6.098 7.333 C 5.852 7.658 5.643 8.006 5.47 8.375 Z M 16.53 8.375 C 16.352 8.001 16.141 7.651 15.895 7.326 C 15.649 7 15.375 6.703 15.074 6.433 C 14.774 6.165 14.448 5.928 14.097 5.723 C 13.746 5.517 13.377 5.347 12.989 5.21 C 13.158 5.433 13.308 5.672 13.44 5.928 C 13.573 6.183 13.69 6.447 13.792 6.72 C 13.895 6.994 13.984 7.271 14.059 7.552 C 14.134 7.832 14.199 8.106 14.254 8.375 L 16.53 8.375 Z M 7.602 12.75 C 7.534 12.172 7.5 11.588 7.5 11 C 7.5 10.703 7.508 10.411 7.524 10.122 C 7.54 9.832 7.568 9.541 7.609 9.25 L 5.128 9.25 C 4.959 9.811 4.875 10.394 4.875 11 C 4.875 11.606 4.959 12.189 5.128 12.75 L 7.602 12.75 Z M 5.47 13.625 C 5.643 13.994 5.852 14.342 6.098 14.667 C 6.345 14.994 6.618 15.292 6.919 15.563 C 7.22 15.834 7.545 16.073 7.896 16.281 C 8.247 16.488 8.617 16.658 9.004 16.79 C 8.84 16.562 8.692 16.321 8.56 16.065 C 8.427 15.81 8.31 15.547 8.208 15.276 C 8.105 15.005 8.016 14.73 7.941 14.452 C 7.866 14.175 7.801 13.899 7.746 13.625 L 5.47 13.625 Z" style="fill: rgb(255, 255, 255); fill-opacity: 0.5;"/>
  <path d="M 18 14.063 C 18 14.605 17.896 15.115 17.689 15.594 C 17.482 16.072 17.2 16.489 16.845 16.845 C 16.489 17.2 16.072 17.482 15.594 17.689 C 15.115 17.896 14.605 18 14.063 18 C 13.516 18 13.003 17.898 12.524 17.692 C 12.046 17.487 11.629 17.207 11.274 16.852 C 10.918 16.496 10.638 16.079 10.433 15.601 C 10.227 15.122 10.125 14.609 10.125 14.063 C 10.125 13.52 10.228 13.01 10.436 12.531 C 10.643 12.053 10.925 11.636 11.28 11.28 C 11.636 10.925 12.053 10.643 12.531 10.436 C 13.01 10.228 13.52 10.125 14.063 10.125 C 14.422 10.125 14.77 10.171 15.105 10.265 C 15.44 10.359 15.753 10.491 16.045 10.661 C 16.337 10.833 16.604 11.039 16.845 11.28 C 17.087 11.522 17.292 11.788 17.464 12.08 C 17.634 12.372 17.766 12.685 17.86 13.02 C 17.954 13.355 18 13.703 18 14.063 Z M 11.615 15.895 L 15.895 11.615 C 15.617 11.401 15.321 11.245 15.006 11.147 C 14.692 11.049 14.359 11 14.008 11 C 13.607 11 13.225 11.082 12.863 11.246 C 12.501 11.41 12.181 11.63 11.906 11.906 C 11.63 12.181 11.41 12.501 11.246 12.863 C 11.082 13.225 11 13.607 11 14.008 C 11 14.359 11.049 14.692 11.147 15.006 C 11.245 15.321 11.401 15.617 11.615 15.895 Z M 16.51 12.23 L 12.23 16.51 C 12.509 16.724 12.805 16.88 13.119 16.978 C 13.433 17.076 13.766 17.125 14.118 17.125 C 14.518 17.125 14.9 17.043 15.262 16.879 C 15.624 16.715 15.944 16.495 16.219 16.219 C 16.495 15.944 16.715 15.624 16.879 15.262 C 17.043 14.9 17.125 14.518 17.125 14.118 C 17.125 13.766 17.076 13.433 16.978 13.119 C 16.88 12.805 16.724 12.509 16.51 12.23 Z" style="fill: rgb(255, 0, 0);"/>
</svg>