#define icon_width 11
#define icon_height 11
static char icon_bits[] = {
  0xF8, 0x00, 0xFC, 0x01, 0xFE, 0x03, 0xFF, 0x07, 0xFF, 0x07, 0x03, 0x06, 
  0xFF, 0x07, 0xFF, 0x07, 0xFE, 0x03, 0xFC, 0x01, 0xF8, 0x00, };
