<?xml version="1.0" encoding="utf-8"?>
<svg width="512px" height="512px" version="1.1" xmlns="http://www.w3.org/2000/svg" viewBox="0 -28.5 256 256">
  <title>path21</title>
  <path d="M 118.432 189.319 C 151.322 183.459 178.487 178.61 178.799 178.543 L 179.367 178.421 L 148.315 141.168 C 131.237 120.678 117.264 103.835 117.264 103.737 C 117.264 103.554 149.327 14.496 149.507 14.179 C 149.567 14.073 171.387 52.07 202.4 106.286 C 231.435 157.044 255.373 198.895 255.595 199.287 L 256 200 L 157.316 199.987 L 58.632 199.974 L 118.432 189.319 L 118.432 189.319 Z M 0 177.959 C 0 177.906 14.631 152.288 32.514 121.029 L 65.028 64.195 L 102.919 32.122 C 123.759 14.482 140.867 0.028 140.935 0.001 C 141.004 -0.025 140.73 0.671 140.326 1.548 C 139.922 2.425 121.407 42.481 99.181 90.561 L 58.771 177.98 L 29.385 178.017 C 13.223 178.037 0 178.011 0 177.959 L 0 177.959 Z" fill="#0089D6" fill-rule="nonzero" stroke="none" stroke-width="1"/>
</svg>