<?xml version="1.0" encoding="utf-8"?>
<svg xmlns="http://www.w3.org/2000/svg" viewBox="0 0 64 64" width="64px" height="64px">
  <path d="M 32 16.036 C 30.456 16.036 28.92 16.204 27.396 16.536 C 25.872 16.872 24.408 17.356 23 17.992 C 21.588 18.628 20.252 19.408 18.992 20.324 C 17.728 21.244 16.584 22.276 15.56 23.424 C 15.06 23.988 14.608 24.584 14.2 25.208 C 13.792 25.836 13.36 26.452 12.9 27.056 C 12.648 27.368 12.404 27.616 12.164 27.792 C 11.924 27.972 11.596 28.06 11.18 28.06 C 10.636 28.06 10.164 27.86 9.768 27.464 C 9.372 27.068 9.176 26.596 9.176 26.056 C 9.176 25.72 9.256 25.388 9.424 25.052 C 10.488 23.068 11.848 21.276 13.496 19.668 C 15.144 18.06 16.972 16.692 18.976 15.564 C 20.98 14.44 23.092 13.568 25.316 12.952 C 27.54 12.336 29.768 12.028 32 12.028 C 34.212 12.028 36.436 12.336 38.668 12.952 C 40.904 13.568 43.02 14.44 45.024 15.564 C 47.028 16.692 48.856 18.06 50.504 19.668 C 52.152 21.276 53.512 23.068 54.576 25.052 C 54.744 25.388 54.824 25.72 54.824 26.056 C 54.824 26.596 54.628 27.068 54.232 27.464 C 53.836 27.86 53.364 28.06 52.82 28.06 C 52.404 28.06 52.076 27.972 51.836 27.792 C 51.596 27.616 51.352 27.368 51.1 27.056 C 50.64 26.452 50.208 25.836 49.8 25.208 C 49.392 24.584 48.94 23.988 48.44 23.424 C 47.416 22.276 46.272 21.244 45.008 20.324 C 43.748 19.408 42.412 18.628 41 17.992 C 39.592 17.356 38.128 16.872 36.604 16.536 C 35.08 16.204 33.544 16.036 32 16.036 Z M 32 28.06 C 30.832 28.06 29.716 28.22 28.648 28.544 C 27.584 28.868 26.552 29.332 25.548 29.936 C 24.988 30.292 24.5 30.648 24.092 31.004 C 23.688 31.356 23.32 31.732 23 32.128 C 22.676 32.524 22.368 32.948 22.076 33.396 C 21.784 33.848 21.468 34.352 21.136 34.916 C 20.928 35.272 20.676 35.552 20.384 35.76 C 20.092 35.972 19.736 36.076 19.32 36.076 C 18.756 36.076 18.28 35.876 17.896 35.48 C 17.508 35.084 17.316 34.604 17.316 34.04 C 17.316 33.768 17.376 33.488 17.504 33.192 C 18.108 31.856 18.932 30.628 19.976 29.5 C 21.02 28.372 22.188 27.408 23.484 26.604 C 24.776 25.8 26.156 25.172 27.616 24.724 C 29.076 24.276 30.54 24.052 32 24.052 C 33.504 24.052 34.984 24.272 36.448 24.708 C 37.908 25.148 39.28 25.764 40.564 26.556 C 41.848 27.348 43 28.308 44.024 29.436 C 45.048 30.564 45.872 31.816 46.496 33.192 C 46.624 33.488 46.684 33.768 46.684 34.04 C 46.684 34.58 46.488 35.056 46.092 35.464 C 45.692 35.872 45.224 36.076 44.68 36.076 C 44.264 36.076 43.908 35.972 43.616 35.76 C 43.324 35.552 43.072 35.272 42.864 34.916 C 42.532 34.352 42.216 33.848 41.924 33.396 C 41.632 32.948 41.32 32.524 40.988 32.128 C 40.652 31.732 40.28 31.356 39.876 31.004 C 39.468 30.648 38.984 30.292 38.42 29.936 C 37.436 29.332 36.408 28.868 35.336 28.544 C 34.26 28.22 33.148 28.06 32 28.06 Z M 26.992 40.084 C 26.992 39.392 27.124 38.748 27.396 38.14 C 27.668 37.536 28.028 37.008 28.476 36.56 C 28.928 36.112 29.452 35.752 30.06 35.48 C 30.664 35.208 31.312 35.072 32 35.072 C 32.688 35.072 33.336 35.208 33.94 35.48 C 34.548 35.752 35.072 36.112 35.524 36.56 C 35.972 37.008 36.332 37.536 36.604 38.14 C 36.876 38.748 37.008 39.392 37.008 40.084 C 37.008 40.772 36.876 41.42 36.604 42.024 C 36.332 42.628 35.972 43.156 35.524 43.604 C 35.072 44.052 34.548 44.412 33.94 44.684 C 33.336 44.956 32.688 45.092 32 45.092 C 31.312 45.092 30.664 44.956 30.06 44.684 C 29.452 44.412 28.928 44.052 28.476 43.604 C 28.028 43.156 27.668 42.628 27.396 42.024 C 27.124 41.42 26.992 40.772 26.992 40.084 Z" style="fill: rgb(255, 255, 255);"/>
  <path d="M 32 4.008 C 29.744 4.008 27.516 4.232 25.316 4.68 C 23.112 5.128 20.98 5.788 18.912 6.652 C 16.844 7.52 14.872 8.58 12.996 9.832 C 11.116 11.084 9.384 12.512 7.796 14.12 C 7.004 14.916 6.292 15.744 5.668 16.612 C 5.04 17.476 4.372 18.328 3.664 19.164 C 3.412 19.456 3.172 19.672 2.944 19.82 C 2.712 19.968 2.4 20.04 2.004 20.04 C 1.44 20.04 0.964 19.848 0.58 19.46 C 0.192 19.072 0 18.6 0 18.036 C 0 17.64 0.116 17.264 0.344 16.908 C 1.992 14.276 3.992 11.92 6.34 9.832 C 8.688 7.744 11.252 5.968 14.028 4.508 C 16.804 3.048 19.72 1.932 22.78 1.16 C 25.836 0.388 28.912 0 32 0 C 35.068 0 38.136 0.388 41.204 1.16 C 44.272 1.932 47.192 3.048 49.956 4.508 C 52.724 5.968 55.28 7.744 57.628 9.832 C 59.976 11.92 61.984 14.276 63.656 16.908 C 63.884 17.264 64 17.64 64 18.036 C 64 18.6 63.808 19.072 63.42 19.46 C 63.036 19.848 62.56 20.04 61.996 20.04 C 61.64 20.04 61.332 19.96 61.072 19.804 C 60.812 19.648 60.568 19.432 60.336 19.164 C 60.108 18.872 59.892 18.572 59.696 18.272 C 59.496 17.968 59.284 17.668 59.052 17.376 C 58.616 16.792 58.156 16.236 57.676 15.704 C 57.196 15.172 56.704 14.644 56.204 14.12 C 54.596 12.512 52.86 11.084 50.992 9.832 C 49.12 8.58 47.16 7.52 45.104 6.652 C 43.048 5.788 40.912 5.128 38.7 4.68 C 36.488 4.232 34.256 4.008 32 4.008 Z" style="fill-opacity: 0.5; fill: rgb(255, 255, 255);"/>
</svg>