<?xml version="1.0" encoding="utf-8"?>
<svg viewBox="0 0 64 64" xmlns="http://www.w3.org/2000/svg" width="64px" height="64px">
  <path d="M 48 48 L 48 52 L 44 52 L 44 60 L 48 60 L 48 64 L 14 64 C 13.458 64 12.99 63.802 12.594 63.406 C 12.198 63.01 12 62.542 12 62 C 12 61.458 12.198 60.99 12.594 60.594 C 12.99 60.198 13.458 60 14 60 L 20 60 L 20 52 L 7.844 52 C 6.802 52 5.807 51.786 4.859 51.359 C 3.911 50.932 3.078 50.359 2.359 49.641 C 1.641 48.922 1.068 48.089 0.641 47.141 C 0.214 46.193 0 45.198 0 44.156 L 0 7.844 C 0 6.802 0.214 5.807 0.641 4.859 C 1.068 3.911 1.641 3.078 2.359 2.359 C 3.078 1.641 3.911 1.068 4.859 0.641 C 5.807 0.214 6.802 0 7.844 0 L 41.063 0 C 40.354 1.208 40 2.542 40 4 L 8 4 C 7.437 4 6.917 4.104 6.437 4.313 C 5.958 4.521 5.536 4.807 5.172 5.172 C 4.807 5.536 4.521 5.958 4.313 6.437 C 4.104 6.917 4 7.437 4 8 L 4 44 C 4 44.563 4.104 45.089 4.313 45.578 C 4.521 46.068 4.802 46.49 5.156 46.844 C 5.51 47.198 5.932 47.479 6.422 47.687 C 6.911 47.896 7.437 48 8 48 L 48 48 Z M 58 0 C 58.813 0 59.583 0.156 60.313 0.469 C 61.042 0.781 61.682 1.214 62.234 1.766 C 62.786 2.318 63.219 2.958 63.531 3.687 C 63.844 4.417 64 5.187 64 6 L 64 22 C 64 22.813 63.844 23.583 63.531 24.313 C 63.219 25.042 62.786 25.682 62.234 26.234 C 61.682 26.786 61.042 27.219 60.313 27.531 C 59.583 27.844 58.813 28 58 28 L 56 28 L 56 62 C 56 62.542 55.802 63.01 55.406 63.406 C 55.01 63.802 54.542 64 54 64 C 53.458 64 52.99 63.802 52.594 63.406 C 52.198 63.01 52 62.542 52 62 L 52 28 L 50 28 C 49.187 28 48.417 27.844 47.687 27.531 C 46.958 27.219 46.318 26.786 45.766 26.234 C 45.214 25.682 44.781 25.042 44.469 24.313 C 44.156 23.583 44 22.813 44 22 L 44 6 C 44 5.187 44.156 4.417 44.469 3.687 C 44.781 2.958 45.214 2.318 45.766 1.766 C 46.318 1.214 46.958 0.781 47.687 0.469 C 48.417 0.156 49.187 0 50 0 L 58 0 Z M 50 4 C 49.458 4 48.99 4.198 48.594 4.594 C 48.198 4.99 48 5.458 48 6 L 48 8 L 60 8 L 60 6 C 60 5.458 59.802 4.99 59.406 4.594 C 59.01 4.198 58.542 4 58 4 L 50 4 Z M 58 24 C 58.542 24 59.01 23.802 59.406 23.406 C 59.802 23.01 60 22.542 60 22 L 60 12 L 48 12 L 48 22 C 48 22.542 48.198 23.01 48.594 23.406 C 48.99 23.802 49.458 24 50 24 L 58 24 Z M 24 60 L 40 60 L 40 52 L 24 52 L 24 60 Z" style="fill: rgb(255, 255, 255);"/>
</svg>