<svg version="1" viewBox="0 0 512 512" xmlns="http://www.w3.org/2000/svg"><path d="m137.26 22.182-26.232 2e-3c-14.427 0.28799-27.988 6.9443-37.041 18.182-28.314-2.4088-52.693 19.78-52.953 48.195l-0.029297-0.16016v90.453c0.0016 18.299 10.237 35.06 26.514 43.42l73.654 37.826c0.0523 1.1591 0.096 2.6412 0.13672 3.6211 0.0351 0.83791 0.0917 1.6748 0.16992 2.5098 2.1203 22.721 8.5215 45.536 28.109 64.838l2e-3 2e-3c15.962 15.727 31.094 23.168 61.373 39.74v-2e-3c13.205 7.2274 31.938 18.388 35.859 20.992l2e-3 2e-3c14.342 9.5214 30.313 22.369 44.793 36.053l0.0488 0.0449c9.8827 9.392 20.033 20.146 27.617 29.312l-0.0625-0.0762c4.3771 5.3121 8.1365 9.6709 12.236 13.863 2.05 2.0962 3.9629 4.0759 7.7324 7.0352 1.8848 1.4796 4.0572 3.2566 8.957 5.7539s13.088 9.4385 34.699 4c0.24266-0.0606 0.48486-0.12314 0.72656-0.1875 16.257-4.3582 11.218-4.4925 12.646-5.3105 1.4286-0.81808 2.4694-1.4604 3.6191-2.1758 2.2994-1.4308 4.8385-3.0689 7.8281-5.0273 5.9793-3.9168 13.599-9.0202 21.818-14.598 19.908-13.509 29.776-20.132 37.246-25.738 3.7348-2.8032 6.6729-3.1095 14.818-14.494 4.0727-5.6923 10.634-18.228 9.2754-33.625-1.358-15.39-9.1247-24.816-11.398-27.557l-6e-3 -6e-3c-8.7896-10.595-12.622-10.985-15.555-12.525-2.933-1.5403-4.8118-2.2746-6.5137-2.9258-3.4037-1.3023-5.9508-2.0419-8.6328-2.7578-0.0384-0.0105-0.0768-0.0209-0.11523-0.0312-2.1755-0.57502-4.2309-1.0724-6.7344-1.5703l-0.0469-0.01c-7.5916-1.502-28.716-9.9294-41.902-18.475l-2e-3 -2e-3c-4.0128-2.6002-12.048-8.6522-19.393-14.805-1.6837-1.4622-2.6965-2.3757-4.1426-3.6348 0.0444-3.0891-0.0875-6.0766-0.5-8.7695-3.0222-19.727-9.4486-26.763-15.691-37.24-14.735-24.729-29.789-50.888-34.828-60.271l-2e-3 -2e-3c-5.2373-9.7524-8.8002-16.501-14.299-24.207-4.8078-6.7375-11.743-13.345-16.408-16.805l-2e-3 -2e-3c-2.6846-1.991-5.0781-4.024-8.25-5.9121-0.14654-0.13515-0.32881-0.20239-0.46289-0.38672-1.7238-2.3698-3.0285-3.9277-4.4141-5.5625-2.7712-3.2696-5.7432-6.5295-9.2637-10.293-7.0409-7.527-16.07-16.772-26.053-26.754-19.965-19.963-43.238-42.397-60.326-57.533-5.6453-5.0001-11.356-9.952-16.859-14.668-8.8466-7.5797-20.112-11.746-31.762-11.746zm157.65 145.79 6e-3 0.0254c-2e-3 -9e-3 -4e-3 -0.0108-6e-3 -0.0195-4.2e-4 -2e-3 4.3e-4 -3e-3 0-6e-3zm52.412 116.25 4e-3 0.0254c-7.6e-4 -8e-3 -3e-3 -0.01-4e-3 -0.0176-2.7e-4 -2e-3 2.8e-4 -5e-3 0-8e-3z" color="#000000" fill="#fff" opacity=".3" stroke="#000" stroke-linecap="round" stroke-linejoin="round" stroke-width="20" style="paint-order:fill markers stroke"/><path d="m137.26 22.182-26.232 2e-3c-14.427 0.28799-27.988 6.9443-37.041 18.182-28.314-2.4088-52.693 19.78-52.953 48.195l-0.029297-0.16016v90.453c0.0016 18.299 10.237 35.06 26.514 43.42l73.654 37.826c0.0523 1.1591 0.096 2.6412 0.13672 3.6211 0.0351 0.83791 0.0917 1.6748 0.16992 2.5098 2.1203 22.721 8.5215 45.536 28.109 64.838l2e-3 2e-3c15.962 15.727 31.094 23.168 61.373 39.74v-2e-3c13.205 7.2274 31.938 18.388 35.859 20.992l2e-3 2e-3c14.342 9.5214 30.313 22.369 44.793 36.053l0.0488 0.0449c9.8827 9.392 20.033 20.146 27.617 29.312l-0.0625-0.0762c4.3771 5.3121 8.1365 9.6709 12.236 13.863 2.05 2.0962 3.9629 4.0759 7.7324 7.0352 1.8848 1.4796 4.0572 3.2566 8.957 5.7539s13.088 9.4385 34.699 4c0.24266-0.0606 0.48486-0.12314 0.72656-0.1875 16.257-4.3582 11.218-4.4925 12.646-5.3105 1.4286-0.81808 2.4694-1.4604 3.6191-2.1758 2.2994-1.4308 4.8385-3.0689 7.8281-5.0273 5.9793-3.9168 13.599-9.0202 21.818-14.598 19.908-13.509 29.776-20.132 37.246-25.738 3.7348-2.8032 6.6729-3.1095 14.818-14.494 4.0727-5.6923 10.634-18.228 9.2754-33.625-1.358-15.39-9.1247-24.816-11.398-27.557l-6e-3 -6e-3c-8.7896-10.595-12.622-10.985-15.555-12.525-2.933-1.5403-4.8118-2.2746-6.5137-2.9258-3.4037-1.3023-5.9508-2.0419-8.6328-2.7578-0.0384-0.0105-0.0768-0.0209-0.11523-0.0312-2.1755-0.57502-4.2309-1.0724-6.7344-1.5703l-0.0469-0.01c-7.5916-1.502-28.716-9.9294-41.902-18.475l-2e-3 -2e-3c-4.0128-2.6002-12.048-8.6522-19.393-14.805-1.6837-1.4622-2.6965-2.3757-4.1426-3.6348 0.0444-3.0891-0.0875-6.0766-0.5-8.7695-3.0222-19.727-9.4486-26.763-15.691-37.24-14.735-24.729-29.789-50.888-34.828-60.271l-2e-3 -2e-3c-5.2373-9.7524-8.8002-16.501-14.299-24.207-4.8078-6.7375-11.743-13.345-16.408-16.805l-2e-3 -2e-3c-2.6846-1.991-5.0781-4.024-8.25-5.9121-0.14654-0.13515-0.32881-0.20239-0.46289-0.38672-1.7238-2.3698-3.0285-3.9277-4.4141-5.5625-2.7712-3.2696-5.7432-6.5295-9.2637-10.293-7.0409-7.527-16.07-16.772-26.053-26.754-19.965-19.963-43.238-42.397-60.326-57.533-5.6453-5.0001-11.356-9.952-16.859-14.668-8.8466-7.5797-20.112-11.746-31.762-11.746zm157.65 145.79 6e-3 0.0254c-2e-3 -9e-3 -4e-3 -0.0108-6e-3 -0.0195-4.2e-4 -2e-3 4.3e-4 -3e-3 0-6e-3zm52.412 116.25 4e-3 0.0254c-7.6e-4 -8e-3 -3e-3 -0.01-4e-3 -0.0176-2.7e-4 -2e-3 2.8e-4 -5e-3 0-8e-3z" color="#000000" fill="#fff" style="-inkscape-stroke:none;paint-order:fill markers stroke"/><g transform="matrix(3.2676 0 0 3.2676 31.656 -494.87)"><path transform="matrix(.23254 0 0 .23254 8.202 169.74)" d="m69.184 14.77c6.7451 5.7054 13.729 11.741 20.234 17.621 29.037 26.247 64.943 62.164 93.586 93.617 27.831 30.562 31.815 33.067 52.729 33.092 10.659 0.0172 13.276-0.44248 12.861-2.2383-1.3996-6.0702-82.582-87.246-123.49-123.48-7.0879-6.2778-14.351-12.576-21.396-18.613zm-54.24 22.906v119.04l117.33 60.256c4.9936 2.579 8.6218 5.167 12.324 9.6035 3.7026 4.4366 2.7715 9.5964 2.1504 17.701-0.51211 7.1089-0.14267 14.507 0.14648 21.463 1.8 19.289 8.1788 35.748 18.121 45.545 8.5933 8.4671 27.82 20.52 66.527 41.705 18.804 10.292 42.153 23.999 51.885 30.461 22.624 15.02 46.113 34.011 67.65 54.375 0.0305 0.0301 0.0617 0.0627 0.0859 0.0859 14.723 13.992 29.518 29.602 41.588 44.191 10.088 12.243 16.963 19.274 18.477 18.893 1.6136-0.43257 19.77-12.389 40.988-26.787 52.336-35.514 54.282-36.971 52.352-39.297-0.62483-0.75328-3.6936-1.8925-7.5352-2.918-1.702-0.44986-3.4986-0.87366-4.9785-1.168-22.696-4.4904-53.322-17.682-77.611-33.422-9.2507-5.9942-20.992-15.037-32.125-24.381-11.3-9.8174-22.672-18.812-32.33-30.873l-5.0644-6.3926 3.2148-3.5332c9.5611-10.505 8.8039-15.438-6.2285-40.666-19.697-33.056-39.186-66.805-47.246-81.812-6.591-12.273-10.931-19.915-14.516-24.939-2.7432-3.8442-5.1349-6.0242-7.5703-7.8301-2.1533-1.5968-5.1574-3.2358-7.5254-3.5176-17.985-2.1396-44.548 4.9974-58.572-1.9434-4.5698-2.2616-8.7233-6.092-11.893-9.1367-9.0857-8.7757-17.802-19.445-24.807-27.637-15.374-17.979-32.42-38.118-37.879-44.748-14.672-17.826-25.508-29.394-28.162-30.105-0.63429-0.17072-0.58236-0.21145-0.66992 0.61523-0.27513 2.5984 0.72147 13.441 2.4531 25.914 2.2928 16.516 3.5099 24.99 3.1035 28.391-0.12049 1.0079-0.13402 1.2418-0.74804 1.5488-1.711 0.85528-5.2282-1.9066-12.104-6.584-30.647-20.851-55.447-42.544-76.553-66.996-0.89205-1.0699-2.8196-3.3416-3.4355-4.0898-0.29032-0.35272-0.55672-0.66823-0.84375-1.0156zm263.4 210.59c0.63584-0.0215 1.278 0.21082 2.1211 0.56641 6.7837 8.364 13.552 18.004 18.396 25.168 9.5467 14.145 17.282 26.912 17.439 28.357 0.21876 2.0028-0.53139 2.2158-0.8457 2.5703-2.4099 2.7181-9.4954 2.4994-19.168-0.99219-16.452-5.9389-25.238-13.014-27.535-22.166-2.4362-9.7064 2.2744-28.161 7.5078-32.535 0.82038-0.66684 1.4482-0.946 2.084-0.96875z" style="paint-order:fill markers stroke"/></g></svg>
