<?xml version="1.0" encoding="utf-8"?>
<svg version="1.1" id="Layer_1" x="0px" y="0px" viewBox="0 0 16 16" style="enable-background:new 0 0 16 16;" xmlns="http://www.w3.org/2000/svg">
  <style type="text/css">
	.st0{fill:#FFFFFF;}
	.st1{fill:#00A651;}
</style>
  <path class="st0" d="M6.6,5.6v0.7h5.5v4.8H5.2v0.7h7.6V9.7h0.7V7.7h-0.7V5.6L6.6,5.6z M6.6,7v0.3c0,0,0,0.6-0.3,1.2 c-0.2,0.4-0.6,0.8-1.1,1v1h6.2V7L6.6,7z"/>
  <path class="st1" d="M3.2,4.2v1.4H2.5v1.7c0,0,0,0.4,0.2,0.9C2.8,8.5,3.2,8.9,3.9,9h0v2.8h0.7V9h0c0.6-0.1,1-0.5,1.2-0.9 c0.2-0.4,0.2-0.9,0.2-0.9V5.6H5.2V4.2H4.5v1.4H3.9V4.2L3.2,4.2z M3.2,6.3h2.1v1c0,0,0,0.3-0.1,0.5C5,8.1,4.8,8.4,4.2,8.4 c-0.6,0-0.8-0.2-0.9-0.5S3.2,7.3,3.2,7.3v0L3.2,6.3z" style="fill: rgb(255, 255, 255);"/>
</svg>