<?xml version="1.0" encoding="utf-8"?>
<svg viewBox="0 0 16 16" xmlns="http://www.w3.org/2000/svg">
  <path d="M 16 11.509 L 16 15.513 C 16 15.649 15.95 15.766 15.851 15.865 C 15.752 15.964 15.635 16.014 15.5 16.014 L 10.495 16.014 C 10.359 16.014 10.242 15.964 10.143 15.865 C 10.044 15.766 9.994 15.649 9.994 15.513 L 9.994 11.509 C 9.994 11.395 10.016 11.305 10.061 11.239 C 10.105 11.174 10.162 11.125 10.233 11.091 C 10.303 11.057 10.381 11.035 10.467 11.024 C 10.553 11.014 10.641 11.009 10.729 11.009 L 10.995 11.009 L 10.995 10.008 C 10.995 9.737 11.049 9.479 11.155 9.234 C 11.262 8.989 11.406 8.775 11.586 8.592 C 11.765 8.41 11.977 8.265 12.219 8.158 C 12.461 8.051 12.721 7.998 12.997 7.998 C 13.2 7.998 13.397 8.028 13.587 8.088 C 13.778 8.148 13.952 8.233 14.111 8.342 C 14.27 8.452 14.414 8.582 14.542 8.733 C 14.669 8.884 14.772 9.054 14.85 9.241 C 14.918 9.403 14.963 9.57 14.983 9.742 C 15.004 9.914 15.015 10.086 15.015 10.258 C 15.015 10.388 15.012 10.516 15.007 10.641 C 15.002 10.766 14.999 10.889 14.999 11.009 L 15.265 11.009 C 15.354 11.009 15.441 11.014 15.527 11.024 C 15.613 11.035 15.691 11.057 15.761 11.091 C 15.832 11.125 15.889 11.174 15.934 11.239 C 15.978 11.305 16 11.395 16 11.509 Z M 11.996 11.009 L 13.998 11.009 L 13.998 10.008 C 13.998 9.867 13.972 9.735 13.92 9.613 C 13.868 9.49 13.797 9.385 13.709 9.296 C 13.62 9.208 13.515 9.137 13.392 9.085 C 13.269 9.033 13.138 9.007 12.997 9.007 C 12.856 9.007 12.726 9.033 12.606 9.085 C 12.486 9.137 12.381 9.209 12.289 9.3 C 12.198 9.391 12.126 9.497 12.074 9.617 C 12.022 9.737 11.996 9.867 11.996 10.008 L 11.996 11.009 Z M 13.998 13.511 C 13.998 13.376 13.972 13.247 13.92 13.124 C 13.868 13.002 13.796 12.895 13.705 12.804 C 13.614 12.712 13.507 12.641 13.384 12.588 C 13.262 12.536 13.133 12.51 12.997 12.51 C 12.856 12.51 12.726 12.536 12.606 12.588 C 12.486 12.641 12.381 12.712 12.289 12.804 C 12.198 12.895 12.126 13 12.074 13.12 C 12.022 13.24 11.996 13.37 11.996 13.511 C 11.996 13.652 12.022 13.784 12.074 13.906 C 12.126 14.029 12.197 14.134 12.285 14.223 C 12.374 14.311 12.48 14.382 12.602 14.434 C 12.725 14.486 12.856 14.512 12.997 14.512 C 13.138 14.512 13.268 14.486 13.388 14.434 C 13.508 14.382 13.614 14.31 13.705 14.219 C 13.796 14.128 13.868 14.022 13.92 13.902 C 13.972 13.782 13.998 13.652 13.998 13.511 Z" style="fill: rgb(255, 255, 255);"/>
</svg>