<?xml version="1.0" encoding="utf-8"?>
<svg id="svg200" version="1.1" height="68.000183" width="173" xmlns="http://www.w3.org/2000/svg">
  <style id="style2457">
.ColorScheme-Background { 
    color:#1e2431;
}
</style>
  <defs id="defs24">
    <style type="text/css" id="current-color-scheme"/>
    <linearGradient id="linearGradient4270">
      <stop style="stop-color:#000000;stop-opacity:0.66663194" offset="0" id="stop4272"/>
      <stop style="stop-color:#000000;stop-opacity:0;" offset="1" id="stop4274"/>
    </linearGradient>
    <radialGradient id="radialGradient994" gradientUnits="userSpaceOnUse" gradientTransform="matrix(-2.7408701e-5,-5.4257533,5.4258056,-2.7408471e-5,-269.07291,1242.1246)" cx="77" cy="11.99998" r="6" href="#linearGradient4270"/>
    <linearGradient id="linearGradient981" gradientUnits="userSpaceOnUse" gradientTransform="matrix(2.0000041,0,0,0.62500011,969.36594,190.87502)" x1="-916.36218" y1="-35" x2="-905.36218" y2="-35" href="#linearGradient4270"/>
    <radialGradient id="radialGradient967" gradientUnits="userSpaceOnUse" gradientTransform="matrix(-1.8843096e-5,-3.7301625,3.7301647,-1.8843108e-5,-46.310323,1242.069)" cx="77" cy="11.99998" r="6" href="#linearGradient4270"/>
    <radialGradient id="radialGradient991" gradientUnits="userSpaceOnUse" gradientTransform="matrix(-1.8843056e-5,-3.7301549,3.7301571,-1.8843069e-5,-47.327867,1239.0165)" cx="77" cy="11.99998" r="6" href="#linearGradient4270"/>
    <radialGradient id="radialGradient663" gradientUnits="userSpaceOnUse" gradientTransform="matrix(7.8920593,-3.9867119e-5,3.9867144e-5,7.8920642,-566.07823,604.71781)" cx="77" cy="11.99998" r="6" href="#linearGradient4270"/>
    <linearGradient id="linearGradient1105" gradientUnits="userSpaceOnUse" gradientTransform="matrix(2.9091865,0,0,0.93496884,2525.4137,-782.16977)" x1="-916.36218" y1="-35" x2="-905.36218" y2="-35" href="#linearGradient4270"/>
    <linearGradient id="linearGradient2260" gradientUnits="userSpaceOnUse" gradientTransform="matrix(2.9091218,0,0,0.90910701,2868.6239,894.86327)" x1="-916.36218" y1="-35" x2="-905.36218" y2="-35" href="#linearGradient4270"/>
    <linearGradient id="linearGradient3098" gradientUnits="userSpaceOnUse" gradientTransform="matrix(2.0000043,0,0,0.64102544,2704.0906,-176.82056)" x1="-916.36224" y1="-34.599968" x2="-905.36224" y2="-34.599968" href="#linearGradient4270"/>
  </defs>
  <rect id="hint-tile-center" y="6.0001397" width="5" height="5" x="0" style="fill:#ff9955;opacity:0.01"/>
  <rect y="-16.00005" x="58.999992" height="12.000099" width="12.000099" id="shadow-center" style="color:#eff0f1;opacity:0.01;fill:#008080;fill-opacity:1;stroke:none;stroke-width:0.375003"/>
  <rect style="stroke:none;fill-opacity:1;fill:#141622;opacity:1" id="thick-center" width="32" height="32" x="223.38127" y="13.508359" class="ColorScheme-Background"/>
  <rect transform="rotate(90)" style="opacity:1;fill:#008080;fill-opacity:1;stroke:none;stroke-width:0.957426" id="thick-hint-right-margin" width="4" height="5.5" x="33.508358" y="-257.88113"/>
  <rect transform="rotate(90)" y="-221.88118" x="33.508358" height="5.5" width="4" id="thick-hint-left-margin" style="opacity:1;fill:#008080;fill-opacity:1;stroke:none;stroke-width:0.957425"/>
  <rect y="7.5083594" x="242.38127" height="8" width="4" id="thick-hint-top-margin" style="opacity:1;fill:#008080;fill-opacity:1;stroke:none;stroke-width:1.1547"/>
  <rect style="opacity:1;fill:#008080;fill-opacity:1;stroke:none;stroke-width:1.1547" id="thick-hint-bottom-margin" width="4" height="8" x="243.38127" y="43.508362"/>
  <rect style="opacity:0.01;fill:#0066ff;fill-opacity:0.74902;stroke:none;stroke-width:1.2;stroke-linejoin:round;paint-order:fill markers stroke" id="floating-center" width="33.429161" height="33.429161" x="64.640266" y="-105.09598"/>
  <rect style="opacity:1;fill:#0066ff;fill-opacity:0.98931;stroke:none;stroke-width:0.584995;stroke-linejoin:round;paint-order:fill markers stroke" id="floating-hint-bottom-margin" height="9" x="5.6215363" y="-75.848083" rx="0" ry="0" width="4"/>
  <rect style="opacity:1;fill:#0066ff;fill-opacity:0.98931;stroke:none;stroke-width:0.809333;stroke-linejoin:round;paint-order:fill markers stroke" id="floating-hint-top-margin" height="9" x="5" y="-109.99999" rx="0" ry="0" width="4"/>
  <rect transform="rotate(90)" style="opacity:1;fill:#0066ff;fill-opacity:0.996078;stroke:none;stroke-width:1.34068" id="floating-hint-right-margin" width="4" height="9" x="-87.303406" y="-33.248871"/>
  <rect transform="rotate(90)" y="6" x="-94" height="9" width="4" id="floating-hint-left-margin" style="opacity:1;fill:#0066ff;fill-opacity:0.996078;stroke:none;stroke-width:1.26767"/>
  <g id="shadow-topleft" transform="matrix(0.67578242,0,0,0.6757886,179.83624,-533.08067)">
    <path id="path4828" style="opacity:0.5;fill:url(#radialGradient994);stroke-width:1.47976" d="m -239.47979,788.82756 v 35.51406 h 17.7572 v -1.47975 c 0,-8.73054 6.21519,-16.27728 16.68435,-16.27728 h 1.07284 v -17.75703 z"/>
    <path id="path962" style="color:#1e2431;fill:#1e2431;fill-opacity:0.5;stroke-width:1.51621;stop-color:#1e2431" d="m -205.47477,805.10492 c -9.85613,5.2e-4 -17.72759,7.86477 -17.72759,17.72055 v 1.51623 h 1.47976 v -1.51623 c 0,-8.84212 6.66532,-16.1968 16.24783,-16.23488 l 1.5097,-0.006 v -1.47975 z" class="ColorScheme-Background"/>
  </g>
  <g id="top" transform="translate(146.00003,-808.36218)">
    <rect y="84.000038" x="-832.36218" height="20" width="12" id="rect4152" transform="matrix(0,-1,-1,0,0,0)" style="color: rgb(30, 36, 49); opacity: 0.75; fill-opacity: 1; stroke-width: 1.11803; stop-color: rgb(30, 36, 49);" class="ColorScheme-Background"/>
    <rect y="84.000023" x="-821.36218" height="20" width="0.99999994" id="rect972" transform="matrix(0,-1,-1,0,0,0)" style="fill-opacity: 0.301961; stroke-width: 0.322747;"/>
  </g>
  <g id="topleft" transform="matrix(0.98294543,0,0,0.9829868,18.017503,-882.07805)">
    <path d="m 23.411788,909.55245 c -6.592432,0 -11.221376,4.98481 -11.221376,11.19039 v 1.0173 h 12.208149 l 5.4e-5,-12.20769 z" id="rect4159" style="color: rgb(30, 36, 49); opacity: 0.75; fill-opacity: 1; stroke-width: 1.01733; stop-color: rgb(30, 36, 49);" class="ColorScheme-Background"/>
    <path id="path948-36" style="fill-opacity: 0.301961; stroke-width: 1.01731;" d="m 23.483003,909.55245 c -6.816249,0 -11.292591,5.08654 -11.292591,11.29211 v 0.91558 h 1.01731 v -0.91558 c 0,-5.68284 4.066548,-10.2748 10.275281,-10.2748 h 0.915205 v -1.01731 z"/>
  </g>
  <rect y="23.999998" x="42.000008" height="20" width="20.000002" id="center" style="color: rgb(30, 36, 49); opacity: 0.75; fill-opacity: 1; stroke-width: 0.6875; stop-color: rgb(30, 36, 49);" class="ColorScheme-Background"/>
  <g id="shadow-top" transform="translate(221.00003,-839.36218)">
    <rect transform="matrix(0,-1,-1,0,0,0)" id="rect4820" width="24.000053" height="19.999973" x="-863.36224" y="159.00005" style="fill:none;stroke-width:0.965814"/>
    <rect transform="matrix(0,-1,-1,0,0,0)" style="opacity:0.5;fill:url(#linearGradient981);stroke-width:0.912861" id="rect4822" width="12.000001" height="20" x="-851.36218" y="159.00003"/>
    <rect y="159.00003" x="-851.36218" height="20" width="1" id="rect986" style="color:#1e2431;fill:#1e2431;fill-opacity:0.5;stroke-width:0.912895;stop-color:#1e2431" transform="matrix(0,-1,-1,0,0,0)" class="ColorScheme-Background"/>
  </g>
  <g id="shadow-bottomleft" transform="matrix(0.98296708,0,0,-0.98297612,43.523243,982.59141)">
    <path id="path960" style="opacity:0.5;fill:url(#radialGradient967);stroke-width:1.01732" d="m -25.965498,930.43095 v 24.41565 h 12.207825 v -1.01732 c 0,-6.20564 4.5780879,-11.19051 11.1905022,-11.19051 h 1.0173187 v -12.20782 z"/>
    <path id="path963" style="color:#1e2431;opacity:1;fill:#1e2431;fill-opacity:0.5;stroke-width:1.04241;stop-color:#1e2431" d="m -2.5917244,941.62146 c -6.9300146,0 -12.1831656,5.25303 -12.1831656,12.18275 v 1.04239 h 1.017329 v -1.04239 c 0,-6.35222 4.813356,-11.16543 11.1658366,-11.16543 h 1.0424192 v -1.01732 z" class="ColorScheme-Background"/>
  </g>
  <g id="shadow-bottomright" transform="matrix(-0.98298665,0,0,-0.98297848,59.476204,979.59361)">
    <path id="path985" style="opacity:0.5;fill:url(#radialGradient991);stroke-width:1.01732" d="m -26.983084,927.37899 v 24.41559 h 12.207798 v -1.01732 c 0,-6.19949 4.577986,-11.19049 11.190478,-11.19049 h 1.0173164 v -12.20778 z"/>
    <path id="path987" style="color:#1e2431;opacity:1;fill:#1e2431;fill-opacity:0.5;stroke-width:1.04238;stop-color:#1e2431" d="m -3.6098625,938.56949 c -6.9296925,0 -12.1826825,5.25305 -12.1826825,12.18273 v 1.04238 h 1.01736 v -1.04238 c 0,-6.07883 4.8131428,-11.16541 11.1653225,-11.16541 h 1.0423709 v -1.01732 z" class="ColorScheme-Background"/>
  </g>
  <g id="shadow-topright" transform="matrix(0.46460136,0,0,0.46460129,42.667653,-300.95115)">
    <path id="path657" style="opacity:0.5;fill:url(#radialGradient663);stroke-width:2.15239" d="M 93.267827,647.76219 H 41.610639 v 25.8286 h 2.152384 c 12.914296,0 23.67621,9.94522 23.67621,23.83764 v 1.99096 h 25.828594 z"/>
    <path id="path659" style="color:#1e2431;fill:#1e2431;fill-opacity:0.5;stroke-width:2.20542;stop-color:#1e2431" d="m 69.592584,697.21397 c 0,-14.33589 -11.465068,-25.77556 -25.786513,-25.77556 h -2.195432 v 2.15238 h 2.195432 c 13.732202,0 23.633163,10.76192 23.633163,23.77412 v 2.05448 h 2.15335 z" class="ColorScheme-Background"/>
  </g>
  <g id="topright" transform="matrix(0.675819,0,0,0.67580866,143.89118,-529.71828)">
    <path d="m -103.41672,817.86208 c 0,-8.87825 -6.76245,-16.27679 -16.27683,-16.27679 h -1.47968 v 17.75651 h 17.75651 z" id="rect4159-3" style="color: rgb(30, 36, 49); opacity: 0.75; fill-opacity: 1; stroke-width: 1.0173; stop-color: rgb(30, 36, 49);" class="ColorScheme-Background"/>
    <path id="path948-5" style="fill-opacity: 0.301961; stroke-width: 1.47974;" d="m -103.41673,817.86209 c 0,-9.32217 -7.10276,-16.2768 -16.27682,-16.2768 h -1.47968 l 3.3e-4,1.47971 h 1.47935 c 8.91993,0 14.79686,6.65869 14.79686,14.94506 v 1.33174 h 1.47996 z"/>
  </g>
  <g id="shadow-right" transform="matrix(0.68747883,0,0,0.66847145,158.55975,-510.7331)">
    <rect transform="scale(1,-1)" id="rect4820-7" width="34.90971" height="29.091425" x="-140.45486" y="-829.85303" style="fill:none;stroke-width:1.45457"/>
    <rect transform="scale(1,-1)" style="opacity:0.5;fill:url(#linearGradient1105);stroke-width:1.34659" id="rect4822-9" width="17.455084" height="29.919004" x="-122.99978" y="-829.85309"/>
    <rect y="-829.85309" x="-122.99978" height="29.919004" width="1.4545902" id="rect986-2" style="color:#1e2431;fill:currentColor;fill-opacity:0.5;stroke-width:1.34663;stop-color:#1e2431" transform="scale(1,-1)" class="ColorScheme-Background"/>
  </g>
  <g id="shadow-left" transform="matrix(0.68748537,0,0,0.68747949,181.43189,-559.32533)">
    <rect transform="scale(-1,1)" id="rect4820-7-6" width="34.909386" height="29.091425" x="202.81479" y="848.49884" style="fill:none;stroke-width:1.45456"/>
    <rect transform="scale(-1,1)" style="opacity:0.5;fill:url(#linearGradient2260);stroke-width:1.32783" id="rect4822-9-1" width="17.454693" height="29.091425" x="220.26947" y="848.49884"/>
    <rect y="848.49854" x="220.26926" height="29.091766" width="1.4545764" id="rect986-2-2" style="color:#1e2431;fill:#1e2431;fill-opacity:0.5;stroke-width:1.32788;stop-color:#1e2431" transform="scale(-1,1)" class="ColorScheme-Background"/>
  </g>
  <g id="shadow-bottom" transform="translate(251.00002,-827.36218)">
    <rect transform="matrix(0,1,1,0,0,0)" id="rect4820-5" width="23.999992" height="19.999989" x="871.36218" y="-209.00002" style="fill:none;stroke-width:0.986065" ry="0" rx="1.9999926"/>
    <rect transform="matrix(0,1,1,0,0,0)" style="opacity:0.5;fill:url(#linearGradient3098);stroke-width:0.924487" id="rect4822-2" width="11.999992" height="19.999996" x="883.36218" y="-209.00002" ry="0"/>
    <rect y="-209.00002" x="883.36218" height="20" width="1" id="rect986-5" style="color:#1e2431;fill:currentColor;fill-opacity:0.5;stroke-width:0.912919;stop-color:#1e2431" transform="matrix(0,1,1,0,0,0)" class="ColorScheme-Background"/>
  </g>
  <g id="left" transform="matrix(0.68747889,0,0,0.68745716,123.87188,-575.64907)">
    <rect y="872.27118" x="119.09011" height="29.092712" width="17.455" id="rect4152-6" transform="scale(-1,1)" style="color: rgb(30, 36, 49); opacity: 0.75; fill-opacity: 1; stroke-width: 1.6263; stop-color: rgb(30, 36, 49);" class="ColorScheme-Background "/>
    <rect y="872.27118" x="135.09052" height="29.092712" width="1.4545901" id="rect972-7" transform="scale(-1,1)" style="fill-opacity: 0.301961; stroke-width: 0.469475;"/>
  </g>
  <g id="right" transform="matrix(0.67581016,0,0,0.66849919,84.893997,-544.33925)">
    <rect y="-880.08978" x="-33.876354" height="29.917763" width="17.756466" id="rect4152-2" transform="scale(1,-1)" style="color: rgb(30, 36, 49); opacity: 0.75; fill-opacity: 1; stroke-width: 1.66343; stop-color: rgb(30, 36, 49);" class="ColorScheme-Background "/>
    <rect y="-880.08978" x="-17.59959" height="29.917763" width="1.4797055" id="rect972-9" transform="scale(1,-1)" style="fill-opacity: 0.301961; stroke-width: 0.480179;"/>
  </g>
  <g id="bottom" transform="matrix(0.71551173,0,0,0.67580193,70.366656,-536.51763)">
    <rect y="-39.645252" x="859.00562" height="27.952023" width="17.756681" id="rect4152-2-2" transform="matrix(0,1,1,0,0,0)" style="color: rgb(30, 36, 49); opacity: 0.75; fill-opacity: 1; stroke-width: 1.60785; stop-color: rgb(30, 36, 49);" class="ColorScheme-Background "/>
    <rect y="-39.645252" x="875.28259" height="27.952023" width="1.4797235" id="rect972-9-7" transform="matrix(0,1,1,0,0,0)" style="fill-opacity: 0.301961; stroke-width: 0.464139;"/>
  </g>
  <g id="bottomleft" transform="matrix(0.67580003,0,0,0.67577475,152.10505,-572.80274)">
    <path d="m -180.68222,914.21399 c 0,9.17467 6.80675,16.27763 16.27715,16.27763 h 1.47974 v -17.7574 h -17.75689 z" id="rect4159-9" style="color: rgb(30, 36, 49); opacity: 0.75; fill-opacity: 1; stroke-width: 1.47976; stop-color: rgb(30, 36, 49);" class="ColorScheme-Background "/>
    <path id="path948-3" style="fill-opacity: 0.301961; stroke-width: 1.47976;" d="m -180.68222,913.77007 c 0,9.91455 7.1027,16.72155 16.27714,16.72155 h 1.47974 l -1.4e-4,-1.47979 h -1.47973 c -8.62401,0 -14.79728,-6.36489 -14.79728,-15.09113 v -1.18648 h -1.47973 z"/>
  </g>
  <g id="bottomright" transform="matrix(0.67579135,0,0,0.67580162,107.14994,-574.54711)">
    <path d="m -65.330707,933.03581 c 9.174411,0 16.277417,-7.10268 16.277417,-16.27696 v -1.47973 h -17.757182 v 17.75669 z" id="rect4159-6" style="color: rgb(30, 36, 49); opacity: 0.75; fill-opacity: 1; stroke-width: 1.47975; stop-color: rgb(30, 36, 49);" class="ColorScheme-Background "/>
    <path id="path948-1" style="fill:#003333;fill-opacity:0.3019608;stroke-width:1.47974" d="m -65.330725,933.03581 c 9.026454,0.003 16.277405,-7.17671 16.277405,-16.27696 v -1.47973 h -1.479939 v 1.47972 c 0,7.69457 -5.918986,14.79724 -14.797466,14.79724 h -1.479747 v 1.47923 z"/>
  </g>
  <g id="mask-topleft" transform="matrix(0.95651966,0,0,0.95651966,258.99977,-1003.2138)" style="fill:#182030;fill-opacity:1">
    <path d="m -124.93183,1062.4077 v 0 h -1.04545 c -6.79548,0 -10.97731,4.1818 -10.9773,10.9773 v 1.0454 h -1e-5 -1.04538 13.06814 v -12.0227 -1.0453 z" id="rect4159-36" style="color: rgb(30, 36, 49); fill-opacity: 1; stroke-width: 1; stop-color: rgb(30, 36, 49); fill: rgb(24, 26, 32);" class="ColorScheme-Background "/>
  </g>
  <g id="mask-center" transform="matrix(0.95,0,0,0.95,111.55003,-892.34405)" style="fill:#182030;fill-opacity:1">
    <rect y="965.099" x="29.421047" height="20" width="20.000002" id="center-6-3" style="color: rgb(30, 36, 49); fill-opacity: 1; stroke-width: 0.6875; stop-color: rgb(30, 36, 49); fill: rgb(24, 26, 32);" class="ColorScheme-Background "/>
  </g>
  <g id="mask-top" style="fill:#182030;fill-opacity:1" transform="translate(254.00004,-956.36219)">
    <rect y="95.500031" x="-980.86218" height="19" width="12.499969" id="rect4152-27" transform="matrix(0,-1,-1,0,0,0)" style="color: rgb(30, 36, 49); fill-opacity: 1; stroke-width: 1.11218; stop-color: rgb(30, 36, 49); fill: rgb(24, 26, 32);" class="ColorScheme-Background "/>
  </g>
  <g id="mask-left" style="fill:#182030;fill-opacity:1" transform="translate(254.00004,-956.36219)">
    <rect y="980.86218" x="114.50002" height="19" width="12.499997" id="rect4152-6-4" transform="scale(-1,1)" style="color: rgb(30, 36, 49); fill-opacity: 1; stroke-width: 1.11219; stop-color: rgb(30, 36, 49); fill: rgb(24, 26, 32);" class="ColorScheme-Background "/>
  </g>
  <g id="mask-right" style="fill:#182030;fill-opacity:1" transform="translate(254.00004,-956.36219)">
    <rect y="-999.86218" x="-95.500015" height="19" width="12.499999" id="rect4152-2-3" transform="scale(1,-1)" style="color: rgb(30, 36, 49); fill-opacity: 1; stroke-width: 1.11223; stop-color: rgb(30, 36, 49); fill: rgb(24, 26, 32);" class="ColorScheme-Background "/>
  </g>
  <g id="mask-bottom" style="fill:#182030;fill-opacity:1" transform="translate(254.00004,-956.36219)">
    <rect y="-114.50002" x="999.86218" height="19" width="12.500032" id="rect4152-2-2-0" transform="matrix(0,1,1,0,0,0)" style="color: rgb(30, 36, 49); fill-opacity: 1; stroke-width: 1.11222; stop-color: rgb(30, 36, 49); fill: rgb(24, 26, 32);" class="ColorScheme-Background "/>
  </g>
  <g id="mask-topright" style="fill:#182030;fill-opacity:1" transform="translate(254.00004,-956.36219)">
    <path d="m -84.00007,980.86213 v 0 -1 c 0,-6.49994 -3.99995,-10.49994 -10.5,-10.5 h -0.99995 v -10e-6 -0.99993 12.5 l 11.49991,-1e-4 h 0.99985 z" id="rect4159-36-3" style="color: rgb(30, 36, 49); fill-opacity: 1; stroke-width: 0.95652; stop-color: rgb(30, 36, 49); fill: rgb(24, 26, 32);" class="ColorScheme-Background "/>
  </g>
  <g id="mask-bottomright" style="fill:#182030;fill-opacity:1" transform="translate(254.00004,-956.36219)">
    <path d="m -95.50002,1011.3621 v 0 h 1 c 6.4999,0 10.4999,-3.9999 10.5,-10.5 v -0.99991 0 h 0.9999 -12.4999 l 2e-4,11.49991 v 0.9998 z" id="rect4159-36-3-6" style="color: rgb(30, 36, 49); fill-opacity: 1; stroke-width: 0.95652; stop-color: rgb(30, 36, 49); fill: rgb(24, 26, 32);" class="ColorScheme-Background "/>
  </g>
  <g id="mask-bottomleft" style="fill:#182030;fill-opacity:1" transform="translate(254.00004,-956.36219)">
    <path d="m -126.00022,999.86219 v 0 1.00001 c 0,6.4999 3.9999,10.4999 10.5,10.5 h 0.9999 v 0 0.9999 l 3e-4,-12.49991 -11.5002,2.1e-4 h -0.9998 z" id="rect4159-36-3-6-7" style="color: rgb(30, 36, 49); fill-opacity: 1; stroke-width: 0.95652; stop-color: rgb(30, 36, 49); fill: rgb(24, 26, 32);" class="ColorScheme-Background "/>
  </g>
  <rect id="shadow-hint-top-margin" height="10" style="fill:#ff00ff" width="2" x="-97.182098" y="1.0000991"/>
  <rect id="shadow-hint-bottom-margin" height="10" style="fill:#ff00ff" width="2" x="-97.182098" y="55.000099"/>
  <rect id="shadow-hint-top-inset" height="10" style="fill:#00ff00" width="2" x="-93.182098" y="1.0000991"/>
  <rect id="shadow-hint-bottom-inset" height="10" style="fill:#00ff00" width="2" x="-93.182098" y="55.000099"/>
  <rect id="shadow-hint-right-margin" height="2" style="fill:#ff00ff" width="10" x="-72.182098" y="34.000099"/>
  <rect id="shadow-hint-left-margin" height="2" style="fill:#ff00ff" width="10" x="-126.1821" y="30.000099"/>
  <rect id="shadow-hint-right-inset" height="2" style="fill:#00ff00" width="10" x="-72.182098" y="30.000099"/>
  <rect id="shadow-hint-left-inset" height="2" style="fill:#00ff00" width="10" x="-126.1821" y="34.000099"/>
  <rect id="hint-right-margin" height="4" style="fill:#ff00ff;stroke-width:0.999996" width="4" x="106" y="88.999863"/>
  <rect id="hint-left-margin" height="4" style="fill:#ff00ff;stroke-width:0.999996" width="4" x="66" y="88.999863"/>
  <rect id="hint-left-inset" height="4" style="fill:#00ff00" width="9.9999999e-09" x="66" y="88.999863"/>
  <rect id="hint-right-inset" height="4" style="fill:#00ff00" width="9.9999999e-09" x="110" y="88.999863"/>
  <rect id="hint-top-margin" height="4" style="fill:#ff00ff;stroke-width:0.999996" width="4" x="86.758041" y="70"/>
  <rect id="hint-bottom-margin" height="4" style="fill:#ff00ff;stroke-width:0.999996" width="4" x="86.758041" y="110"/>
  <rect id="hint-top-inset" height="9.9999999e-09" style="fill:#00ff00" width="4" x="86.758041" y="70"/>
  <rect id="hint-bottom-inset" height="9.9999999e-09" style="fill:#00ff00" width="4" x="86.758041" y="114"/>
</svg>