<?xml version="1.0" encoding="utf-8"?>
<svg width="512" height="512" version="1.1" viewBox="0 0 384 384" xmlns="http://www.w3.org/2000/svg">
  <path d="m372 192c0 99.41-80.59 180-180 180s-180-80.59-180-180 80.59-180 180-180 180 80.59 180 180z" style="fill: rgb(24, 26, 32);"/>
  <path transform="scale(.75)" d="m16.062 251c-0.034009 1.6633-0.0625 3.3285-0.0625 5 0 132.55 107.45 240 240 240s240-107.45 240-240c0-1.6715-0.02849-3.3367-0.0625-5-2.6629 130.24-109.06 235-239.94 235s-237.27-104.76-239.94-235z" opacity=".3" stroke-width="1.3333"/>
  <path transform="scale(.75)" d="m256 16c-132.55 0-240 107.45-240 240 0 1.6715 0.028491 3.3367 0.0625 5 2.6629-130.24 109.06-235 239.94-235s237.27 104.76 239.94 235c0.03401-1.6633 0.0625-3.3285 0.0625-5 0-132.55-107.45-240-240-240z" fill="#fff" opacity=".1" stroke-width="1.3333"/>
  <path style="" d="M 197.4 300 L 197.4 285.219 L 203.97 285.219 L 203.97 265.511 L 210.54 265.511 L 210.54 239.233 L 217.11 239.233 L 217.11 168.612 L 203.97 168.612 L 203.97 160.4 L 217.11 160.4 L 217.11 153.831 L 223.68 153.831 L 223.68 135.765 L 217.11 135.765 L 217.11 122.626 L 210.54 122.626 L 210.54 107.843 L 218.75 107.843 L 218.75 114.414 L 223.68 114.414 L 223.68 107.843 L 231.89 107.843 L 231.89 114.414 L 236.82 114.414 L 236.82 102.915 L 230.25 102.915 L 230.25 94.703 L 236.82 94.703 L 236.82 88.133 L 245.03 88.133 L 245.03 91.418 L 245.03 94.703 L 251.6 94.703 L 251.6 102.915 L 245.03 102.915 L 245.03 114.414 L 249.96 114.414 L 249.96 107.843 L 258.17 107.843 L 258.17 114.414 L 263.1 114.414 L 263.1 107.843 L 271.31 107.843 L 271.31 122.626 L 264.74 122.626 L 264.74 135.765 L 258.17 135.765 L 258.17 153.831 L 264.74 153.831 L 264.74 160.4 L 277.88 160.4 L 277.88 168.612 L 264.74 168.612 L 264.74 239.233 L 271.31 239.233 L 271.31 265.511 L 277.88 265.511 L 277.88 285.219 L 284.45 285.219 L 284.45 300 L 197.4 300 Z M 223.68 291.788 L 223.68 286.862 L 218.75 286.862 L 218.75 291.788 L 223.68 291.788 Z M 236.82 291.788 L 236.82 286.862 L 231.89 286.862 L 231.89 291.788 L 236.82 291.788 Z M 249.96 291.788 L 249.96 286.862 L 245.03 286.862 L 245.03 291.788 L 249.96 291.788 Z M 263.1 291.788 L 263.1 286.862 L 258.17 286.862 L 258.17 291.788 L 263.1 291.788 Z M 217.11 285.219 L 217.11 280.292 L 212.18 280.292 L 212.18 285.219 L 217.11 285.219 Z M 230.25 285.219 L 230.25 280.292 L 225.32 280.292 L 225.32 285.219 L 230.25 285.219 Z M 243.39 285.219 L 243.39 280.292 L 238.46 280.292 L 238.46 285.219 L 243.39 285.219 Z M 256.53 285.219 L 256.53 280.292 L 251.6 280.292 L 251.6 285.219 L 256.53 285.219 Z M 269.67 285.219 L 269.67 280.292 L 264.74 280.292 L 264.74 285.219 L 269.67 285.219 Z M 223.68 278.65 L 223.68 273.722 L 218.75 273.722 L 218.75 278.65 L 223.68 278.65 Z M 236.82 278.65 L 236.82 273.722 L 231.89 273.722 L 231.89 278.65 L 236.82 278.65 Z M 249.96 278.65 L 249.96 273.722 L 245.03 273.722 L 245.03 278.65 L 249.96 278.65 Z M 263.1 278.65 L 263.1 273.722 L 258.17 273.722 L 258.17 278.65 L 263.1 278.65 Z M 230.25 272.08 L 230.25 267.153 L 225.32 267.153 L 225.32 272.08 L 230.25 272.08 Z M 243.39 272.08 L 243.39 267.153 L 238.46 267.153 L 238.46 272.08 L 243.39 272.08 Z M 256.53 272.08 L 256.53 267.153 L 251.6 267.153 L 251.6 272.08 L 256.53 272.08 Z M 223.68 265.511 L 223.68 260.584 L 218.75 260.584 L 218.75 265.511 L 223.68 265.511 Z M 236.82 265.511 L 236.82 260.584 L 231.89 260.584 L 231.89 265.511 L 236.82 265.511 Z M 249.96 265.511 L 249.96 260.584 L 245.03 260.584 L 245.03 265.511 L 249.96 265.511 Z M 263.1 265.511 L 263.1 260.584 L 258.17 260.584 L 258.17 265.511 L 263.1 265.511 Z M 230.25 258.941 L 230.25 254.015 L 225.32 254.015 L 225.32 258.941 L 230.25 258.941 Z M 243.39 258.941 L 243.39 254.015 L 238.46 254.015 L 238.46 258.941 L 243.39 258.941 Z M 256.53 258.941 L 256.53 254.015 L 251.6 254.015 L 251.6 258.941 L 256.53 258.941 Z M 223.68 252.372 L 223.68 247.445 L 218.75 247.445 L 218.75 252.372 L 223.68 252.372 Z M 236.82 252.372 L 236.82 247.445 L 231.89 247.445 L 231.89 252.372 L 236.82 252.372 Z M 249.96 252.372 L 249.96 247.445 L 245.03 247.445 L 245.03 252.372 L 249.96 252.372 Z M 263.1 252.372 L 263.1 247.445 L 258.17 247.445 L 258.17 252.372 L 263.1 252.372 Z M 230.25 245.803 L 230.25 240.875 L 225.32 240.875 L 225.32 245.803 L 230.25 245.803 Z M 243.39 245.803 L 243.39 240.875 L 238.46 240.875 L 238.46 245.803 L 243.39 245.803 Z M 256.53 245.803 L 256.53 240.875 L 251.6 240.875 L 251.6 245.803 L 256.53 245.803 Z M 236.82 239.233 L 236.82 234.306 L 231.89 234.306 L 231.89 239.233 L 236.82 239.233 Z M 249.96 239.233 L 249.96 234.306 L 245.03 234.306 L 245.03 239.233 L 249.96 239.233 Z M 230.25 232.664 L 230.25 227.737 L 225.32 227.737 L 225.32 232.664 L 230.25 232.664 Z M 243.39 232.664 L 243.39 227.737 L 238.46 227.737 L 238.46 232.664 L 243.39 232.664 Z M 256.53 232.664 L 256.53 227.737 L 251.6 227.737 L 251.6 232.664 L 256.53 232.664 Z M 236.82 226.094 L 236.82 221.168 L 231.89 221.168 L 231.89 226.094 L 236.82 226.094 Z M 249.96 226.094 L 249.96 221.168 L 245.03 221.168 L 245.03 226.094 L 249.96 226.094 Z M 230.25 219.525 L 230.25 214.598 L 225.32 214.598 L 225.32 219.525 L 230.25 219.525 Z M 243.39 219.525 L 243.39 214.598 L 238.46 214.598 L 238.46 219.525 L 243.39 219.525 Z M 256.53 219.525 L 256.53 214.598 L 251.6 214.598 L 251.6 219.525 L 256.53 219.525 Z M 236.82 212.956 L 236.82 208.028 L 231.89 208.028 L 231.89 212.956 L 236.82 212.956 Z M 249.96 212.956 L 249.96 208.028 L 245.03 208.028 L 245.03 212.956 L 249.96 212.956 Z M 230.25 206.386 L 230.25 201.459 L 225.32 201.459 L 225.32 206.386 L 230.25 206.386 Z M 243.39 206.386 L 243.39 201.459 L 238.46 201.459 L 238.46 206.386 L 243.39 206.386 Z M 256.53 206.386 L 256.53 201.459 L 251.6 201.459 L 251.6 206.386 L 256.53 206.386 Z M 236.82 199.817 L 236.82 194.89 L 231.89 194.89 L 231.89 199.817 L 236.82 199.817 Z M 249.96 199.817 L 249.96 194.89 L 245.03 194.89 L 245.03 199.817 L 249.96 199.817 Z M 230.25 193.247 L 230.25 188.321 L 225.32 188.321 L 225.32 193.247 L 230.25 193.247 Z M 243.39 193.247 L 243.39 188.321 L 238.46 188.321 L 238.46 193.247 L 243.39 193.247 Z M 256.53 193.247 L 256.53 188.321 L 251.6 188.321 L 251.6 193.247 L 256.53 193.247 Z M 236.82 186.678 L 236.82 181.751 L 231.89 181.751 L 231.89 186.678 L 236.82 186.678 Z M 249.96 186.678 L 249.96 181.751 L 245.03 181.751 L 245.03 186.678 L 249.96 186.678 Z M 230.25 180.109 L 230.25 175.181 L 225.32 175.181 L 225.32 180.109 L 230.25 180.109 Z M 243.39 180.109 L 243.39 175.181 L 238.46 175.181 L 238.46 180.109 L 243.39 180.109 Z M 256.53 180.109 L 256.53 175.181 L 251.6 175.181 L 251.6 180.109 L 256.53 180.109 Z M 256.53 166.97 L 256.53 162.043 L 249.96 162.043 L 249.96 127.553 L 256.53 127.553 L 256.53 122.626 L 225.32 122.626 L 225.32 127.553 L 231.89 127.553 L 231.89 162.043 L 225.32 162.043 L 225.32 166.97 L 256.53 166.97 Z M 112 280.292 L 112 265.511 L 118.57 265.511 L 118.57 245.803 L 125.14 245.803 L 125.14 219.525 L 131.71 219.525 L 131.71 148.904 L 118.57 148.904 L 118.57 140.692 L 131.71 140.692 L 131.71 134.123 L 138.28 134.123 L 138.28 116.057 L 131.71 116.057 L 131.71 102.915 L 125.14 102.915 L 125.14 88.133 L 133.35 88.133 L 133.35 94.703 L 138.28 94.703 L 138.28 88.133 L 146.49 88.133 L 146.49 94.703 L 151.42 94.703 L 151.42 83.205 L 144.85 83.205 L 144.85 75 L 153.06 75 L 153.06 81.563 L 157.99 81.563 L 157.99 75 L 166.2 75 L 166.2 83.205 L 159.63 83.205 L 159.63 94.703 L 164.55 94.703 L 164.55 88.133 L 172.77 88.133 L 172.77 94.703 L 177.69 94.703 L 177.69 88.133 L 185.91 88.133 L 185.91 102.915 L 179.34 102.915 L 179.34 116.057 L 172.77 116.057 L 172.77 134.123 L 179.34 134.123 L 179.34 140.692 L 192.48 140.692 L 192.48 148.904 L 179.34 148.904 L 179.34 219.525 L 185.91 219.525 L 185.91 245.803 L 192.48 245.803 L 192.48 265.511 L 199.04 265.511 L 199.04 280.292 L 112 280.292 Z" id="path-1"/>
  <path style="fill: rgb(255, 255, 255);" d="M 193 295.6 L 193 280.819 L 199.57 280.819 L 199.57 261.111 L 206.14 261.111 L 206.14 234.833 L 212.71 234.833 L 212.71 164.212 L 199.57 164.212 L 199.57 156 L 212.71 156 L 212.71 149.431 L 219.28 149.431 L 219.28 131.365 L 212.71 131.365 L 212.71 118.226 L 206.14 118.226 L 206.14 103.443 L 214.35 103.443 L 214.35 110.014 L 219.28 110.014 L 219.28 103.443 L 227.49 103.443 L 227.49 110.014 L 232.42 110.014 L 232.42 98.515 L 225.85 98.515 L 225.85 90.303 L 232.42 90.303 L 232.42 83.733 L 240.63 83.733 L 240.63 87.018 L 240.63 90.303 L 247.2 90.303 L 247.2 98.515 L 240.63 98.515 L 240.63 110.014 L 245.56 110.014 L 245.56 103.443 L 253.77 103.443 L 253.77 110.014 L 258.7 110.014 L 258.7 103.443 L 266.91 103.443 L 266.91 118.226 L 260.34 118.226 L 260.34 131.365 L 253.77 131.365 L 253.77 149.431 L 260.34 149.431 L 260.34 156 L 273.48 156 L 273.48 164.212 L 260.34 164.212 L 260.34 234.833 L 266.91 234.833 L 266.91 261.111 L 273.48 261.111 L 273.48 280.819 L 280.05 280.819 L 280.05 295.6 L 193 295.6 Z M 219.28 287.388 L 219.28 282.462 L 214.35 282.462 L 214.35 287.388 L 219.28 287.388 Z M 232.42 287.388 L 232.42 282.462 L 227.49 282.462 L 227.49 287.388 L 232.42 287.388 Z M 245.56 287.388 L 245.56 282.462 L 240.63 282.462 L 240.63 287.388 L 245.56 287.388 Z M 258.7 287.388 L 258.7 282.462 L 253.77 282.462 L 253.77 287.388 L 258.7 287.388 Z M 212.71 280.819 L 212.71 275.892 L 207.78 275.892 L 207.78 280.819 L 212.71 280.819 Z M 225.85 280.819 L 225.85 275.892 L 220.92 275.892 L 220.92 280.819 L 225.85 280.819 Z M 238.99 280.819 L 238.99 275.892 L 234.06 275.892 L 234.06 280.819 L 238.99 280.819 Z M 252.13 280.819 L 252.13 275.892 L 247.2 275.892 L 247.2 280.819 L 252.13 280.819 Z M 265.27 280.819 L 265.27 275.892 L 260.34 275.892 L 260.34 280.819 L 265.27 280.819 Z M 219.28 274.25 L 219.28 269.322 L 214.35 269.322 L 214.35 274.25 L 219.28 274.25 Z M 232.42 274.25 L 232.42 269.322 L 227.49 269.322 L 227.49 274.25 L 232.42 274.25 Z M 245.56 274.25 L 245.56 269.322 L 240.63 269.322 L 240.63 274.25 L 245.56 274.25 Z M 258.7 274.25 L 258.7 269.322 L 253.77 269.322 L 253.77 274.25 L 258.7 274.25 Z M 225.85 267.68 L 225.85 262.753 L 220.92 262.753 L 220.92 267.68 L 225.85 267.68 Z M 238.99 267.68 L 238.99 262.753 L 234.06 262.753 L 234.06 267.68 L 238.99 267.68 Z M 252.13 267.68 L 252.13 262.753 L 247.2 262.753 L 247.2 267.68 L 252.13 267.68 Z M 219.28 261.111 L 219.28 256.184 L 214.35 256.184 L 214.35 261.111 L 219.28 261.111 Z M 232.42 261.111 L 232.42 256.184 L 227.49 256.184 L 227.49 261.111 L 232.42 261.111 Z M 245.56 261.111 L 245.56 256.184 L 240.63 256.184 L 240.63 261.111 L 245.56 261.111 Z M 258.7 261.111 L 258.7 256.184 L 253.77 256.184 L 253.77 261.111 L 258.7 261.111 Z M 225.85 254.541 L 225.85 249.615 L 220.92 249.615 L 220.92 254.541 L 225.85 254.541 Z M 238.99 254.541 L 238.99 249.615 L 234.06 249.615 L 234.06 254.541 L 238.99 254.541 Z M 252.13 254.541 L 252.13 249.615 L 247.2 249.615 L 247.2 254.541 L 252.13 254.541 Z M 219.28 247.972 L 219.28 243.045 L 214.35 243.045 L 214.35 247.972 L 219.28 247.972 Z M 232.42 247.972 L 232.42 243.045 L 227.49 243.045 L 227.49 247.972 L 232.42 247.972 Z M 245.56 247.972 L 245.56 243.045 L 240.63 243.045 L 240.63 247.972 L 245.56 247.972 Z M 258.7 247.972 L 258.7 243.045 L 253.77 243.045 L 253.77 247.972 L 258.7 247.972 Z M 225.85 241.403 L 225.85 236.475 L 220.92 236.475 L 220.92 241.403 L 225.85 241.403 Z M 238.99 241.403 L 238.99 236.475 L 234.06 236.475 L 234.06 241.403 L 238.99 241.403 Z M 252.13 241.403 L 252.13 236.475 L 247.2 236.475 L 247.2 241.403 L 252.13 241.403 Z M 232.42 234.833 L 232.42 229.906 L 227.49 229.906 L 227.49 234.833 L 232.42 234.833 Z M 245.56 234.833 L 245.56 229.906 L 240.63 229.906 L 240.63 234.833 L 245.56 234.833 Z M 225.85 228.264 L 225.85 223.337 L 220.92 223.337 L 220.92 228.264 L 225.85 228.264 Z M 238.99 228.264 L 238.99 223.337 L 234.06 223.337 L 234.06 228.264 L 238.99 228.264 Z M 252.13 228.264 L 252.13 223.337 L 247.2 223.337 L 247.2 228.264 L 252.13 228.264 Z M 232.42 221.694 L 232.42 216.768 L 227.49 216.768 L 227.49 221.694 L 232.42 221.694 Z M 245.56 221.694 L 245.56 216.768 L 240.63 216.768 L 240.63 221.694 L 245.56 221.694 Z M 225.85 215.125 L 225.85 210.198 L 220.92 210.198 L 220.92 215.125 L 225.85 215.125 Z M 238.99 215.125 L 238.99 210.198 L 234.06 210.198 L 234.06 215.125 L 238.99 215.125 Z M 252.13 215.125 L 252.13 210.198 L 247.2 210.198 L 247.2 215.125 L 252.13 215.125 Z M 232.42 208.556 L 232.42 203.628 L 227.49 203.628 L 227.49 208.556 L 232.42 208.556 Z M 245.56 208.556 L 245.56 203.628 L 240.63 203.628 L 240.63 208.556 L 245.56 208.556 Z M 225.85 201.986 L 225.85 197.059 L 220.92 197.059 L 220.92 201.986 L 225.85 201.986 Z M 238.99 201.986 L 238.99 197.059 L 234.06 197.059 L 234.06 201.986 L 238.99 201.986 Z M 252.13 201.986 L 252.13 197.059 L 247.2 197.059 L 247.2 201.986 L 252.13 201.986 Z M 232.42 195.417 L 232.42 190.49 L 227.49 190.49 L 227.49 195.417 L 232.42 195.417 Z M 245.56 195.417 L 245.56 190.49 L 240.63 190.49 L 240.63 195.417 L 245.56 195.417 Z M 225.85 188.847 L 225.85 183.921 L 220.92 183.921 L 220.92 188.847 L 225.85 188.847 Z M 238.99 188.847 L 238.99 183.921 L 234.06 183.921 L 234.06 188.847 L 238.99 188.847 Z M 252.13 188.847 L 252.13 183.921 L 247.2 183.921 L 247.2 188.847 L 252.13 188.847 Z M 232.42 182.278 L 232.42 177.351 L 227.49 177.351 L 227.49 182.278 L 232.42 182.278 Z M 245.56 182.278 L 245.56 177.351 L 240.63 177.351 L 240.63 182.278 L 245.56 182.278 Z M 225.85 175.709 L 225.85 170.781 L 220.92 170.781 L 220.92 175.709 L 225.85 175.709 Z M 238.99 175.709 L 238.99 170.781 L 234.06 170.781 L 234.06 175.709 L 238.99 175.709 Z M 252.13 175.709 L 252.13 170.781 L 247.2 170.781 L 247.2 175.709 L 252.13 175.709 Z M 252.13 162.57 L 252.13 157.643 L 245.56 157.643 L 245.56 123.153 L 252.13 123.153 L 252.13 118.226 L 220.92 118.226 L 220.92 123.153 L 227.49 123.153 L 227.49 157.643 L 220.92 157.643 L 220.92 162.57 L 252.13 162.57 Z M 107.6 275.892 L 107.6 261.111 L 114.17 261.111 L 114.17 241.403 L 120.74 241.403 L 120.74 215.125 L 127.31 215.125 L 127.31 144.504 L 114.17 144.504 L 114.17 136.292 L 127.31 136.292 L 127.31 129.723 L 133.88 129.723 L 133.88 111.657 L 127.31 111.657 L 127.31 98.515 L 120.74 98.515 L 120.74 83.733 L 128.95 83.733 L 128.95 90.303 L 133.88 90.303 L 133.88 83.733 L 142.09 83.733 L 142.09 90.303 L 147.02 90.303 L 147.02 78.805 L 140.45 78.805 L 140.45 70.6 L 148.66 70.6 L 148.66 77.163 L 153.59 77.163 L 153.59 70.6 L 161.8 70.6 L 161.8 78.805 L 155.23 78.805 L 155.23 90.303 L 160.15 90.303 L 160.15 83.733 L 168.37 83.733 L 168.37 90.303 L 173.29 90.303 L 173.29 83.733 L 181.51 83.733 L 181.51 98.515 L 174.94 98.515 L 174.94 111.657 L 168.37 111.657 L 168.37 129.723 L 174.94 129.723 L 174.94 136.292 L 188.08 136.292 L 188.08 144.504 L 174.94 144.504 L 174.94 215.125 L 181.51 215.125 L 181.51 241.403 L 188.08 241.403 L 188.08 261.111 L 194.64 261.111 L 194.64 275.892 L 107.6 275.892 Z" id="path236"/>
</svg>