<svg version="1.1" viewBox="0 0 512 512" xmlns="http://www.w3.org/2000/svg" xmlns:xlink="http://www.w3.org/1999/xlink"><defs></defs><clipPath id="a"><path d="m2 2h124v124h-124z"/></clipPath><clipPath><path d="m34.957 2.3828 85.004 22.777c4.2656 1.1445 6.8008 5.5312 5.6562 9.7969l-22.777 85.004c-1.1445 4.2656-5.5312 6.8008-9.7969 5.6562l-85.004-22.777c-4.2656-1.1445-6.8008-5.5312-5.6562-9.7969l22.777-85.004c1.1445-4.2656 5.5312-6.7969 9.7969-5.6562z"/></clipPath><linearGradient id="d" x1="31.003" x2="71.043" y1="257.06" y2="220.17" gradientTransform="matrix(-5.9798 0 0 4.9288 539.73 -1010.3)" gradientUnits="userSpaceOnUse"><stop stop-color="#ffa348" offset="0"/><stop stop-color="#c061cb" offset=".47484"/><stop stop-color="#1c71d8" offset="1"/></linearGradient><clipPath id="e"><path d="m20 20h88v68h-88z"/></clipPath><clipPath id="f"><path d="m106 20h-84c-1.1055 0-2 0.89453-2 2v64c0 1.1055 0.89453 2 2 2h84c1.1055 0 2-0.89453 2-2v-64c0-1.1055-0.89453-2-2-2z"/></clipPath><filter id="g" x="0" y="0" width="1" height="1"><feColorMatrix in="SourceGraphic" values="0 0 0 0 1 0 0 0 0 1 0 0 0 0 1 0 0 0 1 0"/></filter><mask id="h"><g filter="url(#g)"><rect width="128" height="128" fill-opacity=".56846"/></g></mask><linearGradient id="i" gradientUnits="userSpaceOnUse"><stop stop-color="#fff" offset="0"/><stop stop-color="#fff" stop-opacity="0" offset="1"/></linearGradient><linearGradient id="j" x1="212.8" x2="290.8" y1="161.29" y2="161.29" gradientTransform="matrix(-.70711 .70711 .70711 .70711 110 -174)" xlink:href="#i"/><clipPath id="k"><rect width="192" height="152"/></clipPath><mask id="l"><g filter="url(#g)"><rect width="128" height="128" fill-opacity=".36313"/></g></mask><linearGradient id="m" x1="202.23" x2="240.8" y1="172.83" y2="172.83" gradientTransform="matrix(-.70711 .70711 .70711 .70711 111 -178)" xlink:href="#i"/><clipPath id="n"><rect width="192" height="152"/></clipPath><mask id="o"><g filter="url(#g)"><rect width="128" height="128" fill-opacity=".76868"/></g></mask><linearGradient id="p" x1="24" x2="38" y1="238" y2="238" gradientTransform="matrix(0 1.4286 -1.4286 0 427.29 12.714)" xlink:href="#i"/><clipPath id="q"><rect width="192" height="152"/></clipPath><clipPath id="r"><path d="m22 42h60v61h-60z"/></clipPath><clipPath id="s"><path d="m22.062 72.18c0 16.535 13.402 29.938 29.938 29.938s29.938-13.402 29.938-29.938c0-16.535-13.402-29.938-29.938-29.938s-29.938 13.402-29.938 29.938z"/></clipPath><linearGradient id="t" x1="31.003" x2="71.043" y1="257.06" y2="220.17" gradientTransform="matrix(-1.65 0 0 1.36 139.4 -271.76)" gradientUnits="userSpaceOnUse"><stop stop-color="#fd7d00" offset="0"/><stop stop-color="#9755b3" offset=".47484"/><stop stop-color="#316fd8" offset="1"/></linearGradient><clipPath id="u"><path d="m117.2 22h-100.8c-1.3242 0-2.3984 1.0742-2.3984 2.3984v76.801c0 1.3281 1.0742 2.4023 2.3984 2.4023h100.8c1.3281 0 2.4023-1.0742 2.4023-2.4023v-76.801c0-1.3242-1.0742-2.3984-2.4023-2.3984z"/></clipPath><mask id="v"><g filter="url(#g)"><rect width="128" height="128" fill-opacity=".56846"/></g></mask><linearGradient id="w" x1="212.8" x2="290.8" y1="161.29" y2="161.29" gradientTransform="matrix(-.84853 .84853 .84853 .84853 120.4 -214)" xlink:href="#i"/><clipPath id="x"><rect width="192" height="152"/></clipPath><mask id="y"><g filter="url(#g)"><rect width="128" height="128" fill-opacity=".36313"/></g></mask><linearGradient id="z" x1="202.23" x2="240.8" y1="172.83" y2="172.83" gradientTransform="matrix(-.84853 .84853 .84853 .84853 121.6 -218.8)" xlink:href="#i"/><clipPath id="ad"><rect width="192" height="152"/></clipPath><clipPath id="ac"><path d="m22 42h60v61h-60z"/></clipPath><clipPath id="ab"><path d="m22.062 72.18c0 16.535 13.402 29.938 29.938 29.938s29.938-13.402 29.938-29.938c0-16.535-13.402-29.938-29.938-29.938s-29.938 13.402-29.938 29.938z"/></clipPath><mask><g filter="url(#g)"><rect width="128" height="128" fill-opacity=".76868"/></g></mask><clipPath><rect width="192" height="152"/></clipPath><mask id="aa"><g filter="url(#g)"><rect width="128" height="128" fill-opacity=".154"/></g></mask><clipPath id="c"><rect width="192" height="152"/></clipPath><mask><g filter="url(#g)"><rect width="128" height="128" fill-opacity=".154"/></g></mask><clipPath><rect width="192" height="152"/></clipPath><mask id="b"><g filter="url(#g)"><rect width="128" height="128" fill-opacity=".35"/></g></mask><radialGradient id="L" cx="-72" cy="190" r="29.938" gradientTransform="matrix(-1 0 0 1 -12 -123.88)" gradientUnits="userSpaceOnUse"><stop stop-color="#fff" offset="0"/><stop stop-color="#fff" stop-opacity=".86667" offset=".27115"/><stop stop-color="#fff" stop-opacity="0" offset="1"/></radialGradient><clipPath id="M"><rect width="192" height="152"/></clipPath><g transform="matrix(4.1228 0 0 4.1228 12.754 -20.47)" clip-path="url(#a)"></g><path d="m95.211 29.004h362.81c18.214 0 32.982 14.768 32.982 32.982v362.81c0 18.214-14.768 32.982-32.982 32.982h-362.81c-18.214 0-32.982-14.768-32.982-32.982v-362.81c0-18.214 14.768-32.982 32.982-32.982z" fill="#f6f5f4" stroke-width="4.1228"/><path d="m62.229 404.79v20c0 18.214 14.768 32.982 32.982 32.982h362.81c18.214 0 32.982-14.768 32.982-32.982v-20c0 18.214-14.768 32.982-32.982 32.982h-362.81c-18.214 0-32.982-14.768-32.982-32.982z" opacity=".2" stroke-width="4.1228"/><path d="m459.27 54.298h-365.31c-4.8076 0-8.6979 3.8903-8.6979 8.6979v278.33c0 4.8076 3.8903 8.6979 8.6979 8.6979h365.31c4.8076 0 8.6979-3.8903 8.6979-8.6979v-278.33c0-4.8076-3.8903-8.6979-8.6979-8.6979z" fill="url(#d)" stroke-width="4.349"/><g transform="matrix(4.349 0 0 4.349 -1.7188 -32.681)" clip-path="url(#e)"><g clip-path="url(#f)"><g transform="translate(-8,-16)" clip-path="url(#k)" mask="url(#h)"><path d="m40.344 68.605-43.84 43.84c-3.125 3.125-3.125 8.1914 0 11.312l43.84 43.844c3.125 3.1211 8.1875 3.1211 11.312 0l43.84-43.844c3.125-3.1211 3.125-8.1875 0-11.312l-43.84-43.84c-3.125-3.125-8.1875-3.125-11.312 0z" fill="url(#j)"/></g><g transform="translate(-8,-16)" clip-path="url(#n)" mask="url(#l)"><path d="m69.344 77.656-43.84 43.84c-3.125 3.125-3.125 8.1914 0 11.316l43.84 43.84c3.125 3.125 8.1875 3.125 11.312 0l43.84-43.84c3.125-3.125 3.125-8.1914 0-11.316l-43.84-43.84c-3.125-3.125-8.1875-3.125-11.312 0z" fill="url(#m)"/></g></g></g><g transform="matrix(4.349 0 0 4.349 -36.51 -102.26)" clip-path="url(#q)" mask="url(#o)"><path d="m93 67c-5.5234 0-10-4.4766-10-10s4.4766-10 10-10 10 4.4766 10 10-4.4766 10-10 10z" fill="url(#p)"/></g><g transform="matrix(4.1228 0 0 4.1228 12.754 -20.47)" clip-path="url(#r)"><g clip-path="url(#s)"><path d="m117.6 22h-101.6c-1.1055 0-2 0.89453-2 2v77.602c0 1.1016 0.89453 2 2 2h101.6c1.1016 0 2-0.89843 2-2v-77.602c0-1.1055-0.89843-2-2-2z" fill="url(#t)"/><g clip-path="url(#u)"><g transform="translate(-8,-16)" clip-path="url(#x)" mask="url(#v)"><path d="m37.941 75.996-54.871 54.871c-3.1211 3.125-3.1211 8.1875 0 11.312l54.871 54.871c3.125 3.125 8.1914 3.125 11.316 0l54.871-54.871c3.125-3.125 3.125-8.1875 0-11.312l-54.871-54.871c-3.125-3.125-8.1914-3.125-11.316 0z" fill="url(#w)"/></g><g transform="translate(-8,-16)" clip-path="url(#ad)" mask="url(#y)"><path d="m72.742 86.855-54.871 54.871c-3.125 3.125-3.125 8.1914 0 11.316l54.871 54.871c3.125 3.125 8.1914 3.125 11.316 0l54.871-54.871c3.1211-3.125 3.1211-8.1914 0-11.316l-54.871-54.871c-3.125-3.1211-8.1914-3.1211-11.316 0z" fill="url(#z)"/></g></g></g></g><g transform="matrix(4.1228 0 0 4.1228 12.754 -20.47)" clip-path="url(#ac)"><g clip-path="url(#ab)"></g></g><g transform="matrix(4.1228 0 0 4.1228 -20.228 -86.435)" clip-path="url(#c)" mask="url(#aa)"><path transform="translate(2 -137.88)" d="m11.891 268.55 15.457-15.457" fill="none" stroke="#fff" stroke-linecap="round" stroke-width="1.6378"/></g><g transform="matrix(4.1228 0 0 4.1228 12.754 -20.47)"><path d="m30 94.117-8 8" fill="#272a34" stroke="#3d3846" stroke-width="6"/><path d="m22 104.54-14 14" fill="#272a34" stroke="#272a34" stroke-linecap="round" stroke-width="12"/><path d="m22 96.117a6 6 0 0 0-4.2422 1.7578l-14 14a6 6 0 0 0 0 8.4844 6 6 0 0 0 8.4844 0l14-14a6 6 0 0 0 0-8.4844 6 6 0 0 0-4.2422-1.7578z" fill="#737680" stroke-linecap="round"/><path d="m22 96.117a6 6 0 0 0-4.2423 1.758l-14 14a6 6 0 0 0-1.6292 5.4551 6 6 0 0 1 1.6292-3.0295l14-14a6 6 0 0 1 4.2423-1.758 6 6 0 0 1 4.2418 1.758 6 6 0 0 1 1.6315 3.0291 6 6 0 0 0-1.6315-5.4546 6 6 0 0 0-4.2418-1.758z" fill="#fff" opacity=".15" stroke-linecap="round"/></g><g transform="matrix(4.1228 0 0 4.1228 -20.228 -86.435)" clip-path="url(#M)" mask="url(#b)"><path d="m30.062 88.18c0 16.535 13.402 29.938 29.938 29.938s29.938-13.402 29.938-29.938c0-16.535-13.402-29.938-29.938-29.938s-29.938 13.402-29.938 29.938z" fill="url(#L)"/></g><path d="m351.31 286.86c0 68.574-55.593 124.17-124.17 124.17s-124.17-55.593-124.17-124.17c0-68.574 55.593-124.17 124.17-124.17s124.17 55.593 124.17 124.17z" fill="none" stroke="#272a34" stroke-linejoin="round" stroke-width="16.491"/><path d="m351.31 276.86c0 68.574-55.593 124.17-124.17 124.17s-124.17-55.593-124.17-124.17c0-68.574 55.593-124.17 124.17-124.17s124.17 55.593 124.17 124.17z" fill="none" stroke="#4c4f5c" stroke-linejoin="round" stroke-width="16.491"/><path d="m60.396 465.39 49.428-50.121" fill="#60636e" fill-rule="evenodd" stroke="#60636e" stroke-linecap="round" stroke-linejoin="round" stroke-miterlimit="16.8" stroke-width="5" style="paint-order:stroke fill markers"/><path d="m95.211 29.004c-18.214 0-32.982 14.768-32.982 32.982v10c0-18.214 14.768-32.982 32.982-32.982h362.81c18.214 0 32.982 14.768 32.982 32.982v-10c0-18.214-14.768-32.982-32.982-32.982h-362.81z" opacity=".1" stroke-width="4.1228"/></svg>
