<?xml version="1.0" encoding="utf-8"?>
<svg viewBox="0 0 64 64" xmlns="http://www.w3.org/2000/svg" width="64px" height="64px">
  <g transform="matrix(4, 0, 0, 4, 0, -2)" style="transform-origin: 0px 2px;">
    <path d="M 3.517 11.217 L 1.6 11.217 C 1.383 11.217 1.178 11.175 0.983 11.092 C 0.789 11.008 0.618 10.893 0.471 10.746 C 0.324 10.599 0.208 10.428 0.125 10.233 C 0.042 10.039 0 9.833 0 9.617 L 0 6.417 C 0 6.2 0.042 5.994 0.125 5.8 C 0.208 5.606 0.324 5.435 0.471 5.288 C 0.618 5.14 0.789 5.025 0.983 4.942 C 1.178 4.858 1.383 4.817 1.6 4.817 L 3.517 4.817 L 6.1 2.225 C 6.178 2.147 6.265 2.09 6.363 2.054 C 6.46 2.018 6.561 2 6.667 2 C 6.894 2 7.085 2.075 7.238 2.225 C 7.39 2.375 7.467 2.564 7.467 2.792 L 7.467 13.242 C 7.467 13.353 7.446 13.456 7.404 13.55 C 7.363 13.644 7.304 13.729 7.229 13.804 C 7.154 13.879 7.068 13.938 6.971 13.979 C 6.874 14.021 6.772 14.042 6.667 14.042 C 6.444 14.042 6.256 13.964 6.1 13.808 L 3.517 11.217 Z M 6.4 12.592 L 6.4 3.433 L 4.108 5.725 C 4.003 5.831 3.878 5.883 3.733 5.883 L 1.6 5.883 C 1.456 5.883 1.331 5.936 1.225 6.042 C 1.119 6.147 1.067 6.272 1.067 6.417 L 1.067 9.617 C 1.067 9.761 1.119 9.886 1.225 9.992 C 1.331 10.097 1.456 10.15 1.6 10.15 L 3.733 10.15 C 3.878 10.15 4.003 10.203 4.108 10.308 L 6.4 12.592 Z" style="fill: rgb(255, 255, 255);"/>
    <path d="M 12.8 8.767 L 10.508 11.058 C 10.403 11.164 10.278 11.217 10.133 11.217 C 9.989 11.217 9.864 11.164 9.758 11.058 C 9.653 10.953 9.6 10.828 9.6 10.683 C 9.6 10.539 9.653 10.414 9.758 10.308 L 12.05 8.017 L 9.758 5.725 C 9.653 5.619 9.6 5.494 9.6 5.35 C 9.6 5.206 9.653 5.081 9.758 4.975 C 9.864 4.869 9.989 4.817 10.133 4.817 C 10.278 4.817 10.403 4.869 10.508 4.975 L 12.8 7.258 L 15.092 4.975 C 15.197 4.869 15.322 4.817 15.467 4.817 C 15.611 4.817 15.736 4.869 15.842 4.975 C 15.947 5.081 16 5.206 16 5.35 C 16 5.494 15.947 5.619 15.842 5.725 L 13.558 8.017 L 15.842 10.308 C 15.947 10.414 16 10.539 16 10.683 C 16 10.828 15.947 10.953 15.842 11.058 C 15.736 11.164 15.611 11.217 15.467 11.217 C 15.322 11.217 15.197 11.164 15.092 11.058 L 12.8 8.767 Z" style="fill: rgb(255, 255, 255);"/>
  </g>
</svg>