<?xml version="1.0" encoding="utf-8"?>
<svg xmlns="http://www.w3.org/2000/svg" viewBox="0 0 64 64">
  <path d="M 13.188 39.016 L 6 39.016 C 5.188 39.016 4.416 38.856 3.688 38.544 C 2.96 38.232 2.316 37.8 1.764 37.248 C 1.212 36.696 0.78 36.056 0.468 35.324 C 0.156 34.592 0 33.82 0 33.008 L 0 20.992 C 0 20.18 0.156 19.408 0.468 18.676 C 0.78 17.948 1.212 17.308 1.764 16.756 C 2.316 16.204 2.96 15.772 3.688 15.456 C 4.416 15.144 5.188 14.984 6 14.984 L 13.188 14.984 L 22.876 5.26 C 23.168 4.964 23.496 4.748 23.86 4.612 C 24.224 4.48 24.604 4.416 25 4.416 C 25.856 4.416 26.568 4.696 27.14 5.26 C 27.712 5.82 28 6.528 28 7.384 L 28 46.62 C 28 47.036 27.92 47.42 27.764 47.776 C 27.608 48.128 27.392 48.448 27.108 48.728 C 26.828 49.012 26.504 49.232 26.14 49.388 C 25.776 49.54 25.396 49.624 25 49.624 C 24.168 49.624 23.46 49.328 22.876 48.744 L 13.188 39.016 Z M 40.124 44.808 C 40.124 44.448 40.184 44.176 40.296 43.988 C 40.412 43.804 40.584 43.572 40.812 43.304 C 41.96 42.008 42.98 40.772 43.876 39.58 C 44.772 38.392 45.52 37.164 46.124 35.904 C 46.728 34.64 47.192 33.292 47.516 31.848 C 47.84 30.412 48 28.796 48 27 C 48 25.204 47.84 23.592 47.516 22.152 C 47.192 20.712 46.728 19.364 46.124 18.1 C 45.52 16.836 44.772 15.608 43.876 14.424 C 42.98 13.236 41.96 11.996 40.812 10.704 C 40.584 10.428 40.412 10.2 40.296 10.012 C 40.184 9.824 40.124 9.552 40.124 9.2 C 40.124 8.652 40.328 8.196 40.736 7.808 C 41.14 7.42 41.616 7.228 42.156 7.228 C 42.468 7.228 42.708 7.264 42.876 7.336 C 43.04 7.408 43.252 7.54 43.5 7.728 C 44.124 8.204 44.744 8.8 45.36 9.492 C 45.972 10.196 46.556 10.94 47.108 11.736 C 47.66 12.528 48.168 13.332 48.624 14.16 C 49.084 14.98 49.468 15.756 49.78 16.488 C 51.26 19.828 52 23.332 52 27 C 52 30.672 51.26 34.176 49.78 37.512 C 49.488 38.18 49.108 38.936 48.64 39.784 C 48.172 40.628 47.656 41.46 47.092 42.284 C 46.532 43.104 45.944 43.876 45.328 44.584 C 44.712 45.292 44.104 45.86 43.5 46.276 C 43.272 46.42 43.056 46.536 42.86 46.636 C 42.66 46.728 42.428 46.776 42.156 46.776 C 41.616 46.776 41.14 46.58 40.736 46.192 C 40.328 45.808 40.124 45.348 40.124 44.808 Z M 24 44.176 L 24 9.792 L 15.408 18.396 C 15.012 18.796 14.54 18.992 14 18.992 L 6 18.992 C 5.46 18.992 4.988 19.192 4.592 19.588 C 4.196 19.984 4 20.452 4 20.992 L 4 33.008 C 4 33.552 4.196 34.02 4.592 34.42 C 4.988 34.812 5.46 35.008 6 35.008 L 14 35.008 C 14.54 35.008 15.012 35.212 15.408 35.608 L 24 44.176 Z M 32.376 37.168 C 32.376 36.876 32.412 36.644 32.484 36.48 C 32.556 36.316 32.676 36.116 32.844 35.888 C 33.324 35.156 33.76 34.452 34.156 33.776 C 34.552 33.096 34.884 32.408 35.156 31.708 C 35.428 31.008 35.636 30.28 35.78 29.516 C 35.928 28.76 36 27.92 36 27 C 36 26.104 35.928 25.268 35.78 24.496 C 35.636 23.724 35.428 22.992 35.156 22.292 C 34.884 21.592 34.552 20.904 34.156 20.228 C 33.76 19.552 33.324 18.848 32.844 18.112 C 32.676 17.884 32.556 17.688 32.484 17.52 C 32.412 17.356 32.376 17.124 32.376 16.832 C 32.376 16.292 32.572 15.824 32.968 15.428 C 33.364 15.028 33.832 14.828 34.376 14.828 C 34.728 14.828 35.02 14.892 35.252 15.02 C 35.48 15.144 35.708 15.328 35.936 15.584 C 36.604 16.312 37.188 17.128 37.688 18.036 C 38.188 18.944 38.608 19.904 38.952 20.92 C 39.296 21.928 39.556 22.956 39.736 23.996 C 39.912 25.044 40 26.04 40 27 C 40 27.92 39.912 28.904 39.736 29.956 C 39.556 31.008 39.296 32.052 38.952 33.088 C 38.608 34.12 38.184 35.096 37.672 36.028 C 37.16 36.956 36.584 37.752 35.936 38.42 C 35.5 38.904 34.98 39.14 34.376 39.14 C 33.832 39.14 33.364 38.948 32.968 38.564 C 32.572 38.18 32.376 37.712 32.376 37.168 Z" style="fill: rgb(255, 255, 255);"/>
  <path d="M 48 52 C 48 51.644 48.068 51.356 48.204 51.14 C 48.34 50.924 48.52 50.684 48.752 50.436 C 49.04 50.144 49.356 49.864 49.688 49.604 C 50.02 49.344 50.344 49.068 50.656 48.78 C 52.156 47.4 53.488 45.868 54.656 44.192 C 55.824 42.516 56.804 40.736 57.592 38.856 C 58.384 36.98 58.984 35.044 59.392 33.036 C 59.796 31.036 60 29.02 60 27 C 60 25 59.796 22.992 59.392 20.976 C 58.984 18.968 58.38 17.016 57.58 15.128 C 56.776 13.24 55.796 11.448 54.64 9.764 C 53.484 8.072 52.156 6.548 50.656 5.196 C 50.344 4.9 50.02 4.628 49.688 4.364 C 49.356 4.104 49.04 3.828 48.752 3.536 C 48.5 3.284 48.312 3.056 48.188 2.848 C 48.064 2.64 48 2.344 48 1.972 C 48 1.412 48.192 0.94 48.58 0.564 C 48.964 0.188 49.436 0 50 0 C 50.252 0 50.468 0.036 50.656 0.108 C 50.844 0.184 51.04 0.292 51.252 0.436 C 52.188 1.044 53.116 1.816 54.032 2.756 C 54.948 3.692 55.816 4.7 56.64 5.772 C 57.464 6.848 58.22 7.944 58.908 9.076 C 59.592 10.2 60.176 11.264 60.656 12.268 C 61.76 14.58 62.592 16.972 63.156 19.444 C 63.72 21.916 64 24.44 64 27 C 64 29.548 63.72 32.064 63.156 34.556 C 62.592 37.048 61.76 39.444 60.656 41.74 C 60.176 42.716 59.592 43.776 58.908 44.916 C 58.22 46.052 57.46 47.156 56.624 48.228 C 55.792 49.304 54.916 50.312 54 51.248 C 53.084 52.184 52.168 52.956 51.252 53.564 C 51.02 53.708 50.816 53.82 50.64 53.892 C 50.464 53.964 50.252 54 50 54 C 49.46 54 48.988 53.804 48.592 53.408 C 48.196 53.012 48 52.544 48 52 Z" style="fill: rgba(255, 255, 255, 0.5);"/>
</svg>