<?xml version="1.0" encoding="utf-8"?>
<svg viewBox="0 0 16 16" xmlns="http://www.w3.org/2000/svg">
  <path d="M 9 11.5 C 9 12.12 8.881 12.703 8.645 13.25 C 8.408 13.797 8.086 14.273 7.68 14.68 C 7.273 15.086 6.797 15.408 6.25 15.645 C 5.703 15.881 5.12 16 4.5 16 C 3.875 16 3.289 15.883 2.742 15.648 C 2.195 15.414 1.719 15.094 1.313 14.688 C 0.906 14.281 0.586 13.805 0.352 13.258 C 0.117 12.711 0 12.125 0 11.5 C 0 10.88 0.118 10.297 0.355 9.75 C 0.592 9.203 0.914 8.727 1.32 8.32 C 1.727 7.914 2.203 7.592 2.75 7.355 C 3.297 7.118 3.88 7 4.5 7 C 4.911 7 5.309 7.053 5.691 7.16 C 6.074 7.267 6.432 7.418 6.766 7.613 C 7.099 7.809 7.404 8.044 7.68 8.32 C 7.956 8.596 8.191 8.901 8.387 9.234 C 8.582 9.568 8.733 9.926 8.84 10.309 C 8.947 10.691 9 11.089 9 11.5 Z M 5.258 11.5 L 6.883 9.883 C 6.987 9.779 7.039 9.651 7.039 9.5 C 7.039 9.349 6.987 9.221 6.883 9.117 C 6.779 9.013 6.651 8.961 6.5 8.961 C 6.349 8.961 6.221 9.013 6.117 9.117 L 4.5 10.742 L 2.883 9.117 C 2.779 9.013 2.651 8.961 2.5 8.961 C 2.349 8.961 2.221 9.013 2.117 9.117 C 2.013 9.221 1.961 9.349 1.961 9.5 C 1.961 9.568 1.975 9.637 2.004 9.707 C 2.033 9.777 2.07 9.836 2.117 9.883 L 3.742 11.5 L 2.117 13.117 C 2.013 13.221 1.961 13.349 1.961 13.5 C 1.961 13.651 2.013 13.779 2.117 13.883 C 2.221 13.987 2.349 14.039 2.5 14.039 C 2.651 14.039 2.779 13.987 2.883 13.883 L 4.5 12.258 L 6.117 13.883 C 6.164 13.93 6.223 13.967 6.293 13.996 C 6.363 14.025 6.432 14.039 6.5 14.039 C 6.651 14.039 6.779 13.987 6.883 13.883 C 6.987 13.779 7.039 13.651 7.039 13.5 C 7.039 13.349 6.987 13.221 6.883 13.117 L 5.258 11.5 Z" style="fill: rgb(255, 0, 0);"/>
  <path d="M 16 8.5 C 16 8.776 15.901 9.013 15.703 9.211 C 15.51 9.404 15.276 9.5 15 9.5 L 14 9.5 L 14 10.555 C 14 10.883 13.934 11.195 13.801 11.492 C 13.668 11.789 13.491 12.048 13.27 12.27 C 13.048 12.491 12.789 12.668 12.492 12.801 C 12.195 12.934 11.883 13 11.555 13 L 10.055 13 C 10.102 12.833 10.138 12.667 10.164 12.5 C 10.19 12.333 10.211 12.167 10.227 12 L 11.5 12 C 11.703 12 11.896 11.961 12.078 11.883 C 12.26 11.805 12.421 11.697 12.559 11.559 C 12.697 11.421 12.805 11.26 12.883 11.078 C 12.961 10.896 13 10.703 13 10.5 L 13 5.5 C 13 5.297 12.961 5.104 12.883 4.922 C 12.805 4.74 12.697 4.579 12.559 4.441 C 12.421 4.303 12.26 4.195 12.078 4.117 C 11.896 4.039 11.703 4 11.5 4 L 2.5 4 C 2.297 4 2.104 4.039 1.922 4.117 C 1.74 4.195 1.579 4.303 1.441 4.441 C 1.303 4.579 1.195 4.74 1.117 4.922 C 1.039 5.104 1 5.297 1 5.5 L 1 6.938 C 0.813 7.078 0.635 7.232 0.469 7.398 C 0.302 7.565 0.146 7.74 0 7.922 L 0 5.445 C 0 5.117 0.066 4.805 0.199 4.508 C 0.332 4.211 0.509 3.952 0.73 3.73 C 0.952 3.509 1.211 3.332 1.508 3.199 C 1.805 3.066 2.117 3 2.445 3 L 11.555 3 C 11.888 3 12.202 3.066 12.496 3.199 C 12.79 3.332 13.048 3.509 13.27 3.73 C 13.491 3.952 13.667 4.211 13.797 4.508 C 13.927 4.805 13.995 5.117 14 5.445 L 14 6.5 L 15 6.5 C 15.135 6.5 15.263 6.526 15.383 6.578 C 15.503 6.63 15.609 6.703 15.703 6.797 C 15.797 6.891 15.87 6.997 15.922 7.117 C 15.974 7.237 16 7.365 16 7.5 L 16 8.5 Z" style="fill: rgb(255, 255, 255);"/>
</svg>