<?xml version="1.0" encoding="utf-8"?>
<svg xmlns="http://www.w3.org/2000/svg" width="24" height="24" version="1.1">
  <defs>
    <style id="current-color-scheme" type="text/css">
   .ColorScheme-Text { color:#eeeeec; } .ColorScheme-Highlight { color:#367bf0; } .ColorScheme-NeutralText { color:#ffcc44; } .ColorScheme-PositiveText { color:#3db47e; } .ColorScheme-NegativeText { color:#dd4747; }
  </style>
  </defs>
  <path d="M 19 12 C 19 12.538 18.94 13.063 18.819 13.576 C 18.698 14.088 18.526 14.576 18.303 15.039 C 18.079 15.501 17.807 15.935 17.486 16.341 C 17.165 16.746 16.805 17.112 16.406 17.438 C 16.007 17.764 15.572 18.044 15.1 18.279 C 14.628 18.514 14.131 18.692 13.606 18.815 C 13.702 18.597 13.75 18.367 13.75 18.125 L 13.75 16.478 C 13.887 16.181 14.005 15.878 14.105 15.568 C 14.206 15.258 14.29 14.944 14.358 14.625 L 13.75 14.625 L 13.75 13.75 L 14.509 13.75 C 14.545 13.458 14.574 13.168 14.594 12.878 C 14.615 12.589 14.625 12.296 14.625 12 C 14.625 11.704 14.615 11.411 14.594 11.122 C 14.574 10.832 14.545 10.542 14.509 10.25 L 9.484 10.25 C 9.448 10.551 9.421 10.842 9.402 11.125 L 8.527 11.125 C 8.536 10.979 8.547 10.833 8.558 10.688 C 8.569 10.542 8.587 10.396 8.609 10.25 L 6.128 10.25 C 6.087 10.396 6.049 10.542 6.015 10.688 C 5.981 10.833 5.955 10.979 5.937 11.125 C 5.772 11.125 5.618 11.142 5.472 11.176 C 5.326 11.21 5.18 11.266 5.034 11.344 C 5.089 10.747 5.215 10.175 5.414 9.628 C 5.612 9.081 5.869 8.573 6.186 8.104 C 6.503 7.634 6.871 7.208 7.29 6.825 C 7.709 6.442 8.167 6.117 8.664 5.848 C 9.161 5.579 9.691 5.37 10.253 5.222 C 10.816 5.074 11.398 5 12 5 C 12.643 5 13.262 5.083 13.859 5.25 C 14.456 5.416 15.014 5.652 15.531 5.957 C 16.048 6.262 16.52 6.628 16.946 7.054 C 17.372 7.48 17.738 7.952 18.043 8.469 C 18.348 8.986 18.584 9.544 18.75 10.141 C 18.917 10.738 19 11.357 19 12 Z M 14.358 9.375 C 14.322 9.206 14.27 9.002 14.201 8.763 C 14.133 8.524 14.049 8.276 13.948 8.018 C 13.848 7.761 13.732 7.503 13.6 7.246 C 13.467 6.988 13.319 6.758 13.155 6.555 C 12.991 6.352 12.813 6.188 12.622 6.063 C 12.431 5.938 12.223 5.875 12 5.875 C 11.777 5.875 11.569 5.938 11.378 6.063 C 11.187 6.188 11.009 6.352 10.845 6.555 C 10.681 6.758 10.533 6.988 10.4 7.246 C 10.268 7.503 10.152 7.761 10.052 8.018 C 9.951 8.276 9.867 8.524 9.799 8.763 C 9.73 9.002 9.678 9.206 9.642 9.375 L 14.358 9.375 Z M 8.746 9.375 C 8.801 9.102 8.866 8.825 8.941 8.544 C 9.016 8.264 9.105 7.988 9.208 7.717 C 9.31 7.446 9.429 7.182 9.563 6.924 C 9.697 6.667 9.847 6.426 10.011 6.203 C 9.619 6.335 9.247 6.506 8.896 6.716 C 8.546 6.925 8.219 7.165 7.916 7.434 C 7.612 7.702 7.339 8.001 7.095 8.329 C 6.851 8.657 6.641 9.006 6.463 9.375 L 8.746 9.375 Z M 17.53 9.375 C 17.357 9.006 17.147 8.658 16.901 8.333 C 16.655 8.007 16.381 7.708 16.078 7.437 C 15.775 7.166 15.448 6.927 15.097 6.719 C 14.746 6.512 14.377 6.342 13.989 6.21 C 14.158 6.433 14.308 6.673 14.44 6.928 C 14.573 7.183 14.69 7.447 14.792 7.721 C 14.895 7.994 14.984 8.271 15.059 8.551 C 15.134 8.832 15.199 9.106 15.254 9.375 L 17.53 9.375 Z M 15.391 10.25 C 15.432 10.542 15.46 10.832 15.476 11.122 C 15.492 11.411 15.5 11.704 15.5 12 C 15.5 12.296 15.492 12.589 15.476 12.878 C 15.46 13.168 15.432 13.458 15.391 13.75 L 17.872 13.75 C 18.041 13.189 18.125 12.606 18.125 12 C 18.125 11.394 18.041 10.811 17.872 10.25 L 15.391 10.25 Z M 12 12 C 12.118 12 12.231 12.023 12.338 12.068 C 12.445 12.114 12.539 12.177 12.619 12.256 C 12.698 12.336 12.761 12.43 12.807 12.537 C 12.852 12.644 12.875 12.757 12.875 12.875 L 12.875 16.375 C 12.875 16.493 12.852 16.606 12.807 16.713 C 12.761 16.82 12.698 16.914 12.619 16.994 C 12.539 17.073 12.445 17.136 12.338 17.182 C 12.231 17.227 12.118 17.25 12 17.25 L 10.25 17.25 L 10.25 18.125 L 10.489 18.125 C 10.567 18.125 10.643 18.13 10.718 18.139 C 10.793 18.148 10.862 18.167 10.923 18.197 C 10.985 18.226 11.034 18.27 11.07 18.327 C 11.107 18.384 11.125 18.462 11.125 18.563 C 11.125 18.681 11.082 18.784 10.995 18.87 C 10.909 18.957 10.806 19 10.688 19 L 7.188 19 C 7.069 19 6.966 18.957 6.88 18.87 C 6.793 18.784 6.75 18.681 6.75 18.563 C 6.75 18.462 6.768 18.384 6.805 18.327 C 6.841 18.27 6.89 18.226 6.952 18.197 C 7.013 18.167 7.082 18.148 7.157 18.139 C 7.232 18.13 7.308 18.125 7.386 18.125 L 7.625 18.125 L 7.625 17.25 L 5.875 17.25 C 5.757 17.25 5.644 17.227 5.537 17.182 C 5.43 17.136 5.336 17.073 5.256 16.994 C 5.177 16.914 5.114 16.82 5.068 16.713 C 5.023 16.606 5 16.493 5 16.375 L 5 12.875 C 5 12.757 5.023 12.644 5.068 12.537 C 5.114 12.43 5.177 12.336 5.256 12.256 C 5.336 12.177 5.43 12.114 5.537 12.068 C 5.644 12.023 5.757 12 5.875 12 L 12 12 Z M 17.53 14.625 L 15.254 14.625 C 15.199 14.898 15.134 15.175 15.059 15.456 C 14.984 15.736 14.895 16.012 14.792 16.283 C 14.69 16.554 14.571 16.818 14.437 17.076 C 14.303 17.333 14.153 17.574 13.989 17.797 C 14.377 17.665 14.746 17.494 15.097 17.284 C 15.448 17.075 15.775 16.835 16.078 16.566 C 16.381 16.298 16.654 15.999 16.898 15.671 C 17.142 15.343 17.353 14.994 17.53 14.625 Z" style="fill: rgb(255, 255, 255);"/>
</svg>