<?xml version="1.0" encoding="utf-8"?>
<svg xmlns="http://www.w3.org/2000/svg" width="24" height="24" version="1.1">
  <defs>
    <style id="current-color-scheme" type="text/css">
   .ColorScheme-Text { color:#eeeeec; } .ColorScheme-Highlight { color:#367bf0; } .ColorScheme-NeutralText { color:#ffcc44; } .ColorScheme-PositiveText { color:#3db47e; } .ColorScheme-NegativeText { color:#dd4747; }
  </style>
  </defs>
  <path d="M 11.932 19 C 11.294 18.996 10.68 18.909 10.089 18.74 C 9.499 18.571 8.948 18.333 8.435 18.026 C 7.923 17.718 7.454 17.352 7.03 16.925 C 6.607 16.499 6.244 16.028 5.943 15.511 C 5.642 14.993 5.41 14.438 5.246 13.845 C 5.082 13.253 5 12.638 5 12 C 5 11.358 5.083 10.737 5.249 10.141 C 5.416 9.544 5.652 8.987 5.957 8.469 C 6.263 7.952 6.628 7.481 7.055 7.055 C 7.481 6.628 7.952 6.263 8.469 5.957 C 8.987 5.652 9.544 5.416 10.141 5.249 C 10.737 5.083 11.358 5 12 5 C 12.634 5 13.246 5.083 13.839 5.249 C 14.432 5.416 14.986 5.649 15.503 5.95 C 16.021 6.251 16.493 6.612 16.922 7.034 C 17.351 7.455 17.717 7.923 18.023 8.435 C 18.328 8.948 18.566 9.499 18.737 10.089 C 18.908 10.68 18.996 11.294 19 11.932 C 18.859 11.759 18.709 11.596 18.552 11.443 C 18.395 11.29 18.226 11.148 18.043 11.016 C 18.02 10.884 17.994 10.755 17.964 10.63 C 17.935 10.504 17.902 10.378 17.865 10.25 C 17.719 10.25 17.571 10.251 17.421 10.254 C 17.27 10.256 17.122 10.257 16.977 10.257 L 16.755 10.257 C 16.684 10.257 16.61 10.254 16.532 10.25 C 16.51 10.25 16.477 10.246 16.436 10.236 C 16.395 10.227 16.351 10.216 16.303 10.202 C 16.255 10.189 16.209 10.175 16.163 10.161 C 16.118 10.148 16.081 10.136 16.054 10.127 C 15.889 10.095 15.726 10.072 15.561 10.055 C 15.398 10.039 15.231 10.031 15.063 10.031 L 15.056 10.031 C 14.96 10.031 14.864 10.035 14.769 10.042 C 14.673 10.049 14.577 10.057 14.482 10.065 C 14.277 10.088 14.076 10.122 13.88 10.168 C 13.83 10.182 13.782 10.198 13.736 10.219 C 13.691 10.24 13.643 10.25 13.593 10.25 L 9.491 10.25 C 9.455 10.541 9.427 10.832 9.406 11.122 C 9.385 11.411 9.375 11.703 9.375 12 C 9.375 12.297 9.385 12.589 9.406 12.879 C 9.427 13.168 9.455 13.459 9.491 13.75 L 10.202 13.75 C 10.161 13.896 10.129 14.041 10.107 14.188 C 10.084 14.334 10.065 14.479 10.051 14.625 L 9.642 14.625 C 9.692 14.858 9.749 15.086 9.813 15.312 C 9.876 15.538 9.952 15.76 10.038 15.979 C 10.065 16.047 10.095 16.115 10.127 16.183 C 10.159 16.252 10.186 16.321 10.209 16.389 C 10.236 16.462 10.26 16.534 10.281 16.608 C 10.302 16.68 10.325 16.756 10.352 16.833 C 10.43 17.051 10.525 17.261 10.636 17.462 C 10.748 17.662 10.872 17.856 11.009 18.043 L 11.016 18.043 C 11.148 18.226 11.29 18.395 11.443 18.552 C 11.596 18.709 11.759 18.859 11.932 19 Z M 14.358 9.375 C 14.322 9.206 14.27 9.002 14.202 8.763 C 14.133 8.524 14.048 8.275 13.949 8.018 C 13.848 7.761 13.732 7.503 13.599 7.245 C 13.467 6.988 13.32 6.758 13.155 6.555 C 12.991 6.353 12.814 6.188 12.622 6.063 C 12.431 5.938 12.223 5.875 12 5.875 C 11.777 5.875 11.57 5.938 11.378 6.063 C 11.186 6.188 11.009 6.353 10.845 6.555 C 10.681 6.758 10.533 6.988 10.401 7.245 C 10.268 7.503 10.152 7.761 10.051 8.018 C 9.952 8.275 9.868 8.524 9.799 8.763 C 9.73 9.002 9.678 9.206 9.642 9.375 L 14.358 9.375 Z M 6.47 9.375 L 8.746 9.375 C 8.801 9.106 8.866 8.832 8.941 8.552 C 9.016 8.271 9.105 7.994 9.208 7.72 C 9.31 7.447 9.427 7.183 9.56 6.928 C 9.692 6.672 9.842 6.433 10.011 6.21 C 9.624 6.342 9.254 6.512 8.903 6.719 C 8.553 6.927 8.225 7.166 7.923 7.437 C 7.619 7.708 7.345 8.007 7.098 8.333 C 6.852 8.658 6.643 9.006 6.47 9.375 Z M 17.53 9.375 C 17.352 9.001 17.141 8.651 16.895 8.326 C 16.649 8 16.375 7.703 16.074 7.433 C 15.774 7.165 15.448 6.928 15.097 6.723 C 14.746 6.517 14.377 6.347 13.989 6.21 C 14.158 6.433 14.308 6.672 14.44 6.928 C 14.573 7.183 14.69 7.447 14.792 7.72 C 14.895 7.994 14.984 8.271 15.059 8.552 C 15.134 8.832 15.199 9.106 15.254 9.375 L 17.53 9.375 Z M 8.602 13.75 C 8.534 13.172 8.5 12.588 8.5 12 C 8.5 11.703 8.508 11.411 8.524 11.122 C 8.54 10.832 8.568 10.541 8.609 10.25 L 6.128 10.25 C 5.959 10.811 5.875 11.394 5.875 12 C 5.875 12.606 5.959 13.189 6.128 13.75 L 8.602 13.75 Z M 6.47 14.625 C 6.643 14.994 6.852 15.342 7.098 15.667 C 7.345 15.994 7.618 16.292 7.919 16.563 C 8.22 16.834 8.545 17.073 8.896 17.281 C 9.247 17.488 9.617 17.658 10.004 17.79 C 9.84 17.562 9.692 17.321 9.56 17.065 C 9.427 16.81 9.31 16.547 9.208 16.276 C 9.105 16.005 9.016 15.73 8.941 15.452 C 8.866 15.175 8.801 14.899 8.746 14.625 L 6.47 14.625 Z" style="fill: rgb(255, 255, 255); fill-opacity: 0.5;"/>
  <path d="M 19 15.063 C 19 15.605 18.896 16.115 18.689 16.594 C 18.482 17.072 18.2 17.489 17.845 17.845 C 17.489 18.2 17.072 18.482 16.594 18.689 C 16.115 18.896 15.605 19 15.063 19 C 14.516 19 14.003 18.898 13.524 18.692 C 13.046 18.487 12.629 18.207 12.274 17.852 C 11.918 17.496 11.638 17.079 11.433 16.601 C 11.227 16.122 11.125 15.609 11.125 15.063 C 11.125 14.52 11.228 14.01 11.436 13.531 C 11.643 13.053 11.925 12.636 12.28 12.28 C 12.636 11.925 13.053 11.643 13.531 11.436 C 14.01 11.228 14.52 11.125 15.063 11.125 C 15.422 11.125 15.77 11.171 16.105 11.265 C 16.44 11.359 16.753 11.491 17.045 11.661 C 17.337 11.833 17.604 12.039 17.845 12.28 C 18.087 12.522 18.292 12.788 18.464 13.08 C 18.634 13.372 18.766 13.685 18.86 14.02 C 18.954 14.355 19 14.703 19 15.063 Z M 12.615 16.895 L 16.895 12.615 C 16.617 12.401 16.321 12.245 16.006 12.147 C 15.692 12.049 15.359 12 15.008 12 C 14.607 12 14.225 12.082 13.863 12.246 C 13.501 12.41 13.181 12.63 12.906 12.906 C 12.63 13.181 12.41 13.501 12.246 13.863 C 12.082 14.225 12 14.607 12 15.008 C 12 15.359 12.049 15.692 12.147 16.006 C 12.245 16.321 12.401 16.617 12.615 16.895 Z M 17.51 13.23 L 13.23 17.51 C 13.509 17.724 13.805 17.88 14.119 17.978 C 14.433 18.076 14.766 18.125 15.118 18.125 C 15.518 18.125 15.9 18.043 16.262 17.879 C 16.624 17.715 16.944 17.495 17.219 17.219 C 17.495 16.944 17.715 16.624 17.879 16.262 C 18.043 15.9 18.125 15.518 18.125 15.118 C 18.125 14.766 18.076 14.433 17.978 14.119 C 17.88 13.805 17.724 13.509 17.51 13.23 Z" style="fill: rgb(255, 0, 0);"/>
</svg>