<svg width="512" height="512" version="1.1" viewBox="0 0 135.47 135.47" xmlns="http://www.w3.org/2000/svg"><defs><filter id="a" x="-.049508" y="-.072815" width="1.099" height="1.1456" color-interpolation-filters="sRGB"><feGaussianBlur stdDeviation="1.5257722"/></filter></defs><circle cx="67.824" cy="77.271" r="44.14" fill="#951212" fill-rule="evenodd" stroke-linejoin="bevel" stroke-miterlimit="16.8" stroke-width="4.9356" style="paint-order:stroke fill markers"/><path transform="matrix(1.3371 0 0 1.3371 -34.624 -21.505)" d="m45.087 55.389c-1.08 1.2337-1.8546 2.4106-2.7834 4.1426-0.60946 1.1366-1.3918 3.2264-1.803 4.8163-0.3239 1.2524-0.35851 1.4184-0.47808 2.2693-0.06539 0.46533-0.1653 1.1114-0.22161 1.436-0.41387 2.386-0.24247 7.8786 0.3333 10.673 0.05392 0.26175 0.1472 0.76082 0.20683 1.1098 0.05963 0.349 0.22179 1.0396 0.36107 1.5341 0.13928 0.49442 0.28838 1.0894 0.33093 1.322 0.16198 0.8853 2.1564 4.3953 3.7856 6.6624 1.9332 2.6902 4.6933 5.6352 6.9407 7.4052 0.43629 0.34363 0.85314 0.68203 0.92543 0.75228 0.29792 0.28952 2.598 1.8559 3.7703 2.5671 1.2499 0.75825 3.8955 2.1335 4.3996 2.287 0.14492 0.0441 0.5493 0.21006 0.89884 0.36935 0.55507 0.25295 1.4511 0.58777 2.9624 1.1068 0.79007 0.27137 2.7458 0.77883 3.8075 0.98807 1.9314 0.38065 2.5167 0.4714 4.2271 0.65478 3.741 0.40108 7.659 0.17975 12.02-0.68019 1.8935-0.37338 5.1792-1.4056 6.6524-2.0896 0.26177-0.12154 0.65805-0.28561 0.88111-0.36461 0.7177-0.25409 3.1013-1.5029 4.5249-2.3709 1.1911-0.72623 3.5287-2.3274 3.6893-2.5269 0.0291-0.03614 0.38611-0.3268 0.79306-0.64532 2.2302-1.7456 5.0576-4.7586 6.9939-7.4531 1.5963-2.2214 3.5396-5.624 3.7443-6.5566 0.0511-0.23267 0.19437-0.80401 0.31852-1.2694 0.25346-0.95006 0.54763-2.388 0.77888-3.8075 0.53166-3.2635 0.52186-6.731-0.0319-11.188-0.0573-0.46087-0.10523-0.70874-0.13356-0.74046-4.5e-4 -5e-4 -2e-3 -0.0019-2e-3 -0.0024-2.6e-4 -1.93e-4 -9.3e-4 -4.41e-4 -1e-3 -5.91e-4h-0.00178v-5.91e-4h-0.00295l-5.9e-4 5.91e-4h-0.00118l-5.9e-4 5.91e-4c-0.01 0.0101-0.0157 0.0589-0.0171 0.14538-2e-3 0.10644 3e-3 0.27112 0.0165 0.49404-0.0282-0.24505-0.076-0.54522-0.13651-0.87047l6e-4 5.91e-4h0.00236c2.2e-4 -1.2e-5 7.7e-4 3.3e-5 2e-3 0h0.00118c8.9e-4 -3.08e-4 2e-3 -5.7e-4 3e-3 -0.0012 5e-3 -0.0033 0.01-0.01105 0.0148-0.02364 0.0291-0.0716 0.0305-0.21445 4e-3 -0.31734-7e-3 -0.02572-0.0129-0.04162-0.0189-0.04787l-0.00177-0.001773h-6e-4v-5.91e-4h-5.9e-4l-5.9e-4 -5.91e-4h-0.00472l-6e-4 5.91e-4h-5.9e-4l-5.9e-4 5.91e-4c-0.0131 0.01058-0.0231 0.074-0.0242 0.17965-3.3e-4 0.02799 4e-4 0.05316 1e-3 0.07623-0.0557-0.28929-0.12058-0.59491-0.1897-0.89766 7e-3 -0.02016 0.0166-0.05323 0.029-0.10046 0.0263-0.09996-6e-3 -0.26632-0.0727-0.36994-0.0501-0.07814-0.0793-0.12249-0.091-0.13178l-5.9e-4 -5.91e-4h-5.9e-4l-5.9e-4 -5.91e-4h-5.9e-4v-5.91e-4h-0.00237v5.91e-4h-5.9e-4v5.91e-4l-5.9e-4 5.91e-4c-2e-3 0.01052 0.0113 0.05677 0.0366 0.1371 0.0259 0.08277 0.0516 0.20159 0.065 0.29607-0.0538-0.22932-0.11011-0.45518-0.16606-0.66837 5.7e-4 -1.49e-4 7.7e-4 -3.85e-4 2e-3 -5.91e-4 5.7e-4 -2.06e-4 1e-3 -3.27e-4 2e-3 -5.91e-4 5e-4 -2.64e-4 2e-3 -8.23e-4 2e-3 -0.0012 3.9e-4 -1.93e-4 1e-3 -3.91e-4 2e-3 -5.91e-4 2e-3 -0.0015 5e-3 -4e-3 7e-3 -0.0065 0.0348-0.03514 0.0391-0.12635 8e-3 -0.2027-0.0104-0.02586-0.02-0.04107-0.0284-0.04669h-5.9e-4v-5.91e-4c-3.2e-4 -6.5e-5 -1e-3 1.15e-4 -2e-3 0-2e-3 -9.28e-4 -4e-3 -0.0016-5e-3 -0.0018h-5.9e-4c-2.6e-4 2.2e-5 -2e-3 5.47e-4 -2e-3 5.91e-4h-5.9e-4l-5.9e-4 5.91e-4c-0.0126 0.0057-0.0211 0.04121-0.0242 0.10519-0.0268-0.09916-0.054-0.19504-0.0804-0.28661 9e-3 0.0076 0.0177 0.01136 0.0248 0.01005h5.9e-4v-5.91e-4c8e-4 -3.37e-4 2e-3 -8.03e-4 4e-3 -0.0012 1e-3 -4.17e-4 3e-3 -0.0012 4e-3 -0.0018l0.00118-0.001182v-5.91e-4l5.9e-4 -5.91e-4h5.9e-4v-5.91e-4h5.9e-4v-5.91e-4h5.9e-4c3e-3 -0.0047 5e-3 -0.01238 6e-3 -0.02186 3.2e-4 -0.0038 6.1e-4 -0.0079 5.9e-4 -0.01241-3.4e-4 -0.05368-0.0262-0.15435-0.068-0.25884-0.0328-0.08205-0.0632-0.13642-0.0833-0.15306-3e-3 -0.0021-5e-3 -0.0032-7e-3 -0.0041-2e-3 -8.5e-4 -4e-3 -8.15e-4 -6e-3 -5.9e-4h-0.00118l-6e-4 5.9e-4c-4e-3 0.0019-7e-3 0.0072-9e-3 0.01655-0.0783-0.2354-0.14941-0.4107-0.20624-0.4964 8e-3 0.0071 0.0153 0.01008 0.0213 0.0095h5.9e-4c1e-3 -3.08e-4 3e-3 -7.5e-4 4e-3 -0.0012l5.9e-4 -5.91e-4h5.9e-4l5.9e-4 -5.91e-4h5.9e-4l5.9e-4 -5.9e-4h6e-4v-5.91e-4h5.9e-4c4e-4 -3.64e-4 2.4e-4 -7.99e-4 5.9e-4 -0.0012 7.5e-4 -9e-4 3e-3 -0.0028 4e-3 -0.0041l5.9e-4 -5.91e-4c6.5e-4 -0.0011 1e-3 -0.0022 2e-3 -0.0035 0.0116-0.02692 8e-3 -0.09458-0.0195-0.19856-0.031-0.11864-0.0798-0.192-0.10874-0.1631-0.0289 0.02888-0.0245 0.12594 0.0101 0.2157 9e-3 0.02412 0.019 0.04531 0.0278 0.06382 9e-3 0.01851 0.0168 0.03425 0.0248 0.04728-0.0493-0.05651-0.0892-0.16236-0.0892-0.23874 0-0.06537-0.0661-0.25751-0.15542-0.45917 0.056 0.10661 0.10419 0.17596 0.12469 0.17847 3.3e-4 4e-6 1e-3 3.3e-5 2e-3 0 3e-4 -7.1e-5 9e-4 1.09e-4 1e-3 0l5.9e-4 -5.91e-4h6e-4v-5.91e-4l0.00177-0.001773c3e-4 -4.51e-4 1e-3 -0.0011 2e-3 -0.0018v-0.001773c2e-4 -6.43e-4 4.3e-4 -9.72e-4 5.9e-4 -0.0018 0.01-0.04425-0.0668-0.25714-0.17787-0.49404-0.10345-0.22071-0.17109-0.335-0.19975-0.35575h-5.9e-4v-5.91e-4c-2.5e-4 -1.39e-4 -2e-3 -4.77e-4 -2e-3 -5.91e-4l-5.9e-4 -5.91e-4c-1e-3 -7.5e-4 -4e-3 -9.94e-4 -5e-3 -0.0012h-0.00236l-5.9e-4 5.91e-4h-0.00119v5.91e-4c-7e-3 0.0095-1e-3 0.04936 0.0189 0.11583 0.0212 0.06862 0.0575 0.16651 0.10992 0.29016-0.0812-0.18126-0.13946-0.33716-0.13946-0.37762 0-0.03602-0.0875-0.2365-0.21393-0.50526 0.0305 0.04523 0.0568 0.07204 0.0727 0.07091 1e-3 -8.4e-5 3e-3 -8.26e-4 4e-3 -0.0012 5e-4 -1.47e-4 1e-3 -4.22e-4 2e-3 -5.91e-4h5.9e-4l0.00295-0.002955v-5.91e-4l6e-4 -5.91e-4c1.5e-4 -2.51e-4 1e-3 -9.34e-4 1e-3 -0.0012v-0.001773l5.9e-4 -5.91e-4v-5.91e-4c0.0137-0.03755-0.0385-0.18265-0.12233-0.33743-0.0739-0.13642-0.12445-0.20827-0.14833-0.2222-2e-3 -9.29e-4 -3e-3 -0.0013-4e-3 -0.0018-1e-3 -3.15e-4 -2e-3 -5.59e-4 -3e-3 -5.91e-4 -2.8e-4 2.1e-5 -1e-3 -5.2e-5 -2e-3 0h-5.9e-4l-5.9e-4 5.91e-4h-6e-4l-0.00118 0.001182h-0.00118c-9e-5 1.2e-4 -9.7e-4 0.0014-1e-3 0.0018-5e-3 0.01053-6.3e-4 0.04075 0.0136 0.08746 7e-3 0.02136 0.0147 0.04658 0.0254 0.07505-0.056-0.11497-0.11445-0.23473-0.17374-0.35339 0.0803 0.10371 0.11865 0.05825 0.0561-0.1046-0.0344-0.08977-0.0858-0.14061-0.11346-0.11287-0.0114 0.01138-0.0164 0.03035-0.016 0.05319 1.5e-4 0.0076 1e-3 0.01593 2e-3 0.02423-0.0868-0.17208-0.17253-0.33876-0.24879-0.4834 0.0805 0.1468 0.16038 0.25884 0.18615 0.25884h5.9e-4c2.1e-4 -3.5e-5 7.7e-4 5.2e-5 2e-3 0l5.9e-4 -5.91e-4h5.9e-4l5.9e-4 -5.91e-4h5.9e-4l5.9e-4 -5.91e-4v-5.91e-4l6e-4 -5.91e-4 5.9e-4 -5.91e-4v-5.91e-4h5.9e-4c8e-5 -2.87e-4 -1e-4 -9.32e-4 0-0.0012v-5.91e-4h5.9e-4c9e-3 -0.02971-0.0393-0.15875-0.11819-0.31143-0.0451-0.08725-0.0924-0.16587-0.13178-0.22338-0.0319-0.04672-0.0589-0.07993-0.0756-0.09042-3e-3 -0.0016-5e-3 -0.0024-7e-3 -3e-3 -7.5e-4 -2.06e-4 -2e-3 -5.11e-4 -3e-3 -5.91e-4 -2.2e-4 1.6e-5 -7.8e-4 -3.4e-5 -2e-3 0l-5.9e-4 5.91e-4h-0.00118l-1e-3 0.0012-0.00118 0.001182c-6e-3 0.0099-1e-3 0.04159 0.0148 0.08687 0.0191 0.05539 0.053 0.13214 0.0963 0.21688-0.12204-0.22914-0.21461-0.39063-0.24052-0.40953-0.0107-0.0078-0.0288-0.02985-0.052-0.06323 0.0226 0.0273 0.0418 0.04601 0.0561 0.05378 1e-3 6.47e-4 2e-3 6.82e-4 3e-3 0.0012 3e-3 0.0015 7e-3 0.0029 9e-3 3e-3 7.5e-4 2.5e-5 1e-3 6.2e-5 2e-3 0 2e-3 -1.85e-4 4e-3 -7.76e-4 6e-3 -0.0018l5.9e-4 -5.91e-4c7.5e-4 -5.86e-4 2e-3 -1e-3 2e-3 -0.0018l5.9e-4 -5.91e-4v-5.91e-4l6e-4 -5.91e-4c0.0152-0.02297-0.015-0.11292-0.0762-0.23402-0.0239-0.04726-0.0519-0.09971-0.0845-0.15424-0.17699-0.29607-0.29289-0.46179-0.33212-0.48931-3e-3 -2e-3 -5e-3 -3e-3 -7e-3 -0.0035h-5.9e-4l-5.9e-4 -5.91e-4h-0.00237l-0.00118 0.001182h-5.9e-4v5.91e-4l-0.00177 0.001773c-2e-3 0.0047-5.5e-4 0.01382 3e-3 0.02718 9e-3 0.0349 0.0341 0.09969 0.078 0.19442-0.12464-0.22399-0.24414-0.39239-0.28188-0.39239-0.0376 0-0.0686-0.0447-0.0768-0.10342 6.4e-4 0.0035 1e-3 0.0066 2e-3 0.01005 1e-3 0.0041 2e-3 0.0085 4e-3 0.01241 1e-3 4e-3 3e-3 8e-3 5e-3 0.01182 2e-3 0.0037 4e-3 0.0071 6e-3 0.01064 2e-3 0.0035 4e-3 0.0068 7e-3 0.01005 0.0207 0.02941 0.0517 0.04846 0.0863 0.04846 4e-3 0 8e-3 -1.37e-4 0.0112-5.91e-4 5e-3 -6.8e-4 0.0104-0.0019 0.0148-0.0035 1e-3 -5.46e-4 3e-3 -0.0017 4e-3 -0.0024 1e-3 -6.46e-4 2e-3 -9.73e-4 4e-3 -0.0018 0.0317-0.0186 0.0339-0.0673 0-0.1241-0.14605-0.24477-0.91052-1.2422-0.95202-1.2422-2e-3 0-4e-3 2.27e-4 -5e-3 5.91e-4 -3e-4 1.13e-4 -1e-3 4.55e-4 -2e-3 5.91e-4l-5.9e-4 5.91e-4c-2.5e-4 1.8e-4 -2e-3 9.79e-4 -2e-3 0.0012l-5.9e-4 5.91e-4c-1.9e-4 2.47e-4 -4.2e-4 0.0015-5.9e-4 0.0018-3e-3 0.0055-3e-3 0.01481 5.9e-4 0.02778 2e-3 0.0073 5e-3 0.01609 8e-3 0.02541-4e-3 -0.0043-8e-3 -0.0088-0.0112-0.013-0.0363-0.04023-0.0864-0.09966-0.1436-0.1696 0.0165 0.01156 0.0306 0.01773 0.0414 0.01773 1e-3 0 4e-3 -4e-4 5e-3 -5.91e-4 2.5e-4 -5.3e-5 2e-3 7.9e-5 2e-3 0 5e-4 -1.82e-4 6.8e-4 -4.29e-4 1e-3 -5.91e-4l6e-4 -5.91e-4h5.9e-4c2.6e-4 -1.47e-4 6.8e-4 -3.59e-4 1e-3 -5.91e-4l5.9e-4 -5.91e-4v-5.9e-4c3.3e-4 -2.83e-4 9.1e-4 -3.07e-4 1e-3 -5.91e-4v-5.91e-4h0.00118c0.0318-0.0415-0.1698-0.32171-0.48694-0.70028zm63.789 1.1671c0.0973 0.14046 0.22103 0.29963 0.34097 0.43258 0.1282 0.1421 0.23704 0.30147 0.27539 0.39653-0.0415-0.09706-0.16102-0.26333-0.30139-0.41308-0.16174-0.17256-0.29651-0.35098-0.31497-0.41603zm-45.909 2.3343c-0.8626 0.0225-1.8526 0.10562-2.2178 0.21924-0.01165 0.0036-0.02208 0.0087-0.03369 0.01241 0.01182-0.0038 0.02181-0.0093 0.03369-0.013 0.44087-0.13748 1.349-0.2139 2.2178-0.21865zm27.202 0c0.86598 0.0057 1.7681 0.08229 2.2054 0.21865 0.1819 0.05673 0.3581 0.12054 0.52831 0.19088-0.17032-0.0703-0.3463-0.13366-0.52831-0.19029-0.36354-0.11309-1.3457-0.19627-2.2054-0.21924zm-1.4443 0.07328c-0.05553 0.02446-0.0884 0.04224-0.09632 0.052-2.1e-4 3.09e-4 -4.35e-4 8.88e-4 -5.91e-4 0.0012l-0.001182 0.001182v0.001182l5.91e-4 5.91e-4v0.001182h5.91e-4l5.91e-4 5.91e-4h5.91e-4l5.91e-4 5.91e-4c0.0041 0.0019 0.01313 0.0028 0.026 0.0024 0.03297-0.0013 0.09482-0.01014 0.18733-0.02659 0.80846-0.14393 2.4128 0.5512 3.3093 1.4337 1.2515 1.2319 1.9141 3.1896 1.9141 5.6566 0 3.7236-1.5551 6.2752-4.2306 6.9413l-0.5815 0.14419 0.5289 0.05969c0.18779 0.0211 0.3788 0.03303 0.57145 0.03605-0.46676 0.0056-0.94018-0.01984-1.3887-0.07564 2.4e-4 -2.7e-4 0.0015-0.0015 0.0018-0.0018l5.91e-4 -5.91e-4c1.59e-4 -2.54e-4 4.36e-4 -8.74e-4 5.91e-4 -0.0012v-5.91e-4c4.29e-4 -8.86e-4 8.07e-4 -0.0021 0.0012-3e-3 2.01e-4 -5.93e-4 4.62e-4 -0.0012 5.91e-4 -0.0018v-0.002364h5.9e-4v-0.001182c-1.58e-4 -0.0057-0.0035-0.01185-0.01005-0.01832-0.03515-0.03518-0.12635-0.03878-0.2027-0.0083-0.0068 0.0027-0.01296 0.0051-0.01832 0.0077-0.11097-0.01667-0.21953-0.03505-0.32621-0.05555l0.20565-0.0071-0.26416-0.08451c-0.14543-0.04657-0.33586-0.08847-0.42312-0.09337-0.06106-0.0034-0.09642-0.0026-0.1046 0.0059l-5.91e-4 5.91e-4v5.91e-4l-5.91e-4 5.91e-4v0.001773c2.96e-4 0.0068 0.0093 0.01715 0.02777 0.03132 0.0079 6e-3 0.01775 0.01302 0.02896 0.02068-0.13774-0.03847-0.2687-0.08044-0.3918-0.12646-0.04896-0.0183-0.09758-0.03721-0.14596-0.05614 0.0018 7.4e-5 0.0036 0 0.0053 0 0.0036 0 0.0065-2.39e-4 0.0095-5.91e-4 0.0091-0.0011 0.01611-0.0042 0.0195-0.0083 0.01139-0.0163-0.01823-0.05266-0.08214-0.09396-0.08726-0.05638-0.20599-0.10223-0.26416-0.10223-0.01507 0-0.02511 0.0039-0.02955 0.0095-1.96e-4 2.89e-4 -1e-3 0.0015-0.0012 0.0018-0.0059 0.01283 0.0098 0.03571 0.04432 0.06323 0.0077 0.0061 0.01587 0.01237 0.02541 0.01891-0.17626-0.07495-0.34799-0.15366-0.5159-0.23697 4.89e-4 -0.0044 5.91e-4 -0.0095 5.91e-4 -0.01477 0-0.02704-0.10726-0.10086-0.23815-0.16428-0.10327-0.05004-0.16003-0.0768-0.17315-0.07682h-0.001772l-0.0012 0.0012v5.9e-4c8.1e-5 2.38e-4 4.63e-4 0.0015 5.91e-4 0.0018 0.0024 0.0042 0.0095 0.0117 0.02009 0.02128 0.01759 0.0159 0.04594 0.0395 0.08569 0.07151-0.07894-0.04288-0.15653-0.08643-0.23343-0.13119 0.0089-0.0063 0.01241-0.0207 0.01241-0.04137 0-0.02704-0.10667-0.10086-0.23756-0.16428-0.10354-0.05017-0.16082-0.07694-0.17374-0.07682h-0.002364v0.002955c0.0027 0.0054 0.01409 0.01674 0.03309 0.03309 0.02403 0.02066 0.06064 0.05034 0.10992 0.08982-0.09062-0.05696-0.17962-0.11531-0.26711-0.17492-0.0038-0.01463-0.02048-0.03513-0.04905-0.05791-0.05526-0.04408-0.24591-0.19837-0.42312-0.34334-0.29786-0.24366-0.30389-0.24613 5.91e-4 0.05555-0.21678-0.17122-0.42185-0.3517-0.61518-0.54013-0.09142-0.1263-0.23474-0.31301-0.40066-0.52004-0.30301-0.37808-0.57226-0.68728-0.59804-0.68728-6.23e-4 0-0.0012-4.2e-5 -0.0018 0-0.0755-0.11466-0.14735-0.23132-0.2157-0.34984 0.01915 0.02055 0.0352 0.03309 0.0455 0.03309 4.54e-4 0 0.0013-2.3e-5 0.0018 0h5.91e-4c3e-4 -6.9e-5 0.0015-0.0011 0.0018-0.0012 5e-4 -2.75e-4 0.0013-2.28e-4 0.0018-5.91e-4v-5.91e-4h5.91e-4v-5.91e-4l5.91e-4 -5.91e-4c0.01364-0.01961-0.01278-0.10602-0.06737-0.20802-0.01557-0.02908-0.03224-0.05685-0.04846-0.08214-0.04257-0.06637-0.08376-0.11578-0.10814-0.12706-3e-4 -1.34e-4 -0.0015-4.97e-4 -0.0018-5.9e-4 -6.12e-4 -1.42e-4 -0.0012-4.27e-4 -0.0018-5.91e-4 -0.0022-7.25e-4 -0.0041-0.0012-0.0059-0.0012-5e-4 0-0.0018 2.8e-5 -0.0024 0h-5.91e-4c-2.76e-4 9.9e-5 -0.0015 4.67e-4 -0.0018 5.91e-4 -2.47e-4 1.47e-4 -0.0016 1e-3 -0.0018 0.0012v5.9e-4c-0.0031 0.0033-0.0053 0.0096-0.0053 0.01773 3.7e-5 0.0043 8.45e-4 0.0092 0.0018 0.01477-0.06339-0.12662-0.12307-0.25547-0.17847-0.38589 0.0014-0.0015 0.0025-3e-3 0.0035-0.0053 5.21e-4 -0.0012 0.0013-0.0022 0.0018-0.0035 0.01238-0.03922-0.01466-0.16018-0.065-0.28602-0.04162-0.10406-0.08012-0.16234-0.0981-0.15719-6.87e-4 3.09e-4 -0.0023 0.0013-3e-3 0.0018-0.0029 0.0031-0.0054 0.0092-0.0065 0.01773-0.06948-0.2007-0.1294-0.40518-0.18024-0.61341l5.91e-4 -5.91e-4h5.91e-4l0.001182-0.001182 5.9e-4 -5.91e-4 5.91e-4 -5.91e-4c3.45e-4 -4.45e-4 2.41e-4 -6.82e-4 5.91e-4 -0.0012 0.02003-0.02948 0.0056-0.21378-0.04373-0.5555-0.03461-0.23991-0.0543-0.36167-0.06678-0.37821l-0.002391-0.002391h-5.91e-4v5.91e-4h-0.001181v5.91e-4l-0.0012 0.0012c-0.0083 0.01502-0.01319 0.09676-0.01832 0.23756-2.24e-4 0.0061-4.19e-4 0.01212-5.91e-4 0.01832-0.0042-0.02966-8e-3 -0.05944-0.01182-0.08923-0.02296-0.18009-0.03773-0.35946-0.04491-0.53836 0.0023-0.0038 0.0041-0.0089 0.0065-0.01477 0.02906-0.0716 0.03099-0.21445 0.0041-0.31734-0.0051-0.01949-0.01003-0.03316-0.01477-0.04137 0.0049-0.24449 0.02424-0.48738 0.05732-0.72746 0.0031 0.22188 0.0134 0.34188 0.02837 0.36107 2.44e-4 2.57e-4 9.36e-4 3.85e-4 0.0012 5.9e-4v5.91e-4h5.91e-4v5.91e-4h0.001182l5.91e-4 5.91e-4 5.91e-4 -5.91e-4h0.001182l5.91e-4 -5.91e-4h0.001182v-5.91e-4h5.91e-4c0.02286-0.02047 0.05463-0.22732 0.09219-0.61341 0.02184-0.22454 0.02-0.36178-3e-3 -0.39121l-5.91e-4 -5.91e-4v-5.91e-4c-3.82e-4 -4.19e-4 -8.22e-4 -8.53e-4 -0.0012-0.0012 0.05317-0.2168 0.11738-0.43062 0.19265-0.64118-1.82e-4 0.0062-2.09e-4 0.01201 0 0.01773 0.0015 0.03984 8e-3 0.06238 0.01773 0.06678 0.0019 5.81e-4 0.0043 1.5e-4 0.0065-5.91e-4h5.91e-4c7.72e-4 -3.53e-4 0.0016-7.3e-4 0.0024-0.0012 0.01621-0.0089 0.03976-0.04846 0.06973-0.11819 0.02712-0.06312 0.04847-0.11998 0.06382-0.16901 0.02974-0.095 0.03693-0.15948 0.02246-0.17492v-5.91e-4h-5.91e-4l-5.91e-4 -5.91e-4 -5.91e-4 -5.9e-4h-5.9e-4l-5.91e-4 -5.91e-4h-5.91e-4l-5.91e-4 -5.91e-4c-0.0061-0.0019-0.01476 0.0015-0.02541 0.01064-0.0043 0.0037-0.0092 0.0086-0.01418 0.01418 0.08333-0.19663 0.17689-0.39048 0.27893-0.57972-0.05411 0.11824-0.07536 0.18495-0.06914 0.20033 1.15e-4 2.22e-4 -1.29e-4 9.87e-4 0 0.0012h5.91e-4v5.91e-4h5.91e-4l5.91e-4 5.91e-4h5.91e-4l5.91e-4 5.91e-4h0.001773c6.27e-4 -8e-5 0.0018-3.74e-4 0.0024-5.91e-4 0.0012-4.34e-4 0.0026-8.73e-4 0.0041-0.0018 0.03578-0.02177 0.1439-0.18015 0.30316-0.46508 0.12411-0.22204 0.1964-0.38968 0.1826-0.41603v-5.91e-4l-0.001182-0.001182v-5.91e-4h-5.91e-4l-0.001182-0.001182h-0.002363c-5.33e-4 2.7e-5 -0.0018-1.18e-4 -0.0024 0 0.03799-0.0547 0.07682-0.10869 0.11642-0.16251 0.0035 0.0026 0.0074 0.0036 0.01241 0.0035 0.0013-1.3e-5 0.0028-4.15e-4 0.0041-5.91e-4 6.5e-4 -8.8e-5 0.0023 6.5e-5 3e-3 0 3.48e-4 -5.1e-5 8.32e-4 -5.07e-4 0.0012-5.91e-4 0.0029-6.75e-4 0.0063-0.0017 0.0095-3e-3 0.03853-0.01584 0.10134-0.07783 0.1826-0.18142 0.05961-0.07601 0.09198-0.11809 0.09337-0.12942v-0.002364h-5.91e-4v-5.91e-4h-5.91e-4v-5.91e-4h-0.001773c-0.01133 0.0014-0.054 0.03376-0.13001 0.09337-0.0033 0.0026-0.0068 0.0051-0.01005 0.0077 0.05989-0.0755 0.12189-0.15045 0.18497-0.22397 0.07295-0.05241 0.24702-0.21418 0.43317-0.4048 0.1567-0.16046 0.28284-0.30124 0.33625-0.37289 0.0828-0.07278 0.16719-0.14414 0.25352-0.21392-0.0051 0.0076-0.0077 0.01375-0.0077 0.01773 0 0.02992 0.0099 0.04314 0.02896 0.04018 0.01561-0.0024 0.03719-0.01511 0.06382-0.03841 0.03551-0.03106 0.07996-0.08109 0.13178-0.14715 0.03379-0.04308 0.05841-0.07499 0.07387-0.09692 0.14468-0.10654 0.29416-0.20922 0.44735-0.3073-0.0037 0.0059-0.0059 0.01118-0.0059 0.01537v5.9e-4c2.8e-5 2.87e-4 5.38e-4 0.0015 5.91e-4 0.0018 3.78e-4 0.0014 1e-3 0.0025 0.0018 0.0035 2.38e-4 2.56e-4 9.08e-4 0.0015 0.0012 0.0018 0.0043 0.0032 0.01246 0.0049 0.02246 0.0041 0.0033-2.5e-4 0.0062-0.0011 0.01005-0.0018 0.0076-0.0013 0.01641-0.0032 0.026-0.0059 0.01917-0.0055 0.04267-0.01338 0.06796-0.02423 0.02529-0.01084 0.05305-0.02463 0.08214-0.04019 0.11635-0.06226 0.21097-0.13696 0.21097-0.16606 0-6.75e-4 1.17e-4 -0.0023 0-3e-3 -8.5e-5 -2.97e-4 -4.79e-4 -0.0015-5.91e-4 -0.0018l-5.91e-4 -5.91e-4 -5.9e-4 -5.91e-4c-1.83e-4 -2.31e-4 -3.89e-4 -9.69e-4 -5.91e-4 -0.0012-0.0053-0.0045-0.01753-0.0057-0.03369-3e-3 -0.0076 0.0013-0.01644 0.0032-0.026 0.0059 0.0656-0.03758 0.13221-0.07391 0.19915-0.10992-0.01463 0.01747-0.02187 0.02973-0.02127 0.03664v5.91e-4c1.25e-4 2.9e-4 0.0011 0.0015 0.0012 0.0018 2.06e-4 2.38e-4 0.0014 0.0014 0.0018 0.0018v5.91e-4c3e-3 0.0014 0.0085 0.0018 0.01477 0.0012 0.0084-8e-4 0.01977-0.0034 0.03427-0.0077 0.01934-0.0057 0.04395-0.01438 0.07446-0.026 0.10431-0.03971 0.16377-0.09861 0.13119-0.13119l-5.91e-4 -5.91e-4c0.06399-0.03192 0.12871-0.06289 0.19383-0.09337-0.0287 0.03046-0.03692 0.05143-0.02955 0.06205 2.71e-4 3.23e-4 0.0015 0.0015 0.0018 0.0018 0.03163 0.02664 0.20707-0.03308 0.41308-0.15719l0.26475-0.15897-0.16074 0.04137c0.08831-0.03498 0.17704-0.06867 0.26711-0.10105-0.02319 0.01947-0.03319 0.03377-0.03132 0.04314 1.38e-4 4.67e-4 8.91e-4 0.0023 0.0012 3e-3l5.9e-4 5.91e-4v5.91e-4c6e-3 0.0079 0.02465 0.01116 0.05259 0.0083 0.05961-0.0062 0.16408-0.03792 0.29311-0.09337 0.03146-0.01352 0.05715-0.02532 0.07623-0.03605 0.02684-0.0151 0.04144-0.0283 0.04373-0.03782 4.9e-5 -3.11e-4 -2.2e-5 -0.0015 0-0.0018-6e-6 -2.98e-4 3.3e-5 -0.0015 0-0.0018-6e-5 -2.87e-4 -5.03e-4 -0.0015-5.91e-4 -0.0018l-5.91e-4 -5.91e-4c-1.42e-4 -2.67e-4 -4.21e-4 -0.0015-5.91e-4 -0.0018-0.0047-0.0061-0.01735-0.01056-0.03782-0.013 0.08097-0.02492 0.16242-0.04812 0.24466-0.07091-0.0153 0.0082-0.02293 0.01638-0.02364 0.02305 5e-6 6.91e-4 4.28e-4 0.0023 5.91e-4 3e-3 2.44e-4 6.61e-4 7.81e-4 0.0023 0.0012 3e-3 0.0091 0.01196 0.04665 0.02038 0.1111 0.02305 0.0418 0.0017 0.07737-9.24e-4 0.10283-0.0065 0.0042-9.29e-4 0.0081-0.0019 0.01182-3e-3 0.0093-0.0027 0.01621-0.0063 0.02186-0.01005 2.75e-4 -1.85e-4 0.0015-9.66e-4 0.0018-0.0012 5.13e-4 -4.57e-4 0.0013-7.82e-4 0.0018-0.0012l0.001182-0.001182c2.77e-4 -1.64e-4 9.3e-4 -4.17e-4 0.0012-5.91e-4h5.91e-4c2.05e-4 -2.02e-4 1e-3 -0.0016 0.0012-0.0018 3.35e-4 -4.36e-4 2.41e-4 -7.31e-4 5.91e-4 -0.0012l0.001182-0.001182c2.42e-4 -4.33e-4 3.91e-4 -7.32e-4 5.91e-4 -0.0012 3.73e-4 -6.53e-4 0.0014-0.0023 0.0018-3e-3 1.66e-4 -4.51e-4 -1.24e-4 -6.82e-4 0-0.0012v-0.001182c3.28e-4 -0.0019 3.64e-4 -0.0039 0-0.0059v-0.001182c-1.87e-4 -5.27e-4 -4.28e-4 -0.0013-5.91e-4 -0.0018-0.0014-4e-3 -0.0039-0.0086-0.0083-0.013-0.02125-0.02127-0.06335-0.03071-0.10992-0.02837 0.06335-0.01665 0.12682-0.03249 0.19088-0.04787 0.09104-0.02185 0.19778-0.04108 0.31675-0.05732zm-24.322 0.0018c0.11771 0.01631 0.22363 0.03488 0.3138 0.05673 0.06662 0.01615 0.13223 0.03288 0.19797 0.05023-0.0201 0.0034-0.04035 0.0088-0.05969 0.01655-0.08437 0.03376-0.0594 0.05931 0.06382 0.06441 0.06397 0.0026 0.11222-0.0046 0.13474-0.01773 2e-3 -0.0012 0.0037-0.0028 0.0053-0.0041 4.05e-4 -3.24e-4 0.0014-9.53e-4 0.0018-0.0012l5.91e-4 -5.91e-4c7.02e-4 -6.71e-4 0.0012-0.0011 0.0018-0.0018l5.91e-4 -5.9e-4 5.91e-4 -5.91e-4c2.64e-4 -4.76e-4 3.41e-4 -0.0014 5.91e-4 -0.0018l5.91e-4 -5.91e-4c1.49e-4 -3.36e-4 4.25e-4 -7.82e-4 5.91e-4 -0.0012 0.0015-0.0029 0.0022-0.0062 0.0018-0.0095 0.06738 0.01892 0.1345 0.03889 0.20092 0.05909-0.01952 0.0026-0.03189 0.0075-0.03605 0.01359-0.0083 0.01574 0.0314 0.04283 0.11878 0.08037 0.18651 0.08014 0.32171 0.10895 0.34393 0.08628l5.91e-4 -5.91e-4 5.91e-4 -5.9e-4v-5.91e-4h5.91e-4c4.82e-4 -8.49e-4 8.82e-4 -0.0026 0.0012-0.0035 0.0015-0.0096-0.0091-0.02508-0.03309-0.04491 0.09934 0.03506 0.1979 0.07131 0.29488 0.10933l-0.18615-0.04846 0.26475 0.15956c0.18082 0.10894 0.33824 0.16822 0.39535 0.1631 0.0029-2.56e-4 0.0053-6.34e-4 0.0077-0.0012 0.0047-0.0012 0.0081-0.0028 0.01064-0.0053 0.0099-0.01161-6.37e-4 -0.03705-0.04019-0.07564 0.0656 0.03002 0.13061 0.06015 0.19501 0.0916-0.03421 0.01267-0.01105 0.04997 0.06619 0.09987 0.10768 0.06958 0.16832 0.10226 0.1897 0.0981h0.001772c2.67e-4 -8.7e-5 9.24e-4 -5.12e-4 0.0012-5.91e-4h5.91e-4v-5.91e-4h5.91e-4v-5.91e-4h5.91e-4l0.002364-0.002364c6.2e-4 -0.0011 8.82e-4 -0.0028 0.0012-0.0041l5.91e-4 -5.91e-4v-0.001182c4.04e-4 -0.0044-5.62e-4 -0.01-3e-3 -0.01714-0.0014-0.0041-0.0036-0.0091-0.0059-0.01418-0.0045-0.01003-0.01039-0.02178-0.01832-0.03546 0.12471 0.06588 0.24714 0.13485 0.36698 0.20624-0.01174-0.0061-0.02383-0.01239-0.03605-0.01832-0.10354-0.05017-0.16023-0.07694-0.17315-0.07682h-0.002363v5.91e-4h-5.91e-4v5.91e-4l-5.91e-4 5.91e-4v5.91e-4l5.91e-4 5.91e-4c0.0052 0.01154 0.05368 0.05136 0.14301 0.12292 0.14162 0.11344 0.21405 0.16328 0.24702 0.16074l5.91e-4 -5.91e-4h0.001773c7.41e-4 -1.19e-4 0.0017-4.14e-4 0.0024-5.91e-4l5.91e-4 -5.91e-4c3.5e-4 -7.7e-5 8.32e-4 1.18e-4 0.0012 0h5.91e-4l5.91e-4 -5.91e-4h0.001182c6.13e-4 -2.92e-4 0.0012-8.67e-4 0.0018-0.0012h5.91e-4l5.91e-4 -5.9e-4c0.0011-9.43e-4 2e-3 -0.0024 3e-3 -0.0035l0.001182-0.001182h5.91e-4c0.0054-0.0075 0.0077-0.0202 0.0077-0.03664v-5.91e-4c-1e-3 -0.0108-0.01745-0.02849-0.04491-0.04964 0.16098 0.10096 0.31702 0.20689 0.46862 0.31793 0.0067 0.01577 0.0379 0.05681 0.0916 0.12528 0.07983 0.1018 0.16302 0.18556 0.18497 0.18556 0.0037 0 0.0069-2.83e-4 0.01005-5.91e-4 0.0032-3.08e-4 0.0062-0.0011 0.0089-0.0018 0.0027-6.11e-4 5e-3 -8.73e-4 0.0071-0.0018 0.0011-4.54e-4 0.0025-0.0013 0.0035-0.0018 0.02389-0.01319 0.0089-0.04927-0.04196-0.10283 0.0961 0.07697 0.18999 0.15693 0.28188 0.23815l5.91e-4 5.91e-4 0.29311 0.31911c0.26164 0.28469 0.37502 0.395 0.41308 0.39358 0.08499 0.09828 0.16706 0.19917 0.24702 0.30198-0.07082-0.05545-0.11176-0.08585-0.12351-0.08805h-0.001773v5.91e-4h-5.91e-4v5.91e-4l-5.91e-4 5.91e-4v0.001182c0.0022 0.01198 0.03453 0.05499 0.09337 0.13001 0.04979 0.06348 0.09285 0.11121 0.12765 0.14242 0.0087 0.0078 0.0166 0.01439 0.02423 0.02009 0.02099 0.01568 0.03804 0.02373 0.05023 0.02305 0.0011-6.2e-5 2e-3 -3.9e-4 3e-3 -5.91e-4 0.0391 0.05442 0.0775 0.10929 0.11524 0.16488-0.0093 0.03244 0.06272 0.19768 0.18379 0.41426 0.14363 0.25696 0.28148 0.46831 0.31143 0.47808h5.91e-4c1.06e-4 1.3e-5 0.0014 4.65e-4 0.0018 5.91e-4 6.05e-4 -6.2e-5 0.0019-4.07e-4 0.0024-5.91e-4 2.45e-4 -1.22e-4 0.0016-0.0011 0.0018-0.0012h5.91e-4l5.91e-4 -0.0012h5.91e-4v-0.001182c3e-3 -0.0065 0.0021-0.02063-3e-3 -0.03959 0.06876 0.13543 0.13384 0.27341 0.1956 0.41426-0.02084-0.03114-0.03359-0.04787-0.03959-0.05082h-0.002955v5.91e-4l-5.91e-4 5.91e-4c-0.0028 0.0096 0.01097 0.05539 0.03664 0.1371 0.03348 0.10655 0.06454 0.24939 0.06914 0.31734 0.0025 0.03621 7e-3 0.05751 0.01359 0.06382l5.91e-4 5.9e-4c3.29e-4 2.11e-4 1e-3 5.31e-4 0.0012 5.91e-4h5.91e-4l5.9e-4 5.91e-4c5.06e-4 9.7e-5 8.82e-4 -2.1e-5 0.0012 0h0.002364c2.38e-4 -8.4e-5 0.0015-4.74e-4 0.0018-5.91e-4 0.0015-8.77e-4 0.0031-0.0024 0.0047-0.0041 0.0088-0.0091 0.02019-0.0309 0.03427-0.0656 0.0084-0.0207 0.01133-0.04767 0.01005-0.07801 0.04787 0.12283 0.09321 0.24746 0.13592 0.37407 0.03888 0.11527 0.07175 0.2244 0.09928 0.33389-0.04526-0.07044-0.0729-0.11223-0.08569-0.12469-9.84e-4 -9.59e-4 -0.0022-0.0012-3e-3 -0.0018-4.06e-4 -3.07e-4 -8.46e-4 -0.0015-0.0012-0.0018h-0.002954v5.91e-4h-5.91e-4v5.91e-4h-5.91e-4v5.91e-4c-0.0022 0.01082 0.01111 0.05596 0.03605 0.13533 0.03348 0.10655 0.06904 0.39223 0.07919 0.63468l0.01832 0.44085 0.04018-0.44794c0.0046-0.0505 0.0072-0.10237 0.0071-0.15424 0.02811 0.24226 0.04039 0.52066 0.04255 0.88406-0.0025 0.02427-0.0041 0.05338-0.0041 0.08805 0 0.03569 0.0015 0.06636 0.0041 0.09101-9.81e-4 0.2088-0.0073 0.41791-0.01773 0.60809-4.04e-4 -0.02958-0.0012-0.05671-3e-3 -0.07978-0.0039-0.04866-0.01242-0.08094-0.02364-0.08746l-5.91e-4 -5.91e-4h-5.91e-4c-2.6e-4 -6.9e-5 -0.0015-5.48e-4 -0.0018-5.91e-4h-5.91e-4c-2.73e-4 9e-6 -0.0015 5.55e-4 -0.0018 5.91e-4 -0.0031 6.82e-4 -0.0065 0.0031-0.01005 0.0071-0.02135 0.02424-0.06338 0.27608-0.09396 0.56022-0.02124 0.1974-0.02394 0.32722-0.0089 0.37526 7.54e-4 0.0024 0.0015 0.0051 0.0024 0.0071 0.0017 4e-3 0.0039 0.0066 0.0059 0.0089l5.91e-4 5.91e-4v5.91e-4l5.91e-4 5.91e-4v5.91e-4h5.91e-4l0.001182 0.001182c5.61e-4 3.11e-4 0.0024 4.2e-4 3e-3 5.91e-4 0.0016 3.95e-4 0.0041 8.03e-4 0.0059 5.91e-4h0.001182l5.91e-4 -5.91e-4c6.88e-4 -3.82e-4 0.0017-7.82e-4 0.0024-0.0012 0.0063-0.0035 0.0139-0.01164 0.02187-0.02423 0.0028-0.0044 5e-3 -0.0096 0.0077-0.01537-8.13e-4 0.0023-0.0015 5e-3 -0.0024 0.0071-0.06127 0.15696-0.16018 0.4753-0.21984 0.70796-0.0049 0.01912-0.0101 0.03856-0.01595 0.0585-2.6e-5 -0.0019 6.9e-5 -0.0034 0-0.0053-1e-3 -0.02748-0.0067-0.04177-0.01537-0.04491h-0.001182v-5.91e-4c-0.04532-0.01071-0.1676 0.24954-0.1767 0.41544-8.81e-4 0.01606 0.0016 0.0256 0.0071 0.02955 0.0022 0.0013 0.0053 0.0027 0.0083 0.0024 0.0032-3.61e-4 0.0066-0.0018 0.01064-0.0041 0.0082-0.0046 0.01808-0.01332 0.02896-0.02541-0.05851 0.13181-0.12845 0.27257-0.20802 0.4178 0.0056-0.02331 0.0056-0.03995 0-0.04669l-5.9e-4 -5.91e-4c-3.31e-4 -3.19e-4 -1e-3 -0.0011-0.0012-0.0012h-5.91e-4l-5.91e-4 -5.91e-4c-0.0015-5.76e-4 -0.0032-5.91e-4 -0.0047-5.91e-4 -0.02909 0-0.10379 0.09463-0.16606 0.21097-0.05377 0.10037-0.0807 0.18608-0.06855 0.20742 2.17e-4 3.11e-4 3.54e-4 9.04e-4 5.91e-4 0.0012 0.0011 1e-3 0.0037 0.0024 0.0053 3e-3 6.61e-4 1.65e-4 0.0017 0 0.0024 0 3.58e-4 0 0.0013-1.5e-5 0.0018 0h5.91e-4c0.0038-5.69e-4 0.0086-0.0026 0.01359-0.0059 2e-3 -0.0013 0.0037-3e-3 0.0059-0.0047-0.06983 0.11293-0.14346 0.22721-0.22043 0.34039-0.05619 0.04727-0.21255 0.2259-0.38057 0.4373-0.14235 0.1791-0.22145 0.29944-0.2157 0.32089v5.91e-4h5.91e-4v0.001182l5.91e-4 5.91e-4h5.91e-4l5.91e-4 5.91e-4h0.001182c5.48e-4 1.5e-5 0.0015 3e-5 0.0024 0h5.91e-4c3e-3 -5.93e-4 0.0069-0.0024 0.01182-0.0053 0.0039-0.0023 0.0085-0.0057 0.01359-0.0095-0.07622 0.09059-0.15279 0.17819-0.22929 0.26061-0.0098 0.0076-0.02062 0.01596-0.03191 0.02482-0.1018 0.07983-0.18497 0.16303-0.18497 0.18497 0 4e-3 2.31e-4 0.0079 5.91e-4 0.01123-0.13011 0.12597-0.26776 0.24913-0.41189 0.36875l0.25175-0.2872-0.36934 0.31675c-0.20339 0.17405-0.41755 0.35774-0.47572 0.40894-0.01336 0.01176-0.02158 0.02092-0.02423 0.02659-0.04485 0.03076-0.08983 0.06099-0.13533 0.09101 3.44e-4 -0.0013 1e-3 -3e-3 0.0012-0.0041v-5.91e-4c0-0.0023-0.0012-0.0049-0.0024-0.0065-2.7e-4 -2.92e-4 -0.0015-0.0015-0.0018-0.0018-0.01987-0.01341-0.10622 0.01407-0.20802 0.06855-0.11635 0.06226-0.21097 0.13696-0.21097 0.16606 0 0.0011 3.02e-4 0.0026 5.91e-4 0.0035 9e-5 2.31e-4 4.83e-4 0.0016 5.91e-4 0.0018l5.91e-4 5.91e-4v5.91e-4l5.91e-4 5.91e-4c0.0039 0.0039 0.01174 5e-3 0.02305 0.0041 0.0033-2.56e-4 0.0068-5.75e-4 0.01064-0.0012 0.0077-0.0013 0.01637-0.0031 0.026-0.0059-0.05734 0.03417-0.11459 0.06758-0.17256 0.10046 0.0031-0.0053 0.0041-0.0098 0.0041-0.01359 0-0.0023-0.0012-0.0049-0.0024-0.0065-0.01556-0.01695-0.10316 0.01035-0.20861 0.06678-0.11634 0.06226-0.21215 0.13696-0.21215 0.16606v5.91e-4c2.7e-5 2.86e-4 5.4e-4 0.0015 5.91e-4 0.0018 3.67e-4 0.0014 1e-3 0.0025 0.0018 0.0035 5.62e-4 5.91e-4 0.0016 0.0019 0.0024 0.0024-0.1739 0.08733-0.34884 0.16844-0.52358 0.24229 0.05825-0.03925 0.08445-0.07304 0.0721-0.08805-0.0048-0.0048-0.01497-0.0083-0.02896-0.0083-0.05817 0-0.1769 0.04585-0.26416 0.10223-0.06544 0.04229-0.09462 0.08003-0.08096 0.09573 0.0048 0.0046 0.01414 0.0071 0.02777 0.0071 0.0011 0 0.0024 3e-5 0.0035 0-0.17929 0.06829-0.35789 0.12879-0.53304 0.18024 0.03278-0.0226 0.05121-0.03845 0.05378-0.04787 5.3e-5 -3.22e-4 -1.4e-5 -0.0015 0-0.0018-2.4e-5 -2.96e-4 6.3e-5 -9e-4 0-0.0012v-0.001182c-0.0059-0.0098-0.04172-0.01071-0.10578-0.0071-0.08726 0.0049-0.27769 0.0468-0.42312 0.09337l-0.26475 0.0851 0.22515 0.0077c-0.10583 0.02078-0.21029 0.03797-0.31202 0.05082-0.0024-0.0019-0.0049-0.0042-0.0077-0.0059-0.04134-0.02546-0.12145-0.02497-0.1897 0.0024-0.02508 0.01003-0.04064 0.01898-0.04668 0.02718-0.64631 0.05243-1.065 0.08114-1.3994 0.08923 0.0089-8.92e-4 0.01709-0.0019 0.02482-3e-3 0.16724-0.02281 0.4764-0.04524 0.68728-0.04964 0.13087-0.0027 0.21079-0.0079 0.22693-0.02127l0.001773-0.001773v-5.91e-4l5.9e-4 -5.91e-4v-0.002363l-5.9e-4 -5.91e-4c-9e-3 -0.0252-0.1636-0.07518-0.49936-0.17433-0.92668-0.27364-1.6618-0.70146-2.3-1.3397-1.2111-1.211-1.8596-3.1834-1.8556-5.6424 4e-3 -2.4587 0.65462-4.3659 1.9117-5.6034 0.89646-0.88245 2.5008-1.5776 3.3093-1.4337 0.13035 0.0232 0.20054 0.03159 0.21392 0.02423v-5.91e-4h5.91e-4l0.001182-0.001182v-5.91e-4h5.91e-4v-0.001182l-5.91e-4 -5.91e-4v-5.91e-4l-5.91e-4 -5.91e-4c-6e-3 -0.0094-0.03749-0.02667-0.09337-0.05141zm-4.321 0.39771c-0.0863 0.03802-0.16922 0.07962-0.25234 0.12114 0.08319-0.04117 0.16565-0.08333 0.25234-0.12114zm-0.59509 0.3073c-0.09565 0.05654-0.19155 0.11322-0.28248 0.17492 0.09089-0.06155 0.18656-0.11859 0.28248-0.17492zm-0.57913 0.39771c-0.06676 0.05269-0.13705 0.10138-0.20092 0.15719-0.18918 0.16532-0.3651 0.34452-0.5289 0.53718 0.21841-0.26095 0.46674-0.48595 0.72983-0.69437zm-1.7285 2.4335c-0.03013 0.07975-0.06287 0.15691-0.0916 0.23815 0.02287-0.06596 0.04707-0.13095 0.07151-0.19442 0.0061-0.01583 0.01393-0.028 0.02009-0.04373zm29.637 1.2392c-1.0398 0.01869-2.0542 0.73202-2.2285 2.0033-0.08373 0.61082 0.10504 1.2177 0.46922 1.6848 0.05203 0.06673 0.10774 0.13086 0.16665 0.19147-0.0049-0.0039-0.01038-0.0078-0.01537-0.01182-0.07601-0.05961-0.11809-0.09199-0.12942-0.09337h-0.001773l-5.91e-4 5.91e-4v5.91e-4l-5.91e-4 5.91e-4v0.001181c0.0014 0.01133 0.03316 0.05401 0.09278 0.13001 0.10147 0.12937 0.17538 0.19427 0.20742 0.18497h5.91e-4v-5.91e-4c9.28e-4 -4.82e-4 0.0021-0.0012 3e-3 -0.0018 3.03e-4 -1.66e-4 0.0014-4.28e-4 0.0018-5.91e-4 2.83e-4 -1.99e-4 9.4e-4 -4.45e-4 0.0012-5.91e-4l5.91e-4 -5.91e-4c5.28e-4 -4.66e-4 0.0013-6.81e-4 0.0018-0.0012 2.45e-4 -2.67e-4 9.05e-4 -9.31e-4 0.0012-0.0012v-5.91e-4c5e-3 -0.0066 0.0077-0.01754 0.0077-0.0325 0-0.0057-6e-3 -0.01505-0.01596-0.02777 0.27993 0.23923 0.61826 0.40983 0.99103 0.47985 0.07136 0.0134 0.14298 0.02393 0.21452 0.03073-0.01557 0.0034-0.03113 0.0076-0.04609 0.01359-0.08438 0.03376-0.0594 0.05931 0.06382 0.06441 0.07316 3e-3 0.12579-0.0073 0.14301-0.02423v-5.91e-4l5.91e-4 -5.91e-4c3.35e-4 -4.36e-4 8.32e-4 -7.32e-4 0.0012-0.0012l5.91e-4 -5.91e-4v-5.91e-4c5.66e-4 -1e-3 0.0012-2e-3 0.0018-3e-3 6.23e-4 -0.0013 8.82e-4 -0.0027 0.0012-0.0041 6.55e-4 -0.0037 4.18e-4 -0.0071-0.0018-0.01123-5.4e-4 -1e-3 -0.0016-0.0019-0.0024-3e-3 -0.0014-0.0021-0.0031-0.0049-0.0053-0.0071-0.0051-0.0051-0.01167-0.0099-0.01891-0.01359 0.78814 0.02915 1.5552-0.33134 1.9998-0.96384 0.4224-0.60096 0.50813-1.668 0.18438-2.2994-0.45623-0.88978-1.2802-1.2952-2.089-1.2806zm-20.586 0.02127v5.91e-4c-0.39373 0.0054-0.78105 0.07487-0.98571 0.20565-0.87751 0.56075-1.2168 1.1258-1.2168 2.0293 0 1.1132 0.6203 1.9346 1.6736 2.2161 0.0886 0.02368 0.17999 0.04396 0.26534 0.06028-0.01829 0.0034-0.03679 0.0089-0.05437 0.01596-0.04087 0.01635-0.05534 0.03152-0.04609 0.04255 0.01116 0.01116 0.04831 0.01872 0.10992 0.02127 0.06907 0.0028 0.11898-0.0054 0.13887-0.02068 9.95e-4 -7.62e-4 0.0021-0.0016 3e-3 -0.0024 8.41e-4 -7.95e-4 0.0017-0.0016 0.0024-0.0024l5.91e-4 -5.91e-4c4.06e-4 -6.36e-4 7.32e-4 -0.0017 0.0012-0.0024 0.0013-0.0021 0.0021-0.0042 0.0024-0.0065v-5.91e-4c-9e-6 -2.67e-4 -8e-6 -9.82e-4 0-0.0012v-5.91e-4c-1.3e-5 -2.39e-4 -1.2e-5 -9.16e-4 0-0.0012v-0.001772l-5.91e-4 -5.91e-4 5.91e-4 -5.91e-4v-5.91e-4h-5.91e-4c-9.35e-4 -3e-3 -0.0021-0.0063-0.0047-0.0095-8.49e-4 -0.0011-0.0025-0.0019-0.0035-3e-3 0.05501 0.0077 0.10447 0.01276 0.14537 0.01477 0.02045 1e-3 0.03918 0.0012 0.05496 5.91e-4 0.01578-6.01e-4 0.02866-0.0023 0.039-0.0047 0.01834-0.0041 0.04358-0.0088 0.07387-0.01477-0.01737 0.0078-0.02841 0.01468-0.03368 0.02127-0.0013 0.0016-0.0024 0.0031-3e-3 0.0047-3.58e-4 1e-3 -4.96e-4 0.0026-5.91e-4 0.0035-5e-6 2.34e-4 -1.4e-5 0.0015 0 0.0018v5.91e-4h5.91e-4v0.001182c0.0013 0.0036 0.0054 0.0066 0.01123 0.0095 0.0024 0.0012 0.0052 0.0019 0.0083 3e-3 0.0062 0.0021 0.01344 0.0042 0.02246 0.0059 0.01803 0.0033 0.04168 0.0059 0.07091 0.0071 0.05576 0.0023 0.09953-0.0029 0.12469-0.013 0.0031-0.0013 0.0057-0.0027 0.0083-0.0041s0.0046-0.0025 0.0065-0.0041c2e-3 -0.0015 0.0039-3e-3 0.0053-0.0047 1.64e-4 -2.1e-4 4.5e-4 -0.0016 5.91e-4 -0.0018 2.42e-4 -4.33e-4 3.91e-4 -7.32e-4 5.91e-4 -0.0012 7.46e-4 -0.0013 2e-3 -0.0028 0.0024-0.0041 3.72e-4 -0.0014 6.03e-4 -0.0027 5.91e-4 -0.0041v-0.001182c-5.21e-4 -0.0053-4e-3 -0.01111-0.01005-0.01714-0.01691-0.01693-0.04717-0.02631-0.08214-0.02837 0.1012-0.01877 0.22118-0.04058 0.33152-0.05909 0.46994-0.07887 1.193-0.6824 1.4431-1.2044 0.2369-0.49436 0.2405-1.538 0.0065-1.9779-0.21644-0.40691-0.67716-0.86841-1.0868-1.0885-0.23222-0.12478-0.63216-0.18328-1.0259-0.17788zm21.966 0.31675 0.20152 0.23815c0.14201 0.1677 0.22544 0.2452 0.25825 0.23756l5.91e-4 -5.91e-4h5.91e-4v-5.91e-4h0.001182l5.91e-4 -5.91e-4h0.001181l0.001182-0.001182c0.0072-0.0049 0.01123-0.0159 0.01123-0.03309l-5.9e-4 -5.91e-4c-0.0033-0.02242-0.10873-0.12848-0.23756-0.23756zm-23.345 0.05318c-0.03299 0.0057-0.13911 0.09886-0.24111 0.21156-0.09231 0.10199-0.15118 0.18842-0.14478 0.20802v5.91e-4h5.91e-4v5.91e-4l5.91e-4 5.91e-4v5.91e-4h5.91e-4c7.25e-4 3.08e-4 0.0024 4.06e-4 0.0035 5.91e-4h5.91e-4c4.54e-4 0 0.0018-2.3e-5 0.0024 0 2.71e-4 -9e-6 9.06e-4 4.5e-5 0.0012 0 0.03299-0.0057 0.13911-0.09827 0.24111-0.21097 0.06581-0.07271 0.11432-0.1374 0.13474-0.17551 0.0041-0.0076 0.0072-0.01413 0.0089-0.0195 4.25e-4 -0.0013 9.46e-4 -0.0029 0.0012-0.0041 4.03e-4 -0.0018 4.78e-4 -4e-3 5.91e-4 -0.0053 8e-6 -6.34e-4 1.06e-4 -0.0024 0-3e-3h-5.91e-4v-0.001773l-0.0018-0.0012h-5.91e-4l-5.91e-4 -5.91e-4h-5.91e-4c-8.44e-4 -2.02e-4 -2e-3 -5.91e-4 -3e-3 -5.91e-4 -6.82e-4 0-0.0021-2.5e-5 -3e-3 0zm-0.89411 1.7285c-0.01411 0.0034-0.02306 0.04224-0.026 0.11346-0.0039 0.09405 0.01302 0.15324 0.03959 0.14833l5.91e-4 -5.91e-4c7.76e-4 -2.31e-4 0.0016-3.48e-4 0.0024-5.91e-4 5e-4 -1.8e-4 0.0018-4.49e-4 0.0024-5.91e-4 2.59e-4 -9e-5 9.31e-4 -4.65e-4 0.0012-5.91e-4 1e-3 -5.39e-4 0.0019-9.73e-4 3e-3 -0.0018 0.0021-0.0014 0.0037-0.0037 0.0059-0.0059 0.03518-0.03514 0.03878-0.12636 0.0083-0.2027-0.01291-0.03225-0.02514-0.04817-0.03487-0.04905-6.62e-4 1.2e-5 -0.0017-1.57e-4 -0.0024 0zm25.173 0c-0.01411 0.0034-0.02423 0.04224-0.02718 0.11346-0.0039 0.09405 0.01302 0.15324 0.03959 0.14833 2.46e-4 -4.6e-5 0.0015-5.14e-4 0.0018-5.91e-4 5.27e-4 -1.87e-4 0.0013-4.29e-4 0.0018-5.91e-4 7.5e-4 -2.7e-4 0.0022-9.14e-4 3e-3 -0.0012 1e-3 -5.39e-4 0.0019-9.73e-4 3e-3 -0.0018 0.0021-0.0014 0.0043-0.0037 0.0065-0.0059 0.03518-0.03514 0.03938-0.12636 0.0089-0.2027-0.01246-0.03114-0.02476-0.04718-0.03428-0.04905-6.71e-4 -6.1e-5 -0.0023-8.5e-5 -3e-3 0zm-21.086 1.6547c-0.01133 0.0014-0.0534 0.03376-0.12942 0.09337-0.1018 0.07983-0.18497 0.16303-0.18497 0.18497 0 0.0272 0.0083 0.04023 0.02423 0.04019 0.0095-2.5e-5 0.02143-0.0047 0.03605-0.01418 0.03898-0.02515 0.09521-0.08329 0.16428-0.17138 0.05776-0.07364 0.08959-0.11656 0.09278-0.12942v-0.002954h-5.9e-4l-5.91e-4 -5.91e-4h-0.001182zm19.138 0.75406c-0.03674-0.0015-0.07824 0.0054-0.11642 0.02068-0.01055 0.0042-0.02003 0.0085-0.02718 0.01241-0.0036 2e-3 -0.0068 4e-3 -0.0095 0.0059-0.0062 0.0042-0.0098 8e-3 -0.01182 0.01182-3.22e-4 6.5e-4 -8.87e-4 0.0018-0.0012 0.0024v0.001182l-5.91e-4 5.91e-4v5.91e-4c3e-6 2.39e-4 5.68e-4 0.0015 5.91e-4 0.0018 1.7e-4 9.38e-4 1.2e-4 2e-3 5.91e-4 3e-3h5.9e-4v5.91e-4c0.0044 0.0065 0.01717 0.01192 0.03782 0.01596 0.01836 0.0036 0.04306 7e-3 0.07387 0.0083 0.07319 3e-3 0.12521-0.0073 0.14242-0.02423l0.001182-0.001182c3.35e-4 -4.36e-4 8.32e-4 -7.32e-4 0.0012-0.0012 9.9e-4 -0.0013 0.0018-0.0028 0.0024-0.0041 1.55e-4 -3.25e-4 4.84e-4 -0.0014 5.91e-4 -0.0018 1.45e-4 -6.88e-4 4.85e-4 -0.0017 5.91e-4 -0.0024 6.54e-4 -0.0037-1.73e-4 -0.0071-0.0024-0.01123-5.4e-4 -1e-3 -9.73e-4 -0.0019-0.0018-3e-3 -0.0014-0.0021-0.0031-0.0049-0.0053-0.0071-0.01757-0.01759-0.04895-0.02744-0.08569-0.02896zm-30.198 0.8031c0.07344 0.24431 0.15846 0.47926 0.2547 0.70737s0.20391 0.4495 0.32384 0.66482c-0.16756-0.2889-0.30865-0.57373-0.39889-0.81729-0.06559-0.17702-0.12554-0.36219-0.17965-0.5549zm38.889 0.72096c-0.16002 0.39449-0.33991 0.76792-0.55904 1.098-0.12058 0.18163-0.24944 0.35304-0.38766 0.51472 0.39315-0.49398 0.70352-1.0287 0.94671-1.6127zm-37.702 1.5619c0.27714 0.34414 0.58282 0.63993 0.9207 0.88938 0.11263 0.08315 0.22883 0.16113 0.34866 0.23402-0.25114-0.14392-0.48169-0.30415-0.68491-0.47808-0.17744-0.15186-0.38114-0.38024-0.58445-0.64532zm35.163 1.2883c-0.29265 0.14479-0.60499 0.26536-0.93607 0.36107-0.26841 0.0776-0.56598 0.13804-0.88111 0.18142 0.64358-0.10056 1.2694-0.28783 1.8172-0.54249zm-42.577 0.6855c0.02989 0.66813 0.08366 1.3302 0.16133 1.9856-0.04797-0.44475-0.08992-0.92988-0.1306-1.4845-0.01204-0.16412-0.02225-0.33129-0.03073-0.50113zm0.6335 4.7235c0.19285 0.84722 0.42729 1.6803 0.70323 2.4974-0.17642-0.53484-0.3432-1.1081-0.51886-1.7705-0.06732-0.25388-0.12844-0.49433-0.18438-0.72687zm8.6781 0.56791c0.0043 0 0.0096 4.52e-4 0.01596 0.0012-0.0097 7.11e-4 -0.01864 0.0019-0.02718 0.0035-0.02134 4e-3 -0.0391 0.01125-0.05378 0.02364-0.0029 0.0025-0.0056 0.0054-0.0083 0.0083 0.0184-0.02603 0.04232-0.03664 0.07328-0.03664zm32.983 0c0.03094 0 0.05488 0.01064 0.07328 0.03664-0.02151-0.02327-0.0511-0.03262-0.08982-0.03546 0.0063-7.62e-4 0.01229-0.0012 0.01655-0.0012zm-32.792 0.04137c0.08137 0.02229 0.183 0.05311 0.29784 0.08923 4e-3 0.01879 0.03359 0.04806 0.08451 0.08096 0.08726 0.05639 0.2054 0.10282 0.26356 0.10282 0.0075 0 0.01411-8.64e-4 0.01891-0.0024 9.61e-4 -2.9e-4 0.0015-8.71e-4 0.0024-0.0012 0.0024-9.38e-4 0.0054-0.0028 0.0071-0.0041 3.02e-4 -2.93e-4 0.0015-0.0015 0.0018-0.0018 0.0072-0.01254-0.0079-0.03652-0.04255-0.06441 0.08174 0.02764 0.1663 0.05688 0.25116 0.08687 0.19099 0.06749 0.39242 0.13657 0.58032 0.19974-0.04335-0.01391-0.08777-0.02662-0.13119-0.03723-0.08954-0.02188-0.14095-0.03266-0.15306-0.02896h-5.91e-4l-5.91e-4 5.91e-4h-5.91e-4l-0.001182 0.001182v0.002364h5.91e-4c0.0077 0.01286 0.07636 0.04919 0.20861 0.11287 0.17452 0.08405 0.36495 0.15403 0.42312 0.15483 8e-3 1.17e-4 0.01451-5.09e-4 0.02009-0.0012 0.0028-3.53e-4 0.0054-6.68e-4 0.0077-0.0012 0.0049-0.0012 9e-3 -0.0038 0.01123-0.0059 9.2e-5 -1.29e-4 9.7e-4 -0.0014 0.0012-0.0018 1.19e-4 -2.79e-4 3.81e-4 -0.0013 5.91e-4 -0.0018l5.91e-4 -5.91e-4v-5.91e-4c0.0024-0.03093-0.15082-0.11092-0.33212-0.17433 0.28999 0.09703 0.54092 0.17709 0.66068 0.20979 0.11263 0.03075 0.24318 0.07072 0.35694 0.10933-0.07677-0.02357-0.16474-0.04438-0.25116-0.05909l-0.36994-0.06323 0.36994 0.1501c0.26275 0.10623 0.42932 0.15788 0.49167 0.15483 0.0033-1.6e-4 0.0062-7.48e-4 0.0089-0.0012 0.0027-4.67e-4 0.0056-4.58e-4 0.0077-0.0012l5.91e-4 -5.91e-4h5.91e-4c5.25e-4 -2.89e-4 0.0013-9.32e-4 0.0018-0.0012 0.01922-0.0097 0.0063-0.03599-0.04019-0.07978-0.01873-0.01763-0.05576-0.03749-0.10401-0.05732 0.04308 0.01587 0.08017 0.03062 0.10874 0.04314 0.13076 0.0573 0.38104 0.14118 0.65714 0.22574-0.0181 0.0024-0.03034 0.0073-0.03487 0.013-0.01008 0.0158 0.02929 0.04335 0.11819 0.08155 0.18511 0.07953 0.32018 0.10801 0.34393 0.08628l0.001182-0.001182h5.91e-4c0.0074-0.01191-0.01-0.03598-0.05909-0.07032 0.38348 0.10878 0.74034 0.19679 0.83561 0.19679 0.11568 0 0.19385 0.0015 0.22929 0.10046 0.0024 0.0066 0.0045 0.01318 0.0065 0.02068-0.05842-0.07128-0.15349-0.11395-0.27066-0.10696l-0.24111 0.01477 0.23815 0.0455c0.15634 0.03011 0.24034 0.12508 0.24584 0.27656 0.0029 0.07892 0.01541 0.1254 0.03132 0.13119-0.01196 0.1241-0.03324 0.2801-0.06382 0.47631-0.0026-9e-3 -6e-3 -0.01792-0.0095-0.02659-0.01108-0.02768-0.02075-0.04394-0.02955-0.04846-4.2e-4 -2.16e-4 -8.02e-4 -4.28e-4 -0.0012-5.91e-4 -3.36e-4 -1.35e-4 -0.0014-4.91e-4 -0.0018-5.91e-4 -6.56e-4 -1.33e-4 -0.0023-4e-6 -3e-3 0-3.15e-4 3.6e-5 -0.0015 5.21e-4 -0.0018 5.91e-4 -3.07e-4 1.03e-4 -0.0015 4.53e-4 -0.0018 5.91e-4 -0.0069 0.0039-0.01294 0.01695-0.01714 0.03841-0.0036 0.01836-0.0059 0.04307-0.0071 0.07387h-5.91e-4c-0.0038 0.09199 0.01282 0.15099 0.03841 0.14892 0.0017-1.38e-4 0.0035-1e-3 0.0053-0.0018-0.01587 0.09654-0.03356 0.20145-0.05319 0.31498-5.1e-4 -0.02954-3e-3 -0.05287-0.0077-0.06737-6.7e-4 -0.0021-0.0016-0.0042-0.0024-0.0059-0.0015-0.0034-0.0028-0.0058-0.0047-0.0077-4.74e-4 -4.64e-4 -7.82e-4 -0.0014-0.0012-0.0018h-0.001773c-2.62e-4 -1.3e-4 -9.47e-4 -4.88e-4 -0.0012-5.91e-4 -5.47e-4 -1.53e-4 -0.0018-5.45e-4 -0.0024-5.91e-4 -2.75e-4 4e-6 -0.0015-2.8e-5 -0.0018 0-0.0041 7.34e-4 -0.0091 0.0037-0.01418 0.0095-0.02136 0.02424-0.068 0.23418-0.10342 0.46685-0.02583 0.16958-0.03319 0.26368-0.02246 0.28425 1.83e-4 2.94e-4 3.99e-4 9.26e-4 5.91e-4 0.0012l0.001182 0.001182h5.91e-4l5.91e-4 5.91e-4v5.91e-4h0.004137c0.0029-0.0012 0.0073-5e-3 0.01123-0.01005 0.0092-0.0118 0.02085-0.03335 0.03546-0.0656 0.0013-0.0029 0.0029-0.0059 0.0041-0.0089-0.03566 0.19858-0.07542 0.41592-0.11878 0.65478-0.0023-0.02792-0.0086-0.05714-0.0195-0.08451-0.01055-0.02637-0.01987-0.04194-0.02837-0.04728l-5.91e-4 -5.91e-4h-0.001182c-4.19e-4 -2.15e-4 -8.02e-4 -4.27e-4 -0.0012-5.91e-4 -4.13e-4 -1.64e-4 -7.82e-4 -4.79e-4 -0.0012-5.91e-4 -3.18e-4 -8.8e-5 -0.0015-5.35e-4 -0.0018-5.91e-4 -6.18e-4 -4.9e-5 -0.0024 5.14e-4 -3e-3 5.91e-4 -2.97e-4 7e-5 -0.0015 4.89e-4 -0.0018 5.91e-4 -2.88e-4 1.32e-4 -0.0015 4.27e-4 -0.0018 5.91e-4 -0.0064 0.0045-0.01192 0.01721-0.01596 0.03782-0.0036 0.01836-0.0059 0.04307-0.0071 0.07387h-5.91e-4c-0.0039 0.09405 0.0142 0.15324 0.04077 0.14833 3e-3 -5.46e-4 0.0057-2e-3 0.0089-0.0041 0.0021-0.0014 0.0043-0.0031 0.0065-0.0053 0.0031-0.0031 0.0063-0.0067 0.0089-0.01064-0.0074 0.04095-0.01539 0.08254-0.02305 0.12469-0.07886 0.43413-0.13016 0.82085-0.13178 0.97271-0.02686-0.039-0.04545-0.08354-0.05496-0.13296-0.01701-0.08823-0.02793-0.13807-0.03605-0.14774l-5.91e-4 -5.91e-4v-5.91e-4l-5.91e-4 -5.91e-4h-0.002954l-5.91e-4 5.91e-4c-8e-3 0.0096-0.01336 0.07383-0.0195 0.19442-0.0096 0.18866 0.04743 0.2993 0.17078 0.33152 0.17591 0.04598 0.59088 0.06628 0.63409 0.04137 2.95e-4 -2.03e-4 9.33e-4 -3.81e-4 0.0012-5.91e-4l0.0012-0.0018v-0.001181h5.91e-4v-5.91e-4l-5.91e-4 -5.91e-4v-5.91e-4l-5.91e-4 -5.91e-4v-0.001773c-2.77e-4 -3.14e-4 -8.62e-4 -3.01e-4 -0.0012-5.91e-4 -0.0039-0.0036-0.01279-0.0072-0.02659-0.01182-0.05817-0.0194-0.23291-0.06384-0.38885-0.0981-0.04925-0.01082-0.09373-0.02609-0.13296-0.0461 0.16559 0.05018 0.47563 0.12181 0.90475 0.21038-0.04125-0.0058-0.09236 5.44e-4 -0.13828 0.01891-0.04087 0.01635-0.05534 0.03152-0.04609 0.04255 0.01117 0.01116 0.04831 0.01872 0.10992 0.02127 0.06619 0.0027 0.11505-0.0049 0.13651-0.01891 0.0023-0.0015 0.0049-3e-3 0.0065-0.0047 0.0016-0.0016 0.0025-0.0035 0.0035-0.0053l0.001182-0.001182v-0.001182c1.66e-4 -4.51e-4 4.67e-4 -0.0014 5.91e-4 -0.0018v-0.002364c2.75e-4 -0.0033 1.48e-4 -0.0064-0.0018-0.01005-5.4e-4 -1e-3 -0.0016-0.0024-0.0024-0.0035-0.0014-0.0021-0.0031-0.0043-0.0053-0.0065-0.01-0.01-0.02458-0.0176-0.04196-0.02246 0.15931 0.03278 0.33483 0.06831 0.52477 0.10519-0.01716 0.0034-0.03492 0.0082-0.05141 0.01477-0.03955 0.01582-0.05411 0.03061-0.04668 0.04137 0.0098 0.01161 0.04756 0.01983 0.1111 0.02246 0.07144 0.0029 0.12284-0.0062 0.14124-0.02246 0.0017-0.0015 3e-3 -0.0031 0.0041-0.0047 0.0039-0.0056 4e-3 -0.0116 5.91e-4 -0.01832-4.86e-4 -9.61e-4 -4.88e-4 -2e-3 -0.0012-3e-3 0.12122 0.02322 0.24715 0.04698 0.3788 0.07151-0.04059 0.0025-0.0802 0.0085-0.11583 0.01773v5.91e-4c-0.02864 0.0075-0.04558 0.01473-0.05023 0.02127l-5.91e-4 5.91e-4v0.001182l-5.91e-4 5.91e-4v0.001182c2.1e-5 1.76e-4 5.52e-4 0.0011 5.91e-4 0.0012v0.001182l5.91e-4 5.91e-4v5.91e-4c0.01058 0.01304 0.07399 0.02243 0.17965 0.02364 0.10622 0.0013 0.17935-0.0062 0.20388-0.01891 9.44e-4 -4.89e-4 0.0016-5.81e-4 0.0024-0.0012 8e-4 -5.03e-4 0.0017-0.0013 0.0024-0.0018h5.91e-4l5.91e-4 -5.91e-4v-5.91e-4l0.001182-0.001182c3.6e-4 -5.45e-4 0.0015-0.0024 0.0018-3e-3v-0.001182h5.91e-4c0.08589 0.01578 0.17391 0.03165 0.26356 0.04787 0.02595 0.0047 0.05157 0.0095 0.07742 0.01418-0.03171 0.0011-0.06645 8e-3 -0.0981 0.02068-0.03824 0.01529-0.05297 0.02947-0.04728 0.04018 0.0084 0.01233 0.04623 0.02093 0.11169 0.02364 0.06621 0.0027 0.11505-0.0049 0.13651-0.01891 0.0023-0.0015 0.0036-3e-3 0.0053-0.0047 0.0016-0.0016 0.0031-0.0035 0.0041-0.0053 2.49e-4 -4.36e-4 3.83e-4 -7.72e-4 5.91e-4 -0.0012l5.91e-4 -5.91e-4v-5.91e-4c1.66e-4 -4.51e-4 4.67e-4 -0.0013 5.91e-4 -0.0018v-5.91e-4h5.91e-4v-0.001773c2.74e-4 -0.0033-4.42e-4 -7e-3 -0.0024-0.01064-5.4e-4 -1e-3 -9.73e-4 -0.0019-0.0018-3e-3 -0.0014-0.0021-0.0037-0.0043-0.0059-0.0065-5e-3 -5e-3 -0.01123-0.0093-0.01832-0.013 0.17827 0.0324 0.35234 0.064 0.51176 0.09337-0.02061 0.0034-0.04162 0.0092-0.06146 0.01714-0.03692 0.01477-0.05253 0.02858-0.04846 0.039 0.0069 0.01279 0.04549 0.02144 0.11287 0.02423 0.07248 3e-3 0.12355-0.0064 0.14124-0.02305 0.0017-0.0016 0.0031-0.0029 0.0041-0.0047 0.0018-3e-3 0.0032-0.0067 3e-3 -0.01005v-5.91e-4l-5.91e-4 -5.91e-4 5.91e-4 -5.91e-4v-5.91e-4l-5.91e-4 -5.91e-4v-5.91e-4c-0.0012-4e-3 -0.0041-0.0081-0.0083-0.01241 0.16278 0.03013 0.30521 0.05671 0.41426 0.07742-0.02372-0.0012-0.04698-0.0015-0.06914-5.91e-4 -0.10482 0.0043-0.16432 0.0083-0.17433 0.01714l-5.91e-4 5.91e-4h-5.91e-4v0.003545l5.91e-4 5.91e-4c0.01097 0.01245 0.08573 0.03365 0.22752 0.06973 0.28573 0.0727 0.42918 0.09972 0.45267 0.08155l5.91e-4 -5.91e-4h5.91e-4c4.38e-4 -5.11e-4 8.82e-4 -0.0018 0.0012-0.0024 0.0012-0.0033 9e-4 -8e-3 -0.0024-0.013-0.0012-0.0018-0.0024-0.0038-0.0041-0.0059-0.01229-0.01431-0.03864-0.03425-0.07801-0.05969-0.01192-0.0077-0.02598-0.01541-0.04137-0.02246-0.01539-0.0071-0.03271-0.01325-0.05082-0.0195 0.0057 3.88e-4 0.01116 8e-5 0.01655 0 0.0054-8e-5 0.01083-6.04e-4 0.01596-0.0012 0.03079-0.0037 0.0575-0.01718 0.08214-0.04787 0.0041-0.0051 0.0084-0.01046 0.01241-0.01655 0.02812-0.04259 0.05383-0.11034 0.08214-0.21274-0.0015 0.01351-0.0028 0.02918-0.0035 0.04669-0.0038 0.09234 0.01326 0.15142 0.039 0.14892 0.0024-2.37e-4 0.0046-9.64e-4 0.0071-0.0024 5e-4 -2.7e-4 0.0019-9.46e-4 0.0024-0.0012l5.91e-4 -5.91e-4c0.0011-7.23e-4 0.0024-0.0021 0.0035-3e-3 0.0011-9.09e-4 0.0024-0.0019 0.0035-3e-3 0.03518-0.03514 0.03878-0.12636 0.0083-0.2027-0.0089-0.02219-0.01736-0.03647-0.02482-0.04373-0.0023-0.0023-0.0049-0.0038-0.0071-0.0047-0.0011-4.25e-4 -0.0025-4.91e-4 -0.0035-5.91e-4h-5.91e-4c-2.54e-4 1.7e-5 -0.0015-3.9e-5 -0.0018 0h-5.91e-4c-2.46e-4 8.3e-5 -0.0015 0.0011-0.0018 0.0012h-5.91e-4c-9.47e-4 6.1e-4 -0.0021 0.0014-3e-3 0.0024 0.02914-0.1158 0.06053-0.26874 0.09928-0.46922-8.53e-4 0.01768-8.82e-4 0.03732-0.0012 0.0585-0.0015 0.11758 0.0084 0.19485 0.02364 0.21038 2.58e-4 2.24e-4 0.0015 9.91e-4 0.0018 0.0012l5.91e-4 5.9e-4 5.91e-4 5.91e-4h0.002364c1.95e-4 -3.4e-5 0.0016 5.1e-5 0.0018 0 3e-4 -7.7e-5 0.0015-0.0011 0.0018-0.0012 0.0018-9.4e-4 0.0034-0.0023 0.0053-0.0047 0.0034-0.0042 7e-3 -0.01055 0.01064-0.0195 0.02906-0.07161 0.03099-0.21445 0.0041-0.31734-0.0062-0.02389-0.01265-0.03904-0.01832-0.04609-2.84e-4 -3.53e-4 -9.29e-4 -0.0014-0.0012-0.0018l-5.91e-4 -5.91e-4h-5.91e-4l-0.001182-0.001182h-5.91e-4c-2.73e-4 -1.51e-4 -9.45e-4 -4.8e-4 -0.0012-5.91e-4 -2.68e-4 -7.1e-5 -9.82e-4 -5.59e-4 -0.0012-5.91e-4h-5.91e-4c-3.29e-4 -7e-6 -1e-3 -2.3e-5 -0.0012 0h-5.91e-4l-5.91e-4 5.91e-4c0.01848-0.09764 0.03846-0.20498 0.06028-0.32325 3e-3 -0.0161 0.0059-0.03223 0.0089-0.04846-2.75e-4 0.0047-3.83e-4 0.0097-5.91e-4 0.01477-0.0039 0.09405 0.01301 0.15324 0.03959 0.14833 2.46e-4 -4.6e-5 0.0015-5.14e-4 0.0018-5.91e-4 5.27e-4 -1.87e-4 0.0013-4.28e-4 0.0018-5.91e-4 7.5e-4 -2.69e-4 0.0022-9.14e-4 3e-3 -0.0012 1e-3 -5.39e-4 0.0019-9.73e-4 3e-3 -0.0018 0.0021-0.0014 0.0043-0.0031 0.0065-0.0053 0.03518-0.03514 0.03878-0.12694 0.0083-0.20329-0.01767-0.04415-0.03303-0.05788-0.04432-0.04373-7.52e-4 9.44e-4 -0.0011 0.0018-0.0018 3e-3 0.02884-0.155 0.05813-0.31358 0.08805-0.4704 4e-3 0.05948 0.01945 0.09363 0.04018 0.08923 0.0016-3.39e-4 3e-3 -0.0016 0.0047-0.0024h5.91e-4c2.12e-4 -7.5e-5 0.0016-5.22e-4 0.0018-5.91e-4h5.9e-4l0.001182-0.001182c4.32e-4 -3.72e-4 7.32e-4 -8.32e-4 0.0012-0.0012 0.0017-0.0013 0.0035-0.0024 0.0053-0.0041 0.03518-0.03514 0.03878-0.12694 0.0083-0.20329-0.01135-0.02837-0.02178-0.04381-0.03073-0.04787 0.02804-0.14575 0.05613-0.28746 0.08214-0.41958 0.0026 0.07123 0.01236 0.1148 0.02541 0.12174h5.91e-4c2.47e-4 7.8e-5 0.0015 5.37e-4 0.0018 5.91e-4h0.001182c2.56e-4 -2.3e-5 0.0015 4.8e-5 0.0018 0l5.91e-4 -5.91e-4c2.63e-4 -1e-4 9.16e-4 1.25e-4 0.0012 0v-5.91e-4h5.91e-4v-5.91e-4h5.91e-4v-5.91e-4h0.001182v-5.91e-4l5.91e-4 -5.91e-4c0.0052-0.0044 0.01137-0.01346 0.01714-0.02778 0.01467-0.03635 0.02127-0.08445 0.02127-0.13237 0-0.01198-2.15e-4 -0.02366-0.0012-0.03546-0.0028-0.0354-0.0091-0.06906-0.02009-0.09633-0.0046-0.01146-0.0093-0.01974-0.01359-0.02482 0.02087-0.1045 0.03967-0.1999 0.05673-0.28248 0.0025 0.06676 0.0178 0.10697 0.03959 0.10342h5.91e-4v-5.91e-4h5.91e-4c2.16e-4 -1.02e-4 9.62e-4 -4.97e-4 0.0012-5.91e-4h0.002364l5.91e-4 -5.91e-4c0.0017-7.93e-4 0.0035-0.0022 0.0053-0.0035s4e-3 -0.0028 0.0059-0.0047c0.03518-0.03514 0.03878-0.12635 0.0083-0.2027-0.01145-0.02863-0.02172-0.04458-0.03073-0.04846 0.0028-0.01316 0.0051-0.02546 0.0077-0.03723 0.02965-0.13484 0.04826-0.24161 0.07446-0.32443 0.0017 6.4e-4 0.0038 9.81e-4 0.0059 5.91e-4 0.0031-5.86e-4 0.0062-3e-3 0.01005-0.0059 0.01417-0.01067 0.03419-0.03708 0.06087-0.07919 0.06665-0.10518 0.2436-0.12748 0.65891-0.08451l0.5685 0.0585-0.50231-0.1111c-0.01493-0.0033-0.02979-7e-3 -0.04432-0.01005 0.27477 0.02026 0.65402 0.06309 1.1813 0.1176 0.60492 0.06252 1.1212 0.11422 1.5749 0.1566-0.14678-0.0063-0.28968-0.0089-0.4113-0.0071l-0.63468 0.0089 0.74046 0.06855c0.40721 0.03762 0.93034 0.07029 1.163 0.07269 0.16885 0.0018 0.26466 0.0023 0.28011-0.0041l0.001182-0.001182h5.91e-4v-5.91e-4h5.91e-4v-5.91e-4l-5.91e-4 -5.91e-4v-5.91e-4c-0.01271-0.01019-0.13604-0.03072-0.3788-0.06855 1.3155 0.10706 2.0972 0.11613 3.3761 0.08273 0.76554-0.01999 1.5003-0.05112 2.1948-0.09278-0.02814 0.0039-0.05404 0.0077-0.07919 0.01182-0.10587 0.01715-0.16388 0.03032-0.17315 0.039l-0.0012 5.91e-4v0.001181l-5.9e-4 5.91e-4 5.9e-4 5.91e-4v5.91e-4h5.91e-4v5.91e-4l5.91e-4 5.91e-4c0.02409 0.01487 0.27431 0.01014 0.75406-0.01418 0.6108-0.03096 1.131-0.07388 1.1553-0.09514l0.001182-0.001182c3.12e-4 -4.22e-4 2.91e-4 -7.32e-4 5.91e-4 -0.0012l5.91e-4 -5.91e-4c8.9e-5 -2.15e-4 5.31e-4 -0.0016 5.91e-4 -0.0018v-5.91e-4h5.91e-4c-2.3e-5 -2.05e-4 -5.39e-4 -0.0015-5.91e-4 -0.0018v-5.91e-4l-5.91e-4 -5.91e-4v-5.91e-4l-0.001182-0.001182c-0.02588-0.02051-0.21457-0.02688-0.46508-0.02127 0.22877-0.01914 0.45081-0.03925 0.66719-0.06087v0.003546c1.24e-4 2.55e-4 4.57e-4 0.0015 5.91e-4 0.0018l5.91e-4 5.91e-4c0.01389 0.01358 0.09564 0.02305 0.22692 0.02305 0.07635 0 0.13583-3e-3 0.17492-0.0083 0.01303-0.0017 0.02411-0.0031 0.0325-0.0053 0.0042-0.0011 0.0077-0.0023 0.01064-0.0035 0.0015-5.98e-4 0.0029-0.0017 0.0041-0.0024 0.0014-6.99e-4 0.0033-0.0017 0.0041-0.0024l0.001182-0.001182v-0.001182l5.91e-4 -5.91e-4v-5.91e-4l5.91e-4 -5.91e-4v-0.001182l-5.91e-4 -5.91e-4v-0.001182l-5.91e-4 -5.91e-4v-5.9e-4c-2.1e-4 -3.04e-4 -0.0015-0.0015-0.0018-0.0018-3.07e-4 -3.03e-4 -8.32e-4 -9.07e-4 -0.0012-0.0012h-5.91e-4l-5.91e-4 -5.91e-4c-0.0065-0.0045-0.01874-0.0098-0.03782-0.01477-0.02573-0.0067-0.05614-0.01144-0.08805-0.01477 0.5003-0.05451 0.9632-0.11612 1.3811-0.18379-0.29703 0.06105-0.49256 0.116-0.50467 0.13828l-5.91e-4 5.91e-4v5.91e-4l-5.91e-4 5.91e-4 5.91e-4 5.91e-4v0.001182l5.91e-4 5.91e-4 5.91e-4 5.9e-4 5.91e-4 5.91e-4c0.0042 0.0026 0.01473 0.0041 0.03014 0.0047 0.11634 0.0042 0.52014-0.05536 0.89825-0.13296 0.29836-0.06123 0.49526-0.1165 0.50763-0.13887l5.91e-4 -5.91e-4v-0.002364h-5.91e-4v-5.91e-4l-0.0024-0.0018c-0.0045-0.0024-0.01442-0.0041-0.02896-0.0047-0.03634-0.0013-0.1008 0.0038-0.18379 0.01359 0.95596-0.16566 1.9763-0.36174 2.8188-0.53954-0.06273 0.02138-0.09804 0.03672-0.10578 0.04668-1.98e-4 3.22e-4 -4.53e-4 8.71e-4 -5.91e-4 0.0012v5.91e-4l-5.91e-4 5.91e-4v0.002364l0.001182 0.001182v5.91e-4c2.56e-4 2.43e-4 0.0015 9.47e-4 0.0018 0.0012 0.01129 0.0068 0.04955 0.0095 0.11287 0.0095 0.11634 0 0.33088-0.03735 0.47631-0.08392 0.05234-0.01676 0.0921-0.03088 0.11996-0.04196 0.02786-0.01108 0.04388-0.0196 0.04787-0.026l5.91e-4 -5.91e-4v-5.91e-4l5.91e-4 -5.91e-4v-5.91e-4c1e-5 -1.79e-4 1.3e-5 -9.82e-4 0-0.0012v-5.91e-4l-5.91e-4 -5.91e-4v-5.91e-4l-5.91e-4 -5.91e-4 -5.91e-4 -5.9e-4c-0.0094-0.0075-0.04813-0.01064-0.11405-0.01064-0.01922 0-0.04121 0.0011-0.065 3e-3 0.14348-0.03173 0.27886-0.06215 0.4048-0.0916-0.02802 0.01232-0.04019 0.02395-0.03841 0.03309 0.0045 0.01367 0.04228 0.0231 0.11228 0.026 0.05574 0.0023 0.09953-3e-3 0.12469-0.013 0.0031-0.0013 0.0063-0.0027 0.0089-0.0041 0.0038-0.0021 7e-3 -0.0041 0.0095-0.0065l5.9e-4 -5.91e-4v-5.91e-4c3.36e-4 -4.37e-4 8.32e-4 -7.32e-4 0.0012-0.0012 0.0013-0.0017 0.0023-0.0035 3e-3 -0.0053 1.66e-4 -4.51e-4 4.67e-4 -0.0013 5.91e-4 -0.0018v-0.001181l5.91e-4 -5.91e-4v-5.91e-4c5.1e-4 -0.0061-0.0024-0.01296-0.0095-0.02009-0.02104-0.02106-0.06214-0.03045-0.10814-0.02837 0.17394-0.04146 0.32665-0.07995 0.45385-0.11464-0.03983 0.02695-0.06095 0.0463-0.06205 0.05732-5e-6 2.43e-4 -1.6e-5 8.82e-4 0 0.0012v5.91e-4c5.8e-5 2.19e-4 5.12e-4 0.0015 5.91e-4 0.0018v0.001182l0.0012 5.91e-4c0.0048 0.0044 0.0169 0.0068 0.03605 0.0059 0.01179-5.78e-4 0.02692-0.0021 0.04432-0.0047 0.03479-0.0051 0.08035-0.01422 0.13828-0.02718 0.23267-0.05204 0.35601-0.09463 0.35989-0.11996 2.5e-5 -6.99e-4 6.42e-4 -0.0026 5.91e-4 -0.0035h-5.91e-4c-2.78e-4 -5.79e-4 -7.82e-4 -0.0024-0.0012-3e-3 -0.01009-0.01091-0.05103-0.01793-0.12292-0.01891 0.28988-0.08018 0.55114-0.15401 0.77947-0.21983-0.0035 0.0021-0.0067 0.0049-0.01005 0.0071-0.06344 0.04099-0.08793 0.06864-0.08214 0.08273l0.001182 0.001182c2.13e-4 2.68e-4 9.4e-4 0.0015 0.0012 0.0018 0.0076 0.0069 0.02599 9e-3 0.05319 0.0059 0.06002-0.0068 0.16354-0.03695 0.29075-0.0916 0.03468-0.0149 0.0619-0.02867 0.08155-0.04018 0.0442-0.02592 0.05054-0.04302 0.01832-0.05141-0.0036-9.32e-4 -0.0079-0.0023-0.01241-3e-3 -0.0091-0.0014-0.02025-0.0018-0.03309-0.0024 0.35685-0.10584 0.59538-0.18337 0.6861-0.22338 0.0267-0.01178 0.06091-0.02542 0.10046-0.04018-0.04413 0.01866-0.07751 0.03718-0.09514 0.05378-0.14171 0.13344 0.02787 0.10801 0.4704-0.07091l0.37053-0.14951-0.37053 0.06264c-0.08414 0.01434-0.16934 0.03507-0.24466 0.05791 0.11232-0.03812 0.2398-0.07735 0.35044-0.10755 0.11581-0.03162 0.35448-0.10821 0.63232-0.20092-0.08428 0.03275-0.16133 0.06889-0.20861 0.0981-0.03839 0.02372-0.06035 0.0409-0.06382 0.05023v0.002955l5.91e-4 5.91e-4v5.91e-4h5.91e-4v5.91e-4l0.001182 0.001182h5.91e-4c0.0042 0.0019 0.0123 0.0026 0.02305 0.0018 0.02678-0.0021 0.0741-0.01229 0.14301-0.03073 0.10907-0.02918 0.24321-0.07936 0.34039-0.12528 0.03239-0.01531 0.06092-0.02966 0.08273-0.04314 0.03715-0.02295 0.05821-0.04015 0.06264-0.04964 1.11e-4 -3.01e-4 5.16e-4 -8.96e-4 5.91e-4 -0.0012l5.91e-4 -5.91e-4v-0.001773l-5.91e-4 -5.91e-4v-5.91e-4l-5.91e-4 -5.91e-4v-5.91e-4h-5.91e-4l-5.91e-4 -5.91e-4c-0.01134-0.0079-0.06674 0.0014-0.16724 0.02837-0.0048 0.0013-0.0092 0.0028-0.01418 0.0041 0.15321-0.05202 0.31182-0.107 0.4639-0.16074 0.08486-0.02999 0.16882-0.05864 0.25056-0.08628-0.03467 0.02788-0.05031 0.05069-0.04314 0.06323 0.0041 6e-3 0.01502 0.01064 0.03073 0.01064 0.0073 0 0.01524-0.0016 0.02423-3e-3 9e-3 -0.0014 0.01861-0.0027 0.02896-0.0053 0.0621-0.01562 0.14552-0.05226 0.21097-0.09455 0.01273-0.0082 0.02371-0.01655 0.03368-0.02423 0.02991-0.02303 0.04721-0.04323 0.05023-0.05732 0.11486-0.03613 0.21705-0.06635 0.29843-0.08864-0.04341 0.03623-0.065 0.09634-0.065 0.18024 0 0.90032-1.2131 3.9174-2.1712 5.4001-0.61744 0.9555-1.6826 2.3421-1.8331 2.3922-0.0024 8.08e-4 -0.0052 0.0017-0.0071 0.0018h-5.91e-4l-5.9e-4 -5.91e-4c-0.0012-1.31e-4 -0.0024-1.57e-4 -0.0035-5.91e-4 -0.03901-0.01647-0.44015-0.44602-0.89116-0.95498s-0.89593-0.92543-0.98866-0.92543c-0.09274 0-1.2434 0.33736-2.5571 0.74992-1.3136 0.41256-2.9353 0.91722-3.6042 1.1216-0.66898 0.2044-1.2599 0.4123-1.3125 0.46153-0.05558 0.05207 0.18347 0.64543 0.57086 1.4189 0.48326 0.96493 0.63294 1.2294 0.75346 1.2245 0.0046-1.88e-4 0.0091-7.64e-4 0.01359-0.0018 0.02284-0.0048 0.04483-0.01858 0.06855-0.039 0.0373-0.03211 0.17839-0.12408 0.38826-0.25411-0.20058 0.12489-0.33256 0.21177-0.36344 0.24052-0.01252 0.01165-0.02341 0.02327-0.0325 0.03546-0.0045 0.0061-0.0088 0.01253-0.01241 0.01891-0.03278 0.05749-0.02817 0.12849 0.02482 0.25234 0.02355 0.05504 0.05614 0.12064 0.09987 0.19974-0.01519-0.01667-0.02815-0.02781-0.03841-0.0325-8.55e-4 -3.9e-4 -0.0022-9.19e-4 -3e-3 -0.0012-0.0024-8.88e-4 -0.0045-0.0018-0.0065-0.0018-0.02908 0-2e-3 0.09522 0.06028 0.21156 0.06227 0.11634 0.13696 0.21215 0.16606 0.21215 0.0017 0 0.0035-6.06e-4 0.0047-0.0012l5.91e-4 -5.91e-4h5.91e-4l5.91e-4 -5.91e-4v-5.91e-4c3.39e-4 -3.58e-4 8.32e-4 -7.82e-4 0.0012-0.0012 0.0013-0.0016 0.0024-0.0033 3e-3 -0.0059 8e-5 -3.25e-4 5.41e-4 -0.0014 5.91e-4 -0.0018 6.7e-5 -6.75e-4 -8.5e-5 -0.0016 0-0.0024 0.0017-0.01512-0.0039-0.04188-0.01596-0.07564 0.04035 0.06815 0.08162 0.13915 0.12233 0.20979-0.0054-0.0046-0.01029-0.0088-0.01477-0.01123-0.0034-0.0018-0.0068-0.0025-0.0095-3e-3 -4.56e-4 -7.8e-5 -0.0013-4.82e-4 -0.0018-5.91e-4h-5.91e-4c-0.0023 0-0.0049 0.0012-0.0065 0.0024-2.92e-4 2.69e-4 -0.0015 0.0015-0.0018 0.0018-0.01341 0.01988 0.01407 0.10623 0.06855 0.20802 0.06227 0.11634 0.13696 0.21097 0.16606 0.21097 7e-4 0 0.0022 7.8e-5 3e-3 0 3.26e-4 -6.8e-5 9.07e-4 -4.89e-4 0.0012-5.91e-4h5.91e-4l5.91e-4 -5.91e-4h5.91e-4v-5.91e-4l5.9e-4 -5.91e-4h5.91e-4l5.91e-4 -5.91e-4c0.0011-0.0015 0.0024-0.0036 3e-3 -0.0059 2.05e-4 -7.72e-4 4.42e-4 -0.0021 5.91e-4 -3e-3 1e-3 -6e-3 4.27e-4 -0.01427-0.0012-0.02423 0.03419 0.06233 0.06545 0.12056 0.09219 0.17138-0.02121 0.0054-0.04908 0.02112-0.08333 0.04787-0.07272 0.0568-0.44758 0.18074-0.83324 0.27538-1.9488 0.47819-4.2697 0.61726-6.1453 0.36757l-0.94789-0.12646 0.06737-0.4249c0.03167-0.19727 0.0372-0.34309 0.01596-0.36166v-5.91e-4h-5.91e-4c-2.05e-4 -1.29e-4 -1e-3 -4.85e-4 -0.0012-5.91e-4h-5.91e-4l-5.91e-4 -5.91e-4c-2.24e-4 -3.9e-5 -8.82e-4 1.7e-5 -0.0012 0h-5.91e-4c-1.19e-4 1.5e-5 -8.49e-4 1e-5 -0.0012 0h-0.001182c-0.0021 8.56e-4 -0.0048 3e-3 -0.0071 0.0053-0.0046 0.0046-0.0097 0.01428-0.01537 0.02955-0.0057 0.01527-0.01235 0.03613-0.01891 0.06087 0.01323-0.05924 0.02541-0.10364 0.03487-0.12705 0.055-0.13604-0.01361-0.18488-0.32857-0.23402 0.38052 0.04022 0.39575-0.03058 0.43199-0.1897 0.03119-0.13693 0.06944-0.55857 0.08451-0.93666l0.02718-0.68728-0.79306-0.11878c-0.43629-0.06516-1.3569-0.20306-2.0453-0.30611l-1.2516-0.18674-1.5235 1.5128-0.88288-0.60336c-3.3692-2.3048-5.6906-5.5614-6.8208-9.5681-0.09276-0.32887-0.16842-0.69773-0.16842-0.81965 0-0.04195-0.0057-0.07814-0.01655-0.10814-0.0027-0.0075-0.0055-0.01392-0.0089-0.02068-0.01009-0.02014-0.02286-0.03787-0.039-0.05141zm25.835 1.9815c-0.02907 2e-3 -0.05942 0.0086-0.08805 0.02009-0.08438 0.03375-0.05939 0.05931 0.06382 0.06441 0.06271 0.0026 0.10992-0.0045 0.13296-0.01714 0.0038-0.0021 0.0064-0.0047 0.0089-0.0071 0.0016-0.0016 0.0031-0.0029 0.0041-0.0047 2.49e-4 -4.36e-4 3.83e-4 -7.72e-4 5.91e-4 -0.0012l5.91e-4 -5.91e-4c8.2e-5 -2.82e-4 -8.3e-5 -9.32e-4 0-0.0012 1.67e-4 -4.5e-4 4.67e-4 -7.82e-4 5.91e-4 -0.0012 0.0019-0.0069-0.0013-0.01481-0.0095-0.02305-0.02197-0.02199-0.0656-0.03163-0.11405-0.02837zm-0.54486 0.11524c-0.11634-0.0013-0.44901 0.0588-0.73987 0.13356-0.21362 0.0549-0.34763 0.10307-0.35753 0.12528v0.001182l-5.91e-4 5.91e-4v0.001182c6.5e-5 2.01e-4 4.97e-4 0.0016 5.91e-4 0.0018l5.91e-4 5.91e-4v5.9e-4l5.91e-4 5.91e-4c0.0048 0.0039 0.0175 0.0063 0.03841 0.0065 0.11634 0.0013 0.4502-0.05882 0.74106-0.13356 0.21362-0.0549 0.34763-0.10306 0.35753-0.12528v-0.001773l5.91e-4 -5.91e-4c-3.6e-5 -2.06e-4 -5.27e-4 -0.0016-5.91e-4 -0.0018v-5.91e-4l-0.001182-0.001182h-5.91e-4l-5.91e-4 -5.91e-4c-0.0053-0.0036-0.01841-0.0063-0.03841-0.0065zm-13.908 0.62461c-0.06709 2e-6 -0.13408 0.0062-0.18497 0.0195-0.02545 0.0066-0.03922 0.01372-0.04255 0.0195l-5.91e-4 5.91e-4v0.004137l0.0012 5.91e-4c1.82e-4 2.18e-4 9.65e-4 0.0016 0.0012 0.0018 0.01556 0.01327 0.0963 0.02246 0.22574 0.02246 0.0509 0 0.09457-0.0011 0.12942-0.0035 0.05309-0.0037 0.08704-0.011 0.09692-0.01891 2.78e-4 -2.67e-4 3.65e-4 -9.12e-4 5.91e-4 -0.0012l0.0012-5.91e-4v-5.91e-4l5.91e-4 -5.91e-4v-0.002955h-5.91e-4v-5.91e-4c-4.16e-4 -7.23e-4 -9.73e-4 -0.0022-0.0018-3e-3 -0.0052-0.0052-0.01911-0.01133-0.04137-0.01714-0.05074-0.01327-0.1175-0.01946-0.18438-0.0195zm-11.412 0.1241c0.04232 0.23202 0.10168 0.45828 0.15306 0.68728 0.05464 0.24354 0.0976 0.49101 0.16192 0.73101-0.04633-0.17091-0.10245-0.33726-0.14301-0.51058-0.06961-0.29745-0.11783-0.60407-0.17197-0.9077zm-7.456 0.82615c0.20118 0.45579 0.43915 0.89534 0.66128 1.3421-0.08144-0.16257-0.18647-0.30867-0.26475-0.47335-0.14328-0.30143-0.27468-0.58784-0.39653-0.8687zm53.804 0.05555c-0.81126 1.1274-1.6839 2.2062-2.6114 3.2325-2.7777 3.0736-6.0533 5.6726-9.6916 7.6682 3.6321-1.9952 6.9098-4.5914 9.6916-7.6682 0.92729-1.0256 1.7996-2.1048 2.6114-3.2325zm-41.978 0.82733c-2.64e-4 7.6e-5 -0.0015 0.0011-0.0018 0.0012h-5.9e-4l-5.91e-4 5.91e-4c-0.01464 0.01092-0.02423 0.06867-0.02423 0.16133 0 0.09345 0.01052 0.15226 0.02541 0.16251l5.91e-4 5.91e-4c2.72e-4 1.22e-4 0.0015 5e-4 0.0018 5.91e-4 2.78e-4 6e-5 0.0015-2.8e-5 0.0018 0h5.91e-4c2.86e-4 -3.4e-5 8.93e-4 6.6e-5 0.0012 0 7e-4 -1.57e-4 0.0022-0.0014 3e-3 -0.0018 0.0018-1e-3 4e-3 -0.0025 0.0059-0.0047 0.0043-0.0051 0.0084-0.01345 0.013-0.02482 0.01467-0.03635 0.02186-0.08445 0.02186-0.13237 0-0.01198-2.15e-4 -0.02366-0.0012-0.03546-0.0028-0.0354-0.0097-0.06905-0.02068-0.09632-0.0064-0.01591-0.0126-0.02581-0.01832-0.02955h-0.001773c-8e-4 -4.15e-4 -0.0022-0.0015-3e-3 -0.0018h-0.002364zm-3.4429 1.5637c0.21627 0.54313 0.45999 1.0733 0.73042 1.5891-0.27053-0.51597-0.51425-1.0462-0.73042-1.5891zm2.0069 3.6149c0.16018 0.2224 0.324 0.44221 0.49581 0.65655-0.03424-0.04212-0.07376-0.08112-0.10755-0.12351-0.13782-0.1729-0.26097-0.35405-0.38826-0.53304zm1.2499 1.5211c0.05641 0.06122 0.11342 0.12154 0.17079 0.18201-0.01712-0.01781-0.04236-0.03556-0.0591-0.05318-0.03954-0.0416-0.0732-0.08657-0.11169-0.12883zm7.0772 0.51472c0.94644 0.18213 1.4745 0.28257 1.7752 0.31439-0.0014-1.72e-4 -0.0027 2.15e-4 -0.0041 0-0.59336-0.09181-0.83923-0.13522-1.7711-0.31439zm10.383 1.4514c0.139 0.25622 0.31165 0.56968 0.48222 0.87343 0.2459 0.43789 0.45905 0.84023 0.55254 1.0407-0.10255-0.21773-0.35003-0.68153-0.63705-1.1902-0.14779-0.26192-0.28529-0.51259-0.39771-0.72392zm-15.264 0.06205c0.41179 0.31262 0.78494 0.56572 0.92011 0.62405 0.01448 0.0062 0.0267 0.0102 0.03546 0.01182-0.12256-0.01069-0.49217-0.26508-0.95557-0.63586zm16.349 1.9785 5.91e-4 5.91e-4v0.003546l-5.91e-4 5.91e-4c-5.79e-4 0.0043-0.0034 0.0085-0.0077 0.01359 0.0038-5e-3 0.0067-0.0093 0.0077-0.01359 3.6e-4 -0.0015 0-0.0033 0-0.0047zm-2.8118 0.94021c-0.26112 0.0626-0.50766 0.11568-0.72214 0.15424-0.3507 0.06306-0.79297 0.11132-1.2794 0.14478 0.48648-0.03347 0.92814-0.08232 1.2788-0.14538 0.21513-0.03868 0.46206-0.0912 0.72274-0.15365zm-15.062 0.40303c0.37411 0.18102 0.76131 0.33686 1.1453 0.49936-0.24784-0.10443-0.51411-0.16816-0.7576-0.28129-0.13488-0.06266-0.25404-0.15304-0.38766-0.21806zm22.783 0.78715c-0.75471 0.25336-1.4473 0.46403-1.9466 0.58504-0.48846 0.1184-0.97079 0.22791-1.4467 0.32916 1.1528-0.25413 2.2917-0.5599 3.3932-0.9142zm-19.487 0.51295c0.41634 0.13378 0.83184 0.26805 1.2575 0.38116-0.16759-0.04419-0.34374-0.05532-0.51058-0.10283-0.25735-0.07327-0.49329-0.19603-0.74696-0.27834zm10.33 1.218c-0.04152 0.0027-0.08916 0.01575-0.1306 0.01832-0.28622 0.0178-0.55751 0.0063-0.83974 0.01655 0.32406-0.01194 0.64147-0.01336 0.97034-0.03487zm-3.5676 0.02068c0.30817 0.01534 0.60745 0.04082 0.92366 0.04609-0.07449-0.0011-0.15343 0.0066-0.22752 0.0047-0.23674-0.0061-0.46188-0.03908-0.69614-0.05082z" filter="url(#a)"/><path d="m51.141 69.981c-1.6104-0.43041-2.5584-1.6857-2.5584-3.3879 0-1.3816 0.51805-2.2461 1.8597-3.1034 0.62582-0.39993 2.3659-0.42382 3.076-0.04223 0.62631 0.33657 1.3301 1.0415 1.6611 1.6636 0.35778 0.67264 0.35273 2.2691-0.0095 3.025-0.38248 0.79798-1.4882 1.7206-2.2068 1.8412-0.31907 0.05353-0.68927 0.12182-0.8227 0.15169-0.13342 0.02989-0.58311-0.03666-0.99934-0.14793zm31.6 0.0489c-1.7256-0.32409-2.9647-2.0645-2.7234-3.825 0.4737-3.4556 5.007-4.214 6.6011-1.1044 0.49499 0.96538 0.36441 2.5964-0.28144 3.5152-0.78101 1.1111-2.2128 1.6741-3.5966 1.4142z" fill="#eaca67" stroke-width="1.529"/><path d="m97.297 38.299c-0.31131-0.11338-1.1118-0.36134-1.7789-0.55102-0.66708-0.18968-1.3584-0.4051-1.5364-0.47871-0.4868-0.20143-3.7837-0.9886-5.8218-1.39-2.5255-0.4974-5.6977-0.93757-9.865-1.3689-2.607-0.26982-13.793-0.38147-17.303-0.1727-3.2509 0.19334-7.8174 0.66432-10.147 1.0465l-1.2525 0.2055 0.50664-0.90102c1.5463-2.75 4.8393-5.3497 7.5778-5.9823 0.83578-0.19309 5.3943-0.49674 7.4629-0.49714l1.3988-2.7e-4 0.26077-1.2532c0.39782-1.9118 1.4592-5.0633 2.206-6.5497 1.5814-3.1481 2.9887-5.0927 5.4291-7.5025 1.8212-1.7982 3.3232-2.8053 4.1836-2.8053 0.81389 0 1.6989 1.6758 1.6989 3.2167 0 1.5155-0.43386 2.2845-2.3363 4.1407-1.5722 1.5339-3.3238 3.6122-3.3238 3.9436 0 0.08408-0.05461 0.17712-0.1213 0.20676-0.1656 0.07359-0.96321 1.728-1.0986 2.2788-0.06031 0.24542-0.1744 0.4862-0.25349 0.53507-0.07912 0.04887-0.14379 0.2301-0.14379 0.40273 0 0.17262-0.06392 0.31386-0.14207 0.31386-0.07817 0-0.22537 0.52755-0.3272 1.1723-0.10184 0.64477-0.22718 1.3664-0.27854 1.6037l-0.09337 0.43131 7.9 0.06059c6.9318 0.05316 7.9892 0.09416 8.6279 0.33442 0.40025 0.1506 0.83688 0.27524 0.9703 0.27697 0.37844 0.0049 2.3359 1.056 3.2751 1.7587 1.0041 0.75123 2.0747 1.8644 2.9755 3.0939 0.66055 0.90157 1.3501 2.2469 1.3501 2.634 0 0.11659 0.06858 0.2811 0.15245 0.36559 0.13328 0.13431 0.52784 1.5698 0.44491 1.6186-0.01719 0.01009-0.28604-0.07429-0.59736-0.18768z" fill="#6fd284" stroke-width="1.529"/><path d="m51.141 69.981c-1.6104-0.43041-2.5584-1.6857-2.5584-3.3879 0-1.3816 0.51805-2.2461 1.8597-3.1034 0.62582-0.39993 2.3659-0.42382 3.076-0.04223 0.62631 0.33657 1.3301 1.0415 1.6611 1.6636 0.35778 0.67264 0.35273 2.2691-0.0095 3.025-0.38248 0.79798-1.4882 1.7206-2.2068 1.8412-0.31907 0.05353-0.68927 0.12182-0.8227 0.15169-0.13342 0.02989-0.58311-0.03666-0.99934-0.14793zm31.6 0.0489c-1.7256-0.32409-2.9647-2.0645-2.7234-3.825 0.4737-3.4556 5.007-4.214 6.6011-1.1044 0.49499 0.96538 0.36441 2.5964-0.28144 3.5152-0.78101 1.1111-2.2128 1.6741-3.5966 1.4142z" fill="#ffd86e" stroke-width="1.529"/><path d="m97.297 38.299c-0.31131-0.11338-1.1118-0.36134-1.7789-0.55102-0.66708-0.18968-1.3584-0.4051-1.5364-0.47871-0.4868-0.20143-3.7837-0.9886-5.8218-1.39-2.5255-0.4974-5.6977-0.93757-9.865-1.3689-2.607-0.26982-13.793-0.38147-17.303-0.1727-3.2509 0.19334-7.8174 0.66432-10.147 1.0465l-1.2525 0.2055 0.50664-0.90102c1.5463-2.75 4.8393-5.3497 7.5778-5.9823 0.83578-0.19309 5.3943-0.49674 7.4629-0.49714l1.3988-2.7e-4 0.26077-1.2532c0.39782-1.9118 1.4592-5.0633 2.206-6.5497 1.5814-3.1481 2.9887-5.0927 5.4291-7.5025 1.8212-1.7982 3.3232-2.8053 4.1836-2.8053 0.81389 0 1.6989 1.6758 1.6989 3.2167 0 1.5155-0.43386 2.2845-2.3363 4.1407-1.5722 1.5339-3.3238 3.6122-3.3238 3.9436 0 0.08408-0.05461 0.17712-0.1213 0.20676-0.1656 0.07359-0.96321 1.728-1.0986 2.2788-0.06031 0.24542-0.1744 0.4862-0.25349 0.53507-0.07912 0.04887-0.14379 0.2301-0.14379 0.40273 0 0.17262-0.06392 0.31386-0.14207 0.31386-0.07817 0-0.22537 0.52755-0.3272 1.1723-0.10184 0.64477-0.22718 1.3664-0.27854 1.6037l-0.09337 0.43131 7.9 0.06059c6.9318 0.05316 7.9892 0.09416 8.6279 0.33442 0.40025 0.1506 0.83688 0.27524 0.9703 0.27697 0.37844 0.0049 2.3359 1.056 3.2751 1.7587 1.0041 0.75123 2.0747 1.8644 2.9755 3.0939 0.66055 0.90157 1.3501 2.2469 1.3501 2.634 0 0.11659 0.06858 0.2811 0.15245 0.36559 0.13328 0.13431 0.52784 1.5698 0.44491 1.6186-0.01719 0.01009-0.28604-0.07429-0.59736-0.18768z" fill="#3db47e" stroke-width="1.529"/><path d="m63.703 115.13c-11.509-1.1328-21.422-6.8125-28.128-16.114-5.3479-7.4188-7.8456-16.38-7.2337-25.948 0.21713-3.3937 0.49456-5.4544 1.0695-7.9438 1.3033-5.6436 3.66-10.489 7.1035-14.605 1.3689-1.636 3.9567-4.1617 5.3443-5.216l0.95771-0.72764 1.306 0.0407c4.3014 0.13405 8.9555 1.6448 13.516 4.3873 1.5126 0.90964 2.0026 0.99862 2.6586 0.48266 0.67704-0.53252 0.79403-1.0201 0.43454-1.8119-0.44939-0.98988-2.9279-3.985-4.2657-5.1548-2.2039-1.927-2.3852-2.1374-2.3852-2.7669 0-1.0374 0.43363-1.3258 3.3152-2.2049 2.4032-0.7332 6.4563-1.7045 8.733-2.0927 2.385-0.40674 4.3358-0.67618 5.9836-0.82652 0.97837-0.08924 2.1817-0.24095 2.6739-0.33713 0.92636-0.181 2.4233-0.08854 6.7863 0.4192 4.5171 0.52563 9.2037 1.4613 12.897 2.575 0.46696 0.14079 1.2063 0.35683 1.643 0.48007 0.43669 0.12324 1.298 0.47616 1.9139 0.78429 0.61592 0.30811 1.332 0.61164 1.5914 0.67447 0.75406 0.18276 5.3684 2.4045 6.3169 3.0414 0.36867 0.24762 0.70919 0.45021 0.75675 0.45021 0.11467 0 2.7247 1.7928 4.0122 2.7559 1.4312 1.0706 4.5467 4.1082 5.4389 5.303 0.2431 0.32554 0.56936 0.73302 0.72503 0.90548 0.15566 0.17247 0.283 0.37659 0.283 0.45358 0 0.07698 0.21799 0.37252 0.4844 0.65674 0.26643 0.28422 0.48475 0.60771 0.48515 0.7189 4.1e-4 0.11117 0.0555 0.20213 0.12232 0.20213 0.0668 0 0.30159 0.34563 0.52163 0.7681 0.22002 0.42244 0.45262 0.80642 0.51684 0.85323 0.14954 0.10909 1.7509 3.3197 1.7509 3.5105 0 0.07897 0.14556 0.4448 0.32345 0.81296 0.17788 0.36815 0.32342 0.76749 0.32342 0.8874 0 0.1199 0.0639 0.28715 0.14205 0.37164 0.44694 0.48324 1.6368 5.5315 1.6368 6.9445 0 1.0035-0.77936 4.7646-1.2901 6.2258-0.0777 0.22234-0.29884 0.94998-0.49141 1.617-0.5644 1.9548-2.3375 6.2484-3.5806 8.6704-6.8095 13.268-18.586 23.383-32.641 28.034-7.0791 2.3426-15.235 3.3631-21.751 2.7217zm8.4225-4.1695c1.8879-0.33943 5.4045-1.426 5.4045-1.6699 0-0.0809-0.41473-0.88574-0.92164-1.7884-0.5069-0.90268-1.0266-1.8595-1.1549-2.1263-0.12829-0.2668-0.48684-0.90994-0.79678-1.4292-0.47396-0.79401-0.52815-0.977-0.34099-1.1512 0.23146-0.21547 4.1918-2.5589 5.8826-3.4809 0.53367-0.29101 1.0795-0.61121 1.2129-0.71163 0.13343-0.10041 0.59093-0.36388 1.0167-0.58553 0.66904-0.3483 0.79537-0.37011 0.93076-0.16059 0.08615 0.13335 0.81389 1.3521 1.6173 2.7084s1.4861 2.4659 1.5172 2.4659c0.13649 0 1.8978-2.3009 2.6033-3.4008 2.3851-3.7185 3.7359-7.9163 4.0179-12.486 0.0625-1.0129 0.03315-1.2532-0.15308-1.2532-0.12673 0-0.86701 0.22496-1.6451 0.4999-0.77808 0.27496-1.6694 0.56945-1.9807 0.65443-0.3113 0.08501-0.71157 0.21872-0.88944 0.29718-0.28429 0.1254-1.5164 0.48972-3.3152 0.9803-1.4065 0.38359-4.8763 1.0767-7.6005 1.5183-2.2422 0.36342-5.3223 0.60764-8.8137 0.69879-2.8808 0.07523-4.1107 0.0095-8.733-0.46853-3.0599-0.31629-2.8508-0.36184-3.0778 0.67062-0.10756 0.48915-0.35985 1.7798-0.56063 2.8681-0.34094 1.8481-0.38771 1.9739-0.70822 1.9058-0.18873-0.04018-1.18-0.22441-2.2029-0.4095-2.3616-0.42734-3.886-0.75777-3.994-0.86576-0.04639-0.04645 0.03862-0.76163 0.18899-1.5894 0.81389-4.4804 0.81487-4.4964 0.26491-4.4964-0.29935 0-2.2877-0.56781-2.8478-0.8132-0.17789-0.07798-0.57814-0.21126-0.88944-0.29624-0.31131-0.08501-1.2026-0.37948-1.9807-0.65443-0.77808-0.27495-1.5184-0.49991-1.6451-0.49991-0.18623 0-0.21558 0.24028-0.15308 1.2532 0.38535 6.2454 2.7733 11.803 6.9666 16.214 1.5694 1.6509 4.2455 3.8774 4.6604 3.8774 0.25596 0 0.29638-0.12753 0.64043-2.0213 0.36934-2.0329 0.47144-2.2448 1.0169-2.1106 0.242 0.0596 0.98583 0.21044 1.6529 0.33526 0.66708 0.12481 1.8314 0.34597 2.5875 0.49146 1.501 0.28887 1.8732 0.35514 2.7997 0.4985 0.4881 0.0755 0.59426 0.15041 0.50971 0.35951-0.05875 0.14526-0.17614 0.80514-0.2609 1.4664-0.08475 0.66127-0.29704 1.9275-0.47176 2.8138-0.17472 0.88629-0.29591 1.6332-0.26933 1.6598 0.02658 0.0266 0.62808 0.15318 1.3367 0.28132 2.0107 0.36362 6.4233 0.33828 8.5784-0.0493zm-23.213-33.393c2.1288-0.17388 5.0154-1.6169 6.8499-3.4242 1.1497-1.1327 2.4201-3.1019 2.6963-4.1793 0.0912-0.35574 0.24246-0.84315 0.33614-1.0831 0.09368-0.24 0.17015-1.2223 0.16993-2.183-3.06e-4 -1.3623-0.07736-1.9748-0.35014-2.7834-1.3828-4.0992-4.5475-6.9146-8.9806-7.9884-1.3298-0.32226-4.8521-0.24494-6.0644 0.13313-2.6904 0.83899-4.4339 2.5073-5.491 5.254-1.1362 2.9524-1.1317 7.7464 0.01025 10.828 0.43023 1.1613 1.6149 2.9273 2.4337 3.6282 1.1603 0.99306 2.9097 1.6978 4.6642 1.8789 1.0286 0.10615 1.5818 0.09413 3.7258-0.08102zm43.05-0.26248c4.1003-1.1854 6.2906-4.8611 6.2955-10.565 0.0047-5.7264-2.1616-9.3794-6.3346-10.681-1.2073-0.37649-4.732-0.45518-6.0644-0.13538-5.9957 1.4391-9.9824 6.5583-9.2966 11.938 0.5311 4.1661 3.4263 7.5459 7.8944 9.2162 1.9923 0.74475 5.3607 0.84645 7.5051 0.22649zm-8.844-24.445c2.0202-1.1914 3.2466-1.8129 4.8854-2.476 1.7239-0.69745 5.3589-1.6227 6.9526-1.7697 1.8467-0.17037 2.765-1.048 2.3198-2.2171-0.20544-0.53959-1.5147-1.4057-3.0345-2.0074-0.99555-0.39414-1.3138-0.4384-3.2075-0.44602-1.6467-0.0066-2.2951 0.05714-2.9918 0.2943-2.0972 0.71389-3.3197 1.5952-5.3498 3.8569-2.9021 3.2329-3.398 4.5882-1.9638 5.3665 0.66568 0.3612 0.82563 0.32095 2.3895-0.60139z" fill="#fea44c" stroke-width="1.529"/><path d="m38.295 37.98c0.13209-0.87713 0.98112-2.9 1.6172-3.8531 1.1545-1.7301 3.6079-3.9004 5.2876-4.6776 2.0855-0.96495 2.883-1.0544 9.2385-1.036 3.6428 0.01055 5.3679 0.06203 4.6089 0.13755-3.243 0.32271-6.8737 2.8872-8.7092 6.1513l-0.50618 0.90023-2.3057 0.45321c-2.9518 0.58019-7.5803 1.8237-9.0496 2.4313-0.23934 0.09897-0.26299 0.03301-0.1817-0.50688zm24.148-9.6986c0.36461-0.16035 0.40378-0.06474 0.41002-0.68936 0.01361-1.3621 0.69978-4.1854 1.5522-6.3872 1.4736-3.8058 3.2001-6.422 6.2491-9.4686 2.5197-2.5178 3.3152-2.9862 5.0546-2.9758 0.82906 0.00503 1.3276 0.10241 1.8629 0.36409 0.76769 0.37532 2.2609 1.697 2.2609 2.0012 0 0.09784-0.15084-0.01392-0.33518-0.24819-0.18605-0.2365-0.49834-0.42606-0.70192-0.42606-1.7183 0-6.0562 4.1459-8.3749 8.0043-1.5582 2.5928-2.8374 5.867-3.4587 8.8532l-0.18493 0.91414h-1.7425c-0.95832 0-1.988 0.03709-2.2883 0.08244-0.30019 0.04534-0.43664 0.03443-0.30322-0.02425z" fill="#0ca15e" stroke-width="1.529"/><path d="m71.033 34.107c-10.854-0.28137-21.857 0.86147-29.394 3.0521-2.5854 0.75148-3.7945 1.1587-4.5166 1.5214-0.31765 0.15954-0.86846 0.38186-1.2242 0.49404-0.85747 0.27037-1.7 0.64867-4.1239 1.8526-3.9022 1.9385-6.8431 4.0067-9.7588 6.8633-3.082 3.0195-4.6222 5.0675-6.6396 8.8297-0.93186 1.7378-2.1283 4.9338-2.757 7.3646-0.49522 1.9149-0.54841 2.1687-0.73124 3.4696-0.1 0.71144-0.25239 1.6994-0.33849 2.1958-0.63282 3.648-0.37028 12.046 0.51006 16.319 0.0824 0.40018 0.22455 1.164 0.31575 1.6976 0.0912 0.53366 0.34 1.5887 0.55296 2.3446 0.21296 0.756 0.4403 1.6655 0.5054 2.0211 0.24767 1.3537 3.2974 6.7208 5.7884 10.187 2.9564 4.1131 7.1764 8.6162 10.613 11.323 0.66708 0.52535 1.3034 1.0429 1.4139 1.1504 0.45548 0.44265 3.9727 2.837 5.7652 3.9244 1.9109 1.1594 5.9561 3.2623 6.7269 3.497 0.22162 0.0675 0.84018 0.32181 1.3746 0.56535 0.84867 0.38674 2.2187 0.89875 4.5296 1.6924 1.208 0.41491 4.1986 1.1906 5.822 1.5105 2.9532 0.582 3.8471 0.72063 6.4623 1.001l-5.1e-4 2e-3c5.7198 0.61323 11.711 0.27355 18.379-1.0413 2.8947-0.57088 7.9182-2.1484 10.171-3.1942 0.40028-0.18583 1.0067-0.43681 1.3478-0.5576 1.0975-0.38844 4.7424-2.298 6.9191-3.6252 1.8212-1.1104 5.3951-3.5584 5.6406-3.8634 0.0445-0.0553 0.59014-0.49899 1.2124-0.98601 3.41-2.6689 7.7331-7.2761 10.694-11.396 2.4408-3.3962 5.412-8.5996 5.7249-10.025 0.0781-0.35576 0.29698-1.229 0.4868-1.9405 0.38751-1.4526 0.83759-3.651 1.1912-5.8215 0.81289-4.9901 0.29804-11.078-0.54873-17.892-0.0931-0.74996-0.17101-1.1305-0.21291-1.1369h-5.2e-4c-7e-4 1.05e-4 -2e-3 3.93e-4 -3e-3 5.16e-4l-5.1e-4 5.17e-4h-5.2e-4l-5.2e-4 5.17e-4h-5.1e-4l-5.2e-4 5.17e-4c-0.0355 0.03091-0.0394 0.38699 5e-3 1.0733 1.135 17.693-29.393 57.104-66.467 46.549-10.655-3.0338-19.606-9.9826-24.47-20.216-1.0846-2.2818-1.7127-4.0234-2.4392-6.7631-0.69502-2.6213-0.96445-4.3143-1.203-7.5672-0.29779-4.0593 0.12277-9.3368 1.0708-13.442 1.3032-5.644 3.66-10.489 7.1036-14.605 1.3688-1.636 3.9564-4.1615 5.344-5.2158l0.9581-0.72762 1.3059 0.04082c4.3017 0.13403 8.9556 1.6444 13.516 4.3869 1.5126 0.90965 2.0028 0.99862 2.6588 0.48267 0.67706-0.5325 0.79355-1.02 0.43409-1.8118-0.44937-0.98988-2.9276-3.985-4.2655-5.1549-2.2039-1.9271-2.3854-2.1373-2.3854-2.7668 0-1.0374 0.43407-1.3259 3.3156-2.2051 4.6532-1.4197 9.9925-2.465 15.256-2.9865 1.2757-0.12638 2.3503-0.25987 2.3875-0.29715 0.0373-0.0373-1.7711-0.11591-4.0179-0.17415zm20.012 9.8518c-1.6467-0.0066-2.295 0.05689-2.9916 0.29405-2.0972 0.71389-3.3195 1.5951-5.3497 3.8567-2.902 3.2329-3.398 4.5885-1.9638 5.3667 0.66562 0.36118 0.82561 0.32082 2.3896-0.60153 2.0203-1.1914 3.2468-1.8128 4.8856-2.4759 1.7238-0.69739 5.3585-1.6229 6.9522-1.77 1.8467-0.17033 2.7649-1.0478 2.3198-2.217-0.2055-0.53959-1.5147-1.4055-3.0345-2.0072-0.99554-0.39414-1.3139-0.43838-3.2076-0.44598zm-42.855 11.779c-1.4144-0.04411-3.8628 0.10493-4.6086 0.33694-4.2024 1.3073-6.3406 4.9128-6.3346 10.68 3e-3 3.1407 0.58442 5.3868 1.9079 7.3775 1.398 2.1027 3.3414 3.2406 6.0442 3.5384v5.16e-4c0.57815 0.06373 1.26 0.08705 1.5157 0.05219 0.25573-0.03486 0.72921-0.06885 1.0516-0.07545 0.21553-0.0045 0.33832-0.01183 0.34883-0.03617 8e-5 -2.4e-4 4.5e-4 -0.0014 5.1e-4 -0.0015v-5.17e-4c2e-5 -2.5e-4 1e-5 -0.0015 0-0.0015v-5.17e-4l-5.1e-4 -5.17e-4v-5.17e-4c-0.0111-0.03828-0.24691-0.11402-0.7638-0.26666-1.4169-0.4184-2.5408-1.0733-3.5167-2.049-1.8517-1.8518-2.8431-4.8667-2.8371-8.6266 6e-3 -3.7593 1.0012-6.6766 2.9234-8.5687 1.1929-1.1743 3.2064-2.131 4.5234-2.2144-0.0137-0.04406-0.0217-0.08943-0.0232-0.13436-0.0734-0.0038-0.1504-0.0068-0.231-0.0093zm39.137 0c-0.47147 0.0147-0.8281 0.05097-0.96844 0.11266-0.0226 0.0099-0.0429 0.01905-0.0605 0.02739 1.6e-4 0.02107-1e-3 0.04239-3e-3 0.06356 0.0547-0.0057 0.13476-0.01823 0.24134-0.03721 1.2361-0.22008 3.6896 0.84241 5.0603 2.1917 1.9135 1.8836 2.926 4.8773 2.926 8.6493 0 5.6934-2.3778 9.5942-6.4685 10.613l-0.88782 0.22066v5.17e-4l0.80721 0.09095 5.1e-4 -5.17e-4c2.7959 0.31413 6.0623-0.71899 7.5201-2.3792 1.913-2.1782 2.7731-4.8233 2.7761-8.5356 5e-3 -5.7262-2.1637-9.3822-6.3346-10.68-0.7458-0.23201-3.1942-0.38105-4.6086-0.33694zm-35.749 0.91418 0.0915 0.05529c0.023 0.01384 0.0458 0.027 0.0682 0.03979 4e-3 -0.02486 7e-3 -0.04937 0.0109-0.0739-0.0568-0.0071-0.11366-0.01428-0.17054-0.02119zm41.314 29.255c-0.2079 0-0.3111 0.1124-0.3111 0.33901 0 1.3763-1.8548 5.9895-3.3198 8.2565-0.97452 1.5081-2.6785 3.7187-2.8206 3.6588-0.0596-0.0252-0.67265-0.68275-1.3622-1.4609s-1.3698-1.4149-1.5116-1.4149-1.9014 0.51647-3.9099 1.1472c-2.0085 0.63077-4.4886 1.4021-5.5114 1.7147-1.0229 0.31252-1.9257 0.63008-2.0061 0.7054-0.085 0.0796 0.28001 0.9873 0.87232 2.1699 0.90944 1.8163 1.0458 2.009 1.278 1.8092 0.27707-0.23847 4.302-2.6187 5.9202-3.5012 0.53371-0.29101 1.0794-0.6112 1.2129-0.7116 0.13343-0.10038 0.59074-0.36384 1.0165-0.58551 0.66903-0.3483 0.79535-0.37024 0.93071-0.16071 0.0862 0.13335 0.81414 1.3522 1.6175 2.7084 0.80332 1.3563 1.4862 2.4661 1.5172 2.4661 0.13648 0 1.8976-2.301 2.603-3.4009 2.3851-3.7189 3.736-7.9165 4.0179-12.486 0.0713-1.1554 0.0531-1.2532-0.23358-1.2532zm-50.537 0.38242c-5e-3 0.18649 9e-3 0.4627 0.0341 0.87025 0.46758 7.5783 4.0569 14.407 9.9805 18.986v-5.1e-4c0.787 0.60841 1.5283 1.1064 1.647 1.1064 0.25597 0 0.29624-0.12792 0.64029-2.0216 0.36935-2.033 0.47153-2.2448 1.017-2.1105 0.24204 0.0596 0.98609 0.21057 1.6532 0.33539 0.66708 0.1248 1.8315 0.34595 2.5875 0.49145 3.3722 0.64896 3.368 0.64884 3.4681 0.2093 0.0477-0.20938 0.10568-0.8539 0.12868-1.432l0.0419-1.0511-1.2129-0.18087c-0.66708-0.0996-2.0745-0.31012-3.127-0.46768l-1.9136-0.2863-1.1648 1.1566-1.1648 1.1571-1.3493-0.92296c-5.1517-3.5239-8.701-8.5032-10.429-14.629-0.0662-0.23488-0.1268-0.48287-0.1726-0.69972-0.36168-0.0973-0.58082-0.29575-0.66406-0.50954zm35.304 3.543c-0.0391 8e-3 -0.0779 0.0158-0.11679 0.0238-0.0664 0.0136-0.12973 0.0272-0.18914 0.0403 0.10708-2e-3 0.21439-4e-3 0.32143-7e-3 -5e-3 -0.0194-0.0106-0.0385-0.0155-0.0568zm-2.2728 15.358c-0.0341-9e-5 -0.0846 0.0256-0.15038 0.077-0.11117 0.0868-0.68471 0.27648-1.2744 0.42117-2.9797 0.73115-6.5284 0.94299-9.396 0.56122l-1.3772-0.18294c-0.0602 0.0606-0.1461 0.0589-0.20464-3e-3 -7e-3 0.0505-0.0132 0.10186-0.0196 0.15349-0.0858 0.69061-0.29866 1.9808-0.47337 2.8671-0.17473 0.88636-0.29584 1.6333-0.26924 1.6599s0.62781 0.15349 1.3364 0.28164l-5.2e-4 -5.1e-4c2.0103 0.36359 6.423 0.33845 8.5785-0.0491 1.9002-0.34164 5.4044-1.4267 5.4044-1.6733 0-0.0828-0.47298-0.98882-1.0511-2.0134-0.57814-1.0246-1.0511-1.9343-1.0511-2.0216 0-0.0516-0.0176-0.0774-0.0517-0.0775z" fill="#fd7d00" stroke-width="1.529"/><path d="m80.127 12.022c-0.2726 0.80756-0.88831 1.5597-2.1472 2.788-1.5722 1.5339-3.3234 3.6121-3.3234 3.9435 0 0.08408-0.054753 0.17707-0.12144 0.20671-0.1656 0.07359-0.96328 1.7282-1.0987 2.279-0.06031 0.24542-0.17465 0.48598-0.25374 0.53486-0.079124 0.04887-0.14366 0.22994-0.14366 0.40257 0 0.16723-0.060079 0.30528-0.13488 0.31368-0.0024 2.73e-4 -0.004835 5.16e-4 -0.007235 5.16e-4 -0.07817 0-0.22529 0.52728-0.32712 1.1721-0.10184 0.64477-0.22718 1.3668-0.27854 1.6041l-0.093536 0.43099 0.48887 0.003617c0.078362-0.33805 0.15906-0.56484 0.21033-0.56484 0.002442 0 0.004822-2.44e-4 0.007235-5.17e-4 0.074795-0.008447 0.13488-0.14646 0.13488-0.31368 0-0.17263 0.064544-0.3537 0.14366-0.40257 0.079092-0.048875 0.19343-0.28945 0.25374-0.53486 0.13539-0.55077 0.93307-2.2054 1.0987-2.279 0.066692-0.029641 0.12144-0.12263 0.12144-0.20671 0-0.33143 1.7512-2.4096 3.3234-3.9435 1.9024-1.8562 2.3363-2.6254 2.3363-4.1409 0-0.43388-0.070194-0.87817-0.18914-1.293zm-68.914 62.078c-0.082685 3.9855 0.23094 8.9837 0.84596 11.969 0.0824 0.40018 0.22455 1.164 0.31575 1.6976 0.0912 0.53366 0.33999 1.5887 0.55295 2.3446 0.21296 0.756 0.44031 1.6655 0.50541 2.0211 0.24767 1.3537 3.2974 6.7208 5.7884 10.187 2.9564 4.1131 7.1763 8.6162 10.613 11.323 0.66708 0.52535 1.3034 1.0429 1.4139 1.1504 0.45548 0.44265 3.9727 2.837 5.7652 3.9244 1.9109 1.1594 5.9561 3.2623 6.7269 3.497 0.22162 0.0675 0.84018 0.32181 1.3746 0.56535 0.84867 0.38674 2.2187 0.89874 4.5296 1.6924 1.208 0.41491 4.1986 1.1906 5.822 1.5105 2.9532 0.582 3.8471 0.72063 6.4623 1.001l-5.17e-4 0.00207c5.7198 0.61323 11.711 0.27354 18.379-1.0413 2.8947-0.57088 7.9182-2.1484 10.171-3.1942 0.40028-0.18583 1.0067-0.43681 1.3478-0.5576 1.0975-0.38844 4.7424-2.298 6.9191-3.6252 1.8212-1.1104 5.3951-3.5584 5.6406-3.8634 0.0445-0.0553 0.59014-0.49899 1.2124-0.98601 3.41-2.6689 7.7331-7.2761 10.694-11.396 2.4408-3.3962 5.412-8.5996 5.7249-10.025 0.0781-0.35576 0.29698-1.229 0.4868-1.9405 0.38751-1.4526 0.83758-3.651 1.1912-5.8215 0.35027-2.1502 0.45379-4.5042 0.39069-7.0323-0.04272 1.5409-0.16577 3.0057-0.39069 4.3864-0.35359 2.1705-0.80366 4.3689-1.1912 5.8215-0.18982 0.71152-0.4087 1.5847-0.4868 1.9405-0.31289 1.4259-3.2841 6.6293-5.7249 10.025-2.9606 4.1199-7.2837 8.7271-10.694 11.396-0.62222 0.48702-1.1679 0.93071-1.2124 0.98601-0.24553 0.30504-3.8194 2.753-5.6406 3.8634-2.1767 1.3272-5.8216 3.2368-6.9191 3.6252-0.34106 0.12079-0.94747 0.37177-1.3478 0.5576-2.2525 1.0458-7.276 2.6233-10.171 3.1942-6.6677 1.3148-12.659 1.6545-18.379 1.0413l5.17e-4 -0.00207c-2.6152-0.28037-3.5091-0.41899-6.4623-1.001-1.6234-0.31993-4.614-1.0956-5.822-1.5105-2.3108-0.7937-3.6809-1.3057-4.5296-1.6924-0.53445-0.24354-1.153-0.49785-1.3746-0.56535-0.77081-0.23475-4.816-2.3377-6.7269-3.497-1.7924-1.0874-5.3097-3.4818-5.7652-3.9244-0.11053-0.10741-0.74682-0.62499-1.4139-1.1503-3.4362-2.7064-7.6561-7.2095-10.613-11.323-2.4911-3.4665-5.5408-8.8335-5.7884-10.187-0.0651-0.3556-0.29245-1.2651-0.50541-2.0211-0.21296-0.75594-0.46175-1.811-0.55295-2.3446-0.0912-0.5336-0.23335-1.2974-0.31575-1.6976-0.48448-2.3517-0.78197-5.9523-0.84596-9.3232z" fill-rule="evenodd" opacity=".3" stroke-linejoin="bevel" stroke-miterlimit="16.8" stroke-width="4.9356" style="paint-order:stroke fill markers"/><path d="m75.709 8.7609c-1.7394-0.01045-2.5349 0.45777-5.0546 2.9756-3.049 3.0466-4.7753 5.6626-6.2489 9.4684-0.85246 2.2017-1.5388 5.0252-1.5524 6.3874-0.006248 0.62462-0.045191 0.52903-0.4098 0.68938-0.01412 0.006211-0.024873 0.011923-0.033074 0.017054-1.1131 0.058066-2.2768 0.13781-3.187 0.21911 0.002513-0.057184-1.7063-0.095473-4.7848-0.10439-6.3555-0.018396-7.153 0.071188-9.2384 1.0361-1.6797 0.7772-4.1331 2.9473-5.2877 4.6773-0.63609 0.95316-1.4854 2.976-1.6175 3.8531-0.013451 0.089334-0.024321 0.1657-0.031524 0.23048-0.49303 0.17594-0.85489 0.32629-1.1405 0.46975-0.31765 0.15954-0.86846 0.38186-1.2242 0.49404-0.85747 0.27037-1.7 0.64867-4.1239 1.8526-3.9022 1.9385-6.8431 4.0067-9.7588 6.8633-3.082 3.0195-4.6222 5.0675-6.6396 8.8297-0.93186 1.7378-2.1283 4.9338-2.757 7.3646-0.49522 1.9149-0.54841 2.1687-0.73124 3.4696-0.1 0.71144-0.25239 1.6994-0.33849 2.1958-0.28457 1.6405-0.38821 4.2412-0.3359 6.9956 0.03566-1.7194 0.14518-3.2502 0.3359-4.3497 0.0861-0.49635 0.23849-1.4843 0.33849-2.1958 0.18283-1.301 0.23602-1.5548 0.73124-3.4696 0.6287-2.4308 1.8251-5.6268 2.757-7.3646 2.0174-3.7621 3.5576-5.8102 6.6396-8.8297 2.9157-2.8567 5.8566-4.9249 9.7588-6.8633 2.4239-1.204 3.2664-1.5823 4.1239-1.8526 0.35578-0.11218 0.9066-0.3345 1.2242-0.49404 0.28564-0.14346 0.6475-0.29381 1.1405-0.46975 0.0072-0.064782 0.018074-0.14115 0.031524-0.23048 0.13209-0.87713 0.98142-2.8999 1.6175-3.8531 1.1545-1.7301 3.6079-3.9001 5.2877-4.6773 2.0855-0.96495 2.8829-1.0545 9.2384-1.0361 3.0785 0.008919 4.7873 0.047209 4.7848 0.10439 0.91018-0.081305 2.0739-0.16104 3.187-0.21911 0.0082-0.00513 0.018954-0.010854 0.033074-0.017054 0.36461-0.16035 0.4036-0.064763 0.4098-0.68938 0.01361-1.3621 0.69994-4.1856 1.5524-6.3874 1.4736-3.8058 3.1999-6.4218 6.2489-9.4684 2.5197-2.5178 3.3152-2.9861 5.0546-2.9756 0.82906 0.00503 1.3278 0.1022 1.863 0.36381 0.76769 0.37532 2.2609 1.6972 2.2609 2.0015 0 0.03251-0.016486 0.041577-0.045476 0.031007 0.1348 0.26027 0.25102 0.55407 0.34004 0.86457 0.13939-0.41287 0.18914-0.8402 0.18914-1.3529 0-0.75854-0.21432-1.5496-0.52918-2.1575 0.028991 0.010567 0.045476 0.001496 0.045476-0.031006 0-0.30423-1.4932-1.6262-2.2609-2.0015-0.53525-0.26168-1.0339-0.35878-1.863-0.36381zm-3.0226 19.586c-0.041099 0.17732-0.081244 0.38541-0.11628 0.60721-0.10184 0.64477-0.22718 1.3668-0.27854 1.6041l-0.093536 0.43099 7.9 0.060463c6.9318 0.05316 7.9894 0.094614 8.6281 0.33487 0.40025 0.1506 0.83708 0.27529 0.97051 0.27699 0.37844 0.0049 2.3356 1.0559 3.2748 1.7586 1.0041 0.75123 2.0749 1.8645 2.9756 3.0939 0.66055 0.90157 1.3498 2.2465 1.3498 2.6335 0 0.11659 0.068579 0.28139 0.15245 0.36588 0.13328 0.13431 0.52788 1.5697 0.44494 1.6185l-5.17e-4 5.16e-4h-5.17e-4 -5.16e-4c0.04591 0.022203 0.090682 0.04481 0.13436 0.066665 0.61592 0.30811 1.3323 0.61156 1.5917 0.67439 0.75406 0.18276 5.368 2.4049 6.3166 3.0417 0.36867 0.24762 0.70948 0.45011 0.75708 0.45011 0.11467 0 2.7247 1.7929 4.0122 2.756 1.4312 1.0706 4.5464 4.1079 5.4386 5.3026 0.2431 0.32554 0.56936 0.73293 0.72503 0.90539 0.15566 0.17247 0.2832 0.37674 0.2832 0.45373 0 0.07698 0.21781 0.3726 0.48422 0.65682 0.26643 0.28422 0.48485 0.60765 0.48525 0.71884 4.1e-4 0.11117 0.05568 0.20206 0.12248 0.20206s0.30139 0.34598 0.52143 0.76845c0.22002 0.42244 0.45257 0.80638 0.51677 0.8532 0.14954 0.10909 1.7508 3.3197 1.7508 3.5105 0 0.07897 0.14562 0.44474 0.32351 0.81289 0.17788 0.36815 0.3235 0.7674 0.3235 0.88731 0 0.1199 0.06401 0.28707 0.14211 0.37156 0.44694 0.48324 1.6366 5.5314 1.6366 6.9444 0 0.18219-0.02569 0.45541-0.07079 0.78912 0.36206 3.1308 0.62885 6.0928 0.69765 8.8483 0.09627-3.4742-0.21672-7.3355-0.69765-11.494 0.0451-0.33371 0.07079-0.60693 0.07079-0.78912 0-1.413-1.1897-6.4612-1.6366-6.9444-0.07815-0.084486-0.14211-0.25166-0.14211-0.37156 0-0.11991-0.14562-0.51915-0.3235-0.88731-0.17789-0.36815-0.32351-0.73392-0.32351-0.81289 0-0.1908-1.6013-3.4014-1.7508-3.5105-0.06422-0.046815-0.29675-0.43076-0.51677-0.8532-0.22004-0.42247-0.45463-0.76845-0.52143-0.76845-0.06682 0-0.12207-0.090887-0.12248-0.20206-4e-4 -0.11119-0.21882-0.43461-0.48525-0.71884-0.26641-0.28422-0.48422-0.57984-0.48422-0.65682 0-0.076989-0.12754-0.28126-0.2832-0.45373-0.15567-0.17247-0.48193-0.57985-0.72503-0.90539-0.89218-1.1947-4.0074-4.232-5.4386-5.3026-1.2876-0.96312-3.8976-2.756-4.0122-2.756-0.04756 0-0.38841-0.2025-0.75708-0.45011-0.94854-0.63688-5.5625-2.859-6.3166-3.0418-0.25934-0.062828-0.97575-0.36628-1.5917-0.67439-0.043683-0.021853-0.08845-0.044456-0.13436-0.066664h5.16e-4 5.17e-4l5.17e-4 -5.17e-4c6.48e-4 -3.82e-4 0.001994-0.001517 0.002584-0.002067 0.070997-0.080067-0.31581-1.4837-0.44753-1.6165-0.083867-0.08449-0.15245-0.24929-0.15245-0.36588 0-0.38704-0.68928-1.7319-1.3498-2.6335-0.90075-1.2295-1.9715-2.3427-2.9756-3.0939-0.9392-0.70264-2.8964-1.7537-3.2748-1.7586-0.13342-0.00173-0.57026-0.12639-0.97051-0.27699-0.63872-0.24026-1.6963-0.28171-8.6281-0.33487l-7.4116-0.056845z" fill="#fff" fill-rule="evenodd" opacity=".2" stroke-linejoin="bevel" stroke-miterlimit="16.8" stroke-width="4.9356" style="paint-order:stroke fill markers"/></svg>
