<?xml version="1.0" encoding="utf-8"?>
<svg xmlns="http://www.w3.org/2000/svg" viewBox="0 0 64 64">
  <path d="M 13.377 35.096 L 6.086 35.096 C 5.262 35.096 4.479 34.934 3.741 34.617 C 3.002 34.301 2.349 33.862 1.789 33.303 C 1.229 32.743 0.791 32.093 0.475 31.351 C 0.158 30.608 0 29.825 0 29.002 L 0 16.814 C 0 15.99 0.158 15.207 0.475 14.464 C 0.791 13.726 1.229 13.077 1.789 12.517 C 2.349 11.957 3.002 11.519 3.741 11.198 C 4.479 10.882 5.262 10.719 6.086 10.719 L 13.377 10.719 L 23.204 0.856 C 23.5 0.556 23.833 0.337 24.202 0.199 C 24.571 0.065 24.957 0 25.358 0 C 26.227 0 26.949 0.284 27.529 0.856 C 28.109 1.424 28.401 2.142 28.401 3.011 L 28.401 42.809 C 28.401 43.231 28.32 43.62 28.162 43.981 C 28.004 44.338 27.785 44.663 27.496 44.947 C 27.212 45.235 26.884 45.458 26.515 45.617 C 26.145 45.771 25.76 45.856 25.358 45.856 C 24.514 45.856 23.796 45.556 23.204 44.963 L 13.377 35.096 Z M 24.344 40.33 L 24.344 5.453 L 15.629 14.18 C 15.227 14.586 14.748 14.785 14.201 14.785 L 6.086 14.785 C 5.538 14.785 5.059 14.988 4.658 15.389 C 4.256 15.791 4.057 16.266 4.057 16.814 L 4.057 29.002 C 4.057 29.554 4.256 30.028 4.658 30.434 C 5.059 30.832 5.538 31.03 6.086 31.03 L 14.201 31.03 C 14.748 31.03 15.227 31.237 15.629 31.639 L 24.344 40.33 Z" style="fill: rgb(255, 255, 255);"/>
  <path d="M 50.717 25.817 L 41.417 35.112 C 40.991 35.542 40.484 35.757 39.896 35.757 C 39.311 35.757 38.804 35.542 38.374 35.112 C 37.948 34.686 37.733 34.179 37.733 33.591 C 37.733 33.006 37.948 32.499 38.374 32.069 L 47.674 22.774 L 38.374 13.474 C 37.948 13.044 37.733 12.537 37.733 11.953 C 37.733 11.369 37.948 10.861 38.374 10.431 C 38.804 10.001 39.311 9.79 39.896 9.79 C 40.484 9.79 40.991 10.001 41.417 10.431 L 50.717 19.694 L 60.016 10.431 C 60.442 10.001 60.949 9.79 61.537 9.79 C 62.122 9.79 62.629 10.001 63.059 10.431 C 63.485 10.861 63.7 11.369 63.7 11.953 C 63.7 12.537 63.485 13.044 63.059 13.474 L 53.792 22.774 L 63.059 32.069 C 63.485 32.499 63.7 33.006 63.7 33.591 C 63.7 34.179 63.485 34.686 63.059 35.112 C 62.629 35.542 62.122 35.757 61.537 35.757 C 60.949 35.757 60.442 35.542 60.016 35.112 L 50.717 25.817 Z" style="fill: rgb(255, 0, 0);"/>
</svg>