<?xml version="1.0" encoding="utf-8"?>
<svg xmlns="http://www.w3.org/2000/svg" viewBox="0 0 64 64">
  <path d="M 13.188 39.016 L 6 39.016 C 5.188 39.016 4.416 38.856 3.688 38.544 C 2.96 38.232 2.316 37.8 1.764 37.248 C 1.212 36.696 0.78 36.056 0.468 35.324 C 0.156 34.592 0 33.82 0 33.008 L 0 20.992 C 0 20.18 0.156 19.408 0.468 18.676 C 0.78 17.948 1.212 17.308 1.764 16.756 C 2.316 16.204 2.96 15.772 3.688 15.456 C 4.416 15.144 5.188 14.984 6 14.984 L 13.188 14.984 L 22.876 5.26 C 23.168 4.964 23.496 4.748 23.86 4.612 C 24.224 4.48 24.604 4.416 25 4.416 C 25.856 4.416 26.568 4.696 27.14 5.26 C 27.712 5.82 28 6.528 28 7.384 L 28 46.62 C 28 47.036 27.92 47.42 27.764 47.776 C 27.608 48.128 27.392 48.448 27.108 48.728 C 26.828 49.012 26.504 49.232 26.14 49.388 C 25.776 49.54 25.396 49.624 25 49.624 C 24.168 49.624 23.46 49.328 22.876 48.744 L 13.188 39.016 Z M 24 44.176 L 24 9.792 L 15.408 18.396 C 15.012 18.796 14.54 18.992 14 18.992 L 6 18.992 C 5.46 18.992 4.988 19.192 4.592 19.588 C 4.196 19.984 4 20.452 4 20.992 L 4 33.008 C 4 33.552 4.196 34.02 4.592 34.42 C 4.988 34.812 5.46 35.008 6 35.008 L 14 35.008 C 14.54 35.008 15.012 35.212 15.408 35.608 L 24 44.176 Z" style="fill: rgb(255, 255, 255);"/>
  <path d="M 50.517 29.917 L 41.217 39.212 C 40.791 39.642 40.284 39.857 39.696 39.857 C 39.111 39.857 38.604 39.642 38.174 39.212 C 37.748 38.786 37.533 38.279 37.533 37.691 C 37.533 37.106 37.748 36.599 38.174 36.169 L 47.474 26.874 L 38.174 17.574 C 37.748 17.144 37.533 16.637 37.533 16.053 C 37.533 15.469 37.748 14.961 38.174 14.531 C 38.604 14.101 39.111 13.89 39.696 13.89 C 40.284 13.89 40.791 14.101 41.217 14.531 L 50.517 23.794 L 59.816 14.531 C 60.242 14.101 60.749 13.89 61.337 13.89 C 61.922 13.89 62.429 14.101 62.859 14.531 C 63.285 14.961 63.5 15.469 63.5 16.053 C 63.5 16.637 63.285 17.144 62.859 17.574 L 53.592 26.874 L 62.859 36.169 C 63.285 36.599 63.5 37.106 63.5 37.691 C 63.5 38.279 63.285 38.786 62.859 39.212 C 62.429 39.642 61.922 39.857 61.337 39.857 C 60.749 39.857 60.242 39.642 59.816 39.212 L 50.517 29.917 Z" style="fill: rgb(255, 0, 0);"/>
</svg>