<?xml version="1.0" encoding="utf-8"?>
<svg xmlns="http://www.w3.org/2000/svg" width="22" height="22" version="1.1">
  <defs>
    <style id="current-color-scheme" type="text/css">
   .ColorScheme-Text { color:#eeeeec; } .ColorScheme-Highlight { color:#367bf0; } .ColorScheme-NeutralText { color:#ffcc44; } .ColorScheme-PositiveText { color:#3db47e; } .ColorScheme-NegativeText { color:#dd4747; }
  </style>
  </defs>
  <path d="M 18 11 C 18 11.538 17.94 12.063 17.819 12.576 C 17.698 13.088 17.526 13.576 17.303 14.039 C 17.079 14.501 16.807 14.935 16.486 15.341 C 16.165 15.746 15.805 16.112 15.406 16.438 C 15.007 16.764 14.572 17.044 14.1 17.279 C 13.628 17.514 13.131 17.692 12.606 17.815 C 12.702 17.597 12.75 17.367 12.75 17.125 L 12.75 15.478 C 12.887 15.181 13.005 14.878 13.105 14.568 C 13.206 14.258 13.29 13.944 13.358 13.625 L 12.75 13.625 L 12.75 12.75 L 13.509 12.75 C 13.545 12.458 13.574 12.168 13.594 11.878 C 13.615 11.589 13.625 11.296 13.625 11 C 13.625 10.704 13.615 10.411 13.594 10.122 C 13.574 9.832 13.545 9.542 13.509 9.25 L 8.484 9.25 C 8.448 9.551 8.421 9.842 8.402 10.125 L 7.527 10.125 C 7.536 9.979 7.547 9.833 7.558 9.688 C 7.569 9.542 7.587 9.396 7.609 9.25 L 5.128 9.25 C 5.087 9.396 5.049 9.542 5.015 9.688 C 4.981 9.833 4.955 9.979 4.937 10.125 C 4.772 10.125 4.618 10.142 4.472 10.176 C 4.326 10.21 4.18 10.266 4.034 10.344 C 4.089 9.747 4.215 9.175 4.414 8.628 C 4.612 8.081 4.869 7.573 5.186 7.104 C 5.503 6.634 5.871 6.208 6.29 5.825 C 6.709 5.442 7.167 5.117 7.664 4.848 C 8.161 4.579 8.691 4.37 9.253 4.222 C 9.816 4.074 10.398 4 11 4 C 11.643 4 12.262 4.083 12.859 4.25 C 13.456 4.416 14.014 4.652 14.531 4.957 C 15.048 5.262 15.52 5.628 15.946 6.054 C 16.372 6.48 16.738 6.952 17.043 7.469 C 17.348 7.986 17.584 8.544 17.75 9.141 C 17.917 9.738 18 10.357 18 11 Z M 13.358 8.375 C 13.322 8.206 13.27 8.002 13.201 7.763 C 13.133 7.524 13.049 7.276 12.948 7.018 C 12.848 6.761 12.732 6.503 12.6 6.246 C 12.467 5.988 12.319 5.758 12.155 5.555 C 11.991 5.352 11.813 5.188 11.622 5.063 C 11.431 4.938 11.223 4.875 11 4.875 C 10.777 4.875 10.569 4.938 10.378 5.063 C 10.187 5.188 10.009 5.352 9.845 5.555 C 9.681 5.758 9.533 5.988 9.4 6.246 C 9.268 6.503 9.152 6.761 9.052 7.018 C 8.951 7.276 8.867 7.524 8.799 7.763 C 8.73 8.002 8.678 8.206 8.642 8.375 L 13.358 8.375 Z M 7.746 8.375 C 7.801 8.102 7.866 7.825 7.941 7.544 C 8.016 7.264 8.105 6.988 8.208 6.717 C 8.31 6.446 8.429 6.182 8.563 5.924 C 8.697 5.667 8.847 5.426 9.011 5.203 C 8.619 5.335 8.247 5.506 7.896 5.716 C 7.546 5.925 7.219 6.165 6.916 6.434 C 6.612 6.702 6.339 7.001 6.095 7.329 C 5.851 7.657 5.641 8.006 5.463 8.375 L 7.746 8.375 Z M 16.53 8.375 C 16.357 8.006 16.147 7.658 15.901 7.333 C 15.655 7.007 15.381 6.708 15.078 6.437 C 14.775 6.166 14.448 5.927 14.097 5.719 C 13.746 5.512 13.377 5.342 12.989 5.21 C 13.158 5.433 13.308 5.673 13.44 5.928 C 13.573 6.183 13.69 6.447 13.792 6.721 C 13.895 6.994 13.984 7.271 14.059 7.551 C 14.134 7.832 14.199 8.106 14.254 8.375 L 16.53 8.375 Z M 14.391 9.25 C 14.432 9.542 14.46 9.832 14.476 10.122 C 14.492 10.411 14.5 10.704 14.5 11 C 14.5 11.296 14.492 11.589 14.476 11.878 C 14.46 12.168 14.432 12.458 14.391 12.75 L 16.872 12.75 C 17.041 12.189 17.125 11.606 17.125 11 C 17.125 10.394 17.041 9.811 16.872 9.25 L 14.391 9.25 Z M 11 11 C 11.118 11 11.231 11.023 11.338 11.068 C 11.445 11.114 11.539 11.177 11.619 11.256 C 11.698 11.336 11.761 11.43 11.807 11.537 C 11.852 11.644 11.875 11.757 11.875 11.875 L 11.875 15.375 C 11.875 15.493 11.852 15.606 11.807 15.713 C 11.761 15.82 11.698 15.914 11.619 15.994 C 11.539 16.073 11.445 16.136 11.338 16.182 C 11.231 16.227 11.118 16.25 11 16.25 L 9.25 16.25 L 9.25 17.125 L 9.489 17.125 C 9.567 17.125 9.643 17.13 9.718 17.139 C 9.793 17.148 9.862 17.167 9.923 17.197 C 9.985 17.226 10.034 17.27 10.07 17.327 C 10.107 17.384 10.125 17.462 10.125 17.563 C 10.125 17.681 10.082 17.784 9.995 17.87 C 9.909 17.957 9.806 18 9.688 18 L 6.188 18 C 6.069 18 5.966 17.957 5.88 17.87 C 5.793 17.784 5.75 17.681 5.75 17.563 C 5.75 17.462 5.768 17.384 5.805 17.327 C 5.841 17.27 5.89 17.226 5.952 17.197 C 6.013 17.167 6.082 17.148 6.157 17.139 C 6.232 17.13 6.308 17.125 6.386 17.125 L 6.625 17.125 L 6.625 16.25 L 4.875 16.25 C 4.757 16.25 4.644 16.227 4.537 16.182 C 4.43 16.136 4.336 16.073 4.256 15.994 C 4.177 15.914 4.114 15.82 4.068 15.713 C 4.023 15.606 4 15.493 4 15.375 L 4 11.875 C 4 11.757 4.023 11.644 4.068 11.537 C 4.114 11.43 4.177 11.336 4.256 11.256 C 4.336 11.177 4.43 11.114 4.537 11.068 C 4.644 11.023 4.757 11 4.875 11 L 11 11 Z M 16.53 13.625 L 14.254 13.625 C 14.199 13.898 14.134 14.175 14.059 14.456 C 13.984 14.736 13.895 15.012 13.792 15.283 C 13.69 15.554 13.571 15.818 13.437 16.076 C 13.303 16.333 13.153 16.574 12.989 16.797 C 13.377 16.665 13.746 16.494 14.097 16.284 C 14.448 16.075 14.775 15.835 15.078 15.566 C 15.381 15.298 15.654 14.999 15.898 14.671 C 16.142 14.343 16.353 13.994 16.53 13.625 Z" style="fill: rgb(255, 255, 255);"/>
</svg>