<svg width="512" height="512" version="1.1" viewBox="0 0 135.47 135.47" xmlns="http://www.w3.org/2000/svg"><g><circle cx="67.651" cy="75.038" r="12.519" opacity=".3" style="paint-order:stroke fill markers"/><path d="m67.734 13.494c-4.4732 0-8.2156 3.7419-8.2156 8.2151v1.804l-0.81416 0.15004c-20.354 3.7392-36.378 19.946-39.837 40.395l-0.12738 0.75172h-2.3216c-4.4732 0-8.2151 3.7424-8.2151 8.2156s3.7419 8.2151 8.2151 8.2151h2.5462l0.18076 0.8922c3.9876 19.724 19.719 35.208 39.559 38.853l0.81416 0.15054v3.2043c0 4.4732 3.7424 8.2156 8.2156 8.2156s8.2151-3.7424 8.2151-8.2156v-3.2309l0.82976-0.15608c19.755-3.7061 35.402-19.157 39.378-38.821l0.18076-0.8922h2.7118c4.4732 0 8.2151-3.7419 8.2151-8.2151s-3.7419-8.2156-8.2151-8.2156h-2.4873l-0.12738-0.75172c-3.4494-20.387-19.387-36.56-39.656-40.362l-0.82976-0.15608v-1.8307c0-4.4732-3.7419-8.2151-8.2151-8.2151zm-7.9356 28.424c0.68192 3.8267 3.9391 6.8642 7.9356 6.8642 3.9818 0 7.2282-3.0154 7.9276-6.8219 11.239 2.9392 19.973 11.879 22.588 23.248-3.5402 0.90968-6.2761 4.0266-6.2761 7.8158 0 3.6703 2.5639 6.7223 5.9393 7.7448-2.9962 10.822-11.595 19.253-22.523 22.004-1.1484-3.1651-4.1372-5.5073-7.6557-5.5073-3.532 0-6.5272 2.3617-7.6652 5.5455-10.992-2.7069-19.652-11.151-22.67-22.01 3.4508-0.97244 6.0933-4.0528 6.0933-7.7775 0-3.8441-2.8159-6.9928-6.4322-7.846 2.636-11.409 11.433-20.367 22.739-23.261z" color="#000000" opacity=".3" stroke-linecap="square" stroke-width=".97433" style="-inkscape-stroke:none;paint-order:stroke fill markers"/><path d="m67.733 12.714c-2.0518 0-3.7037 1.6519-3.7037 3.7037v18.859c0 2.0518 1.6519 3.7037 3.7037 3.7037s3.7037-1.6519 3.7037-3.7037v-18.859c0-2.0518-1.6519-3.7037-3.7037-3.7037zm-8.2146 10.095c-18.487 3.3961-33.061 18.137-36.203 36.71h9.1677c2.884-13.652 13.473-24.395 27.035-27.512zm16.429 0.0292v9.2075c13.483 3.1663 23.999 13.878 26.872 27.474h9.1677c-3.1331-18.518-17.63-33.228-36.039-36.681zm-59.53 41.192c-2.0518 0-3.7037 1.6519-3.7037 3.7037s1.6519 3.7037 3.7037 3.7037h18.859c2.0518 0 3.7037-1.6519 3.7037-3.7037s-1.6519-3.7037-3.7037-3.7037zm83.773 0c-2.0518 0-3.7037 1.6519-3.7037 3.7037s1.6519 3.7037 3.7037 3.7037h18.859c2.0518 0 3.7037-1.6519 3.7037-3.7037s-1.6519-3.7037-3.7037-3.7037zm-76.623 11.918c3.6212 17.912 17.931 32 35.952 35.31v-9.1989c-13.095-3.0101-23.421-13.128-26.713-26.111zm78.93 0c-3.2785 12.928-13.533 23.016-26.549 26.073v9.2075c17.943-3.3661 32.178-17.424 35.788-35.281zm-34.763 20.539c-2.0518 0-3.7037 1.6519-3.7037 3.7037v18.859c0 2.0518 1.6519 3.7037 3.7037 3.7037s3.7037-1.6519 3.7037-3.7037v-18.859c0-2.0518-1.6519-3.7037-3.7037-3.7037z" color="#000000" stroke="#fff" stroke-linecap="square" stroke-width="9.0227" style="paint-order:stroke fill markers"/><circle cx="67.651" cy="69.746" r="12.519" fill="#d41919" style="paint-order:stroke fill markers"/></g></svg>
